%TF.GenerationSoftware,KiCad,Pcbnew,9.0.1*%
%TF.CreationDate,2025-11-13T22:26:36+01:00*%
%TF.ProjectId,dise_o_v2,64697365-f16f-45f7-9632-2e6b69636164,rev?*%
%TF.SameCoordinates,Original*%
%TF.FileFunction,Copper,L1,Top*%
%TF.FilePolarity,Positive*%
%FSLAX46Y46*%
G04 Gerber Fmt 4.6, Leading zero omitted, Abs format (unit mm)*
G04 Created by KiCad (PCBNEW 9.0.1) date 2025-11-13 22:26:36*
%MOMM*%
%LPD*%
G01*
G04 APERTURE LIST*
G04 Aperture macros list*
%AMRoundRect*
0 Rectangle with rounded corners*
0 $1 Rounding radius*
0 $2 $3 $4 $5 $6 $7 $8 $9 X,Y pos of 4 corners*
0 Add a 4 corners polygon primitive as box body*
4,1,4,$2,$3,$4,$5,$6,$7,$8,$9,$2,$3,0*
0 Add four circle primitives for the rounded corners*
1,1,$1+$1,$2,$3*
1,1,$1+$1,$4,$5*
1,1,$1+$1,$6,$7*
1,1,$1+$1,$8,$9*
0 Add four rect primitives between the rounded corners*
20,1,$1+$1,$2,$3,$4,$5,0*
20,1,$1+$1,$4,$5,$6,$7,0*
20,1,$1+$1,$6,$7,$8,$9,0*
20,1,$1+$1,$8,$9,$2,$3,0*%
G04 Aperture macros list end*
%TA.AperFunction,SMDPad,CuDef*%
%ADD10RoundRect,0.250000X-0.262500X-0.450000X0.262500X-0.450000X0.262500X0.450000X-0.262500X0.450000X0*%
%TD*%
%TA.AperFunction,ComponentPad*%
%ADD11C,5.600000*%
%TD*%
%TA.AperFunction,SMDPad,CuDef*%
%ADD12RoundRect,0.250000X-0.475000X0.250000X-0.475000X-0.250000X0.475000X-0.250000X0.475000X0.250000X0*%
%TD*%
%TA.AperFunction,SMDPad,CuDef*%
%ADD13R,1.500000X0.900000*%
%TD*%
%TA.AperFunction,SMDPad,CuDef*%
%ADD14R,0.900000X1.500000*%
%TD*%
%TA.AperFunction,HeatsinkPad*%
%ADD15R,0.900000X0.900000*%
%TD*%
%TA.AperFunction,HeatsinkPad*%
%ADD16C,0.600000*%
%TD*%
%TA.AperFunction,SMDPad,CuDef*%
%ADD17RoundRect,0.250000X0.262500X0.450000X-0.262500X0.450000X-0.262500X-0.450000X0.262500X-0.450000X0*%
%TD*%
%TA.AperFunction,SMDPad,CuDef*%
%ADD18RoundRect,0.250000X0.475000X-0.250000X0.475000X0.250000X-0.475000X0.250000X-0.475000X-0.250000X0*%
%TD*%
%TA.AperFunction,ComponentPad*%
%ADD19RoundRect,0.250000X-0.350000X-0.625000X0.350000X-0.625000X0.350000X0.625000X-0.350000X0.625000X0*%
%TD*%
%TA.AperFunction,ComponentPad*%
%ADD20O,1.200000X1.750000*%
%TD*%
%TA.AperFunction,SMDPad,CuDef*%
%ADD21RoundRect,0.150000X0.825000X0.150000X-0.825000X0.150000X-0.825000X-0.150000X0.825000X-0.150000X0*%
%TD*%
%TA.AperFunction,HeatsinkPad*%
%ADD22C,0.500000*%
%TD*%
%TA.AperFunction,HeatsinkPad*%
%ADD23R,2.410000X3.300000*%
%TD*%
%TA.AperFunction,ComponentPad*%
%ADD24R,1.700000X1.700000*%
%TD*%
%TA.AperFunction,ComponentPad*%
%ADD25C,1.700000*%
%TD*%
%TA.AperFunction,SMDPad,CuDef*%
%ADD26RoundRect,0.150000X0.150000X-0.512500X0.150000X0.512500X-0.150000X0.512500X-0.150000X-0.512500X0*%
%TD*%
%TA.AperFunction,SMDPad,CuDef*%
%ADD27RoundRect,0.250000X-0.450000X0.262500X-0.450000X-0.262500X0.450000X-0.262500X0.450000X0.262500X0*%
%TD*%
%TA.AperFunction,SMDPad,CuDef*%
%ADD28RoundRect,0.250000X0.250000X0.475000X-0.250000X0.475000X-0.250000X-0.475000X0.250000X-0.475000X0*%
%TD*%
%TA.AperFunction,HeatsinkPad*%
%ADD29O,1.000000X1.700000*%
%TD*%
%TA.AperFunction,HeatsinkPad*%
%ADD30O,0.850000X1.700000*%
%TD*%
%TA.AperFunction,ComponentPad*%
%ADD31R,1.800000X1.800000*%
%TD*%
%TA.AperFunction,ComponentPad*%
%ADD32C,1.800000*%
%TD*%
%TA.AperFunction,ComponentPad*%
%ADD33R,1.508000X1.508000*%
%TD*%
%TA.AperFunction,ComponentPad*%
%ADD34C,1.508000*%
%TD*%
%TA.AperFunction,ComponentPad*%
%ADD35C,2.500000*%
%TD*%
%TA.AperFunction,ComponentPad*%
%ADD36R,2.500000X2.500000*%
%TD*%
%TA.AperFunction,ComponentPad*%
%ADD37R,1.308000X1.308000*%
%TD*%
%TA.AperFunction,ComponentPad*%
%ADD38C,1.308000*%
%TD*%
%TA.AperFunction,ComponentPad*%
%ADD39R,1.198000X1.198000*%
%TD*%
%TA.AperFunction,ComponentPad*%
%ADD40C,1.198000*%
%TD*%
%TA.AperFunction,ViaPad*%
%ADD41C,0.800000*%
%TD*%
%TA.AperFunction,Conductor*%
%ADD42C,0.203200*%
%TD*%
%TA.AperFunction,Conductor*%
%ADD43C,0.304800*%
%TD*%
G04 APERTURE END LIST*
D10*
%TO.P,R2,1*%
%TO.N,Net-(D3-K)*%
X45175000Y-46500000D03*
%TO.P,R2,2*%
%TO.N,STDBY_LED*%
X47000000Y-46500000D03*
%TD*%
D11*
%TO.P,REF\u002A\u002A,1*%
%TO.N,N/C*%
X47331758Y-87678711D03*
%TD*%
D12*
%TO.P,C6,1*%
%TO.N,5V*%
X59000000Y-78550000D03*
%TO.P,C6,2*%
%TO.N,GND*%
X59000000Y-80450000D03*
%TD*%
D13*
%TO.P,U1,1,GND*%
%TO.N,GND*%
X56160000Y-53360000D03*
%TO.P,U1,2,VDD*%
%TO.N,3.3V*%
X56160000Y-54630000D03*
%TO.P,U1,3,EN*%
%TO.N,EN*%
X56160000Y-55900000D03*
%TO.P,U1,4,SENSOR_VP*%
%TO.N,unconnected-(U1-SENSOR_VP-Pad4)*%
X56160000Y-57170000D03*
%TO.P,U1,5,SENSOR_VN*%
%TO.N,unconnected-(U1-SENSOR_VN-Pad5)*%
X56160000Y-58440000D03*
%TO.P,U1,6,IO34*%
%TO.N,SCL*%
X56160000Y-59710000D03*
%TO.P,U1,7,IO35*%
%TO.N,SDA*%
X56160000Y-60980000D03*
%TO.P,U1,8,IO32*%
%TO.N,unconnected-(U1-IO32-Pad8)*%
X56160000Y-62250000D03*
%TO.P,U1,9,IO33*%
%TO.N,unconnected-(U1-IO33-Pad9)*%
X56160000Y-63520000D03*
%TO.P,U1,10,IO25*%
%TO.N,INT*%
X56160000Y-64790000D03*
%TO.P,U1,11,IO26*%
%TO.N,BUTTON*%
X56160000Y-66060000D03*
%TO.P,U1,12,IO27*%
%TO.N,BUZZ+*%
X56160000Y-67330000D03*
%TO.P,U1,13,IO14*%
%TO.N,unconnected-(U1-IO14-Pad13)*%
X56160000Y-68600000D03*
%TO.P,U1,14,IO12*%
%TO.N,unconnected-(U1-IO12-Pad14)*%
X56160000Y-69870000D03*
D14*
%TO.P,U1,15,GND*%
%TO.N,GND*%
X59195000Y-71120000D03*
%TO.P,U1,16,IO13*%
%TO.N,unconnected-(U1-IO13-Pad16)*%
X60465000Y-71120000D03*
%TO.P,U1,17,NC*%
%TO.N,unconnected-(U1-NC-Pad17)*%
X61735000Y-71120000D03*
%TO.P,U1,18,NC*%
%TO.N,unconnected-(U1-NC-Pad18)*%
X63005000Y-71120000D03*
%TO.P,U1,19,NC*%
%TO.N,unconnected-(U1-NC-Pad19)*%
X64275000Y-71120000D03*
%TO.P,U1,20,NC*%
%TO.N,unconnected-(U1-NC-Pad20)*%
X65545000Y-71120000D03*
%TO.P,U1,21,NC*%
%TO.N,unconnected-(U1-NC-Pad21)*%
X66815000Y-71120000D03*
%TO.P,U1,22,NC*%
%TO.N,unconnected-(U1-NC-Pad22)*%
X68085000Y-71120000D03*
%TO.P,U1,23,IO15*%
%TO.N,unconnected-(U1-IO15-Pad23)*%
X69355000Y-71120000D03*
%TO.P,U1,24,IO2*%
%TO.N,unconnected-(U1-IO2-Pad24)*%
X70625000Y-71120000D03*
D13*
%TO.P,U1,25,IO0*%
%TO.N,unconnected-(U1-IO0-Pad25)*%
X73660000Y-69870000D03*
%TO.P,U1,26,IO4*%
%TO.N,unconnected-(U1-IO4-Pad26)*%
X73660000Y-68600000D03*
%TO.P,U1,27,IO16*%
%TO.N,unconnected-(U1-IO16-Pad27)*%
X73660000Y-67330000D03*
%TO.P,U1,28,IO17*%
%TO.N,unconnected-(U1-IO17-Pad28)*%
X73660000Y-66060000D03*
%TO.P,U1,29,IO5*%
%TO.N,unconnected-(U1-IO5-Pad29)*%
X73660000Y-64790000D03*
%TO.P,U1,30,IO18*%
%TO.N,unconnected-(U1-IO18-Pad30)*%
X73660000Y-63520000D03*
%TO.P,U1,31,IO19*%
%TO.N,unconnected-(U1-IO19-Pad31)*%
X73660000Y-62250000D03*
%TO.P,U1,32,NC*%
%TO.N,unconnected-(U1-NC-Pad32)*%
X73660000Y-60980000D03*
%TO.P,U1,33,IO21*%
%TO.N,unconnected-(U1-IO21-Pad33)*%
X73660000Y-59710000D03*
%TO.P,U1,34,RXD0/IO3*%
%TO.N,RXD0*%
X73660000Y-58440000D03*
%TO.P,U1,35,TXD0/IO1*%
%TO.N,TXD0*%
X73660000Y-57170000D03*
%TO.P,U1,36,IO22*%
%TO.N,unconnected-(U1-IO22-Pad36)*%
X73660000Y-55900000D03*
%TO.P,U1,37,IO23*%
%TO.N,AD0*%
X73660000Y-54630000D03*
%TO.P,U1,38,GND*%
%TO.N,GND*%
X73660000Y-53360000D03*
D15*
%TO.P,U1,39,GND*%
X62010000Y-59680000D03*
D16*
X62010000Y-60380000D03*
D15*
X62010000Y-61080000D03*
D16*
X62010000Y-61780000D03*
D15*
X62010000Y-62480000D03*
D16*
X62710000Y-59680000D03*
X62710000Y-61080000D03*
X62710000Y-62480000D03*
D15*
X63410000Y-59680000D03*
D16*
X63410000Y-60380000D03*
D15*
X63410000Y-61080000D03*
D16*
X63410000Y-61780000D03*
D15*
X63410000Y-62480000D03*
D16*
X64110000Y-59680000D03*
X64110000Y-61080000D03*
X64110000Y-62480000D03*
D15*
X64810000Y-59680000D03*
D16*
X64810000Y-60380000D03*
D15*
X64810000Y-61080000D03*
D16*
X64810000Y-61780000D03*
D15*
X64810000Y-62480000D03*
%TD*%
D17*
%TO.P,R9,1*%
%TO.N,3.3V*%
X47000000Y-55000000D03*
%TO.P,R9,2*%
%TO.N,Net-(D1-A)*%
X45175000Y-55000000D03*
%TD*%
D12*
%TO.P,C11,1*%
%TO.N,EN*%
X76000000Y-36500000D03*
%TO.P,C11,2*%
%TO.N,GND*%
X76000000Y-38400000D03*
%TD*%
D18*
%TO.P,C1,1*%
%TO.N,Net-(U2-EN)*%
X49000000Y-80500000D03*
%TO.P,C1,2*%
%TO.N,GND*%
X49000000Y-78600000D03*
%TD*%
D12*
%TO.P,C2,1*%
%TO.N,3.3V*%
X56000000Y-78600000D03*
%TO.P,C2,2*%
%TO.N,GND*%
X56000000Y-80500000D03*
%TD*%
D19*
%TO.P,J2,1,Pin_1*%
%TO.N,B+*%
X66040000Y-84568000D03*
D20*
%TO.P,J2,2,Pin_2*%
%TO.N,GND*%
X68040000Y-84568000D03*
%TD*%
D21*
%TO.P,U3,1,TEMP*%
%TO.N,GND*%
X66675000Y-79305000D03*
%TO.P,U3,2,PROG*%
%TO.N,Net-(U3-PROG)*%
X66675000Y-78035000D03*
%TO.P,U3,3,GND*%
%TO.N,GND*%
X66675000Y-76765000D03*
%TO.P,U3,4,V_{CC}*%
%TO.N,5V*%
X66675000Y-75495000D03*
%TO.P,U3,5,BAT*%
%TO.N,B+_CHRG*%
X61725000Y-75495000D03*
%TO.P,U3,6,~{STDBY}*%
%TO.N,STDBY_LED*%
X61725000Y-76765000D03*
%TO.P,U3,7,~{CHRG}*%
%TO.N,CHRG_LED*%
X61725000Y-78035000D03*
%TO.P,U3,8,CE*%
%TO.N,5V*%
X61725000Y-79305000D03*
D22*
%TO.P,U3,9,EPAD*%
%TO.N,GND*%
X64900000Y-78600000D03*
X64900000Y-77400000D03*
X64900000Y-76200000D03*
D23*
X64200000Y-77400000D03*
D22*
X63500000Y-78600000D03*
X63500000Y-77400000D03*
X63500000Y-76200000D03*
%TD*%
D11*
%TO.P,REF\u002A\u002A,1*%
%TO.N,N/C*%
X83917682Y-34436394D03*
%TD*%
D24*
%TO.P,J6,1,Pin_1*%
%TO.N,INT*%
X91212100Y-34681100D03*
D25*
%TO.P,J6,2,Pin_2*%
%TO.N,AD0*%
X91212100Y-37221100D03*
%TO.P,J6,3,Pin_3*%
%TO.N,unconnected-(J6-Pin_3-Pad3)*%
X91212100Y-39761100D03*
%TO.P,J6,4,Pin_4*%
%TO.N,unconnected-(J6-Pin_4-Pad4)*%
X91212100Y-42301100D03*
%TO.P,J6,5,Pin_5*%
%TO.N,SDA*%
X91212100Y-44841100D03*
%TO.P,J6,6,Pin_6*%
%TO.N,SCL*%
X91212100Y-47381100D03*
%TO.P,J6,7,Pin_7*%
%TO.N,GND*%
X91212100Y-49921100D03*
%TO.P,J6,8,Pin_8*%
%TO.N,3.3V*%
X91212100Y-52461100D03*
%TD*%
D26*
%TO.P,U2,1,VIN*%
%TO.N,Net-(U2-EN)*%
X51600000Y-81000000D03*
%TO.P,U2,2,GND*%
%TO.N,GND*%
X52550000Y-81000000D03*
%TO.P,U2,3,EN*%
%TO.N,Net-(U2-EN)*%
X53500000Y-81000000D03*
%TO.P,U2,4,NC*%
%TO.N,unconnected-(U2-NC-Pad4)*%
X53500000Y-78725000D03*
%TO.P,U2,5,VOUT*%
%TO.N,3.3V*%
X51600000Y-78725000D03*
%TD*%
D17*
%TO.P,R1,1*%
%TO.N,Net-(D2-K)*%
X47000000Y-38000000D03*
%TO.P,R1,2*%
%TO.N,CHRG_LED*%
X45175000Y-38000000D03*
%TD*%
D12*
%TO.P,C12,1*%
%TO.N,BUTTON*%
X63000000Y-36500000D03*
%TO.P,C12,2*%
%TO.N,GND*%
X63000000Y-38400000D03*
%TD*%
D27*
%TO.P,R3,1*%
%TO.N,GND*%
X70076800Y-76915000D03*
%TO.P,R3,2*%
%TO.N,Net-(U3-PROG)*%
X70076800Y-78740000D03*
%TD*%
D28*
%TO.P,C13,1*%
%TO.N,B+_CHRG*%
X58950000Y-75500000D03*
%TO.P,C13,2*%
%TO.N,GND*%
X57050000Y-75500000D03*
%TD*%
%TO.P,C14,1*%
%TO.N,3.3V*%
X83180000Y-88900000D03*
%TO.P,C14,2*%
%TO.N,GND*%
X81280000Y-88900000D03*
%TD*%
D29*
%TO.P,J1,6,Shield*%
%TO.N,GND*%
X58622299Y-90017066D03*
D30*
X52972299Y-90017066D03*
%TD*%
D31*
%TO.P,D1,1,K*%
%TO.N,GND*%
X48000000Y-51500000D03*
D32*
%TO.P,D1,2,A*%
%TO.N,Net-(D1-A)*%
X45460000Y-51500000D03*
%TD*%
D24*
%TO.P,J4,1,Pin_1*%
%TO.N,RXD0*%
X90000000Y-78740000D03*
D25*
%TO.P,J4,2,Pin_2*%
%TO.N,TXD0*%
X90000000Y-81280000D03*
%TO.P,J4,3,Pin_3*%
%TO.N,3.3V*%
X90000000Y-83820000D03*
%TO.P,J4,4,Pin_4*%
%TO.N,GND*%
X90000000Y-86360000D03*
%TD*%
D33*
%TO.P,S2,1*%
%TO.N,EN*%
X73500000Y-33500000D03*
D34*
%TO.P,S2,2*%
X67000000Y-33500000D03*
%TO.P,S2,3*%
%TO.N,GND*%
X73500000Y-38000000D03*
%TO.P,S2,4*%
X67000000Y-38000000D03*
%TD*%
D24*
%TO.P,J5,1,Pin_1*%
%TO.N,SDA*%
X73660000Y-78740000D03*
D25*
%TO.P,J5,2,Pin_2*%
%TO.N,SCL*%
X73660000Y-81280000D03*
%TO.P,J5,3,Pin_3*%
%TO.N,GND*%
X73660000Y-83820000D03*
%TO.P,J5,4,Pin_4*%
%TO.N,3.3V*%
X73660000Y-86360000D03*
%TD*%
D31*
%TO.P,D3,1,K*%
%TO.N,Net-(D3-K)*%
X45460000Y-43000000D03*
D32*
%TO.P,D3,2,A*%
%TO.N,5V*%
X48000000Y-43000000D03*
%TD*%
D35*
%TO.P,LS1,N*%
%TO.N,GND*%
X83820000Y-61120000D03*
D36*
%TO.P,LS1,P*%
%TO.N,BUZZ+*%
X83820000Y-71120000D03*
%TD*%
D31*
%TO.P,D2,1,K*%
%TO.N,Net-(D2-K)*%
X48000000Y-34500000D03*
D32*
%TO.P,D2,2,A*%
%TO.N,5V*%
X45460000Y-34500000D03*
%TD*%
D24*
%TO.P,J3,1,Pin_1*%
%TO.N,GND*%
X46500000Y-73500000D03*
D25*
%TO.P,J3,2,Pin_2*%
%TO.N,3.3V*%
X46500000Y-70960000D03*
%TO.P,J3,3,Pin_3*%
%TO.N,SCL*%
X46500000Y-68420000D03*
%TO.P,J3,4,Pin_4*%
%TO.N,SDA*%
X46500000Y-65880000D03*
%TD*%
D37*
%TO.P,S1,1*%
%TO.N,B+*%
X63960000Y-43000000D03*
D38*
%TO.P,S1,2*%
%TO.N,B+_CHRG*%
X61420000Y-43000000D03*
%TO.P,S1,3*%
%TO.N,Net-(U2-EN)*%
X66500000Y-43000000D03*
%TD*%
D33*
%TO.P,S3,1*%
%TO.N,BUTTON*%
X60500000Y-33500000D03*
D34*
%TO.P,S3,2*%
X54000000Y-33500000D03*
%TO.P,S3,3*%
%TO.N,GND*%
X60500000Y-38000000D03*
%TO.P,S3,4*%
X54000000Y-38000000D03*
%TD*%
D39*
%TO.P,U5,1,SCL/VZ*%
%TO.N,SCL*%
X79420000Y-81613700D03*
D40*
%TO.P,U5,2,SDA/PWM*%
%TO.N,SDA*%
X81960000Y-79073700D03*
%TO.P,U5,3,VDD*%
%TO.N,3.3V*%
X84500000Y-81613700D03*
%TO.P,U5,4,VSS*%
%TO.N,GND*%
X81960000Y-84153700D03*
%TD*%
D41*
%TO.N,Net-(U2-EN)*%
X43620700Y-47579200D03*
%TO.N,GND*%
X55644500Y-83937000D03*
X57318800Y-51500000D03*
X68300000Y-61974500D03*
%TO.N,3.3V*%
X44968000Y-66987300D03*
X51692500Y-62419700D03*
%TO.N,EN*%
X57829200Y-56262600D03*
%TO.N,5V*%
X61500000Y-83000000D03*
X67268000Y-47579200D03*
%TO.N,Net-(U4-CPOUT)*%
X65260600Y-57500000D03*
X68088500Y-52206300D03*
%TO.N,BUTTON*%
X60884400Y-66914600D03*
%TO.N,B+*%
X65664700Y-40949200D03*
%TO.N,SDA*%
X54480500Y-61238100D03*
%TO.N,SCL*%
X65301500Y-55266800D03*
X65531700Y-56476700D03*
%TO.N,BUZZ+*%
X57574200Y-69460600D03*
%TO.N,STDBY_LED*%
X60100200Y-75946500D03*
X48565600Y-69215300D03*
%TO.N,AD0*%
X79837100Y-62096700D03*
%TO.N,INT*%
X92197500Y-59045800D03*
X57786200Y-63798700D03*
%TD*%
D42*
%TO.N,Net-(U2-EN)*%
X43620700Y-75120700D02*
X43620700Y-47579200D01*
X52901700Y-81970000D02*
X52228900Y-81970000D01*
X52228900Y-81970000D02*
X51600000Y-81341100D01*
X49500000Y-81000000D02*
X49000000Y-80500000D01*
X51600000Y-81341100D02*
X51600000Y-81000000D01*
X53500000Y-81000000D02*
X53500000Y-81371700D01*
X53500000Y-81371700D02*
X52901700Y-81970000D01*
X51600000Y-81000000D02*
X49500000Y-81000000D01*
X49000000Y-80500000D02*
X43620700Y-75120700D01*
D43*
%TO.N,GND*%
X66675000Y-76765000D02*
X65465000Y-76765000D01*
X63000000Y-38400000D02*
X60900000Y-38400000D01*
X59195000Y-70591700D02*
X59195000Y-71120000D01*
X81280000Y-88900000D02*
X81280000Y-84833700D01*
X91212100Y-49921100D02*
X83820000Y-57313200D01*
X64810000Y-59680000D02*
X64810000Y-60380000D01*
X63500000Y-78600000D02*
X63500000Y-77400000D01*
X62010000Y-62480000D02*
X62010000Y-61780000D01*
X57525000Y-78975000D02*
X59000000Y-80450000D01*
X56000000Y-80500000D02*
X55644500Y-80500000D01*
X59195000Y-72176500D02*
X60058900Y-72176500D01*
X74716500Y-39216500D02*
X75183500Y-39216500D01*
X64110000Y-61080000D02*
X64110000Y-62480000D01*
X50262500Y-79862500D02*
X51809000Y-79862500D01*
X59195000Y-70591700D02*
X59195000Y-70063500D01*
X52550000Y-80603500D02*
X52550000Y-81000000D01*
X60058900Y-72176500D02*
X63500000Y-75617600D01*
X59195000Y-71120000D02*
X59195000Y-72176500D01*
X57050000Y-75500000D02*
X57050000Y-78500000D01*
X55644500Y-80500000D02*
X55170700Y-80026200D01*
X62010000Y-60380000D02*
X62010000Y-61080000D01*
X53127300Y-80026200D02*
X52550000Y-80603500D01*
X68040000Y-84568000D02*
X68040000Y-80670000D01*
X65392900Y-77695600D02*
X65465000Y-77623500D01*
X64810000Y-61780000D02*
X64810000Y-62480000D01*
X75183500Y-39216500D02*
X76000000Y-38400000D01*
X46500000Y-73500000D02*
X46500000Y-74656500D01*
X64958200Y-40041800D02*
X64958200Y-54611100D01*
X65394400Y-78375900D02*
X65392900Y-78374400D01*
X57318800Y-51500000D02*
X57216500Y-51602300D01*
X65392900Y-78374400D02*
X65392900Y-77695600D01*
X55644500Y-80500000D02*
X55644500Y-83937000D01*
X56160000Y-53360000D02*
X57216500Y-53360000D01*
X55103500Y-39103500D02*
X54000000Y-38000000D01*
X65394400Y-78863100D02*
X65394400Y-78375900D01*
X63500000Y-76200000D02*
X63500000Y-77400000D01*
X65836300Y-79305000D02*
X65394400Y-78863100D01*
X68040000Y-80670000D02*
X66675000Y-79305000D01*
X63500000Y-75617600D02*
X63500000Y-76200000D01*
X64810000Y-61780000D02*
X64810000Y-61080000D01*
X57050000Y-78500000D02*
X57525000Y-78975000D01*
X56160000Y-53360000D02*
X55103500Y-53360000D01*
X81280000Y-84833700D02*
X81960000Y-84153700D01*
X63410000Y-59680000D02*
X63410000Y-60380000D01*
X59195000Y-70063500D02*
X62010000Y-67248500D01*
X63410000Y-62480000D02*
X63410000Y-61780000D01*
X64200000Y-77400000D02*
X64900000Y-77400000D01*
X64958200Y-54611100D02*
X64110000Y-55459300D01*
X64110000Y-55459300D02*
X64110000Y-59680000D01*
X49000000Y-78600000D02*
X50262500Y-79862500D01*
X67000000Y-38000000D02*
X64958200Y-40041800D01*
X55170700Y-80026200D02*
X53127300Y-80026200D01*
X73500000Y-38000000D02*
X74716500Y-39216500D01*
X62010000Y-61080000D02*
X62010000Y-61780000D01*
X64900000Y-77400000D02*
X64900000Y-76200000D01*
X66825000Y-76915000D02*
X66675000Y-76765000D01*
X68300000Y-61974500D02*
X68105500Y-61780000D01*
X83820000Y-57313200D02*
X83820000Y-61120000D01*
X73660000Y-53360000D02*
X74716500Y-53360000D01*
X68105500Y-61780000D02*
X64810000Y-61780000D01*
X65465000Y-76765000D02*
X64900000Y-76200000D01*
X56000000Y-80500000D02*
X57525000Y-78975000D01*
X60900000Y-38400000D02*
X60500000Y-38000000D01*
X46500000Y-76100000D02*
X49000000Y-78600000D01*
X62010000Y-59680000D02*
X62010000Y-60380000D01*
X62010000Y-67248500D02*
X62010000Y-62480000D01*
X51809000Y-79862500D02*
X52550000Y-80603500D01*
X70076800Y-76915000D02*
X66825000Y-76915000D01*
X57216500Y-51602300D02*
X57216500Y-53360000D01*
X64810000Y-61080000D02*
X64810000Y-60380000D01*
X46500000Y-74656500D02*
X46500000Y-76100000D01*
X55103500Y-53360000D02*
X55103500Y-39103500D01*
X64900000Y-78600000D02*
X64900000Y-77400000D01*
X74716500Y-39216500D02*
X74716500Y-53360000D01*
X66675000Y-79305000D02*
X65836300Y-79305000D01*
X65465000Y-77623500D02*
X65465000Y-76765000D01*
X63410000Y-60380000D02*
X63410000Y-61080000D01*
X62710000Y-59680000D02*
X62710000Y-61080000D01*
X63410000Y-61080000D02*
X63410000Y-61780000D01*
%TO.N,3.3V*%
X46500000Y-70960000D02*
X51599900Y-76059900D01*
X84500000Y-81613700D02*
X84500000Y-87580000D01*
X53363500Y-60748700D02*
X53363500Y-54630000D01*
X51599900Y-77728600D02*
X51600000Y-77728600D01*
X51600000Y-77728600D02*
X55128600Y-77728600D01*
X84500000Y-87580000D02*
X83180000Y-88900000D01*
X44968000Y-57032000D02*
X47000000Y-55000000D01*
X44968000Y-66987300D02*
X44968000Y-57032000D01*
X91212100Y-82607900D02*
X91212100Y-52461100D01*
X52993500Y-55000000D02*
X53363500Y-54630000D01*
X90000000Y-83820000D02*
X91212100Y-82607900D01*
X51692500Y-62419700D02*
X53363500Y-60748700D01*
X51599900Y-76059900D02*
X51599900Y-77728600D01*
X51600000Y-77728600D02*
X51600000Y-78725000D01*
X47000000Y-55000000D02*
X52993500Y-55000000D01*
X56160000Y-54630000D02*
X53363500Y-54630000D01*
X46793500Y-54793500D02*
X47000000Y-55000000D01*
X55128600Y-77728600D02*
X56000000Y-78600000D01*
D42*
%TO.N,EN*%
X57974500Y-34176500D02*
X59631000Y-32520000D01*
X56160000Y-55900000D02*
X57466600Y-55900000D01*
X59631000Y-32520000D02*
X66020000Y-32520000D01*
X57974500Y-56117300D02*
X57974500Y-34176500D01*
X57466600Y-55900000D02*
X57829200Y-56262600D01*
X66020000Y-32520000D02*
X67000000Y-33500000D01*
X57829200Y-56262600D02*
X57974500Y-56117300D01*
X76000000Y-36500000D02*
X73958900Y-34458900D01*
X73958900Y-34458900D02*
X73500000Y-34458900D01*
X73500000Y-33500000D02*
X73500000Y-34458900D01*
D43*
%TO.N,5V*%
X48000000Y-43000000D02*
X46087500Y-41087500D01*
X71103800Y-83065200D02*
X68419200Y-85749800D01*
X68419200Y-85749800D02*
X67654400Y-85749800D01*
X71103800Y-75495000D02*
X66675000Y-75495000D01*
X59000000Y-78550000D02*
X59755000Y-79305000D01*
X71103800Y-75495000D02*
X71103800Y-83065200D01*
X46087500Y-35127500D02*
X45460000Y-34500000D01*
X67268000Y-47579200D02*
X71381500Y-51692700D01*
X71381500Y-51692700D02*
X71381500Y-75217300D01*
X61500000Y-83000000D02*
X63868500Y-80631500D01*
X63868500Y-80631500D02*
X62542000Y-79305000D01*
X67016900Y-83779900D02*
X63868500Y-80631500D01*
X59755000Y-79305000D02*
X61725000Y-79305000D01*
X62542000Y-79305000D02*
X61725000Y-79305000D01*
X67016900Y-85112300D02*
X67016900Y-83779900D01*
X46087500Y-41087500D02*
X46087500Y-35127500D01*
X71381500Y-75217300D02*
X71103800Y-75495000D01*
X67654400Y-85749800D02*
X67016900Y-85112300D01*
D42*
%TO.N,Net-(U4-CPOUT)*%
X68088500Y-52206300D02*
X68088500Y-54809400D01*
X68088500Y-54809400D02*
X65397900Y-57500000D01*
X65397900Y-57500000D02*
X65260600Y-57500000D01*
%TO.N,BUTTON*%
X60500000Y-33500000D02*
X60500000Y-34458900D01*
X57114900Y-66060000D02*
X58605400Y-64569500D01*
X60958900Y-34458900D02*
X63000000Y-36500000D01*
X62797900Y-41366800D02*
X62797900Y-54744100D01*
X56160000Y-66060000D02*
X57114900Y-66060000D01*
X60884400Y-56657600D02*
X60884400Y-66914600D01*
X60500000Y-34458900D02*
X60958900Y-34458900D01*
X64000400Y-40164300D02*
X62797900Y-41366800D01*
X63000000Y-36500000D02*
X64000400Y-37500400D01*
X62797900Y-54744100D02*
X60884400Y-56657600D01*
X58605400Y-36353500D02*
X60500000Y-34458900D01*
X64000400Y-37500400D02*
X64000400Y-40164300D01*
X58605400Y-64569500D02*
X58605400Y-36353500D01*
D43*
%TO.N,B+_CHRG*%
X59400600Y-64745600D02*
X58389300Y-65756900D01*
X58389300Y-74939300D02*
X58950000Y-75500000D01*
X59210000Y-75240000D02*
X58950000Y-75500000D01*
X59400600Y-45019400D02*
X59400600Y-64745600D01*
X61420000Y-43000000D02*
X59400600Y-45019400D01*
X61725000Y-75495000D02*
X61470000Y-75240000D01*
X61470000Y-75240000D02*
X59210000Y-75240000D01*
X58389300Y-65756900D02*
X58389300Y-74939300D01*
D42*
%TO.N,Net-(D1-A)*%
X45175000Y-51785000D02*
X45460000Y-51500000D01*
X45175000Y-55000000D02*
X45175000Y-51785000D01*
%TO.N,Net-(D2-K)*%
X48000000Y-37000000D02*
X47000000Y-38000000D01*
X48000000Y-34500000D02*
X48000000Y-37000000D01*
%TO.N,Net-(D3-K)*%
X45175000Y-44389900D02*
X45175000Y-46500000D01*
X45460000Y-44104900D02*
X45175000Y-44389900D01*
X45460000Y-43000000D02*
X45460000Y-44104900D01*
D43*
%TO.N,B+*%
X66040000Y-84568000D02*
X66040000Y-84836900D01*
X71884200Y-46920000D02*
X65913400Y-40949200D01*
X68609200Y-86208700D02*
X71884200Y-82933700D01*
X71884200Y-82933700D02*
X71884200Y-46920000D01*
X65913400Y-40949200D02*
X65664700Y-40949200D01*
X67411800Y-86208700D02*
X68609200Y-86208700D01*
X66040000Y-84836900D02*
X67411800Y-86208700D01*
D42*
%TO.N,SDA*%
X54738600Y-60980000D02*
X54480500Y-61238100D01*
X56160000Y-60980000D02*
X55205100Y-60980000D01*
X55205100Y-60980000D02*
X54738600Y-60980000D01*
%TO.N,SCL*%
X52348200Y-62437200D02*
X55075400Y-59710000D01*
X52348200Y-62691300D02*
X52348200Y-62437200D01*
X46500000Y-68420000D02*
X46619500Y-68420000D01*
X55075400Y-59710000D02*
X55205100Y-59710000D01*
X65531700Y-55497000D02*
X65301500Y-55266800D01*
X56160000Y-59710000D02*
X55205100Y-59710000D01*
X46619500Y-68420000D02*
X52348200Y-62691300D01*
X65531700Y-56476700D02*
X65531700Y-55497000D01*
%TO.N,RXD0*%
X90000000Y-73825100D02*
X90000000Y-78740000D01*
X74614900Y-58440000D02*
X90000000Y-73825100D01*
X73660000Y-58440000D02*
X74614900Y-58440000D01*
%TO.N,TXD0*%
X73660000Y-57170000D02*
X72705100Y-57170000D01*
X80676000Y-71956000D02*
X74202900Y-71956000D01*
X90000000Y-81280000D02*
X80676000Y-71956000D01*
X72705100Y-70458200D02*
X72705100Y-57170000D01*
X74202900Y-71956000D02*
X72705100Y-70458200D01*
%TO.N,BUZZ+*%
X56160000Y-67330000D02*
X56808200Y-67330000D01*
X57574200Y-68096000D02*
X56808200Y-67330000D01*
X57574200Y-69460600D02*
X57574200Y-68096000D01*
%TO.N,CHRG_LED*%
X60960500Y-77270500D02*
X61725000Y-78035000D01*
X44005800Y-50462700D02*
X44005800Y-67886800D01*
X44353000Y-38822000D02*
X44353000Y-50115500D01*
X44353000Y-50115500D02*
X44005800Y-50462700D01*
X59159800Y-77270500D02*
X60960500Y-77270500D01*
X44005800Y-67886800D02*
X45947300Y-69828300D01*
X57892100Y-76002800D02*
X59159800Y-77270500D01*
X52823300Y-69828300D02*
X57892100Y-74897100D01*
X45175000Y-38000000D02*
X44353000Y-38822000D01*
X57892100Y-74897100D02*
X57892100Y-76002800D01*
X45947300Y-69828300D02*
X52823300Y-69828300D01*
%TO.N,STDBY_LED*%
X47000000Y-46500000D02*
X47000000Y-48054600D01*
X61725000Y-76765000D02*
X60918700Y-76765000D01*
X46074300Y-69521800D02*
X48259100Y-69521800D01*
X44312300Y-50742300D02*
X44312300Y-67759800D01*
X44312300Y-67759800D02*
X46074300Y-69521800D01*
X47000000Y-48054600D02*
X44312300Y-50742300D01*
X60918700Y-76765000D02*
X60100200Y-75946500D01*
X48259100Y-69521800D02*
X48565600Y-69215300D01*
%TO.N,Net-(U3-PROG)*%
X69371800Y-78035000D02*
X70076800Y-78740000D01*
X66675000Y-78035000D02*
X69371800Y-78035000D01*
%TO.N,AD0*%
X75482100Y-54630000D02*
X74614900Y-54630000D01*
X75482100Y-52951100D02*
X75482100Y-54630000D01*
X75482100Y-57741700D02*
X79837100Y-62096700D01*
X91212100Y-37221100D02*
X75482100Y-52951100D01*
X75482100Y-54630000D02*
X75482100Y-57741700D01*
X73660000Y-54630000D02*
X74614900Y-54630000D01*
%TO.N,INT*%
X57786200Y-64118700D02*
X57114900Y-64790000D01*
X91344000Y-35736000D02*
X91212100Y-35736000D01*
X92360800Y-36752800D02*
X91344000Y-35736000D01*
X92197500Y-59045800D02*
X92360800Y-58882500D01*
X56160000Y-64790000D02*
X57114900Y-64790000D01*
X91212100Y-34681100D02*
X91212100Y-35736000D01*
X92360800Y-58882500D02*
X92360800Y-36752800D01*
X57786200Y-63798700D02*
X57786200Y-64118700D01*
%TD*%
%TA.AperFunction,Conductor*%
%TO.N,3.3V*%
G36*
X90266206Y-38838161D02*
G01*
X90322139Y-38880033D01*
X90346556Y-38945497D01*
X90331704Y-39013770D01*
X90323191Y-39027228D01*
X90228103Y-39158106D01*
X90145888Y-39319460D01*
X90145887Y-39319463D01*
X90089929Y-39491689D01*
X90061600Y-39670548D01*
X90061600Y-39851651D01*
X90089929Y-40030510D01*
X90145887Y-40202736D01*
X90145888Y-40202739D01*
X90228106Y-40364097D01*
X90334541Y-40510594D01*
X90334545Y-40510599D01*
X90462600Y-40638654D01*
X90462605Y-40638658D01*
X90582272Y-40725600D01*
X90609106Y-40745096D01*
X90714584Y-40798840D01*
X90770460Y-40827311D01*
X90770463Y-40827312D01*
X90791897Y-40834276D01*
X90942691Y-40883271D01*
X91015739Y-40894840D01*
X91102778Y-40908627D01*
X91165913Y-40938556D01*
X91202844Y-40997868D01*
X91201846Y-41067731D01*
X91163236Y-41125963D01*
X91102778Y-41153573D01*
X90942689Y-41178929D01*
X90770463Y-41234887D01*
X90770460Y-41234888D01*
X90609102Y-41317106D01*
X90462605Y-41423541D01*
X90462600Y-41423545D01*
X90334545Y-41551600D01*
X90334541Y-41551605D01*
X90228106Y-41698102D01*
X90145888Y-41859460D01*
X90145887Y-41859463D01*
X90089929Y-42031689D01*
X90061600Y-42210548D01*
X90061600Y-42391651D01*
X90089929Y-42570510D01*
X90145887Y-42742736D01*
X90145888Y-42742739D01*
X90228106Y-42904097D01*
X90334541Y-43050594D01*
X90334545Y-43050599D01*
X90462600Y-43178654D01*
X90462605Y-43178658D01*
X90575058Y-43260359D01*
X90609106Y-43285096D01*
X90714584Y-43338840D01*
X90770460Y-43367311D01*
X90770463Y-43367312D01*
X90791897Y-43374276D01*
X90942691Y-43423271D01*
X91015739Y-43434840D01*
X91102778Y-43448627D01*
X91165913Y-43478556D01*
X91202844Y-43537868D01*
X91201846Y-43607731D01*
X91163236Y-43665963D01*
X91102778Y-43693573D01*
X90942689Y-43718929D01*
X90770463Y-43774887D01*
X90770460Y-43774888D01*
X90609102Y-43857106D01*
X90462605Y-43963541D01*
X90462600Y-43963545D01*
X90334545Y-44091600D01*
X90334541Y-44091605D01*
X90228106Y-44238102D01*
X90145888Y-44399460D01*
X90145887Y-44399463D01*
X90089929Y-44571689D01*
X90061600Y-44750548D01*
X90061600Y-44931651D01*
X90089929Y-45110510D01*
X90145887Y-45282736D01*
X90145888Y-45282739D01*
X90201764Y-45392400D01*
X90220361Y-45428898D01*
X90228106Y-45444097D01*
X90334541Y-45590594D01*
X90334545Y-45590599D01*
X90462600Y-45718654D01*
X90462605Y-45718658D01*
X90543810Y-45777656D01*
X90609106Y-45825096D01*
X90714584Y-45878840D01*
X90770460Y-45907311D01*
X90770463Y-45907312D01*
X90856576Y-45935291D01*
X90942691Y-45963271D01*
X91015739Y-45974840D01*
X91102778Y-45988627D01*
X91165913Y-46018556D01*
X91202844Y-46077868D01*
X91201846Y-46147731D01*
X91163236Y-46205963D01*
X91102778Y-46233573D01*
X90942689Y-46258929D01*
X90770463Y-46314887D01*
X90770460Y-46314888D01*
X90609102Y-46397106D01*
X90462605Y-46503541D01*
X90462600Y-46503545D01*
X90334545Y-46631600D01*
X90334541Y-46631605D01*
X90228107Y-46778101D01*
X90228105Y-46778103D01*
X90228104Y-46778106D01*
X90209149Y-46815305D01*
X90145888Y-46939460D01*
X90145887Y-46939463D01*
X90089929Y-47111689D01*
X90061600Y-47290548D01*
X90061600Y-47471651D01*
X90089929Y-47650510D01*
X90145887Y-47822736D01*
X90145888Y-47822739D01*
X90228106Y-47984097D01*
X90334541Y-48130594D01*
X90334545Y-48130599D01*
X90462600Y-48258654D01*
X90462605Y-48258658D01*
X90541557Y-48316019D01*
X90609106Y-48365096D01*
X90714584Y-48418840D01*
X90770460Y-48447311D01*
X90770463Y-48447312D01*
X90791897Y-48454276D01*
X90942691Y-48503271D01*
X91015739Y-48514840D01*
X91102778Y-48528627D01*
X91165913Y-48558556D01*
X91202844Y-48617868D01*
X91201846Y-48687731D01*
X91163236Y-48745963D01*
X91102778Y-48773573D01*
X90942689Y-48798929D01*
X90770463Y-48854887D01*
X90770460Y-48854888D01*
X90609102Y-48937106D01*
X90462605Y-49043541D01*
X90462600Y-49043545D01*
X90334545Y-49171600D01*
X90334541Y-49171605D01*
X90228106Y-49318102D01*
X90145888Y-49479460D01*
X90145887Y-49479463D01*
X90089929Y-49651689D01*
X90061600Y-49830548D01*
X90061600Y-50011651D01*
X90089929Y-50190510D01*
X90118502Y-50278450D01*
X90120497Y-50348292D01*
X90088252Y-50404449D01*
X83541913Y-56950790D01*
X83457592Y-57035110D01*
X83457590Y-57035113D01*
X83397964Y-57138385D01*
X83367100Y-57253575D01*
X83367100Y-59546773D01*
X83347415Y-59613812D01*
X83294611Y-59659567D01*
X83281426Y-59664701D01*
X83224815Y-59683096D01*
X83224809Y-59683098D01*
X83007357Y-59793896D01*
X82809923Y-59937339D01*
X82809918Y-59937343D01*
X82637343Y-60109918D01*
X82637339Y-60109923D01*
X82493896Y-60307357D01*
X82383097Y-60524812D01*
X82307678Y-60756927D01*
X82269500Y-60997973D01*
X82269500Y-61242026D01*
X82306546Y-61475928D01*
X82307679Y-61483076D01*
X82383096Y-61715185D01*
X82483215Y-61911681D01*
X82493896Y-61932642D01*
X82637339Y-62130076D01*
X82637343Y-62130081D01*
X82809918Y-62302656D01*
X82809923Y-62302660D01*
X82972862Y-62421041D01*
X83007361Y-62446106D01*
X83224815Y-62556904D01*
X83456924Y-62632321D01*
X83697973Y-62670500D01*
X83697974Y-62670500D01*
X83942026Y-62670500D01*
X83942027Y-62670500D01*
X84183076Y-62632321D01*
X84415185Y-62556904D01*
X84632639Y-62446106D01*
X84830083Y-62302655D01*
X85002655Y-62130083D01*
X85146106Y-61932639D01*
X85256904Y-61715185D01*
X85332321Y-61483076D01*
X85370500Y-61242027D01*
X85370500Y-60997973D01*
X85332321Y-60756924D01*
X85256904Y-60524815D01*
X85146106Y-60307361D01*
X85068099Y-60199993D01*
X85002660Y-60109923D01*
X85002656Y-60109918D01*
X84830081Y-59937343D01*
X84830076Y-59937339D01*
X84632642Y-59793896D01*
X84632641Y-59793895D01*
X84632639Y-59793894D01*
X84486393Y-59719378D01*
X84415190Y-59683098D01*
X84415187Y-59683097D01*
X84415185Y-59683096D01*
X84358578Y-59664703D01*
X84300905Y-59625265D01*
X84273708Y-59560906D01*
X84272900Y-59546773D01*
X84272900Y-57552158D01*
X84292585Y-57485119D01*
X84309214Y-57464482D01*
X89675665Y-52098030D01*
X89736986Y-52064547D01*
X89806678Y-52069531D01*
X89862611Y-52111403D01*
X89887028Y-52176867D01*
X89885817Y-52205111D01*
X89862100Y-52354853D01*
X89862100Y-52567346D01*
X89895342Y-52777227D01*
X89895342Y-52777230D01*
X89961004Y-52979317D01*
X90057475Y-53168650D01*
X90096828Y-53222816D01*
X90729136Y-52590507D01*
X90746175Y-52654093D01*
X90812001Y-52768107D01*
X90905093Y-52861199D01*
X91019107Y-52927025D01*
X91082689Y-52944062D01*
X90450382Y-53576369D01*
X90450382Y-53576370D01*
X90504549Y-53615724D01*
X90693882Y-53712195D01*
X90895970Y-53777857D01*
X91105854Y-53811100D01*
X91318346Y-53811100D01*
X91528227Y-53777857D01*
X91528230Y-53777857D01*
X91730319Y-53712194D01*
X91778404Y-53687694D01*
X91847073Y-53674797D01*
X91911814Y-53701073D01*
X91952071Y-53758179D01*
X91958700Y-53798178D01*
X91958700Y-58303644D01*
X91939015Y-58370683D01*
X91886211Y-58416438D01*
X91882154Y-58418205D01*
X91865687Y-58425025D01*
X91865686Y-58425026D01*
X91750962Y-58501682D01*
X91750954Y-58501688D01*
X91653388Y-58599254D01*
X91653385Y-58599258D01*
X91576728Y-58713982D01*
X91576721Y-58713995D01*
X91523921Y-58841467D01*
X91523918Y-58841477D01*
X91497000Y-58976804D01*
X91497000Y-58976807D01*
X91497000Y-59114793D01*
X91497000Y-59114795D01*
X91496999Y-59114795D01*
X91523918Y-59250122D01*
X91523921Y-59250132D01*
X91576721Y-59377604D01*
X91576728Y-59377617D01*
X91653385Y-59492341D01*
X91653388Y-59492345D01*
X91750954Y-59589911D01*
X91750958Y-59589914D01*
X91865682Y-59666571D01*
X91865695Y-59666578D01*
X91993167Y-59719378D01*
X91993172Y-59719380D01*
X91993176Y-59719380D01*
X91993177Y-59719381D01*
X92128504Y-59746300D01*
X92128507Y-59746300D01*
X92266495Y-59746300D01*
X92357541Y-59728189D01*
X92401828Y-59719380D01*
X92529311Y-59666575D01*
X92644042Y-59589914D01*
X92644042Y-59589913D01*
X92647035Y-59587914D01*
X92713712Y-59567036D01*
X92781092Y-59585520D01*
X92827783Y-59637499D01*
X92839926Y-59691016D01*
X92839926Y-91110009D01*
X92820241Y-91177048D01*
X92767437Y-91222803D01*
X92715926Y-91234009D01*
X59174463Y-91234009D01*
X59107424Y-91214324D01*
X59061669Y-91161520D01*
X59051725Y-91092362D01*
X59080750Y-91028806D01*
X59105572Y-91006907D01*
X59116665Y-90999494D01*
X59132588Y-90988855D01*
X59244088Y-90877355D01*
X59331693Y-90746245D01*
X59392036Y-90600563D01*
X59422799Y-90445908D01*
X59422799Y-89588224D01*
X59422799Y-89588221D01*
X59422798Y-89588219D01*
X59409349Y-89520608D01*
X59392036Y-89433569D01*
X59388481Y-89424986D01*
X59331696Y-89287893D01*
X59331689Y-89287880D01*
X59244088Y-89156777D01*
X59244085Y-89156773D01*
X59132591Y-89045279D01*
X59132587Y-89045276D01*
X59001484Y-88957675D01*
X59001471Y-88957668D01*
X58855800Y-88897330D01*
X58855788Y-88897327D01*
X58701144Y-88866566D01*
X58701141Y-88866566D01*
X58543457Y-88866566D01*
X58543454Y-88866566D01*
X58388809Y-88897327D01*
X58388797Y-88897330D01*
X58243126Y-88957668D01*
X58243113Y-88957675D01*
X58112010Y-89045276D01*
X58112006Y-89045279D01*
X58000512Y-89156773D01*
X58000509Y-89156777D01*
X57912908Y-89287880D01*
X57912901Y-89287893D01*
X57852563Y-89433564D01*
X57852560Y-89433576D01*
X57821799Y-89588219D01*
X57821799Y-90445912D01*
X57852560Y-90600555D01*
X57852563Y-90600567D01*
X57912901Y-90746238D01*
X57912908Y-90746251D01*
X58000509Y-90877354D01*
X58000512Y-90877358D01*
X58112006Y-90988852D01*
X58112010Y-90988855D01*
X58139026Y-91006907D01*
X58183831Y-91060519D01*
X58192538Y-91129844D01*
X58162383Y-91192872D01*
X58102940Y-91229591D01*
X58070135Y-91234009D01*
X53501710Y-91234009D01*
X53434671Y-91214324D01*
X53388916Y-91161520D01*
X53378972Y-91092362D01*
X53407997Y-91028806D01*
X53432822Y-91006905D01*
X53434779Y-91005597D01*
X53535828Y-90904548D01*
X53535831Y-90904545D01*
X53615228Y-90785719D01*
X53669918Y-90653686D01*
X53697799Y-90513521D01*
X53697799Y-89520611D01*
X53697799Y-89520608D01*
X53669919Y-89380451D01*
X53669918Y-89380450D01*
X53669918Y-89380446D01*
X53615228Y-89248413D01*
X53615227Y-89248412D01*
X53615224Y-89248406D01*
X53535831Y-89129587D01*
X53535828Y-89129583D01*
X53434781Y-89028536D01*
X53434777Y-89028533D01*
X53315958Y-88949140D01*
X53315949Y-88949135D01*
X53183919Y-88894447D01*
X53183913Y-88894445D01*
X53043756Y-88866566D01*
X53043754Y-88866566D01*
X52900844Y-88866566D01*
X52900842Y-88866566D01*
X52760684Y-88894445D01*
X52760678Y-88894447D01*
X52628648Y-88949135D01*
X52628639Y-88949140D01*
X52509820Y-89028533D01*
X52509816Y-89028536D01*
X52408769Y-89129583D01*
X52408766Y-89129587D01*
X52329373Y-89248406D01*
X52329368Y-89248415D01*
X52274680Y-89380445D01*
X52274678Y-89380451D01*
X52246799Y-89520608D01*
X52246799Y-89520611D01*
X52246799Y-90513521D01*
X52246799Y-90513523D01*
X52246798Y-90513523D01*
X52274678Y-90653680D01*
X52274680Y-90653686D01*
X52329368Y-90785716D01*
X52329373Y-90785725D01*
X52408766Y-90904544D01*
X52408769Y-90904548D01*
X52509818Y-91005597D01*
X52511776Y-91006905D01*
X52512570Y-91007855D01*
X52514528Y-91009462D01*
X52514223Y-91009833D01*
X52556582Y-91060516D01*
X52565292Y-91129841D01*
X52535139Y-91192869D01*
X52475697Y-91229590D01*
X52442888Y-91234009D01*
X43304500Y-91234009D01*
X43237461Y-91214324D01*
X43191706Y-91161520D01*
X43180500Y-91110009D01*
X43180500Y-87504586D01*
X44231258Y-87504586D01*
X44231258Y-87852835D01*
X44270247Y-88198869D01*
X44270249Y-88198881D01*
X44347740Y-88538395D01*
X44347743Y-88538403D01*
X44462757Y-88867093D01*
X44613850Y-89180841D01*
X44799129Y-89475710D01*
X44799130Y-89475712D01*
X45016245Y-89747967D01*
X45262501Y-89994223D01*
X45534756Y-90211338D01*
X45534759Y-90211339D01*
X45534761Y-90211341D01*
X45829625Y-90396617D01*
X46143379Y-90547713D01*
X46294428Y-90600567D01*
X46472065Y-90662725D01*
X46472073Y-90662728D01*
X46472076Y-90662728D01*
X46472077Y-90662729D01*
X46811587Y-90740220D01*
X47157634Y-90779210D01*
X47157635Y-90779211D01*
X47157638Y-90779211D01*
X47505881Y-90779211D01*
X47505881Y-90779210D01*
X47851929Y-90740220D01*
X48191439Y-90662729D01*
X48520137Y-90547713D01*
X48833891Y-90396617D01*
X49128755Y-90211341D01*
X49250184Y-90114505D01*
X49401014Y-89994223D01*
X49401016Y-89994220D01*
X49401021Y-89994217D01*
X49647264Y-89747974D01*
X49709964Y-89669351D01*
X49864385Y-89475712D01*
X49864386Y-89475710D01*
X49864388Y-89475708D01*
X50049664Y-89180844D01*
X50200760Y-88867090D01*
X50315776Y-88538392D01*
X50351495Y-88381898D01*
X80479500Y-88381898D01*
X80479500Y-89418102D01*
X80485126Y-89464954D01*
X80490122Y-89506561D01*
X80490122Y-89506563D01*
X80490123Y-89506564D01*
X80498454Y-89527690D01*
X80545639Y-89647343D01*
X80637077Y-89767922D01*
X80757656Y-89859360D01*
X80757657Y-89859360D01*
X80757658Y-89859361D01*
X80898436Y-89914877D01*
X80986898Y-89925500D01*
X80986903Y-89925500D01*
X81573097Y-89925500D01*
X81573102Y-89925500D01*
X81661564Y-89914877D01*
X81802342Y-89859361D01*
X81922922Y-89767922D01*
X81978892Y-89694115D01*
X82019486Y-89640584D01*
X82021317Y-89641972D01*
X82062607Y-89601689D01*
X82131058Y-89587682D01*
X82196216Y-89612905D01*
X82237394Y-89669351D01*
X82238391Y-89672241D01*
X82245640Y-89694115D01*
X82245643Y-89694124D01*
X82337684Y-89843345D01*
X82461654Y-89967315D01*
X82610875Y-90059356D01*
X82610880Y-90059358D01*
X82777302Y-90114505D01*
X82777309Y-90114506D01*
X82880019Y-90124999D01*
X83430000Y-90124999D01*
X83479972Y-90124999D01*
X83479986Y-90124998D01*
X83582697Y-90114505D01*
X83749119Y-90059358D01*
X83749124Y-90059356D01*
X83898345Y-89967315D01*
X84022315Y-89843345D01*
X84114356Y-89694124D01*
X84114358Y-89694119D01*
X84169505Y-89527697D01*
X84169506Y-89527690D01*
X84179999Y-89424986D01*
X84180000Y-89424973D01*
X84180000Y-89150000D01*
X83430000Y-89150000D01*
X83430000Y-90124999D01*
X82880019Y-90124999D01*
X82929999Y-90124998D01*
X82930000Y-90124998D01*
X82930000Y-88650000D01*
X83430000Y-88650000D01*
X84179999Y-88650000D01*
X84179999Y-88375028D01*
X84179998Y-88375013D01*
X84169505Y-88272302D01*
X84114358Y-88105880D01*
X84114356Y-88105875D01*
X84022315Y-87956654D01*
X83898345Y-87832684D01*
X83749124Y-87740643D01*
X83749119Y-87740641D01*
X83582697Y-87685494D01*
X83582690Y-87685493D01*
X83479986Y-87675000D01*
X83430000Y-87675000D01*
X83430000Y-88650000D01*
X82930000Y-88650000D01*
X82930000Y-87675000D01*
X82929999Y-87674999D01*
X82880029Y-87675000D01*
X82880011Y-87675001D01*
X82777302Y-87685494D01*
X82610880Y-87740641D01*
X82610875Y-87740643D01*
X82461654Y-87832684D01*
X82337684Y-87956654D01*
X82245643Y-88105875D01*
X82245640Y-88105884D01*
X82238391Y-88127759D01*
X82198618Y-88185203D01*
X82134102Y-88212025D01*
X82065326Y-88199709D01*
X82020834Y-88158393D01*
X82019486Y-88159416D01*
X81922922Y-88032077D01*
X81802337Y-87940635D01*
X81796120Y-87937139D01*
X81747335Y-87887122D01*
X81732900Y-87829057D01*
X81732900Y-85176371D01*
X81752585Y-85109332D01*
X81805389Y-85063577D01*
X81865315Y-85053591D01*
X81865315Y-85053200D01*
X81867665Y-85053200D01*
X81869057Y-85052968D01*
X81871402Y-85053199D01*
X81871407Y-85053200D01*
X81871412Y-85053200D01*
X82048595Y-85053200D01*
X82187103Y-85025648D01*
X82222374Y-85018632D01*
X82338576Y-84970500D01*
X82386071Y-84950827D01*
X82386075Y-84950825D01*
X82459241Y-84901936D01*
X82533398Y-84852387D01*
X82658687Y-84727098D01*
X82757126Y-84579773D01*
X82766240Y-84557771D01*
X82802061Y-84471289D01*
X82824932Y-84416074D01*
X82855652Y-84261639D01*
X82859500Y-84242295D01*
X82859500Y-84065104D01*
X82824933Y-83891331D01*
X82824932Y-83891330D01*
X82824932Y-83891326D01*
X82814629Y-83866453D01*
X82769017Y-83756333D01*
X82757125Y-83727624D01*
X82658690Y-83580306D01*
X82658684Y-83580298D01*
X82533401Y-83455015D01*
X82533393Y-83455009D01*
X82386075Y-83356574D01*
X82386071Y-83356572D01*
X82222378Y-83288769D01*
X82222368Y-83288766D01*
X82048595Y-83254200D01*
X82048593Y-83254200D01*
X81871407Y-83254200D01*
X81871405Y-83254200D01*
X81697631Y-83288766D01*
X81697621Y-83288769D01*
X81533928Y-83356572D01*
X81533924Y-83356574D01*
X81386606Y-83455009D01*
X81386598Y-83455015D01*
X81261315Y-83580298D01*
X81261309Y-83580306D01*
X81162874Y-83727624D01*
X81162872Y-83727628D01*
X81095069Y-83891321D01*
X81095066Y-83891331D01*
X81060500Y-84065104D01*
X81060500Y-84065107D01*
X81060500Y-84242293D01*
X81060500Y-84242295D01*
X81060499Y-84242295D01*
X81075842Y-84319422D01*
X81075134Y-84327327D01*
X81077909Y-84334766D01*
X81072065Y-84361631D01*
X81069615Y-84389014D01*
X81064367Y-84397021D01*
X81063058Y-84403040D01*
X81041907Y-84431294D01*
X81001913Y-84471289D01*
X81001913Y-84471290D01*
X80917589Y-84555613D01*
X80857964Y-84658885D01*
X80827100Y-84774075D01*
X80827100Y-87829057D01*
X80807415Y-87896096D01*
X80763880Y-87937139D01*
X80757662Y-87940635D01*
X80637077Y-88032077D01*
X80545639Y-88152656D01*
X80490122Y-88293438D01*
X80484188Y-88342853D01*
X80479500Y-88381898D01*
X50351495Y-88381898D01*
X50393267Y-88198882D01*
X50432258Y-87852831D01*
X50432258Y-87603912D01*
X53317599Y-87603912D01*
X53317599Y-87730220D01*
X53350290Y-87852223D01*
X53350291Y-87852226D01*
X53350643Y-87852835D01*
X53413444Y-87961609D01*
X53502756Y-88050921D01*
X53579643Y-88095311D01*
X53612138Y-88114073D01*
X53612139Y-88114073D01*
X53612142Y-88114075D01*
X53734145Y-88146766D01*
X53734148Y-88146766D01*
X53860450Y-88146766D01*
X53860453Y-88146766D01*
X53982456Y-88114075D01*
X54091842Y-88050921D01*
X54181154Y-87961609D01*
X54244308Y-87852223D01*
X54276999Y-87730220D01*
X54276999Y-87603912D01*
X57317599Y-87603912D01*
X57317599Y-87730220D01*
X57350290Y-87852223D01*
X57350291Y-87852226D01*
X57350643Y-87852835D01*
X57413444Y-87961609D01*
X57502756Y-88050921D01*
X57579643Y-88095311D01*
X57612138Y-88114073D01*
X57612139Y-88114073D01*
X57612142Y-88114075D01*
X57734145Y-88146766D01*
X57734148Y-88146766D01*
X57860450Y-88146766D01*
X57860453Y-88146766D01*
X57982456Y-88114075D01*
X58091842Y-88050921D01*
X58181154Y-87961609D01*
X58244308Y-87852223D01*
X58276999Y-87730220D01*
X58276999Y-87603912D01*
X58244308Y-87481909D01*
X58240474Y-87475269D01*
X58212151Y-87426211D01*
X58181154Y-87372523D01*
X58091842Y-87283211D01*
X58012762Y-87237554D01*
X57982459Y-87220058D01*
X57982460Y-87220058D01*
X57972454Y-87217377D01*
X57860453Y-87187366D01*
X57734145Y-87187366D01*
X57622143Y-87217377D01*
X57612138Y-87220058D01*
X57502759Y-87283209D01*
X57502753Y-87283213D01*
X57413446Y-87372520D01*
X57413442Y-87372526D01*
X57350291Y-87481905D01*
X57350290Y-87481909D01*
X57317599Y-87603912D01*
X54276999Y-87603912D01*
X54244308Y-87481909D01*
X54240474Y-87475269D01*
X54212151Y-87426211D01*
X54181154Y-87372523D01*
X54091842Y-87283211D01*
X54012762Y-87237554D01*
X53982459Y-87220058D01*
X53982460Y-87220058D01*
X53972454Y-87217377D01*
X53860453Y-87187366D01*
X53734145Y-87187366D01*
X53622143Y-87217377D01*
X53612138Y-87220058D01*
X53502759Y-87283209D01*
X53502753Y-87283213D01*
X53413446Y-87372520D01*
X53413442Y-87372526D01*
X53350291Y-87481905D01*
X53350290Y-87481909D01*
X53317599Y-87603912D01*
X50432258Y-87603912D01*
X50432258Y-87504591D01*
X50393267Y-87158540D01*
X50315776Y-86819030D01*
X50200760Y-86490332D01*
X50049664Y-86176578D01*
X49864388Y-85881714D01*
X49864386Y-85881711D01*
X49864385Y-85881709D01*
X49647270Y-85609454D01*
X49401014Y-85363198D01*
X49128759Y-85146083D01*
X49128757Y-85146082D01*
X48833888Y-84960803D01*
X48520140Y-84809710D01*
X48191450Y-84694696D01*
X48191442Y-84694693D01*
X47936806Y-84636574D01*
X47851929Y-84617202D01*
X47851925Y-84617201D01*
X47851916Y-84617200D01*
X47505882Y-84578211D01*
X47505878Y-84578211D01*
X47157638Y-84578211D01*
X47157633Y-84578211D01*
X46811599Y-84617200D01*
X46811587Y-84617202D01*
X46472073Y-84694693D01*
X46472065Y-84694696D01*
X46143375Y-84809710D01*
X45829627Y-84960803D01*
X45534758Y-85146082D01*
X45534756Y-85146083D01*
X45262501Y-85363198D01*
X45016245Y-85609454D01*
X44799130Y-85881709D01*
X44799129Y-85881711D01*
X44613850Y-86176580D01*
X44462757Y-86490328D01*
X44347743Y-86819018D01*
X44347740Y-86819026D01*
X44270249Y-87158540D01*
X44270247Y-87158552D01*
X44231258Y-87504586D01*
X43180500Y-87504586D01*
X43180500Y-75548517D01*
X43200185Y-75481478D01*
X43252989Y-75435723D01*
X43322147Y-75425779D01*
X43385703Y-75454804D01*
X43392181Y-75460836D01*
X47949433Y-80018088D01*
X47982918Y-80079411D01*
X47984868Y-80120551D01*
X47980392Y-80157829D01*
X47974500Y-80206898D01*
X47974500Y-80793102D01*
X47977884Y-80821278D01*
X47985122Y-80881561D01*
X48040639Y-81022343D01*
X48132077Y-81142922D01*
X48252656Y-81234360D01*
X48252657Y-81234360D01*
X48252658Y-81234361D01*
X48393436Y-81289877D01*
X48481898Y-81300500D01*
X49183305Y-81300500D01*
X49245459Y-81318750D01*
X49246067Y-81317698D01*
X49260781Y-81326193D01*
X49344795Y-81374698D01*
X49447062Y-81402100D01*
X49447063Y-81402100D01*
X49552938Y-81402100D01*
X50875500Y-81402100D01*
X50942539Y-81421785D01*
X50988294Y-81474589D01*
X50999500Y-81526100D01*
X50999500Y-81566769D01*
X51002353Y-81597199D01*
X51002353Y-81597201D01*
X51045895Y-81721633D01*
X51047207Y-81725382D01*
X51127850Y-81834650D01*
X51237118Y-81915293D01*
X51279845Y-81930244D01*
X51365299Y-81960146D01*
X51395730Y-81963000D01*
X51395734Y-81963000D01*
X51601882Y-81963000D01*
X51668921Y-81982685D01*
X51689563Y-81999319D01*
X51982005Y-82291761D01*
X51982006Y-82291762D01*
X51982008Y-82291763D01*
X51995409Y-82299500D01*
X52073695Y-82344698D01*
X52175962Y-82372100D01*
X52175963Y-82372100D01*
X52175964Y-82372100D01*
X52954636Y-82372100D01*
X52954638Y-82372100D01*
X53056905Y-82344698D01*
X53148595Y-82291760D01*
X53441036Y-81999319D01*
X53502359Y-81965834D01*
X53528717Y-81963000D01*
X53704270Y-81963000D01*
X53734699Y-81960146D01*
X53734701Y-81960146D01*
X53806022Y-81935189D01*
X53862882Y-81915293D01*
X53972150Y-81834650D01*
X54052793Y-81725382D01*
X54089380Y-81620823D01*
X54097646Y-81597201D01*
X54097646Y-81597199D01*
X54100500Y-81566769D01*
X54100500Y-80603100D01*
X54120185Y-80536061D01*
X54172989Y-80490306D01*
X54224500Y-80479100D01*
X54850500Y-80479100D01*
X54917539Y-80498785D01*
X54963294Y-80551589D01*
X54974500Y-80603100D01*
X54974500Y-80793102D01*
X54977884Y-80821278D01*
X54985122Y-80881561D01*
X55040639Y-81022343D01*
X55132076Y-81142920D01*
X55132078Y-81142922D01*
X55142524Y-81150843D01*
X55184047Y-81207034D01*
X55191600Y-81249648D01*
X55191600Y-83347881D01*
X55171915Y-83414920D01*
X55155281Y-83435562D01*
X55100388Y-83490454D01*
X55100385Y-83490458D01*
X55023728Y-83605182D01*
X55023721Y-83605195D01*
X54970921Y-83732667D01*
X54970918Y-83732677D01*
X54944000Y-83868004D01*
X54944000Y-83868007D01*
X54944000Y-84005993D01*
X54944000Y-84005995D01*
X54943999Y-84005995D01*
X54970918Y-84141322D01*
X54970921Y-84141332D01*
X55023721Y-84268804D01*
X55023728Y-84268817D01*
X55100385Y-84383541D01*
X55100388Y-84383545D01*
X55197954Y-84481111D01*
X55197958Y-84481114D01*
X55312682Y-84557771D01*
X55312695Y-84557778D01*
X55440167Y-84610578D01*
X55440172Y-84610580D01*
X55440176Y-84610580D01*
X55440177Y-84610581D01*
X55575504Y-84637500D01*
X55575507Y-84637500D01*
X55713495Y-84637500D01*
X55815547Y-84617200D01*
X55848828Y-84610580D01*
X55976311Y-84557775D01*
X56091042Y-84481114D01*
X56188614Y-84383542D01*
X56265275Y-84268811D01*
X56318080Y-84141328D01*
X56328407Y-84089409D01*
X56345000Y-84005995D01*
X56345000Y-83868004D01*
X56318081Y-83732677D01*
X56318080Y-83732676D01*
X56318080Y-83732672D01*
X56315989Y-83727624D01*
X56265278Y-83605195D01*
X56265271Y-83605182D01*
X56188614Y-83490458D01*
X56188611Y-83490454D01*
X56133719Y-83435562D01*
X56100234Y-83374239D01*
X56097400Y-83347881D01*
X56097400Y-81424500D01*
X56117085Y-81357461D01*
X56169889Y-81311706D01*
X56221400Y-81300500D01*
X56518097Y-81300500D01*
X56518102Y-81300500D01*
X56606564Y-81289877D01*
X56747342Y-81234361D01*
X56867922Y-81142922D01*
X56959361Y-81022342D01*
X57014877Y-80881564D01*
X57025500Y-80793102D01*
X57025500Y-80206898D01*
X57022833Y-80184693D01*
X57034382Y-80115788D01*
X57058264Y-80082231D01*
X57437322Y-79703174D01*
X57498641Y-79669692D01*
X57568333Y-79674676D01*
X57612680Y-79703177D01*
X57941731Y-80032228D01*
X57975216Y-80093551D01*
X57977166Y-80134687D01*
X57974500Y-80156897D01*
X57974500Y-80156898D01*
X57974500Y-80743102D01*
X57976829Y-80762493D01*
X57985122Y-80831561D01*
X57985122Y-80831563D01*
X57985123Y-80831564D01*
X57989213Y-80841935D01*
X58040639Y-80972343D01*
X58132077Y-81092922D01*
X58252656Y-81184360D01*
X58252657Y-81184360D01*
X58252658Y-81184361D01*
X58393436Y-81239877D01*
X58481898Y-81250500D01*
X58481903Y-81250500D01*
X59518097Y-81250500D01*
X59518102Y-81250500D01*
X59606564Y-81239877D01*
X59747342Y-81184361D01*
X59867922Y-81092922D01*
X59959361Y-80972342D01*
X60014877Y-80831564D01*
X60025500Y-80743102D01*
X60025500Y-80156898D01*
X60014877Y-80068436D01*
X59959361Y-79927658D01*
X59959360Y-79927657D01*
X59959255Y-79927390D01*
X59952974Y-79857803D01*
X59985311Y-79795867D01*
X60046000Y-79761246D01*
X60074610Y-79757900D01*
X60510964Y-79757900D01*
X60578003Y-79777585D01*
X60584597Y-79782130D01*
X60687113Y-79857790D01*
X60687115Y-79857791D01*
X60687118Y-79857793D01*
X60724364Y-79870826D01*
X60815299Y-79902646D01*
X60845730Y-79905500D01*
X60845734Y-79905500D01*
X62450641Y-79905500D01*
X62517680Y-79925185D01*
X62538321Y-79941818D01*
X63140322Y-80543819D01*
X63173806Y-80605141D01*
X63168822Y-80674833D01*
X63140321Y-80719180D01*
X61596322Y-82263181D01*
X61534999Y-82296666D01*
X61508641Y-82299500D01*
X61431005Y-82299500D01*
X61295677Y-82326418D01*
X61295667Y-82326421D01*
X61168195Y-82379221D01*
X61168182Y-82379228D01*
X61053458Y-82455885D01*
X61053454Y-82455888D01*
X60955888Y-82553454D01*
X60955885Y-82553458D01*
X60879228Y-82668182D01*
X60879221Y-82668195D01*
X60826421Y-82795667D01*
X60826418Y-82795677D01*
X60799500Y-82931004D01*
X60799500Y-82931007D01*
X60799500Y-83068993D01*
X60799500Y-83068995D01*
X60799499Y-83068995D01*
X60826418Y-83204322D01*
X60826421Y-83204332D01*
X60879221Y-83331804D01*
X60879228Y-83331817D01*
X60955885Y-83446541D01*
X60955888Y-83446545D01*
X61053454Y-83544111D01*
X61053458Y-83544114D01*
X61168182Y-83620771D01*
X61168195Y-83620778D01*
X61295667Y-83673578D01*
X61295672Y-83673580D01*
X61295676Y-83673580D01*
X61295677Y-83673581D01*
X61431004Y-83700500D01*
X61431007Y-83700500D01*
X61568995Y-83700500D01*
X61660041Y-83682389D01*
X61704328Y-83673580D01*
X61831811Y-83620775D01*
X61946542Y-83544114D01*
X62044114Y-83446542D01*
X62120775Y-83331811D01*
X62173580Y-83204328D01*
X62192639Y-83108512D01*
X62200500Y-83068995D01*
X62200500Y-82991359D01*
X62220185Y-82924320D01*
X62236819Y-82903678D01*
X63780819Y-81359678D01*
X63842142Y-81326193D01*
X63911834Y-81331177D01*
X63956181Y-81359678D01*
X65777322Y-83180819D01*
X65810807Y-83242142D01*
X65805823Y-83311834D01*
X65763951Y-83367767D01*
X65698487Y-83392184D01*
X65689641Y-83392500D01*
X65646898Y-83392500D01*
X65607853Y-83397188D01*
X65558438Y-83403122D01*
X65417656Y-83458639D01*
X65297077Y-83550077D01*
X65205639Y-83670656D01*
X65150122Y-83811438D01*
X65144188Y-83860853D01*
X65139500Y-83899898D01*
X65139500Y-85236102D01*
X65142482Y-85260934D01*
X65150122Y-85324561D01*
X65205639Y-85465343D01*
X65297077Y-85585922D01*
X65417656Y-85677360D01*
X65417657Y-85677360D01*
X65417658Y-85677361D01*
X65558436Y-85732877D01*
X65646898Y-85743500D01*
X66254741Y-85743500D01*
X66321780Y-85763185D01*
X66342421Y-85779818D01*
X67133712Y-86571110D01*
X67236987Y-86630736D01*
X67352175Y-86661600D01*
X67352177Y-86661600D01*
X68668823Y-86661600D01*
X68668825Y-86661600D01*
X68784013Y-86630736D01*
X68887287Y-86571110D01*
X72246610Y-83211788D01*
X72306236Y-83108513D01*
X72337100Y-82993325D01*
X72337100Y-81714536D01*
X72356785Y-81647497D01*
X72409589Y-81601742D01*
X72478747Y-81591798D01*
X72542303Y-81620823D01*
X72579031Y-81676219D01*
X72593786Y-81721633D01*
X72593788Y-81721639D01*
X72606642Y-81746865D01*
X72669916Y-81871046D01*
X72676006Y-81882997D01*
X72782441Y-82029494D01*
X72782445Y-82029499D01*
X72910500Y-82157554D01*
X72910505Y-82157558D01*
X73038287Y-82250396D01*
X73057006Y-82263996D01*
X73162484Y-82317740D01*
X73218360Y-82346211D01*
X73218363Y-82346212D01*
X73298037Y-82372099D01*
X73390591Y-82402171D01*
X73463639Y-82413740D01*
X73550678Y-82427527D01*
X73613813Y-82457456D01*
X73650744Y-82516768D01*
X73649746Y-82586631D01*
X73611136Y-82644863D01*
X73550678Y-82672473D01*
X73390589Y-82697829D01*
X73218363Y-82753787D01*
X73218360Y-82753788D01*
X73057002Y-82836006D01*
X72910505Y-82942441D01*
X72910500Y-82942445D01*
X72782445Y-83070500D01*
X72782441Y-83070505D01*
X72676006Y-83217002D01*
X72593788Y-83378360D01*
X72593787Y-83378363D01*
X72537829Y-83550589D01*
X72509500Y-83729448D01*
X72509500Y-83910551D01*
X72537829Y-84089410D01*
X72593787Y-84261636D01*
X72593788Y-84261639D01*
X72644738Y-84361631D01*
X72672480Y-84416078D01*
X72676006Y-84422997D01*
X72782441Y-84569494D01*
X72782445Y-84569499D01*
X72910500Y-84697554D01*
X72910505Y-84697558D01*
X73015823Y-84774075D01*
X73057006Y-84803996D01*
X73151972Y-84852384D01*
X73188684Y-84871090D01*
X73239480Y-84919065D01*
X73256275Y-84986886D01*
X73233737Y-85053021D01*
X73179022Y-85096472D01*
X73170708Y-85099506D01*
X73141781Y-85108905D01*
X72952439Y-85205380D01*
X72898282Y-85244727D01*
X72898282Y-85244728D01*
X73530591Y-85877037D01*
X73467007Y-85894075D01*
X73352993Y-85959901D01*
X73259901Y-86052993D01*
X73194075Y-86167007D01*
X73177037Y-86230591D01*
X72544728Y-85598282D01*
X72544727Y-85598282D01*
X72505380Y-85652439D01*
X72408904Y-85841782D01*
X72343242Y-86043869D01*
X72343242Y-86043872D01*
X72310000Y-86253753D01*
X72310000Y-86466246D01*
X72343242Y-86676127D01*
X72343242Y-86676130D01*
X72408904Y-86878217D01*
X72505375Y-87067550D01*
X72544728Y-87121716D01*
X73177037Y-86489408D01*
X73194075Y-86552993D01*
X73259901Y-86667007D01*
X73352993Y-86760099D01*
X73467007Y-86825925D01*
X73530590Y-86842962D01*
X72898282Y-87475269D01*
X72898282Y-87475270D01*
X72952449Y-87514624D01*
X73141782Y-87611095D01*
X73343870Y-87676757D01*
X73553754Y-87710000D01*
X73766246Y-87710000D01*
X73976127Y-87676757D01*
X73976130Y-87676757D01*
X74178217Y-87611095D01*
X74367554Y-87514622D01*
X74421716Y-87475270D01*
X74421717Y-87475270D01*
X73789408Y-86842962D01*
X73852993Y-86825925D01*
X73967007Y-86760099D01*
X74060099Y-86667007D01*
X74125925Y-86552993D01*
X74142962Y-86489408D01*
X74775270Y-87121717D01*
X74775270Y-87121716D01*
X74814622Y-87067554D01*
X74911095Y-86878217D01*
X74976757Y-86676130D01*
X74976757Y-86676127D01*
X75010000Y-86466246D01*
X75010000Y-86253753D01*
X74976757Y-86043872D01*
X74976757Y-86043869D01*
X74911095Y-85841782D01*
X74814624Y-85652449D01*
X74775270Y-85598282D01*
X74775269Y-85598282D01*
X74142962Y-86230590D01*
X74125925Y-86167007D01*
X74060099Y-86052993D01*
X73967007Y-85959901D01*
X73852993Y-85894075D01*
X73789409Y-85877037D01*
X74421716Y-85244728D01*
X74367550Y-85205375D01*
X74178217Y-85108904D01*
X74149292Y-85099506D01*
X74091616Y-85060068D01*
X74064418Y-84995710D01*
X74076333Y-84926863D01*
X74123577Y-84875388D01*
X74131315Y-84871090D01*
X74262994Y-84803996D01*
X74409501Y-84697553D01*
X74537553Y-84569501D01*
X74643996Y-84422994D01*
X74726211Y-84261639D01*
X74782171Y-84089409D01*
X74796765Y-83997259D01*
X74810500Y-83910551D01*
X74810500Y-83729448D01*
X74790802Y-83605087D01*
X74782171Y-83550591D01*
X74748291Y-83446316D01*
X74726212Y-83378363D01*
X74726211Y-83378360D01*
X74696474Y-83320000D01*
X74643996Y-83217006D01*
X74617705Y-83180819D01*
X74537558Y-83070505D01*
X74537554Y-83070500D01*
X74409499Y-82942445D01*
X74409494Y-82942441D01*
X74262997Y-82836006D01*
X74262996Y-82836005D01*
X74262994Y-82836004D01*
X74211300Y-82809664D01*
X74101639Y-82753788D01*
X74101636Y-82753787D01*
X73929410Y-82697829D01*
X73769321Y-82672473D01*
X73706186Y-82642544D01*
X73669255Y-82583232D01*
X73669740Y-82549273D01*
X83917978Y-82549273D01*
X83923996Y-82553647D01*
X84078128Y-82632181D01*
X84242653Y-82685639D01*
X84413502Y-82712700D01*
X84586498Y-82712700D01*
X84757346Y-82685639D01*
X84921871Y-82632181D01*
X85076002Y-82553647D01*
X85082021Y-82549273D01*
X84500001Y-81967253D01*
X84500000Y-81967253D01*
X83917978Y-82549273D01*
X73669740Y-82549273D01*
X73670253Y-82513370D01*
X73708863Y-82455137D01*
X73769321Y-82427527D01*
X73839425Y-82416422D01*
X73929409Y-82402171D01*
X74101639Y-82346211D01*
X74262994Y-82263996D01*
X74409501Y-82157553D01*
X74537553Y-82029501D01*
X74643996Y-81882994D01*
X74726211Y-81721639D01*
X74782171Y-81549409D01*
X74802385Y-81421785D01*
X74810500Y-81370551D01*
X74810500Y-81189448D01*
X74786464Y-81037695D01*
X74782171Y-81010591D01*
X74782170Y-81010587D01*
X74782170Y-81010586D01*
X74780215Y-81004568D01*
X74768928Y-80969831D01*
X78520500Y-80969831D01*
X78520500Y-82257556D01*
X78520502Y-82257582D01*
X78523413Y-82282687D01*
X78523415Y-82282691D01*
X78568793Y-82385464D01*
X78568794Y-82385465D01*
X78648235Y-82464906D01*
X78751009Y-82510285D01*
X78776135Y-82513200D01*
X80063864Y-82513199D01*
X80063879Y-82513197D01*
X80063882Y-82513197D01*
X80088987Y-82510286D01*
X80088988Y-82510285D01*
X80088991Y-82510285D01*
X80191765Y-82464906D01*
X80271206Y-82385465D01*
X80316585Y-82282691D01*
X80319500Y-82257565D01*
X80319499Y-81527201D01*
X83401000Y-81527201D01*
X83401000Y-81700198D01*
X83428060Y-81871046D01*
X83481518Y-82035571D01*
X83560052Y-82189703D01*
X83560056Y-82189709D01*
X83564423Y-82195720D01*
X83564425Y-82195720D01*
X84146446Y-81613700D01*
X84146446Y-81613699D01*
X84101027Y-81568280D01*
X84155000Y-81568280D01*
X84155000Y-81659120D01*
X84178511Y-81746865D01*
X84223931Y-81825535D01*
X84288165Y-81889769D01*
X84366835Y-81935189D01*
X84454580Y-81958700D01*
X84545420Y-81958700D01*
X84633165Y-81935189D01*
X84711835Y-81889769D01*
X84776069Y-81825535D01*
X84821489Y-81746865D01*
X84845000Y-81659120D01*
X84845000Y-81613699D01*
X84853553Y-81613699D01*
X84853553Y-81613700D01*
X85435573Y-82195720D01*
X85439947Y-82189702D01*
X85518481Y-82035571D01*
X85571939Y-81871046D01*
X85599000Y-81700198D01*
X85599000Y-81527201D01*
X85571939Y-81356353D01*
X85518481Y-81191828D01*
X85439947Y-81037696D01*
X85435573Y-81031678D01*
X84853553Y-81613699D01*
X84845000Y-81613699D01*
X84845000Y-81568280D01*
X84821489Y-81480535D01*
X84776069Y-81401865D01*
X84711835Y-81337631D01*
X84633165Y-81292211D01*
X84545420Y-81268700D01*
X84454580Y-81268700D01*
X84366835Y-81292211D01*
X84288165Y-81337631D01*
X84223931Y-81401865D01*
X84178511Y-81480535D01*
X84155000Y-81568280D01*
X84101027Y-81568280D01*
X83564425Y-81031678D01*
X83564423Y-81031678D01*
X83560053Y-81037693D01*
X83560052Y-81037695D01*
X83481518Y-81191828D01*
X83428060Y-81356353D01*
X83401000Y-81527201D01*
X80319499Y-81527201D01*
X80319499Y-80969836D01*
X80319362Y-80968655D01*
X80316586Y-80944712D01*
X80316585Y-80944710D01*
X80316585Y-80944709D01*
X80271206Y-80841935D01*
X80191765Y-80762494D01*
X80191763Y-80762493D01*
X80088992Y-80717115D01*
X80063865Y-80714200D01*
X78776143Y-80714200D01*
X78776117Y-80714202D01*
X78751012Y-80717113D01*
X78751008Y-80717115D01*
X78648235Y-80762493D01*
X78568794Y-80841934D01*
X78523415Y-80944706D01*
X78523415Y-80944708D01*
X78520500Y-80969831D01*
X74768928Y-80969831D01*
X74726212Y-80838363D01*
X74726211Y-80838360D01*
X74697740Y-80782484D01*
X74644565Y-80678123D01*
X83917978Y-80678123D01*
X83917978Y-80678125D01*
X84500000Y-81260146D01*
X84500001Y-81260146D01*
X85082020Y-80678125D01*
X85082020Y-80678123D01*
X85076009Y-80673756D01*
X85076003Y-80673752D01*
X84921871Y-80595218D01*
X84757346Y-80541760D01*
X84586498Y-80514700D01*
X84413502Y-80514700D01*
X84242653Y-80541760D01*
X84078128Y-80595218D01*
X83923995Y-80673752D01*
X83923993Y-80673753D01*
X83917978Y-80678123D01*
X74644565Y-80678123D01*
X74643996Y-80677006D01*
X74610934Y-80631500D01*
X74537558Y-80530505D01*
X74537554Y-80530500D01*
X74409499Y-80402445D01*
X74409494Y-80402441D01*
X74262997Y-80296006D01*
X74262996Y-80296005D01*
X74262994Y-80296004D01*
X74211300Y-80269664D01*
X74101639Y-80213788D01*
X74101636Y-80213787D01*
X73929410Y-80157829D01*
X73797728Y-80136972D01*
X73734594Y-80107042D01*
X73697663Y-80047731D01*
X73698661Y-79977868D01*
X73737271Y-79919636D01*
X73801235Y-79891522D01*
X73817120Y-79890499D01*
X74554864Y-79890499D01*
X74554879Y-79890497D01*
X74554882Y-79890497D01*
X74579987Y-79887586D01*
X74579988Y-79887585D01*
X74579991Y-79887585D01*
X74682765Y-79842206D01*
X74762206Y-79762765D01*
X74807585Y-79659991D01*
X74810500Y-79634865D01*
X74810499Y-79162295D01*
X81060499Y-79162295D01*
X81095066Y-79336068D01*
X81095069Y-79336078D01*
X81162872Y-79499771D01*
X81162874Y-79499775D01*
X81261309Y-79647093D01*
X81261315Y-79647101D01*
X81386598Y-79772384D01*
X81386606Y-79772390D01*
X81533924Y-79870825D01*
X81533928Y-79870827D01*
X81670485Y-79927390D01*
X81697626Y-79938632D01*
X81697630Y-79938632D01*
X81697631Y-79938633D01*
X81871404Y-79973200D01*
X81871407Y-79973200D01*
X82048595Y-79973200D01*
X82206352Y-79941819D01*
X82222374Y-79938632D01*
X82345613Y-79887585D01*
X82386071Y-79870827D01*
X82386075Y-79870825D01*
X82481479Y-79807078D01*
X82533398Y-79772387D01*
X82658687Y-79647098D01*
X82710981Y-79568834D01*
X82757125Y-79499775D01*
X82757127Y-79499771D01*
X82810803Y-79370184D01*
X82824932Y-79336074D01*
X82839769Y-79261483D01*
X82859500Y-79162295D01*
X82859500Y-78985104D01*
X82824933Y-78811331D01*
X82824932Y-78811330D01*
X82824932Y-78811326D01*
X82811164Y-78778087D01*
X82757127Y-78647628D01*
X82757125Y-78647624D01*
X82658690Y-78500306D01*
X82658684Y-78500298D01*
X82533401Y-78375015D01*
X82533393Y-78375009D01*
X82386075Y-78276574D01*
X82386071Y-78276572D01*
X82222378Y-78208769D01*
X82222368Y-78208766D01*
X82048595Y-78174200D01*
X82048593Y-78174200D01*
X81871407Y-78174200D01*
X81871405Y-78174200D01*
X81697631Y-78208766D01*
X81697621Y-78208769D01*
X81533928Y-78276572D01*
X81533924Y-78276574D01*
X81386606Y-78375009D01*
X81386598Y-78375015D01*
X81261315Y-78500298D01*
X81261309Y-78500306D01*
X81162874Y-78647624D01*
X81162872Y-78647628D01*
X81095069Y-78811321D01*
X81095066Y-78811331D01*
X81060500Y-78985104D01*
X81060500Y-78985107D01*
X81060500Y-79162293D01*
X81060500Y-79162295D01*
X81060499Y-79162295D01*
X74810499Y-79162295D01*
X74810499Y-78736852D01*
X74810499Y-77845143D01*
X74810499Y-77845136D01*
X74808829Y-77830734D01*
X74807586Y-77820012D01*
X74807585Y-77820010D01*
X74807585Y-77820009D01*
X74762206Y-77717235D01*
X74682765Y-77637794D01*
X74652736Y-77624535D01*
X74579992Y-77592415D01*
X74554865Y-77589500D01*
X72765143Y-77589500D01*
X72765117Y-77589502D01*
X72740012Y-77592413D01*
X72740008Y-77592415D01*
X72637235Y-77637793D01*
X72637234Y-77637794D01*
X72549669Y-77725360D01*
X72546862Y-77722553D01*
X72509260Y-77753240D01*
X72439839Y-77761139D01*
X72377167Y-77730251D01*
X72341144Y-77670384D01*
X72337100Y-77638975D01*
X72337100Y-70958217D01*
X72356785Y-70891178D01*
X72409589Y-70845423D01*
X72478747Y-70835479D01*
X72542303Y-70864504D01*
X72548781Y-70870536D01*
X73956005Y-72277760D01*
X74047695Y-72330698D01*
X74149962Y-72358100D01*
X74255837Y-72358100D01*
X80458083Y-72358100D01*
X80525122Y-72377785D01*
X80545764Y-72394419D01*
X88893770Y-80742425D01*
X88927255Y-80803748D01*
X88924020Y-80868423D01*
X88877829Y-81010587D01*
X88849500Y-81189448D01*
X88849500Y-81370551D01*
X88877829Y-81549410D01*
X88933787Y-81721636D01*
X88933788Y-81721639D01*
X88946642Y-81746865D01*
X89009916Y-81871046D01*
X89016006Y-81882997D01*
X89122441Y-82029494D01*
X89122445Y-82029499D01*
X89250500Y-82157554D01*
X89250505Y-82157558D01*
X89378287Y-82250396D01*
X89397006Y-82263996D01*
X89498780Y-82315853D01*
X89528684Y-82331090D01*
X89579480Y-82379065D01*
X89596275Y-82446886D01*
X89573737Y-82513021D01*
X89519022Y-82556472D01*
X89510708Y-82559506D01*
X89481781Y-82568905D01*
X89292439Y-82665380D01*
X89238282Y-82704727D01*
X89238282Y-82704728D01*
X89870591Y-83337037D01*
X89807007Y-83354075D01*
X89692993Y-83419901D01*
X89599901Y-83512993D01*
X89534075Y-83627007D01*
X89517037Y-83690591D01*
X88884728Y-83058282D01*
X88884727Y-83058282D01*
X88845380Y-83112439D01*
X88748904Y-83301782D01*
X88683242Y-83503869D01*
X88683242Y-83503872D01*
X88650000Y-83713753D01*
X88650000Y-83926246D01*
X88683242Y-84136127D01*
X88683242Y-84136130D01*
X88748904Y-84338217D01*
X88845375Y-84527550D01*
X88884728Y-84581716D01*
X89517037Y-83949408D01*
X89534075Y-84012993D01*
X89599901Y-84127007D01*
X89692993Y-84220099D01*
X89807007Y-84285925D01*
X89870590Y-84302962D01*
X89238282Y-84935269D01*
X89238282Y-84935270D01*
X89292449Y-84974624D01*
X89481780Y-85071094D01*
X89510705Y-85080492D01*
X89568381Y-85119929D01*
X89595580Y-85184287D01*
X89583667Y-85253134D01*
X89536424Y-85304610D01*
X89528685Y-85308908D01*
X89397004Y-85376004D01*
X89250505Y-85482441D01*
X89250500Y-85482445D01*
X89122445Y-85610500D01*
X89122441Y-85610505D01*
X89016006Y-85757002D01*
X88933788Y-85918360D01*
X88933787Y-85918363D01*
X88877829Y-86090589D01*
X88849500Y-86269448D01*
X88849500Y-86450551D01*
X88877829Y-86629410D01*
X88933787Y-86801636D01*
X88933788Y-86801639D01*
X89016006Y-86962997D01*
X89122441Y-87109494D01*
X89122445Y-87109499D01*
X89250500Y-87237554D01*
X89250505Y-87237558D01*
X89378287Y-87330396D01*
X89397006Y-87343996D01*
X89502484Y-87397740D01*
X89558360Y-87426211D01*
X89558363Y-87426212D01*
X89644476Y-87454191D01*
X89730591Y-87482171D01*
X89813429Y-87495291D01*
X89909449Y-87510500D01*
X89909454Y-87510500D01*
X90090551Y-87510500D01*
X90177259Y-87496765D01*
X90269409Y-87482171D01*
X90441639Y-87426211D01*
X90602994Y-87343996D01*
X90749501Y-87237553D01*
X90877553Y-87109501D01*
X90983996Y-86962994D01*
X91066211Y-86801639D01*
X91122171Y-86629409D01*
X91144199Y-86490332D01*
X91150500Y-86450551D01*
X91150500Y-86269448D01*
X91133354Y-86161200D01*
X91122171Y-86090591D01*
X91066211Y-85918361D01*
X91066211Y-85918360D01*
X91027192Y-85841782D01*
X90983996Y-85757006D01*
X90926130Y-85677360D01*
X90877558Y-85610505D01*
X90877554Y-85610500D01*
X90749499Y-85482445D01*
X90749494Y-85482441D01*
X90602995Y-85376004D01*
X90471314Y-85308908D01*
X90420519Y-85260934D01*
X90403724Y-85193113D01*
X90426262Y-85126978D01*
X90480977Y-85083527D01*
X90489295Y-85080492D01*
X90518217Y-85071095D01*
X90707554Y-84974622D01*
X90761716Y-84935270D01*
X90761717Y-84935270D01*
X90129408Y-84302962D01*
X90192993Y-84285925D01*
X90307007Y-84220099D01*
X90400099Y-84127007D01*
X90465925Y-84012993D01*
X90482962Y-83949408D01*
X91115270Y-84581717D01*
X91115270Y-84581716D01*
X91154622Y-84527554D01*
X91251095Y-84338217D01*
X91316757Y-84136130D01*
X91316757Y-84136127D01*
X91350000Y-83926246D01*
X91350000Y-83713753D01*
X91316757Y-83503872D01*
X91316757Y-83503869D01*
X91251095Y-83301782D01*
X91154624Y-83112449D01*
X91115270Y-83058282D01*
X91115269Y-83058282D01*
X90482962Y-83690590D01*
X90465925Y-83627007D01*
X90400099Y-83512993D01*
X90307007Y-83419901D01*
X90192993Y-83354075D01*
X90129409Y-83337037D01*
X90761716Y-82704728D01*
X90707550Y-82665375D01*
X90518217Y-82568904D01*
X90489292Y-82559506D01*
X90431616Y-82520068D01*
X90404418Y-82455710D01*
X90416333Y-82386863D01*
X90463577Y-82335388D01*
X90471315Y-82331090D01*
X90602994Y-82263996D01*
X90749501Y-82157553D01*
X90877553Y-82029501D01*
X90983996Y-81882994D01*
X91066211Y-81721639D01*
X91122171Y-81549409D01*
X91142385Y-81421785D01*
X91150500Y-81370551D01*
X91150500Y-81189448D01*
X91126464Y-81037696D01*
X91122171Y-81010591D01*
X91068519Y-80845463D01*
X91066212Y-80838363D01*
X91066211Y-80838360D01*
X91037740Y-80782484D01*
X90983996Y-80677006D01*
X90950934Y-80631500D01*
X90877558Y-80530505D01*
X90877554Y-80530500D01*
X90749499Y-80402445D01*
X90749494Y-80402441D01*
X90602997Y-80296006D01*
X90602996Y-80296005D01*
X90602994Y-80296004D01*
X90551300Y-80269664D01*
X90441639Y-80213788D01*
X90441636Y-80213787D01*
X90269410Y-80157829D01*
X90137727Y-80136972D01*
X90074592Y-80107043D01*
X90037661Y-80047731D01*
X90038659Y-79977868D01*
X90077269Y-79919636D01*
X90141233Y-79891522D01*
X90157125Y-79890499D01*
X90894856Y-79890499D01*
X90894864Y-79890499D01*
X90894879Y-79890497D01*
X90894882Y-79890497D01*
X90919987Y-79887586D01*
X90919988Y-79887585D01*
X90919991Y-79887585D01*
X91022765Y-79842206D01*
X91102206Y-79762765D01*
X91147585Y-79659991D01*
X91150500Y-79634865D01*
X91150499Y-77845136D01*
X91148829Y-77830734D01*
X91147586Y-77820012D01*
X91147585Y-77820010D01*
X91147585Y-77820009D01*
X91102206Y-77717235D01*
X91022765Y-77637794D01*
X90992736Y-77624535D01*
X90919992Y-77592415D01*
X90894868Y-77589500D01*
X90894865Y-77589500D01*
X90526100Y-77589500D01*
X90459061Y-77569815D01*
X90413306Y-77517011D01*
X90402100Y-77465500D01*
X90402100Y-73772164D01*
X90402100Y-73772162D01*
X90374698Y-73669895D01*
X90321760Y-73578205D01*
X90246895Y-73503340D01*
X79752436Y-63008881D01*
X79718951Y-62947558D01*
X79723935Y-62877866D01*
X79765807Y-62821933D01*
X79831271Y-62797516D01*
X79840117Y-62797200D01*
X79906095Y-62797200D01*
X79997141Y-62779089D01*
X80041428Y-62770280D01*
X80168911Y-62717475D01*
X80283642Y-62640814D01*
X80381214Y-62543242D01*
X80457875Y-62428511D01*
X80510680Y-62301028D01*
X80527543Y-62216251D01*
X80537600Y-62165695D01*
X80537600Y-62027704D01*
X80510681Y-61892377D01*
X80510680Y-61892376D01*
X80510680Y-61892372D01*
X80510645Y-61892287D01*
X80457878Y-61764895D01*
X80457871Y-61764882D01*
X80381214Y-61650158D01*
X80381211Y-61650154D01*
X80283645Y-61552588D01*
X80283641Y-61552585D01*
X80168917Y-61475928D01*
X80168904Y-61475921D01*
X80041432Y-61423121D01*
X80041422Y-61423118D01*
X79906095Y-61396200D01*
X79906093Y-61396200D01*
X79768107Y-61396200D01*
X79762016Y-61396200D01*
X79762016Y-61394714D01*
X79700607Y-61383067D01*
X79669420Y-61360365D01*
X75920519Y-57611464D01*
X75887034Y-57550141D01*
X75884200Y-57523783D01*
X75884200Y-53169016D01*
X75903885Y-53101977D01*
X75920514Y-53081340D01*
X90135193Y-38866660D01*
X90196514Y-38833177D01*
X90266206Y-38838161D01*
G37*
%TD.AperFunction*%
%TA.AperFunction,Conductor*%
G36*
X52672422Y-70250085D02*
G01*
X52693064Y-70266719D01*
X56709052Y-74282708D01*
X56742537Y-74344031D01*
X56737553Y-74413723D01*
X56695681Y-74469656D01*
X56666861Y-74485743D01*
X56527660Y-74540637D01*
X56527658Y-74540638D01*
X56407077Y-74632077D01*
X56315639Y-74752656D01*
X56260122Y-74893438D01*
X56257161Y-74918100D01*
X56249500Y-74981898D01*
X56249500Y-76018102D01*
X56255126Y-76064954D01*
X56260122Y-76106561D01*
X56260122Y-76106563D01*
X56260123Y-76106564D01*
X56275514Y-76145593D01*
X56315639Y-76247343D01*
X56407077Y-76367922D01*
X56527655Y-76459359D01*
X56527658Y-76459361D01*
X56527659Y-76459361D01*
X56533868Y-76462852D01*
X56582659Y-76512864D01*
X56597100Y-76570941D01*
X56597100Y-77476000D01*
X56577415Y-77543039D01*
X56524611Y-77588794D01*
X56473100Y-77600000D01*
X56250000Y-77600000D01*
X56250000Y-78476000D01*
X56230315Y-78543039D01*
X56177511Y-78588794D01*
X56126000Y-78600000D01*
X56000000Y-78600000D01*
X56000000Y-78726000D01*
X55980315Y-78793039D01*
X55927511Y-78838794D01*
X55876000Y-78850000D01*
X54775001Y-78850000D01*
X54775001Y-78899986D01*
X54785494Y-79002697D01*
X54840641Y-79169119D01*
X54840643Y-79169124D01*
X54932684Y-79318345D01*
X54975958Y-79361619D01*
X55009443Y-79422942D01*
X55004459Y-79492634D01*
X54962587Y-79548567D01*
X54897123Y-79572984D01*
X54888277Y-79573300D01*
X54184543Y-79573300D01*
X54117504Y-79553615D01*
X54071749Y-79500811D01*
X54061805Y-79431653D01*
X54067500Y-79408350D01*
X54097646Y-79322199D01*
X54100500Y-79291766D01*
X54100500Y-78300013D01*
X54775000Y-78300013D01*
X54775000Y-78350000D01*
X55750000Y-78350000D01*
X55750000Y-77600000D01*
X55475029Y-77600000D01*
X55475012Y-77600001D01*
X55372302Y-77610494D01*
X55205880Y-77665641D01*
X55205875Y-77665643D01*
X55056654Y-77757684D01*
X54932684Y-77881654D01*
X54840643Y-78030875D01*
X54840641Y-78030880D01*
X54785494Y-78197302D01*
X54785493Y-78197309D01*
X54775000Y-78300013D01*
X54100500Y-78300013D01*
X54100500Y-78158234D01*
X54099432Y-78146850D01*
X54097646Y-78127800D01*
X54097646Y-78127798D01*
X54052793Y-77999619D01*
X54052792Y-77999617D01*
X54017873Y-77952303D01*
X53972150Y-77890350D01*
X53862882Y-77809707D01*
X53862880Y-77809706D01*
X53734700Y-77764853D01*
X53704270Y-77762000D01*
X53704266Y-77762000D01*
X53295734Y-77762000D01*
X53295730Y-77762000D01*
X53265300Y-77764853D01*
X53265298Y-77764853D01*
X53137119Y-77809706D01*
X53137117Y-77809707D01*
X53027850Y-77890350D01*
X52947207Y-77999617D01*
X52947206Y-77999619D01*
X52902353Y-78127798D01*
X52902353Y-78127800D01*
X52899500Y-78158230D01*
X52899500Y-79291769D01*
X52902353Y-79322199D01*
X52902353Y-79322201D01*
X52947206Y-79450380D01*
X52951551Y-79458601D01*
X52949902Y-79459472D01*
X52969944Y-79514332D01*
X52954632Y-79582503D01*
X52908205Y-79629729D01*
X52849215Y-79663788D01*
X52849209Y-79663792D01*
X52637681Y-79875321D01*
X52629735Y-79879659D01*
X52624310Y-79886907D01*
X52599550Y-79896141D01*
X52576358Y-79908806D01*
X52567328Y-79908160D01*
X52558846Y-79911324D01*
X52533025Y-79905707D01*
X52506666Y-79903822D01*
X52497612Y-79898003D01*
X52490573Y-79896472D01*
X52462319Y-79875321D01*
X52320225Y-79733227D01*
X52286740Y-79671904D01*
X52291724Y-79602212D01*
X52301174Y-79582425D01*
X52351282Y-79497696D01*
X52351283Y-79497693D01*
X52397099Y-79339995D01*
X52397100Y-79339989D01*
X52399999Y-79303149D01*
X52400000Y-79303134D01*
X52400000Y-78975000D01*
X50800000Y-78975000D01*
X50800000Y-79285600D01*
X50797449Y-79294285D01*
X50798738Y-79303247D01*
X50787759Y-79327287D01*
X50780315Y-79352639D01*
X50773474Y-79358566D01*
X50769713Y-79366803D01*
X50747478Y-79381092D01*
X50727511Y-79398394D01*
X50716996Y-79400681D01*
X50710935Y-79404577D01*
X50676000Y-79409600D01*
X50501459Y-79409600D01*
X50434420Y-79389915D01*
X50413778Y-79373281D01*
X50058267Y-79017770D01*
X50024782Y-78956447D01*
X50022833Y-78915307D01*
X50025500Y-78893102D01*
X50025500Y-78306898D01*
X50014877Y-78218436D01*
X49986647Y-78146850D01*
X50800000Y-78146850D01*
X50800000Y-78475000D01*
X51350000Y-78475000D01*
X51850000Y-78475000D01*
X52400000Y-78475000D01*
X52400000Y-78146865D01*
X52399999Y-78146850D01*
X52397100Y-78110010D01*
X52397099Y-78110004D01*
X52351283Y-77952306D01*
X52351282Y-77952303D01*
X52267685Y-77810947D01*
X52267678Y-77810938D01*
X52151561Y-77694821D01*
X52151552Y-77694814D01*
X52010196Y-77611217D01*
X52010193Y-77611216D01*
X51852494Y-77565400D01*
X51852497Y-77565400D01*
X51850000Y-77565203D01*
X51850000Y-78475000D01*
X51350000Y-78475000D01*
X51350000Y-77565203D01*
X51347503Y-77565400D01*
X51189806Y-77611216D01*
X51189803Y-77611217D01*
X51048447Y-77694814D01*
X51048438Y-77694821D01*
X50932321Y-77810938D01*
X50932314Y-77810947D01*
X50848717Y-77952303D01*
X50848716Y-77952306D01*
X50802900Y-78110004D01*
X50802899Y-78110010D01*
X50800000Y-78146850D01*
X49986647Y-78146850D01*
X49959361Y-78077658D01*
X49959360Y-78077657D01*
X49959360Y-78077656D01*
X49867922Y-77957077D01*
X49747343Y-77865639D01*
X49651192Y-77827722D01*
X49606564Y-77810123D01*
X49606563Y-77810122D01*
X49606561Y-77810122D01*
X49560926Y-77804642D01*
X49518102Y-77799500D01*
X49518097Y-77799500D01*
X48891359Y-77799500D01*
X48824320Y-77779815D01*
X48803678Y-77763181D01*
X46989219Y-75948722D01*
X46955734Y-75887399D01*
X46952900Y-75861041D01*
X46952900Y-74774499D01*
X46972585Y-74707460D01*
X47025389Y-74661705D01*
X47076900Y-74650499D01*
X47394856Y-74650499D01*
X47394864Y-74650499D01*
X47394879Y-74650497D01*
X47394882Y-74650497D01*
X47419987Y-74647586D01*
X47419988Y-74647585D01*
X47419991Y-74647585D01*
X47522765Y-74602206D01*
X47602206Y-74522765D01*
X47647585Y-74419991D01*
X47650500Y-74394865D01*
X47650499Y-72605136D01*
X47649734Y-72598536D01*
X47647586Y-72580012D01*
X47647585Y-72580010D01*
X47647585Y-72580009D01*
X47602206Y-72477235D01*
X47522765Y-72397794D01*
X47515121Y-72394419D01*
X47419992Y-72352415D01*
X47394868Y-72349500D01*
X47263079Y-72349500D01*
X47196040Y-72329815D01*
X47150285Y-72277011D01*
X47140341Y-72207853D01*
X47169366Y-72144297D01*
X47203606Y-72117502D01*
X47203402Y-72117168D01*
X47206317Y-72115381D01*
X47206787Y-72115014D01*
X47207552Y-72114623D01*
X47261716Y-72075270D01*
X47261717Y-72075270D01*
X46629408Y-71442962D01*
X46692993Y-71425925D01*
X46807007Y-71360099D01*
X46900099Y-71267007D01*
X46965925Y-71152993D01*
X46982962Y-71089408D01*
X47615270Y-71721717D01*
X47615270Y-71721716D01*
X47654622Y-71667554D01*
X47751095Y-71478217D01*
X47816757Y-71276130D01*
X47816757Y-71276127D01*
X47850000Y-71066246D01*
X47850000Y-70853753D01*
X47816757Y-70643872D01*
X47816757Y-70643869D01*
X47751094Y-70441780D01*
X47735256Y-70410696D01*
X47722359Y-70342027D01*
X47748634Y-70277286D01*
X47805740Y-70237029D01*
X47845740Y-70230400D01*
X52605383Y-70230400D01*
X52672422Y-70250085D01*
G37*
%TD.AperFunction*%
%TA.AperFunction,Conductor*%
G36*
X44228003Y-68678104D02*
G01*
X44234479Y-68684134D01*
X45700405Y-70150061D01*
X45782113Y-70197235D01*
X45792095Y-70202998D01*
X45894362Y-70230400D01*
X45894363Y-70230400D01*
X46000238Y-70230400D01*
X46072592Y-70230400D01*
X46139631Y-70250085D01*
X46160273Y-70266719D01*
X46370591Y-70477037D01*
X46307007Y-70494075D01*
X46192993Y-70559901D01*
X46099901Y-70652993D01*
X46034075Y-70767007D01*
X46017037Y-70830591D01*
X45384728Y-70198282D01*
X45384727Y-70198282D01*
X45345380Y-70252439D01*
X45248904Y-70441782D01*
X45183242Y-70643869D01*
X45183242Y-70643872D01*
X45150000Y-70853753D01*
X45150000Y-71066246D01*
X45183242Y-71276127D01*
X45183242Y-71276130D01*
X45248904Y-71478217D01*
X45345375Y-71667550D01*
X45384728Y-71721716D01*
X46017037Y-71089408D01*
X46034075Y-71152993D01*
X46099901Y-71267007D01*
X46192993Y-71360099D01*
X46307007Y-71425925D01*
X46370590Y-71442962D01*
X45738282Y-72075269D01*
X45738282Y-72075270D01*
X45792447Y-72114623D01*
X45793205Y-72115009D01*
X45793443Y-72115233D01*
X45796604Y-72117171D01*
X45796197Y-72117834D01*
X45844006Y-72162978D01*
X45860809Y-72230797D01*
X45838278Y-72296935D01*
X45783568Y-72340392D01*
X45736923Y-72349500D01*
X45605144Y-72349500D01*
X45605117Y-72349502D01*
X45580012Y-72352413D01*
X45580008Y-72352415D01*
X45477235Y-72397793D01*
X45397794Y-72477234D01*
X45352415Y-72580006D01*
X45352415Y-72580008D01*
X45349500Y-72605131D01*
X45349500Y-74394856D01*
X45349502Y-74394882D01*
X45352413Y-74419987D01*
X45352415Y-74419991D01*
X45397793Y-74522764D01*
X45397794Y-74522765D01*
X45477235Y-74602206D01*
X45580009Y-74647585D01*
X45605135Y-74650500D01*
X45923100Y-74650499D01*
X45990139Y-74670183D01*
X46035894Y-74722987D01*
X46047100Y-74774499D01*
X46047100Y-76040375D01*
X46047100Y-76159625D01*
X46050069Y-76170704D01*
X46077964Y-76274814D01*
X46107777Y-76326450D01*
X46137590Y-76378087D01*
X46137592Y-76378089D01*
X47941731Y-78182228D01*
X47975216Y-78243551D01*
X47977166Y-78284687D01*
X47974500Y-78306897D01*
X47974500Y-78606483D01*
X47954815Y-78673522D01*
X47902011Y-78719277D01*
X47832853Y-78729221D01*
X47769297Y-78700196D01*
X47762819Y-78694164D01*
X44059119Y-74990464D01*
X44025634Y-74929141D01*
X44022800Y-74902783D01*
X44022800Y-68771817D01*
X44042485Y-68704778D01*
X44095289Y-68659023D01*
X44164447Y-68649079D01*
X44228003Y-68678104D01*
G37*
%TD.AperFunction*%
%TA.AperFunction,Conductor*%
G36*
X92782965Y-30700185D02*
G01*
X92828720Y-30752989D01*
X92839926Y-30804500D01*
X92839926Y-36363909D01*
X92820241Y-36430948D01*
X92767437Y-36476703D01*
X92698279Y-36486647D01*
X92634723Y-36457622D01*
X92628245Y-36451590D01*
X92172162Y-35995507D01*
X92138677Y-35934184D01*
X92143661Y-35864492D01*
X92185533Y-35808559D01*
X92209752Y-35794394D01*
X92234865Y-35783306D01*
X92314306Y-35703865D01*
X92359685Y-35601091D01*
X92362600Y-35575965D01*
X92362599Y-33786236D01*
X92362597Y-33786217D01*
X92359686Y-33761112D01*
X92359685Y-33761110D01*
X92359685Y-33761109D01*
X92314306Y-33658335D01*
X92234865Y-33578894D01*
X92234863Y-33578893D01*
X92132092Y-33533515D01*
X92106965Y-33530600D01*
X90317243Y-33530600D01*
X90317217Y-33530602D01*
X90292112Y-33533513D01*
X90292108Y-33533515D01*
X90189335Y-33578893D01*
X90109894Y-33658334D01*
X90064515Y-33761106D01*
X90064515Y-33761108D01*
X90061600Y-33786231D01*
X90061600Y-35575956D01*
X90061602Y-35575982D01*
X90064513Y-35601087D01*
X90064515Y-35601091D01*
X90109893Y-35703864D01*
X90109894Y-35703865D01*
X90189335Y-35783306D01*
X90292109Y-35828685D01*
X90317235Y-35831600D01*
X90731396Y-35831599D01*
X90742911Y-35834980D01*
X90754861Y-35833839D01*
X90775815Y-35844641D01*
X90798435Y-35851283D01*
X90807847Y-35861154D01*
X90816964Y-35865854D01*
X90838782Y-35893597D01*
X90878454Y-35962308D01*
X90894928Y-36030208D01*
X90872077Y-36096235D01*
X90817156Y-36139427D01*
X90809386Y-36142241D01*
X90770463Y-36154887D01*
X90770460Y-36154888D01*
X90609102Y-36237106D01*
X90462605Y-36343541D01*
X90462600Y-36343545D01*
X90334545Y-36471600D01*
X90334541Y-36471605D01*
X90228106Y-36618102D01*
X90145888Y-36779460D01*
X90145887Y-36779463D01*
X90089929Y-36951689D01*
X90061600Y-37130548D01*
X90061600Y-37311651D01*
X90089929Y-37490512D01*
X90136120Y-37632675D01*
X90138115Y-37702516D01*
X90105870Y-37758673D01*
X75381081Y-52483463D01*
X75319758Y-52516948D01*
X75250066Y-52511964D01*
X75194133Y-52470092D01*
X75169716Y-52404628D01*
X75169400Y-52395782D01*
X75169400Y-39784302D01*
X75189085Y-39717263D01*
X75241889Y-39671508D01*
X75261297Y-39664530D01*
X75358313Y-39638536D01*
X75461587Y-39578910D01*
X75803678Y-39236819D01*
X75865001Y-39203334D01*
X75891359Y-39200500D01*
X76518097Y-39200500D01*
X76518102Y-39200500D01*
X76606564Y-39189877D01*
X76747342Y-39134361D01*
X76867922Y-39042922D01*
X76959361Y-38922342D01*
X77014877Y-38781564D01*
X77025500Y-38693102D01*
X77025500Y-38106898D01*
X77014877Y-38018436D01*
X76959361Y-37877658D01*
X76959360Y-37877657D01*
X76959360Y-37877656D01*
X76867922Y-37757077D01*
X76747343Y-37665639D01*
X76606561Y-37610122D01*
X76560926Y-37604642D01*
X76518102Y-37599500D01*
X75481898Y-37599500D01*
X75442853Y-37604188D01*
X75393438Y-37610122D01*
X75252656Y-37665639D01*
X75132077Y-37757077D01*
X75040639Y-37877656D01*
X74985122Y-38018438D01*
X74979188Y-38067853D01*
X74974500Y-38106898D01*
X74974500Y-38106903D01*
X74974500Y-38534641D01*
X74954815Y-38601680D01*
X74902011Y-38647435D01*
X74832853Y-38657379D01*
X74769297Y-38628354D01*
X74762819Y-38622322D01*
X74549910Y-38409413D01*
X74516425Y-38348090D01*
X74515974Y-38297540D01*
X74516624Y-38294276D01*
X74553896Y-38106898D01*
X74554500Y-38103861D01*
X74554500Y-37896138D01*
X74554499Y-37896136D01*
X74527156Y-37758673D01*
X74513976Y-37692414D01*
X74513974Y-37692409D01*
X74434488Y-37500511D01*
X74434487Y-37500509D01*
X74432746Y-37497904D01*
X74319083Y-37327796D01*
X74319080Y-37327792D01*
X74172207Y-37180919D01*
X74172203Y-37180916D01*
X73999490Y-37065512D01*
X73999488Y-37065511D01*
X73807590Y-36986025D01*
X73807578Y-36986022D01*
X73603862Y-36945500D01*
X73603859Y-36945500D01*
X73396141Y-36945500D01*
X73396138Y-36945500D01*
X73192421Y-36986022D01*
X73192409Y-36986025D01*
X73000511Y-37065511D01*
X73000509Y-37065512D01*
X72827796Y-37180916D01*
X72827792Y-37180919D01*
X72680919Y-37327792D01*
X72680916Y-37327796D01*
X72565512Y-37500509D01*
X72565511Y-37500511D01*
X72486025Y-37692409D01*
X72486022Y-37692421D01*
X72445500Y-37896136D01*
X72445500Y-38103863D01*
X72486022Y-38307578D01*
X72486025Y-38307590D01*
X72565511Y-38499488D01*
X72565512Y-38499490D01*
X72680916Y-38672203D01*
X72680919Y-38672207D01*
X72827792Y-38819080D01*
X72827796Y-38819083D01*
X73000507Y-38934486D01*
X73000508Y-38934486D01*
X73000509Y-38934487D01*
X73000511Y-38934488D01*
X73192409Y-39013974D01*
X73192414Y-39013976D01*
X73337935Y-39042922D01*
X73396136Y-39054499D01*
X73396139Y-39054500D01*
X73396141Y-39054500D01*
X73603861Y-39054500D01*
X73740964Y-39027228D01*
X73797540Y-39015974D01*
X73867132Y-39022201D01*
X73909413Y-39049910D01*
X74227281Y-39367778D01*
X74260766Y-39429101D01*
X74263600Y-39455459D01*
X74263600Y-52485500D01*
X74243915Y-52552539D01*
X74191111Y-52598294D01*
X74139600Y-52609500D01*
X72865143Y-52609500D01*
X72865117Y-52609502D01*
X72840012Y-52612413D01*
X72840008Y-52612415D01*
X72737235Y-52657793D01*
X72657794Y-52737234D01*
X72612415Y-52840006D01*
X72612415Y-52840008D01*
X72609500Y-52865131D01*
X72609500Y-53854856D01*
X72609502Y-53854882D01*
X72612413Y-53879987D01*
X72612414Y-53879988D01*
X72641081Y-53944914D01*
X72650152Y-54014192D01*
X72641081Y-54045084D01*
X72612415Y-54110006D01*
X72612415Y-54110008D01*
X72609500Y-54135131D01*
X72609500Y-55124856D01*
X72609502Y-55124882D01*
X72612413Y-55149987D01*
X72612414Y-55149988D01*
X72612414Y-55149990D01*
X72612415Y-55149991D01*
X72626201Y-55181213D01*
X72641081Y-55214914D01*
X72650152Y-55284192D01*
X72641081Y-55315084D01*
X72612415Y-55380006D01*
X72612415Y-55380008D01*
X72609500Y-55405131D01*
X72609500Y-56394856D01*
X72609502Y-56394882D01*
X72612413Y-56419987D01*
X72612414Y-56419988D01*
X72641081Y-56484914D01*
X72650152Y-56554192D01*
X72647264Y-56567672D01*
X72644820Y-56576616D01*
X72612415Y-56650009D01*
X72609500Y-56675135D01*
X72609500Y-56705927D01*
X72605118Y-56721970D01*
X72595161Y-56738128D01*
X72589815Y-56756336D01*
X72575576Y-56769912D01*
X72568465Y-56781454D01*
X72558416Y-56786275D01*
X72547499Y-56796685D01*
X72523099Y-56810772D01*
X72455199Y-56827243D01*
X72389172Y-56804391D01*
X72345982Y-56749469D01*
X72337100Y-56703384D01*
X72337100Y-46860377D01*
X72337100Y-46860375D01*
X72315056Y-46778106D01*
X72306236Y-46745187D01*
X72246610Y-46641912D01*
X66347737Y-40743040D01*
X66320858Y-40702812D01*
X66295155Y-40640760D01*
X66285475Y-40617389D01*
X66285473Y-40617387D01*
X66285473Y-40617385D01*
X66208814Y-40502658D01*
X66208811Y-40502654D01*
X66111245Y-40405088D01*
X66111241Y-40405085D01*
X65996517Y-40328428D01*
X65996504Y-40328421D01*
X65869032Y-40275621D01*
X65869022Y-40275618D01*
X65733695Y-40248700D01*
X65733693Y-40248700D01*
X65691159Y-40248700D01*
X65624120Y-40229015D01*
X65578365Y-40176211D01*
X65568421Y-40107053D01*
X65597446Y-40043497D01*
X65603478Y-40037019D01*
X65788851Y-39851646D01*
X66590587Y-39049908D01*
X66651908Y-39016425D01*
X66702458Y-39015974D01*
X66896138Y-39054500D01*
X66896141Y-39054500D01*
X67103861Y-39054500D01*
X67103862Y-39054499D01*
X67307586Y-39013976D01*
X67499493Y-38934486D01*
X67672204Y-38819083D01*
X67819083Y-38672204D01*
X67934486Y-38499493D01*
X68013976Y-38307586D01*
X68054500Y-38103859D01*
X68054500Y-37896141D01*
X68054500Y-37896138D01*
X68054499Y-37896136D01*
X68027156Y-37758673D01*
X68013976Y-37692414D01*
X68013974Y-37692409D01*
X67934488Y-37500511D01*
X67934487Y-37500509D01*
X67932746Y-37497904D01*
X67819083Y-37327796D01*
X67819080Y-37327792D01*
X67672207Y-37180919D01*
X67672203Y-37180916D01*
X67499490Y-37065512D01*
X67499488Y-37065511D01*
X67307590Y-36986025D01*
X67307578Y-36986022D01*
X67103862Y-36945500D01*
X67103859Y-36945500D01*
X66896141Y-36945500D01*
X66896138Y-36945500D01*
X66692421Y-36986022D01*
X66692409Y-36986025D01*
X66500511Y-37065511D01*
X66500509Y-37065512D01*
X66327796Y-37180916D01*
X66327792Y-37180919D01*
X66180919Y-37327792D01*
X66180916Y-37327796D01*
X66065512Y-37500509D01*
X66065511Y-37500511D01*
X65986025Y-37692409D01*
X65986022Y-37692421D01*
X65945500Y-37896136D01*
X65945500Y-38103863D01*
X65984025Y-38297540D01*
X65977798Y-38367131D01*
X65950089Y-38409412D01*
X64680113Y-39679390D01*
X64614181Y-39745322D01*
X64552858Y-39778807D01*
X64483166Y-39773823D01*
X64427233Y-39731951D01*
X64402816Y-39666487D01*
X64402500Y-39657641D01*
X64402500Y-37447464D01*
X64402500Y-37447462D01*
X64375098Y-37345195D01*
X64322160Y-37253505D01*
X64247295Y-37178640D01*
X64050566Y-36981911D01*
X64017081Y-36920588D01*
X64015131Y-36879446D01*
X64025500Y-36793102D01*
X64025500Y-36206898D01*
X64014877Y-36118436D01*
X63959361Y-35977658D01*
X63959360Y-35977657D01*
X63959360Y-35977656D01*
X63867922Y-35857077D01*
X63747343Y-35765639D01*
X63617110Y-35714282D01*
X63606564Y-35710123D01*
X63606563Y-35710122D01*
X63606561Y-35710122D01*
X63560926Y-35704642D01*
X63518102Y-35699500D01*
X63518097Y-35699500D01*
X62819517Y-35699500D01*
X62752478Y-35679815D01*
X62731836Y-35663181D01*
X61562965Y-34494310D01*
X61529480Y-34432987D01*
X61534464Y-34363295D01*
X61537202Y-34356564D01*
X61551585Y-34323991D01*
X61554500Y-34298865D01*
X61554499Y-33046099D01*
X61574184Y-32979061D01*
X61626987Y-32933306D01*
X61678499Y-32922100D01*
X65802083Y-32922100D01*
X65831523Y-32930744D01*
X65861510Y-32937268D01*
X65866525Y-32941022D01*
X65869122Y-32941785D01*
X65889764Y-32958419D01*
X65967779Y-33036434D01*
X66001264Y-33097757D01*
X65996280Y-33167449D01*
X65994680Y-33171514D01*
X65986024Y-33192414D01*
X65986023Y-33192418D01*
X65986022Y-33192421D01*
X65986021Y-33192421D01*
X65945500Y-33396136D01*
X65945500Y-33603863D01*
X65986022Y-33807578D01*
X65986025Y-33807590D01*
X66065511Y-33999488D01*
X66065512Y-33999490D01*
X66180916Y-34172203D01*
X66180919Y-34172207D01*
X66327792Y-34319080D01*
X66327796Y-34319083D01*
X66500507Y-34434486D01*
X66500508Y-34434486D01*
X66500509Y-34434487D01*
X66500511Y-34434488D01*
X66673653Y-34506205D01*
X66692414Y-34513976D01*
X66896136Y-34554499D01*
X66896139Y-34554500D01*
X66896141Y-34554500D01*
X67103861Y-34554500D01*
X67103862Y-34554499D01*
X67307586Y-34513976D01*
X67499493Y-34434486D01*
X67672204Y-34319083D01*
X67819083Y-34172204D01*
X67934486Y-33999493D01*
X68013976Y-33807586D01*
X68054500Y-33603859D01*
X68054500Y-33396141D01*
X68054500Y-33396138D01*
X68054499Y-33396136D01*
X68041157Y-33329060D01*
X68013976Y-33192414D01*
X67974768Y-33097757D01*
X67934488Y-33000511D01*
X67934487Y-33000509D01*
X67892230Y-32937268D01*
X67819083Y-32827796D01*
X67819080Y-32827792D01*
X67692419Y-32701131D01*
X72445500Y-32701131D01*
X72445500Y-34298856D01*
X72445502Y-34298882D01*
X72448413Y-34323987D01*
X72448415Y-34323991D01*
X72493793Y-34426764D01*
X72493794Y-34426765D01*
X72573235Y-34506206D01*
X72676009Y-34551585D01*
X72701135Y-34554500D01*
X73019296Y-34554499D01*
X73086335Y-34574183D01*
X73126682Y-34616497D01*
X73166429Y-34685338D01*
X73178240Y-34705795D01*
X73253105Y-34780660D01*
X73344795Y-34833598D01*
X73447062Y-34861000D01*
X73552938Y-34861000D01*
X73740983Y-34861000D01*
X73808022Y-34880685D01*
X73828664Y-34897319D01*
X74949433Y-36018088D01*
X74982918Y-36079411D01*
X74984868Y-36120551D01*
X74977821Y-36179242D01*
X74974500Y-36206898D01*
X74974500Y-36793102D01*
X74980126Y-36839954D01*
X74985122Y-36881561D01*
X75040639Y-37022343D01*
X75132077Y-37142922D01*
X75252656Y-37234360D01*
X75252657Y-37234360D01*
X75252658Y-37234361D01*
X75393436Y-37289877D01*
X75481898Y-37300500D01*
X75481903Y-37300500D01*
X76518097Y-37300500D01*
X76518102Y-37300500D01*
X76606564Y-37289877D01*
X76747342Y-37234361D01*
X76867922Y-37142922D01*
X76959361Y-37022342D01*
X77014877Y-36881564D01*
X77025500Y-36793102D01*
X77025500Y-36206898D01*
X77014877Y-36118436D01*
X76959361Y-35977658D01*
X76959360Y-35977657D01*
X76959360Y-35977656D01*
X76867922Y-35857077D01*
X76747343Y-35765639D01*
X76617110Y-35714282D01*
X76606564Y-35710123D01*
X76606563Y-35710122D01*
X76606561Y-35710122D01*
X76560926Y-35704642D01*
X76518102Y-35699500D01*
X76518097Y-35699500D01*
X75819517Y-35699500D01*
X75752478Y-35679815D01*
X75731836Y-35663181D01*
X74562965Y-34494310D01*
X74529480Y-34432987D01*
X74528790Y-34383670D01*
X74531436Y-34369623D01*
X74551585Y-34323991D01*
X74554500Y-34298865D01*
X74554500Y-34262269D01*
X80817182Y-34262269D01*
X80817182Y-34610518D01*
X80856171Y-34956552D01*
X80856173Y-34956564D01*
X80933664Y-35296078D01*
X80933667Y-35296086D01*
X81048681Y-35624776D01*
X81199774Y-35938524D01*
X81385053Y-36233393D01*
X81385054Y-36233395D01*
X81602169Y-36505650D01*
X81848425Y-36751906D01*
X82120680Y-36969021D01*
X82120683Y-36969022D01*
X82120685Y-36969024D01*
X82274446Y-37065639D01*
X82415551Y-37154301D01*
X82470818Y-37180916D01*
X82729303Y-37305396D01*
X82964855Y-37387819D01*
X83057989Y-37420408D01*
X83057997Y-37420411D01*
X83058000Y-37420411D01*
X83058001Y-37420412D01*
X83397511Y-37497903D01*
X83743558Y-37536893D01*
X83743559Y-37536894D01*
X83743562Y-37536894D01*
X84091805Y-37536894D01*
X84091805Y-37536893D01*
X84437853Y-37497903D01*
X84777363Y-37420412D01*
X85106061Y-37305396D01*
X85419815Y-37154300D01*
X85714679Y-36969024D01*
X85736414Y-36951691D01*
X85986938Y-36751906D01*
X85986940Y-36751903D01*
X85986945Y-36751900D01*
X86233188Y-36505657D01*
X86250670Y-36483736D01*
X86450309Y-36233395D01*
X86450310Y-36233393D01*
X86450312Y-36233391D01*
X86635588Y-35938527D01*
X86786684Y-35624773D01*
X86901700Y-35296075D01*
X86979191Y-34956565D01*
X87018182Y-34610514D01*
X87018182Y-34262274D01*
X86979191Y-33916223D01*
X86901700Y-33576713D01*
X86900581Y-33573516D01*
X86853909Y-33440135D01*
X86786684Y-33248015D01*
X86635588Y-32934261D01*
X86450312Y-32639397D01*
X86450310Y-32639394D01*
X86450309Y-32639392D01*
X86233194Y-32367137D01*
X85986938Y-32120881D01*
X85714683Y-31903766D01*
X85714681Y-31903765D01*
X85419812Y-31718486D01*
X85106064Y-31567393D01*
X84777374Y-31452379D01*
X84777366Y-31452376D01*
X84522730Y-31394257D01*
X84437853Y-31374885D01*
X84437849Y-31374884D01*
X84437840Y-31374883D01*
X84091806Y-31335894D01*
X84091802Y-31335894D01*
X83743562Y-31335894D01*
X83743557Y-31335894D01*
X83397523Y-31374883D01*
X83397511Y-31374885D01*
X83057997Y-31452376D01*
X83057989Y-31452379D01*
X82729299Y-31567393D01*
X82415551Y-31718486D01*
X82120682Y-31903765D01*
X82120680Y-31903766D01*
X81848425Y-32120881D01*
X81602169Y-32367137D01*
X81385054Y-32639392D01*
X81385053Y-32639394D01*
X81199774Y-32934263D01*
X81048681Y-33248011D01*
X80933667Y-33576701D01*
X80933664Y-33576709D01*
X80856173Y-33916223D01*
X80856171Y-33916235D01*
X80817182Y-34262269D01*
X74554500Y-34262269D01*
X74554499Y-32701136D01*
X74554497Y-32701117D01*
X74551586Y-32676012D01*
X74551585Y-32676010D01*
X74551585Y-32676009D01*
X74506206Y-32573235D01*
X74426765Y-32493794D01*
X74409161Y-32486021D01*
X74323992Y-32448415D01*
X74298865Y-32445500D01*
X72701143Y-32445500D01*
X72701117Y-32445502D01*
X72676012Y-32448413D01*
X72676008Y-32448415D01*
X72573235Y-32493793D01*
X72493794Y-32573234D01*
X72448415Y-32676006D01*
X72448415Y-32676008D01*
X72445500Y-32701131D01*
X67692419Y-32701131D01*
X67672207Y-32680919D01*
X67672203Y-32680916D01*
X67499490Y-32565512D01*
X67499488Y-32565511D01*
X67307590Y-32486025D01*
X67307578Y-32486022D01*
X67103862Y-32445500D01*
X67103859Y-32445500D01*
X66896141Y-32445500D01*
X66896138Y-32445500D01*
X66692421Y-32486021D01*
X66692421Y-32486022D01*
X66692418Y-32486023D01*
X66692414Y-32486024D01*
X66671563Y-32494660D01*
X66602097Y-32502128D01*
X66539618Y-32470852D01*
X66536434Y-32467779D01*
X66266897Y-32198242D01*
X66266895Y-32198240D01*
X66175205Y-32145302D01*
X66072938Y-32117900D01*
X59578062Y-32117900D01*
X59475795Y-32145302D01*
X59475792Y-32145303D01*
X59384108Y-32198236D01*
X59384103Y-32198240D01*
X57727605Y-33854740D01*
X57652742Y-33929602D01*
X57652740Y-33929605D01*
X57599802Y-34021294D01*
X57572400Y-34123562D01*
X57572400Y-50685126D01*
X57552715Y-50752165D01*
X57499911Y-50797920D01*
X57430753Y-50807864D01*
X57424209Y-50806743D01*
X57387796Y-50799500D01*
X57387793Y-50799500D01*
X57249807Y-50799500D01*
X57249805Y-50799500D01*
X57114477Y-50826418D01*
X57114467Y-50826421D01*
X56986995Y-50879221D01*
X56986982Y-50879228D01*
X56872258Y-50955885D01*
X56872254Y-50955888D01*
X56774688Y-51053454D01*
X56774685Y-51053458D01*
X56698028Y-51168182D01*
X56698021Y-51168195D01*
X56645221Y-51295667D01*
X56645218Y-51295677D01*
X56618300Y-51431004D01*
X56618300Y-51431007D01*
X56618300Y-51568993D01*
X56618300Y-51568995D01*
X56618299Y-51568995D01*
X56645218Y-51704322D01*
X56645221Y-51704332D01*
X56698022Y-51831806D01*
X56698023Y-51831807D01*
X56698025Y-51831811D01*
X56706155Y-51843978D01*
X56742702Y-51898674D01*
X56763580Y-51965351D01*
X56763600Y-51967565D01*
X56763600Y-52485500D01*
X56743915Y-52552539D01*
X56691111Y-52598294D01*
X56639600Y-52609500D01*
X55680400Y-52609500D01*
X55613361Y-52589815D01*
X55567606Y-52537011D01*
X55556400Y-52485500D01*
X55556400Y-39043877D01*
X55556400Y-39043875D01*
X55525536Y-38928687D01*
X55465910Y-38825413D01*
X55381587Y-38741090D01*
X55049909Y-38409412D01*
X55016425Y-38348090D01*
X55015974Y-38297540D01*
X55016624Y-38294276D01*
X55053896Y-38106898D01*
X55054500Y-38103861D01*
X55054500Y-37896138D01*
X55054499Y-37896136D01*
X55027156Y-37758673D01*
X55013976Y-37692414D01*
X55013974Y-37692409D01*
X54934488Y-37500511D01*
X54934487Y-37500509D01*
X54932746Y-37497904D01*
X54819083Y-37327796D01*
X54819080Y-37327792D01*
X54672207Y-37180919D01*
X54672203Y-37180916D01*
X54499490Y-37065512D01*
X54499488Y-37065511D01*
X54307590Y-36986025D01*
X54307578Y-36986022D01*
X54103862Y-36945500D01*
X54103859Y-36945500D01*
X53896141Y-36945500D01*
X53896138Y-36945500D01*
X53692421Y-36986022D01*
X53692409Y-36986025D01*
X53500511Y-37065511D01*
X53500509Y-37065512D01*
X53327796Y-37180916D01*
X53327792Y-37180919D01*
X53180919Y-37327792D01*
X53180916Y-37327796D01*
X53065512Y-37500509D01*
X53065511Y-37500511D01*
X52986025Y-37692409D01*
X52986022Y-37692421D01*
X52945500Y-37896136D01*
X52945500Y-38103863D01*
X52986022Y-38307578D01*
X52986025Y-38307590D01*
X53065511Y-38499488D01*
X53065512Y-38499490D01*
X53180916Y-38672203D01*
X53180919Y-38672207D01*
X53327792Y-38819080D01*
X53327796Y-38819083D01*
X53500507Y-38934486D01*
X53500508Y-38934486D01*
X53500509Y-38934487D01*
X53500511Y-38934488D01*
X53692409Y-39013974D01*
X53692414Y-39013976D01*
X53837935Y-39042922D01*
X53896136Y-39054499D01*
X53896139Y-39054500D01*
X53896141Y-39054500D01*
X54103861Y-39054500D01*
X54240964Y-39027228D01*
X54297540Y-39015974D01*
X54367132Y-39022201D01*
X54409413Y-39049910D01*
X54614281Y-39254778D01*
X54647766Y-39316101D01*
X54650600Y-39342459D01*
X54650600Y-53419624D01*
X54681464Y-53534814D01*
X54705457Y-53576369D01*
X54741090Y-53638087D01*
X54825413Y-53722410D01*
X54917400Y-53775519D01*
X54965615Y-53826087D01*
X54978837Y-53894694D01*
X54968303Y-53929062D01*
X54969746Y-53929601D01*
X54916403Y-54072620D01*
X54916401Y-54072627D01*
X54910000Y-54132155D01*
X54910000Y-54380000D01*
X56036000Y-54380000D01*
X56103039Y-54399685D01*
X56148794Y-54452489D01*
X56160000Y-54504000D01*
X56160000Y-54756000D01*
X56140315Y-54823039D01*
X56087511Y-54868794D01*
X56036000Y-54880000D01*
X54910000Y-54880000D01*
X54910000Y-55127844D01*
X54916401Y-55187372D01*
X54916403Y-55187379D01*
X54966645Y-55322086D01*
X54966647Y-55322088D01*
X55052809Y-55437186D01*
X55052811Y-55437188D01*
X55059809Y-55442427D01*
X55101681Y-55498359D01*
X55109500Y-55541695D01*
X55109500Y-56394856D01*
X55109502Y-56394882D01*
X55112413Y-56419987D01*
X55112414Y-56419988D01*
X55141081Y-56484914D01*
X55150152Y-56554192D01*
X55141081Y-56585084D01*
X55112415Y-56650006D01*
X55112415Y-56650008D01*
X55109500Y-56675131D01*
X55109500Y-57664856D01*
X55109502Y-57664882D01*
X55112413Y-57689987D01*
X55112414Y-57689988D01*
X55112414Y-57689990D01*
X55112415Y-57689991D01*
X55118747Y-57704332D01*
X55141081Y-57754914D01*
X55150152Y-57824192D01*
X55141081Y-57855084D01*
X55112415Y-57920006D01*
X55112415Y-57920008D01*
X55109500Y-57945131D01*
X55109500Y-58934856D01*
X55109502Y-58934882D01*
X55112413Y-58959987D01*
X55112414Y-58959988D01*
X55112414Y-58959990D01*
X55112415Y-58959991D01*
X55120275Y-58977792D01*
X55141081Y-59024914D01*
X55144815Y-59053433D01*
X55151480Y-59081411D01*
X55149543Y-59089544D01*
X55150152Y-59094192D01*
X55144657Y-59116040D01*
X55143040Y-59120647D01*
X55112415Y-59190009D01*
X55109500Y-59215135D01*
X55109500Y-59216276D01*
X55104730Y-59229876D01*
X55092079Y-59247487D01*
X55083612Y-59267451D01*
X55072098Y-59275302D01*
X55063967Y-59286622D01*
X55043801Y-59294598D01*
X55025886Y-59306815D01*
X55019820Y-59308607D01*
X54920195Y-59335302D01*
X54920193Y-59335302D01*
X54920193Y-59335303D01*
X54828505Y-59388240D01*
X54828502Y-59388242D01*
X52026442Y-62190302D01*
X52026440Y-62190305D01*
X51973502Y-62281994D01*
X51946100Y-62384262D01*
X51946100Y-62473382D01*
X51926415Y-62540421D01*
X51909781Y-62561063D01*
X47121549Y-67349294D01*
X47060226Y-67382779D01*
X46990534Y-67377795D01*
X46977573Y-67372098D01*
X46941639Y-67353789D01*
X46941636Y-67353787D01*
X46769410Y-67297829D01*
X46609321Y-67272473D01*
X46546186Y-67242544D01*
X46509255Y-67183232D01*
X46510253Y-67113370D01*
X46548863Y-67055137D01*
X46609321Y-67027527D01*
X46679425Y-67016422D01*
X46769409Y-67002171D01*
X46941639Y-66946211D01*
X47102994Y-66863996D01*
X47249501Y-66757553D01*
X47377553Y-66629501D01*
X47483996Y-66482994D01*
X47566211Y-66321639D01*
X47622171Y-66149409D01*
X47647366Y-65990335D01*
X47650500Y-65970551D01*
X47650500Y-65789448D01*
X47634019Y-65685397D01*
X47622171Y-65610591D01*
X47594191Y-65524476D01*
X47566212Y-65438363D01*
X47566211Y-65438360D01*
X47533882Y-65374913D01*
X47483996Y-65277006D01*
X47402400Y-65164698D01*
X47377558Y-65130505D01*
X47377554Y-65130500D01*
X47249499Y-65002445D01*
X47249494Y-65002441D01*
X47102997Y-64896006D01*
X47102996Y-64896005D01*
X47102994Y-64896004D01*
X47051300Y-64869664D01*
X46941639Y-64813788D01*
X46941636Y-64813787D01*
X46769410Y-64757829D01*
X46590551Y-64729500D01*
X46590546Y-64729500D01*
X46409454Y-64729500D01*
X46409449Y-64729500D01*
X46230589Y-64757829D01*
X46058363Y-64813787D01*
X46058360Y-64813788D01*
X45897002Y-64896006D01*
X45750505Y-65002441D01*
X45750500Y-65002445D01*
X45622445Y-65130500D01*
X45622441Y-65130505D01*
X45516006Y-65277002D01*
X45433788Y-65438360D01*
X45433787Y-65438363D01*
X45377829Y-65610589D01*
X45349500Y-65789448D01*
X45349500Y-65970551D01*
X45377829Y-66149410D01*
X45433787Y-66321636D01*
X45433788Y-66321639D01*
X45489664Y-66431300D01*
X45511252Y-66473668D01*
X45516006Y-66482997D01*
X45622441Y-66629494D01*
X45622445Y-66629499D01*
X45750500Y-66757554D01*
X45750505Y-66757558D01*
X45857282Y-66835135D01*
X45897006Y-66863996D01*
X46002484Y-66917740D01*
X46058360Y-66946211D01*
X46058363Y-66946212D01*
X46144476Y-66974191D01*
X46230591Y-67002171D01*
X46303639Y-67013740D01*
X46390678Y-67027527D01*
X46453813Y-67057456D01*
X46490744Y-67116768D01*
X46489746Y-67186631D01*
X46451136Y-67244863D01*
X46390678Y-67272473D01*
X46230589Y-67297829D01*
X46058363Y-67353787D01*
X46058360Y-67353788D01*
X45897002Y-67436006D01*
X45750505Y-67542441D01*
X45750500Y-67542445D01*
X45622445Y-67670500D01*
X45622441Y-67670505D01*
X45516006Y-67817002D01*
X45433788Y-67978360D01*
X45433787Y-67978363D01*
X45414342Y-68038212D01*
X45374905Y-68095887D01*
X45310546Y-68123086D01*
X45241700Y-68111171D01*
X45208730Y-68087575D01*
X44750719Y-67629564D01*
X44717234Y-67568241D01*
X44714400Y-67541883D01*
X44714400Y-56121668D01*
X44734085Y-56054629D01*
X44786889Y-56008874D01*
X44853185Y-55998553D01*
X44869398Y-56000500D01*
X45480597Y-56000500D01*
X45480602Y-56000500D01*
X45569064Y-55989877D01*
X45709842Y-55934361D01*
X45830422Y-55842922D01*
X45869002Y-55792046D01*
X45925192Y-55750524D01*
X45994913Y-55745971D01*
X46056028Y-55779836D01*
X46073343Y-55801875D01*
X46145180Y-55918340D01*
X46145183Y-55918344D01*
X46269154Y-56042315D01*
X46418375Y-56134356D01*
X46418380Y-56134358D01*
X46584802Y-56189505D01*
X46584809Y-56189506D01*
X46687519Y-56199999D01*
X47250000Y-56199999D01*
X47312472Y-56199999D01*
X47312486Y-56199998D01*
X47415197Y-56189505D01*
X47581619Y-56134358D01*
X47581624Y-56134356D01*
X47730845Y-56042315D01*
X47854815Y-55918345D01*
X47946856Y-55769124D01*
X47946858Y-55769119D01*
X48002005Y-55602697D01*
X48002006Y-55602690D01*
X48012499Y-55499986D01*
X48012500Y-55499973D01*
X48012500Y-55250000D01*
X47250000Y-55250000D01*
X47250000Y-56199999D01*
X46687519Y-56199999D01*
X46749999Y-56199998D01*
X46750000Y-56199998D01*
X46750000Y-54750000D01*
X47250000Y-54750000D01*
X48012499Y-54750000D01*
X48012499Y-54500028D01*
X48012498Y-54500013D01*
X48002005Y-54397302D01*
X47946858Y-54230880D01*
X47946856Y-54230875D01*
X47854815Y-54081654D01*
X47730845Y-53957684D01*
X47581624Y-53865643D01*
X47581619Y-53865641D01*
X47415197Y-53810494D01*
X47415190Y-53810493D01*
X47312486Y-53800000D01*
X47250000Y-53800000D01*
X47250000Y-54750000D01*
X46750000Y-54750000D01*
X46750000Y-53800000D01*
X46749999Y-53799999D01*
X46687528Y-53800000D01*
X46687511Y-53800001D01*
X46584802Y-53810494D01*
X46418380Y-53865641D01*
X46418375Y-53865643D01*
X46269154Y-53957684D01*
X46145182Y-54081656D01*
X46073343Y-54198125D01*
X46021395Y-54244849D01*
X45952432Y-54256070D01*
X45888350Y-54228227D01*
X45869001Y-54207952D01*
X45830422Y-54157077D01*
X45709843Y-54065639D01*
X45685035Y-54055856D01*
X45655608Y-54044252D01*
X45600466Y-54001347D01*
X45577273Y-53935439D01*
X45577100Y-53928898D01*
X45577100Y-52802823D01*
X45596785Y-52735784D01*
X45649589Y-52690029D01*
X45681695Y-52680351D01*
X45741118Y-52670940D01*
X45920832Y-52612547D01*
X46089199Y-52526760D01*
X46242073Y-52415690D01*
X46375690Y-52282073D01*
X46486760Y-52129199D01*
X46565015Y-51975613D01*
X46612989Y-51924817D01*
X46680810Y-51908022D01*
X46746945Y-51930559D01*
X46790397Y-51985274D01*
X46799500Y-52031908D01*
X46799500Y-52444856D01*
X46799502Y-52444882D01*
X46802413Y-52469987D01*
X46802415Y-52469991D01*
X46847793Y-52572764D01*
X46847794Y-52572765D01*
X46927235Y-52652206D01*
X47030009Y-52697585D01*
X47055135Y-52700500D01*
X48944864Y-52700499D01*
X48944879Y-52700497D01*
X48944882Y-52700497D01*
X48969987Y-52697586D01*
X48969988Y-52697585D01*
X48969991Y-52697585D01*
X49072765Y-52652206D01*
X49152206Y-52572765D01*
X49197585Y-52469991D01*
X49200500Y-52444865D01*
X49200499Y-50555136D01*
X49200497Y-50555117D01*
X49197586Y-50530012D01*
X49197585Y-50530010D01*
X49197585Y-50530009D01*
X49152206Y-50427235D01*
X49072765Y-50347794D01*
X49072763Y-50347793D01*
X48969992Y-50302415D01*
X48944865Y-50299500D01*
X47055143Y-50299500D01*
X47055117Y-50299502D01*
X47030012Y-50302413D01*
X47030008Y-50302415D01*
X46927235Y-50347793D01*
X46847794Y-50427234D01*
X46802415Y-50530006D01*
X46802415Y-50530008D01*
X46799500Y-50555131D01*
X46799500Y-50968090D01*
X46779815Y-51035129D01*
X46727011Y-51080884D01*
X46657853Y-51090828D01*
X46594297Y-51061803D01*
X46565015Y-51024385D01*
X46514568Y-50925378D01*
X46486760Y-50870801D01*
X46375690Y-50717927D01*
X46242073Y-50584310D01*
X46089199Y-50473240D01*
X45920836Y-50387454D01*
X45741119Y-50329060D01*
X45595667Y-50306022D01*
X45532533Y-50276092D01*
X45495602Y-50216781D01*
X45496600Y-50146918D01*
X45527383Y-50095871D01*
X47321761Y-48301495D01*
X47374698Y-48209805D01*
X47402100Y-48107537D01*
X47402100Y-48001662D01*
X47402100Y-47571101D01*
X47421785Y-47504062D01*
X47474589Y-47458307D01*
X47480589Y-47455755D01*
X47534842Y-47434361D01*
X47655422Y-47342922D01*
X47746861Y-47222342D01*
X47802377Y-47081564D01*
X47813000Y-46993102D01*
X47813000Y-46006898D01*
X47802377Y-45918436D01*
X47746861Y-45777658D01*
X47746860Y-45777657D01*
X47746860Y-45777656D01*
X47655422Y-45657077D01*
X47534843Y-45565639D01*
X47394061Y-45510122D01*
X47348426Y-45504642D01*
X47305602Y-45499500D01*
X46694398Y-45499500D01*
X46655353Y-45504188D01*
X46605938Y-45510122D01*
X46465156Y-45565639D01*
X46344577Y-45657077D01*
X46253139Y-45777656D01*
X46232145Y-45830894D01*
X46202853Y-45905171D01*
X46159949Y-45960314D01*
X46094041Y-45983507D01*
X46026056Y-45967386D01*
X45977580Y-45917070D01*
X45972148Y-45905178D01*
X45921861Y-45777658D01*
X45921860Y-45777657D01*
X45921860Y-45777656D01*
X45830422Y-45657077D01*
X45709843Y-45565639D01*
X45685035Y-45555856D01*
X45655608Y-45544252D01*
X45600466Y-45501347D01*
X45577273Y-45435439D01*
X45577100Y-45428898D01*
X45577100Y-44607817D01*
X45596785Y-44540778D01*
X45613419Y-44520136D01*
X45660915Y-44472640D01*
X45781761Y-44351795D01*
X45833316Y-44262499D01*
X45883883Y-44214284D01*
X45940703Y-44200499D01*
X46404856Y-44200499D01*
X46404864Y-44200499D01*
X46404879Y-44200497D01*
X46404882Y-44200497D01*
X46429987Y-44197586D01*
X46429988Y-44197585D01*
X46429991Y-44197585D01*
X46532765Y-44152206D01*
X46612206Y-44072765D01*
X46657585Y-43969991D01*
X46660500Y-43944865D01*
X46660499Y-43531906D01*
X46680183Y-43464870D01*
X46732987Y-43419115D01*
X46802146Y-43409171D01*
X46865702Y-43438196D01*
X46894984Y-43475614D01*
X46962671Y-43608457D01*
X46973240Y-43629199D01*
X47084310Y-43782073D01*
X47217927Y-43915690D01*
X47370801Y-44026760D01*
X47450347Y-44067290D01*
X47539163Y-44112545D01*
X47539165Y-44112545D01*
X47539168Y-44112547D01*
X47635497Y-44143846D01*
X47718881Y-44170940D01*
X47905514Y-44200500D01*
X47905519Y-44200500D01*
X48094486Y-44200500D01*
X48281118Y-44170940D01*
X48460832Y-44112547D01*
X48629199Y-44026760D01*
X48782073Y-43915690D01*
X48915690Y-43782073D01*
X49026760Y-43629199D01*
X49112547Y-43460832D01*
X49170940Y-43281118D01*
X49176965Y-43243080D01*
X49200500Y-43094486D01*
X49200500Y-42905513D01*
X49170940Y-42718881D01*
X49136561Y-42613074D01*
X49112547Y-42539168D01*
X49112545Y-42539165D01*
X49112545Y-42539163D01*
X49042887Y-42402453D01*
X49026760Y-42370801D01*
X48915690Y-42217927D01*
X48782073Y-42084310D01*
X48629199Y-41973240D01*
X48599876Y-41958299D01*
X48460836Y-41887454D01*
X48281118Y-41829059D01*
X48094486Y-41799500D01*
X48094481Y-41799500D01*
X47905519Y-41799500D01*
X47905514Y-41799500D01*
X47718880Y-41829060D01*
X47718877Y-41829060D01*
X47602968Y-41866722D01*
X47533127Y-41868717D01*
X47476969Y-41836472D01*
X46576719Y-40936221D01*
X46543234Y-40874898D01*
X46540400Y-40848540D01*
X46540400Y-39121788D01*
X46560085Y-39054749D01*
X46612889Y-39008994D01*
X46679185Y-38998673D01*
X46694398Y-39000500D01*
X46694399Y-39000500D01*
X47305597Y-39000500D01*
X47305602Y-39000500D01*
X47394064Y-38989877D01*
X47534842Y-38934361D01*
X47655422Y-38842922D01*
X47746861Y-38722342D01*
X47802377Y-38581564D01*
X47813000Y-38493102D01*
X47813000Y-37807017D01*
X47832685Y-37739978D01*
X47849319Y-37719336D01*
X48061757Y-37506898D01*
X48321761Y-37246895D01*
X48374698Y-37155205D01*
X48402100Y-37052937D01*
X48402100Y-36947062D01*
X48402100Y-35824499D01*
X48421785Y-35757460D01*
X48474589Y-35711705D01*
X48526100Y-35700499D01*
X48944856Y-35700499D01*
X48944864Y-35700499D01*
X48944879Y-35700497D01*
X48944882Y-35700497D01*
X48969987Y-35697586D01*
X48969988Y-35697585D01*
X48969991Y-35697585D01*
X49072765Y-35652206D01*
X49152206Y-35572765D01*
X49197585Y-35469991D01*
X49200500Y-35444865D01*
X49200499Y-33555136D01*
X49197992Y-33533515D01*
X49197586Y-33530012D01*
X49197585Y-33530010D01*
X49197585Y-33530009D01*
X49152206Y-33427235D01*
X49121107Y-33396136D01*
X52945500Y-33396136D01*
X52945500Y-33603863D01*
X52986022Y-33807578D01*
X52986025Y-33807590D01*
X53065511Y-33999488D01*
X53065512Y-33999490D01*
X53180916Y-34172203D01*
X53180919Y-34172207D01*
X53327792Y-34319080D01*
X53327796Y-34319083D01*
X53500507Y-34434486D01*
X53500508Y-34434486D01*
X53500509Y-34434487D01*
X53500511Y-34434488D01*
X53673653Y-34506205D01*
X53692414Y-34513976D01*
X53896136Y-34554499D01*
X53896139Y-34554500D01*
X53896141Y-34554500D01*
X54103861Y-34554500D01*
X54103862Y-34554499D01*
X54307586Y-34513976D01*
X54499493Y-34434486D01*
X54672204Y-34319083D01*
X54819083Y-34172204D01*
X54934486Y-33999493D01*
X55013976Y-33807586D01*
X55054500Y-33603859D01*
X55054500Y-33396141D01*
X55054500Y-33396138D01*
X55054499Y-33396136D01*
X55041157Y-33329060D01*
X55013976Y-33192414D01*
X54974768Y-33097757D01*
X54934488Y-33000511D01*
X54934487Y-33000509D01*
X54892230Y-32937268D01*
X54819083Y-32827796D01*
X54819080Y-32827792D01*
X54672207Y-32680919D01*
X54672203Y-32680916D01*
X54499490Y-32565512D01*
X54499488Y-32565511D01*
X54307590Y-32486025D01*
X54307578Y-32486022D01*
X54103862Y-32445500D01*
X54103859Y-32445500D01*
X53896141Y-32445500D01*
X53896138Y-32445500D01*
X53692421Y-32486022D01*
X53692409Y-32486025D01*
X53500511Y-32565511D01*
X53500509Y-32565512D01*
X53327796Y-32680916D01*
X53327792Y-32680919D01*
X53180919Y-32827792D01*
X53180916Y-32827796D01*
X53065512Y-33000509D01*
X53065511Y-33000511D01*
X52986025Y-33192409D01*
X52986022Y-33192421D01*
X52945500Y-33396136D01*
X49121107Y-33396136D01*
X49072765Y-33347794D01*
X49072763Y-33347793D01*
X48969992Y-33302415D01*
X48944865Y-33299500D01*
X47055143Y-33299500D01*
X47055117Y-33299502D01*
X47030012Y-33302413D01*
X47030008Y-33302415D01*
X46927235Y-33347793D01*
X46847794Y-33427234D01*
X46802415Y-33530006D01*
X46802415Y-33530008D01*
X46799500Y-33555131D01*
X46799500Y-33968090D01*
X46779815Y-34035129D01*
X46727011Y-34080884D01*
X46657853Y-34090828D01*
X46594297Y-34061803D01*
X46565015Y-34024385D01*
X46516722Y-33929605D01*
X46486760Y-33870801D01*
X46375690Y-33717927D01*
X46242073Y-33584310D01*
X46089199Y-33473240D01*
X46024227Y-33440135D01*
X45920836Y-33387454D01*
X45741118Y-33329059D01*
X45554486Y-33299500D01*
X45554481Y-33299500D01*
X45365519Y-33299500D01*
X45365514Y-33299500D01*
X45178881Y-33329059D01*
X44999163Y-33387454D01*
X44830800Y-33473240D01*
X44752661Y-33530012D01*
X44677927Y-33584310D01*
X44677925Y-33584312D01*
X44677924Y-33584312D01*
X44544312Y-33717924D01*
X44544312Y-33717925D01*
X44544310Y-33717927D01*
X44512937Y-33761108D01*
X44433240Y-33870800D01*
X44347454Y-34039163D01*
X44289059Y-34218881D01*
X44259500Y-34405513D01*
X44259500Y-34594486D01*
X44289059Y-34781118D01*
X44347454Y-34960836D01*
X44397853Y-35059748D01*
X44433240Y-35129199D01*
X44544310Y-35282073D01*
X44677927Y-35415690D01*
X44830801Y-35526760D01*
X44910347Y-35567290D01*
X44999163Y-35612545D01*
X44999165Y-35612545D01*
X44999168Y-35612547D01*
X45036796Y-35624773D01*
X45178881Y-35670940D01*
X45365514Y-35700500D01*
X45510600Y-35700500D01*
X45577639Y-35720185D01*
X45623394Y-35772989D01*
X45634600Y-35824500D01*
X45634600Y-36878211D01*
X45614915Y-36945250D01*
X45562111Y-36991005D01*
X45495821Y-37001327D01*
X45480602Y-36999500D01*
X44869398Y-36999500D01*
X44832774Y-37003898D01*
X44780938Y-37010122D01*
X44640156Y-37065639D01*
X44519577Y-37157077D01*
X44428139Y-37277656D01*
X44372622Y-37418438D01*
X44366688Y-37467853D01*
X44362000Y-37506898D01*
X44362000Y-37506903D01*
X44362000Y-38192983D01*
X44342315Y-38260022D01*
X44325681Y-38280664D01*
X44031242Y-38575102D01*
X44031240Y-38575105D01*
X43978302Y-38666794D01*
X43950900Y-38769062D01*
X43950900Y-46779562D01*
X43931215Y-46846601D01*
X43878411Y-46892356D01*
X43809253Y-46902300D01*
X43802709Y-46901179D01*
X43689697Y-46878700D01*
X43689693Y-46878700D01*
X43551707Y-46878700D01*
X43551705Y-46878700D01*
X43416377Y-46905618D01*
X43416367Y-46905621D01*
X43351952Y-46932303D01*
X43282483Y-46939772D01*
X43220004Y-46908496D01*
X43184352Y-46848407D01*
X43180500Y-46817742D01*
X43180500Y-30804500D01*
X43200185Y-30737461D01*
X43252989Y-30691706D01*
X43304500Y-30680500D01*
X92715926Y-30680500D01*
X92782965Y-30700185D01*
G37*
%TD.AperFunction*%
%TD*%
M02*
