%TF.GenerationSoftware,KiCad,Pcbnew,9.0.1*%
%TF.CreationDate,2025-11-13T22:26:36+01:00*%
%TF.ProjectId,dise_o_v2,64697365-f16f-45f7-9632-2e6b69636164,rev?*%
%TF.SameCoordinates,Original*%
%TF.FileFunction,Soldermask,Top*%
%TF.FilePolarity,Negative*%
%FSLAX46Y46*%
G04 Gerber Fmt 4.6, Leading zero omitted, Abs format (unit mm)*
G04 Created by KiCad (PCBNEW 9.0.1) date 2025-11-13 22:26:36*
%MOMM*%
%LPD*%
G01*
G04 APERTURE LIST*
G04 Aperture macros list*
%AMRoundRect*
0 Rectangle with rounded corners*
0 $1 Rounding radius*
0 $2 $3 $4 $5 $6 $7 $8 $9 X,Y pos of 4 corners*
0 Add a 4 corners polygon primitive as box body*
4,1,4,$2,$3,$4,$5,$6,$7,$8,$9,$2,$3,0*
0 Add four circle primitives for the rounded corners*
1,1,$1+$1,$2,$3*
1,1,$1+$1,$4,$5*
1,1,$1+$1,$6,$7*
1,1,$1+$1,$8,$9*
0 Add four rect primitives between the rounded corners*
20,1,$1+$1,$2,$3,$4,$5,0*
20,1,$1+$1,$4,$5,$6,$7,0*
20,1,$1+$1,$6,$7,$8,$9,0*
20,1,$1+$1,$8,$9,$2,$3,0*%
G04 Aperture macros list end*
%ADD10RoundRect,0.250000X-0.262500X-0.450000X0.262500X-0.450000X0.262500X0.450000X-0.262500X0.450000X0*%
%ADD11C,5.600000*%
%ADD12RoundRect,0.250000X-0.475000X0.250000X-0.475000X-0.250000X0.475000X-0.250000X0.475000X0.250000X0*%
%ADD13R,1.500000X0.900000*%
%ADD14R,0.900000X1.500000*%
%ADD15R,0.900000X0.900000*%
%ADD16C,0.600000*%
%ADD17RoundRect,0.250000X0.262500X0.450000X-0.262500X0.450000X-0.262500X-0.450000X0.262500X-0.450000X0*%
%ADD18RoundRect,0.250000X0.475000X-0.250000X0.475000X0.250000X-0.475000X0.250000X-0.475000X-0.250000X0*%
%ADD19RoundRect,0.250000X-0.350000X-0.625000X0.350000X-0.625000X0.350000X0.625000X-0.350000X0.625000X0*%
%ADD20O,1.200000X1.750000*%
%ADD21RoundRect,0.150000X0.825000X0.150000X-0.825000X0.150000X-0.825000X-0.150000X0.825000X-0.150000X0*%
%ADD22R,2.410000X3.300000*%
%ADD23R,1.700000X1.700000*%
%ADD24C,1.700000*%
%ADD25RoundRect,0.150000X0.150000X-0.512500X0.150000X0.512500X-0.150000X0.512500X-0.150000X-0.512500X0*%
%ADD26RoundRect,0.250000X-0.450000X0.262500X-0.450000X-0.262500X0.450000X-0.262500X0.450000X0.262500X0*%
%ADD27RoundRect,0.250000X0.250000X0.475000X-0.250000X0.475000X-0.250000X-0.475000X0.250000X-0.475000X0*%
%ADD28O,1.000000X1.700000*%
%ADD29O,0.850000X1.700000*%
%ADD30R,1.800000X1.800000*%
%ADD31C,1.800000*%
%ADD32RoundRect,0.102000X0.754000X0.754000X-0.754000X0.754000X-0.754000X-0.754000X0.754000X-0.754000X0*%
%ADD33C,1.712000*%
%ADD34C,2.704000*%
%ADD35RoundRect,0.102000X1.250000X-1.250000X1.250000X1.250000X-1.250000X1.250000X-1.250000X-1.250000X0*%
%ADD36RoundRect,0.102000X-0.654000X-0.654000X0.654000X-0.654000X0.654000X0.654000X-0.654000X0.654000X0*%
%ADD37C,1.512000*%
%ADD38RoundRect,0.102000X-0.599000X-0.599000X0.599000X-0.599000X0.599000X0.599000X-0.599000X0.599000X0*%
%ADD39C,1.402000*%
G04 APERTURE END LIST*
D10*
%TO.C,R2*%
X45175000Y-46500000D03*
X47000000Y-46500000D03*
%TD*%
D11*
%TO.C,REF\u002A\u002A*%
X47331758Y-87678711D03*
%TD*%
D12*
%TO.C,C6*%
X59000000Y-78550000D03*
X59000000Y-80450000D03*
%TD*%
D13*
%TO.C,U1*%
X56160000Y-53360000D03*
X56160000Y-54630000D03*
X56160000Y-55900000D03*
X56160000Y-57170000D03*
X56160000Y-58440000D03*
X56160000Y-59710000D03*
X56160000Y-60980000D03*
X56160000Y-62250000D03*
X56160000Y-63520000D03*
X56160000Y-64790000D03*
X56160000Y-66060000D03*
X56160000Y-67330000D03*
X56160000Y-68600000D03*
X56160000Y-69870000D03*
D14*
X59195000Y-71120000D03*
X60465000Y-71120000D03*
X61735000Y-71120000D03*
X63005000Y-71120000D03*
X64275000Y-71120000D03*
X65545000Y-71120000D03*
X66815000Y-71120000D03*
X68085000Y-71120000D03*
X69355000Y-71120000D03*
X70625000Y-71120000D03*
D13*
X73660000Y-69870000D03*
X73660000Y-68600000D03*
X73660000Y-67330000D03*
X73660000Y-66060000D03*
X73660000Y-64790000D03*
X73660000Y-63520000D03*
X73660000Y-62250000D03*
X73660000Y-60980000D03*
X73660000Y-59710000D03*
X73660000Y-58440000D03*
X73660000Y-57170000D03*
X73660000Y-55900000D03*
X73660000Y-54630000D03*
X73660000Y-53360000D03*
D15*
X62010000Y-59680000D03*
D16*
X62010000Y-60380000D03*
D15*
X62010000Y-61080000D03*
D16*
X62010000Y-61780000D03*
D15*
X62010000Y-62480000D03*
D16*
X62710000Y-59680000D03*
X62710000Y-61080000D03*
X62710000Y-62480000D03*
D15*
X63410000Y-59680000D03*
D16*
X63410000Y-60380000D03*
D15*
X63410000Y-61080000D03*
D16*
X63410000Y-61780000D03*
D15*
X63410000Y-62480000D03*
D16*
X64110000Y-59680000D03*
X64110000Y-61080000D03*
X64110000Y-62480000D03*
D15*
X64810000Y-59680000D03*
D16*
X64810000Y-60380000D03*
D15*
X64810000Y-61080000D03*
D16*
X64810000Y-61780000D03*
D15*
X64810000Y-62480000D03*
%TD*%
D17*
%TO.C,R9*%
X47000000Y-55000000D03*
X45175000Y-55000000D03*
%TD*%
D12*
%TO.C,C11*%
X76000000Y-36500000D03*
X76000000Y-38400000D03*
%TD*%
D18*
%TO.C,C1*%
X49000000Y-80500000D03*
X49000000Y-78600000D03*
%TD*%
D12*
%TO.C,C2*%
X56000000Y-78600000D03*
X56000000Y-80500000D03*
%TD*%
D19*
%TO.C,J2*%
X66040000Y-84568000D03*
D20*
X68040000Y-84568000D03*
%TD*%
D21*
%TO.C,U3*%
X66675000Y-79305000D03*
X66675000Y-78035000D03*
X66675000Y-76765000D03*
X66675000Y-75495000D03*
X61725000Y-75495000D03*
X61725000Y-76765000D03*
X61725000Y-78035000D03*
X61725000Y-79305000D03*
D22*
X64200000Y-77400000D03*
%TD*%
D11*
%TO.C,REF\u002A\u002A*%
X83917682Y-34436394D03*
%TD*%
D23*
%TO.C,J6*%
X91212100Y-34681100D03*
D24*
X91212100Y-37221100D03*
X91212100Y-39761100D03*
X91212100Y-42301100D03*
X91212100Y-44841100D03*
X91212100Y-47381100D03*
X91212100Y-49921100D03*
X91212100Y-52461100D03*
%TD*%
D25*
%TO.C,U2*%
X51600000Y-81000000D03*
X52550000Y-81000000D03*
X53500000Y-81000000D03*
X53500000Y-78725000D03*
X51600000Y-78725000D03*
%TD*%
D17*
%TO.C,R1*%
X47000000Y-38000000D03*
X45175000Y-38000000D03*
%TD*%
D12*
%TO.C,C12*%
X63000000Y-36500000D03*
X63000000Y-38400000D03*
%TD*%
D26*
%TO.C,R3*%
X70076800Y-76915000D03*
X70076800Y-78740000D03*
%TD*%
D27*
%TO.C,C13*%
X58950000Y-75500000D03*
X57050000Y-75500000D03*
%TD*%
%TO.C,C14*%
X83180000Y-88900000D03*
X81280000Y-88900000D03*
%TD*%
D16*
%TO.C,J1*%
X57797299Y-87667066D03*
X53797299Y-87667066D03*
D28*
X58622299Y-90017066D03*
D29*
X52972299Y-90017066D03*
%TD*%
D30*
%TO.C,D1*%
X48000000Y-51500000D03*
D31*
X45460000Y-51500000D03*
%TD*%
D23*
%TO.C,J4*%
X90000000Y-78740000D03*
D24*
X90000000Y-81280000D03*
X90000000Y-83820000D03*
X90000000Y-86360000D03*
%TD*%
D32*
%TO.C,S2*%
X73500000Y-33500000D03*
D33*
X67000000Y-33500000D03*
X73500000Y-38000000D03*
X67000000Y-38000000D03*
%TD*%
D23*
%TO.C,J5*%
X73660000Y-78740000D03*
D24*
X73660000Y-81280000D03*
X73660000Y-83820000D03*
X73660000Y-86360000D03*
%TD*%
D30*
%TO.C,D3*%
X45460000Y-43000000D03*
D31*
X48000000Y-43000000D03*
%TD*%
D34*
%TO.C,LS1*%
X83820000Y-61120000D03*
D35*
X83820000Y-71120000D03*
%TD*%
D30*
%TO.C,D2*%
X48000000Y-34500000D03*
D31*
X45460000Y-34500000D03*
%TD*%
D23*
%TO.C,J3*%
X46500000Y-73500000D03*
D24*
X46500000Y-70960000D03*
X46500000Y-68420000D03*
X46500000Y-65880000D03*
%TD*%
D36*
%TO.C,S1*%
X63960000Y-43000000D03*
D37*
X61420000Y-43000000D03*
X66500000Y-43000000D03*
%TD*%
D32*
%TO.C,S3*%
X60500000Y-33500000D03*
D33*
X54000000Y-33500000D03*
X60500000Y-38000000D03*
X54000000Y-38000000D03*
%TD*%
D38*
%TO.C,U5*%
X79420000Y-81613700D03*
D39*
X81960000Y-79073700D03*
X84500000Y-81613700D03*
X81960000Y-84153700D03*
%TD*%
M02*
