%TF.GenerationSoftware,KiCad,Pcbnew,9.0.1*%
%TF.CreationDate,2025-11-13T22:26:39+01:00*%
%TF.ProjectId,dise_o_v2,64697365-f16f-45f7-9632-2e6b69636164,rev?*%
%TF.SameCoordinates,Original*%
%TF.FileFunction,Drillmap*%
%TF.FilePolarity,Positive*%
%FSLAX45Y45*%
G04 Gerber Fmt 4.5, Leading zero omitted, Abs format (unit mm)*
G04 Created by KiCad (PCBNEW 9.0.1) date 2025-11-13 22:26:39*
%MOMM*%
%LPD*%
G01*
G04 APERTURE LIST*
%ADD10C,0.050000*%
%ADD11C,0.200000*%
%ADD12C,0.100000*%
%ADD13C,0.320000*%
G04 APERTURE END LIST*
D10*
X4298000Y-3048000D02*
X9304043Y-3048000D01*
X9304043Y-9143451D01*
X4298000Y-9143451D01*
X4298000Y-3048000D01*
D11*
D12*
X6191000Y-6028000D02*
X6211000Y-6048000D01*
X6211000Y-6028000D02*
X6191000Y-6048000D01*
X6191000Y-6168000D02*
X6211000Y-6188000D01*
X6211000Y-6168000D02*
X6191000Y-6188000D01*
X6261000Y-5958000D02*
X6281000Y-5978000D01*
X6281000Y-5958000D02*
X6261000Y-5978000D01*
X6261000Y-6098000D02*
X6281000Y-6118000D01*
X6281000Y-6098000D02*
X6261000Y-6118000D01*
X6261000Y-6238000D02*
X6281000Y-6258000D01*
X6281000Y-6238000D02*
X6261000Y-6258000D01*
X6331000Y-6028000D02*
X6351000Y-6048000D01*
X6351000Y-6028000D02*
X6331000Y-6048000D01*
X6331000Y-6168000D02*
X6351000Y-6188000D01*
X6351000Y-6168000D02*
X6331000Y-6188000D01*
X6340000Y-7610000D02*
X6360000Y-7630000D01*
X6360000Y-7610000D02*
X6340000Y-7630000D01*
X6340000Y-7730000D02*
X6360000Y-7750000D01*
X6360000Y-7730000D02*
X6340000Y-7750000D01*
X6340000Y-7850000D02*
X6360000Y-7870000D01*
X6360000Y-7850000D02*
X6340000Y-7870000D01*
X6401000Y-5958000D02*
X6421000Y-5978000D01*
X6421000Y-5958000D02*
X6401000Y-5978000D01*
X6401000Y-6098000D02*
X6421000Y-6118000D01*
X6421000Y-6098000D02*
X6401000Y-6118000D01*
X6401000Y-6238000D02*
X6421000Y-6258000D01*
X6421000Y-6238000D02*
X6401000Y-6258000D01*
X6471000Y-6028000D02*
X6491000Y-6048000D01*
X6491000Y-6028000D02*
X6471000Y-6048000D01*
X6471000Y-6168000D02*
X6491000Y-6188000D01*
X6491000Y-6168000D02*
X6471000Y-6188000D01*
X6480000Y-7610000D02*
X6500000Y-7630000D01*
X6500000Y-7610000D02*
X6480000Y-7630000D01*
X6480000Y-7730000D02*
X6500000Y-7750000D01*
X6500000Y-7730000D02*
X6480000Y-7750000D01*
X6480000Y-7850000D02*
X6500000Y-7870000D01*
X6500000Y-7850000D02*
X6480000Y-7870000D01*
X4382070Y-4757920D02*
G75*
G02*
X4342070Y-4757920I-20000J0D01*
G01*
X4342070Y-4757920D02*
G75*
G02*
X4382070Y-4757920I20000J0D01*
G01*
X4516800Y-6698730D02*
G75*
G02*
X4476800Y-6698730I-20000J0D01*
G01*
X4476800Y-6698730D02*
G75*
G02*
X4516800Y-6698730I20000J0D01*
G01*
X4876560Y-6921530D02*
G75*
G02*
X4836560Y-6921530I-20000J0D01*
G01*
X4836560Y-6921530D02*
G75*
G02*
X4876560Y-6921530I20000J0D01*
G01*
X5189250Y-6241970D02*
G75*
G02*
X5149250Y-6241970I-20000J0D01*
G01*
X5149250Y-6241970D02*
G75*
G02*
X5189250Y-6241970I20000J0D01*
G01*
X5468050Y-6123810D02*
G75*
G02*
X5428050Y-6123810I-20000J0D01*
G01*
X5428050Y-6123810D02*
G75*
G02*
X5468050Y-6123810I20000J0D01*
G01*
X5584450Y-8393700D02*
G75*
G02*
X5544450Y-8393700I-20000J0D01*
G01*
X5544450Y-8393700D02*
G75*
G02*
X5584450Y-8393700I20000J0D01*
G01*
X5751880Y-5150000D02*
G75*
G02*
X5711880Y-5150000I-20000J0D01*
G01*
X5711880Y-5150000D02*
G75*
G02*
X5751880Y-5150000I20000J0D01*
G01*
X5777420Y-6946060D02*
G75*
G02*
X5737420Y-6946060I-20000J0D01*
G01*
X5737420Y-6946060D02*
G75*
G02*
X5777420Y-6946060I20000J0D01*
G01*
X5798620Y-6379870D02*
G75*
G02*
X5758620Y-6379870I-20000J0D01*
G01*
X5758620Y-6379870D02*
G75*
G02*
X5798620Y-6379870I20000J0D01*
G01*
X5802920Y-5626260D02*
G75*
G02*
X5762920Y-5626260I-20000J0D01*
G01*
X5762920Y-5626260D02*
G75*
G02*
X5802920Y-5626260I20000J0D01*
G01*
X6030020Y-7594650D02*
G75*
G02*
X5990020Y-7594650I-20000J0D01*
G01*
X5990020Y-7594650D02*
G75*
G02*
X6030020Y-7594650I20000J0D01*
G01*
X6108440Y-6691460D02*
G75*
G02*
X6068440Y-6691460I-20000J0D01*
G01*
X6068440Y-6691460D02*
G75*
G02*
X6108440Y-6691460I20000J0D01*
G01*
X6170000Y-8300000D02*
G75*
G02*
X6130000Y-8300000I-20000J0D01*
G01*
X6130000Y-8300000D02*
G75*
G02*
X6170000Y-8300000I20000J0D01*
G01*
X6546060Y-5750000D02*
G75*
G02*
X6506060Y-5750000I-20000J0D01*
G01*
X6506060Y-5750000D02*
G75*
G02*
X6546060Y-5750000I20000J0D01*
G01*
X6550150Y-5526680D02*
G75*
G02*
X6510150Y-5526680I-20000J0D01*
G01*
X6510150Y-5526680D02*
G75*
G02*
X6550150Y-5526680I20000J0D01*
G01*
X6573170Y-5647670D02*
G75*
G02*
X6533170Y-5647670I-20000J0D01*
G01*
X6533170Y-5647670D02*
G75*
G02*
X6573170Y-5647670I20000J0D01*
G01*
X6586470Y-4094920D02*
G75*
G02*
X6546470Y-4094920I-20000J0D01*
G01*
X6546470Y-4094920D02*
G75*
G02*
X6586470Y-4094920I20000J0D01*
G01*
X6746800Y-4757920D02*
G75*
G02*
X6706800Y-4757920I-20000J0D01*
G01*
X6706800Y-4757920D02*
G75*
G02*
X6746800Y-4757920I20000J0D01*
G01*
X6828850Y-5220630D02*
G75*
G02*
X6788850Y-5220630I-20000J0D01*
G01*
X6788850Y-5220630D02*
G75*
G02*
X6828850Y-5220630I20000J0D01*
G01*
X6850000Y-6197450D02*
G75*
G02*
X6810000Y-6197450I-20000J0D01*
G01*
X6810000Y-6197450D02*
G75*
G02*
X6850000Y-6197450I20000J0D01*
G01*
X8003710Y-6209670D02*
G75*
G02*
X7963710Y-6209670I-20000J0D01*
G01*
X7963710Y-6209670D02*
G75*
G02*
X8003710Y-6209670I20000J0D01*
G01*
X9239750Y-5904580D02*
G75*
G02*
X9199750Y-5904580I-20000J0D01*
G01*
X9199750Y-5904580D02*
G75*
G02*
X9239750Y-5904580I20000J0D01*
G01*
X5297230Y-8976707D02*
X5297230Y-9026707D01*
X5272230Y-9001707D02*
X5322230Y-9001707D01*
X5322230Y-9036707D02*
X5322230Y-8966707D01*
X5272230Y-8966707D02*
G75*
G02*
X5322230Y-8966707I25000J0D01*
G01*
X5272230Y-8966707D02*
X5272230Y-9036707D01*
X5272230Y-9036707D02*
G75*
G03*
X5322230Y-9036707I25000J0D01*
G01*
X5862230Y-8976707D02*
X5862230Y-9026707D01*
X5837230Y-9001707D02*
X5887230Y-9001707D01*
X5887230Y-9036707D02*
X5887230Y-8966707D01*
X5837230Y-8966707D02*
G75*
G02*
X5887230Y-8966707I25000J0D01*
G01*
X5837230Y-8966707D02*
X5837230Y-9036707D01*
X5837230Y-9036707D02*
G75*
G03*
X5887230Y-9036707I25000J0D01*
G01*
X7966395Y-8185765D02*
X7966395Y-8136975D01*
X7917605Y-8136975D01*
X7917605Y-8185765D01*
X7966395Y-8185765D01*
X8220395Y-7931765D02*
X8220395Y-7882975D01*
X8171605Y-7882975D01*
X8171605Y-7931765D01*
X8220395Y-7931765D01*
X8220395Y-8439765D02*
X8220395Y-8390975D01*
X8171605Y-8390975D01*
X8171605Y-8439765D01*
X8220395Y-8439765D01*
X8474395Y-8185765D02*
X8474395Y-8136975D01*
X8425605Y-8136975D01*
X8425605Y-8185765D01*
X8474395Y-8185765D01*
X6604000Y-8494300D02*
X6641500Y-8456800D01*
X6604000Y-8419300D01*
X6566500Y-8456800D01*
X6604000Y-8494300D01*
X6804000Y-8494300D02*
X6841500Y-8456800D01*
X6804000Y-8419300D01*
X6766500Y-8456800D01*
X6804000Y-8494300D01*
X6102000Y-4260000D02*
X6182000Y-4340000D01*
X6182000Y-4260000D02*
X6102000Y-4340000D01*
X6182000Y-4300000D02*
G75*
G02*
X6102000Y-4300000I-40000J0D01*
G01*
X6102000Y-4300000D02*
G75*
G02*
X6182000Y-4300000I40000J0D01*
G01*
X6356000Y-4260000D02*
X6436000Y-4340000D01*
X6436000Y-4260000D02*
X6356000Y-4340000D01*
X6436000Y-4300000D02*
G75*
G02*
X6356000Y-4300000I-40000J0D01*
G01*
X6356000Y-4300000D02*
G75*
G02*
X6436000Y-4300000I40000J0D01*
G01*
X6610000Y-4260000D02*
X6690000Y-4340000D01*
X6690000Y-4260000D02*
X6610000Y-4340000D01*
X6690000Y-4300000D02*
G75*
G02*
X6610000Y-4300000I-40000J0D01*
G01*
X6610000Y-4300000D02*
G75*
G02*
X6690000Y-4300000I40000J0D01*
G01*
X8342000Y-6072000D02*
X8422000Y-6152000D01*
X8422000Y-6072000D02*
X8342000Y-6152000D01*
X8422000Y-6112000D02*
G75*
G02*
X8342000Y-6112000I-40000J0D01*
G01*
X8342000Y-6112000D02*
G75*
G02*
X8422000Y-6112000I40000J0D01*
G01*
X8342000Y-7072000D02*
X8422000Y-7152000D01*
X8422000Y-7072000D02*
X8342000Y-7152000D01*
X8422000Y-7112000D02*
G75*
G02*
X8342000Y-7112000I-40000J0D01*
G01*
X8342000Y-7112000D02*
G75*
G02*
X8422000Y-7112000I40000J0D01*
G01*
X4501000Y-3405000D02*
X4591000Y-3495000D01*
X4591000Y-3405000D02*
X4501000Y-3495000D01*
X4546000Y-3405000D02*
X4546000Y-3495000D01*
X4501000Y-3450000D02*
X4591000Y-3450000D01*
X4501000Y-4255000D02*
X4591000Y-4345000D01*
X4591000Y-4255000D02*
X4501000Y-4345000D01*
X4546000Y-4255000D02*
X4546000Y-4345000D01*
X4501000Y-4300000D02*
X4591000Y-4300000D01*
X4501000Y-5105000D02*
X4591000Y-5195000D01*
X4591000Y-5105000D02*
X4501000Y-5195000D01*
X4546000Y-5105000D02*
X4546000Y-5195000D01*
X4501000Y-5150000D02*
X4591000Y-5150000D01*
X4755000Y-3405000D02*
X4845000Y-3495000D01*
X4845000Y-3405000D02*
X4755000Y-3495000D01*
X4800000Y-3405000D02*
X4800000Y-3495000D01*
X4755000Y-3450000D02*
X4845000Y-3450000D01*
X4755000Y-4255000D02*
X4845000Y-4345000D01*
X4845000Y-4255000D02*
X4755000Y-4345000D01*
X4800000Y-4255000D02*
X4800000Y-4345000D01*
X4755000Y-4300000D02*
X4845000Y-4300000D01*
X4755000Y-5105000D02*
X4845000Y-5195000D01*
X4845000Y-5105000D02*
X4755000Y-5195000D01*
X4800000Y-5105000D02*
X4800000Y-5195000D01*
X4755000Y-5150000D02*
X4845000Y-5150000D01*
X4600000Y-6538000D02*
X4700000Y-6638000D01*
X4700000Y-6538000D02*
X4600000Y-6638000D01*
X4685356Y-6623356D02*
X4685356Y-6552644D01*
X4614644Y-6552644D01*
X4614644Y-6623356D01*
X4685356Y-6623356D01*
X4600000Y-6792000D02*
X4700000Y-6892000D01*
X4700000Y-6792000D02*
X4600000Y-6892000D01*
X4685356Y-6877356D02*
X4685356Y-6806644D01*
X4614644Y-6806644D01*
X4614644Y-6877356D01*
X4685356Y-6877356D01*
X4600000Y-7046000D02*
X4700000Y-7146000D01*
X4700000Y-7046000D02*
X4600000Y-7146000D01*
X4685356Y-7131356D02*
X4685356Y-7060644D01*
X4614644Y-7060644D01*
X4614644Y-7131356D01*
X4685356Y-7131356D01*
X4600000Y-7300000D02*
X4700000Y-7400000D01*
X4700000Y-7300000D02*
X4600000Y-7400000D01*
X4685356Y-7385356D02*
X4685356Y-7314644D01*
X4614644Y-7314644D01*
X4614644Y-7385356D01*
X4685356Y-7385356D01*
X5350000Y-3300000D02*
X5450000Y-3400000D01*
X5450000Y-3300000D02*
X5350000Y-3400000D01*
X5435356Y-3385356D02*
X5435356Y-3314644D01*
X5364644Y-3314644D01*
X5364644Y-3385356D01*
X5435356Y-3385356D01*
X5350000Y-3750000D02*
X5450000Y-3850000D01*
X5450000Y-3750000D02*
X5350000Y-3850000D01*
X5435356Y-3835356D02*
X5435356Y-3764644D01*
X5364644Y-3764644D01*
X5364644Y-3835356D01*
X5435356Y-3835356D01*
X6000000Y-3300000D02*
X6100000Y-3400000D01*
X6100000Y-3300000D02*
X6000000Y-3400000D01*
X6085356Y-3385356D02*
X6085356Y-3314644D01*
X6014644Y-3314644D01*
X6014644Y-3385356D01*
X6085356Y-3385356D01*
X6000000Y-3750000D02*
X6100000Y-3850000D01*
X6100000Y-3750000D02*
X6000000Y-3850000D01*
X6085356Y-3835356D02*
X6085356Y-3764644D01*
X6014644Y-3764644D01*
X6014644Y-3835356D01*
X6085356Y-3835356D01*
X6650000Y-3300000D02*
X6750000Y-3400000D01*
X6750000Y-3300000D02*
X6650000Y-3400000D01*
X6735356Y-3385356D02*
X6735356Y-3314644D01*
X6664644Y-3314644D01*
X6664644Y-3385356D01*
X6735356Y-3385356D01*
X6650000Y-3750000D02*
X6750000Y-3850000D01*
X6750000Y-3750000D02*
X6650000Y-3850000D01*
X6735356Y-3835356D02*
X6735356Y-3764644D01*
X6664644Y-3764644D01*
X6664644Y-3835356D01*
X6735356Y-3835356D01*
X7300000Y-3300000D02*
X7400000Y-3400000D01*
X7400000Y-3300000D02*
X7300000Y-3400000D01*
X7385356Y-3385356D02*
X7385356Y-3314644D01*
X7314644Y-3314644D01*
X7314644Y-3385356D01*
X7385356Y-3385356D01*
X7300000Y-3750000D02*
X7400000Y-3850000D01*
X7400000Y-3750000D02*
X7300000Y-3850000D01*
X7385356Y-3835356D02*
X7385356Y-3764644D01*
X7314644Y-3764644D01*
X7314644Y-3835356D01*
X7385356Y-3835356D01*
X7316000Y-7824000D02*
X7416000Y-7924000D01*
X7416000Y-7824000D02*
X7316000Y-7924000D01*
X7401356Y-7909356D02*
X7401356Y-7838644D01*
X7330644Y-7838644D01*
X7330644Y-7909356D01*
X7401356Y-7909356D01*
X7316000Y-8078000D02*
X7416000Y-8178000D01*
X7416000Y-8078000D02*
X7316000Y-8178000D01*
X7401356Y-8163356D02*
X7401356Y-8092644D01*
X7330644Y-8092644D01*
X7330644Y-8163356D01*
X7401356Y-8163356D01*
X7316000Y-8332000D02*
X7416000Y-8432000D01*
X7416000Y-8332000D02*
X7316000Y-8432000D01*
X7401356Y-8417356D02*
X7401356Y-8346644D01*
X7330644Y-8346644D01*
X7330644Y-8417356D01*
X7401356Y-8417356D01*
X7316000Y-8586000D02*
X7416000Y-8686000D01*
X7416000Y-8586000D02*
X7316000Y-8686000D01*
X7401356Y-8671356D02*
X7401356Y-8600644D01*
X7330644Y-8600644D01*
X7330644Y-8671356D01*
X7401356Y-8671356D01*
X8950000Y-7824000D02*
X9050000Y-7924000D01*
X9050000Y-7824000D02*
X8950000Y-7924000D01*
X9035356Y-7909356D02*
X9035356Y-7838644D01*
X8964644Y-7838644D01*
X8964644Y-7909356D01*
X9035356Y-7909356D01*
X8950000Y-8078000D02*
X9050000Y-8178000D01*
X9050000Y-8078000D02*
X8950000Y-8178000D01*
X9035356Y-8163356D02*
X9035356Y-8092644D01*
X8964644Y-8092644D01*
X8964644Y-8163356D01*
X9035356Y-8163356D01*
X8950000Y-8332000D02*
X9050000Y-8432000D01*
X9050000Y-8332000D02*
X8950000Y-8432000D01*
X9035356Y-8417356D02*
X9035356Y-8346644D01*
X8964644Y-8346644D01*
X8964644Y-8417356D01*
X9035356Y-8417356D01*
X8950000Y-8586000D02*
X9050000Y-8686000D01*
X9050000Y-8586000D02*
X8950000Y-8686000D01*
X9035356Y-8671356D02*
X9035356Y-8600644D01*
X8964644Y-8600644D01*
X8964644Y-8671356D01*
X9035356Y-8671356D01*
X9071210Y-3418110D02*
X9171210Y-3518110D01*
X9171210Y-3418110D02*
X9071210Y-3518110D01*
X9156566Y-3503466D02*
X9156566Y-3432754D01*
X9085854Y-3432754D01*
X9085854Y-3503466D01*
X9156566Y-3503466D01*
X9071210Y-3672110D02*
X9171210Y-3772110D01*
X9171210Y-3672110D02*
X9071210Y-3772110D01*
X9156566Y-3757466D02*
X9156566Y-3686754D01*
X9085854Y-3686754D01*
X9085854Y-3757466D01*
X9156566Y-3757466D01*
X9071210Y-3926110D02*
X9171210Y-4026110D01*
X9171210Y-3926110D02*
X9071210Y-4026110D01*
X9156566Y-4011466D02*
X9156566Y-3940754D01*
X9085854Y-3940754D01*
X9085854Y-4011466D01*
X9156566Y-4011466D01*
X9071210Y-4180110D02*
X9171210Y-4280110D01*
X9171210Y-4180110D02*
X9071210Y-4280110D01*
X9156566Y-4265466D02*
X9156566Y-4194754D01*
X9085854Y-4194754D01*
X9085854Y-4265466D01*
X9156566Y-4265466D01*
X9071210Y-4434110D02*
X9171210Y-4534110D01*
X9171210Y-4434110D02*
X9071210Y-4534110D01*
X9156566Y-4519466D02*
X9156566Y-4448754D01*
X9085854Y-4448754D01*
X9085854Y-4519466D01*
X9156566Y-4519466D01*
X9071210Y-4688110D02*
X9171210Y-4788110D01*
X9171210Y-4688110D02*
X9071210Y-4788110D01*
X9156566Y-4773466D02*
X9156566Y-4702754D01*
X9085854Y-4702754D01*
X9085854Y-4773466D01*
X9156566Y-4773466D01*
X9071210Y-4942110D02*
X9171210Y-5042110D01*
X9171210Y-4942110D02*
X9071210Y-5042110D01*
X9156566Y-5027466D02*
X9156566Y-4956754D01*
X9085854Y-4956754D01*
X9085854Y-5027466D01*
X9156566Y-5027466D01*
X9071210Y-5196110D02*
X9171210Y-5296110D01*
X9171210Y-5196110D02*
X9071210Y-5296110D01*
X9156566Y-5281466D02*
X9156566Y-5210754D01*
X9085854Y-5210754D01*
X9085854Y-5281466D01*
X9156566Y-5281466D01*
D13*
X4573176Y-8607871D02*
X4893176Y-8927871D01*
X4893176Y-8607871D02*
X4573176Y-8927871D01*
X4733176Y-8927871D02*
X4893176Y-8767871D01*
X4733176Y-8607871D01*
X4573176Y-8767871D01*
X4733176Y-8927871D01*
X8231768Y-3283639D02*
X8551768Y-3603639D01*
X8551768Y-3283639D02*
X8231768Y-3603639D01*
X8391768Y-3603639D02*
X8551768Y-3443639D01*
X8391768Y-3283639D01*
X8231768Y-3443639D01*
X8391768Y-3603639D01*
D11*
X4556277Y-9457435D02*
X4556277Y-9257435D01*
X4556277Y-9257435D02*
X4603896Y-9257435D01*
X4603896Y-9257435D02*
X4632467Y-9266959D01*
X4632467Y-9266959D02*
X4651515Y-9286006D01*
X4651515Y-9286006D02*
X4661039Y-9305054D01*
X4661039Y-9305054D02*
X4670563Y-9343149D01*
X4670563Y-9343149D02*
X4670563Y-9371720D01*
X4670563Y-9371720D02*
X4661039Y-9409816D01*
X4661039Y-9409816D02*
X4651515Y-9428863D01*
X4651515Y-9428863D02*
X4632467Y-9447911D01*
X4632467Y-9447911D02*
X4603896Y-9457435D01*
X4603896Y-9457435D02*
X4556277Y-9457435D01*
X4756277Y-9457435D02*
X4756277Y-9324101D01*
X4756277Y-9362197D02*
X4765801Y-9343149D01*
X4765801Y-9343149D02*
X4775324Y-9333625D01*
X4775324Y-9333625D02*
X4794372Y-9324101D01*
X4794372Y-9324101D02*
X4813420Y-9324101D01*
X4880086Y-9457435D02*
X4880086Y-9324101D01*
X4880086Y-9257435D02*
X4870563Y-9266959D01*
X4870563Y-9266959D02*
X4880086Y-9276482D01*
X4880086Y-9276482D02*
X4889610Y-9266959D01*
X4889610Y-9266959D02*
X4880086Y-9257435D01*
X4880086Y-9257435D02*
X4880086Y-9276482D01*
X5003896Y-9457435D02*
X4984848Y-9447911D01*
X4984848Y-9447911D02*
X4975324Y-9428863D01*
X4975324Y-9428863D02*
X4975324Y-9257435D01*
X5108658Y-9457435D02*
X5089610Y-9447911D01*
X5089610Y-9447911D02*
X5080086Y-9428863D01*
X5080086Y-9428863D02*
X5080086Y-9257435D01*
X5337229Y-9457435D02*
X5337229Y-9257435D01*
X5337229Y-9257435D02*
X5403896Y-9400292D01*
X5403896Y-9400292D02*
X5470563Y-9257435D01*
X5470563Y-9257435D02*
X5470563Y-9457435D01*
X5651515Y-9457435D02*
X5651515Y-9352673D01*
X5651515Y-9352673D02*
X5641991Y-9333625D01*
X5641991Y-9333625D02*
X5622943Y-9324101D01*
X5622943Y-9324101D02*
X5584848Y-9324101D01*
X5584848Y-9324101D02*
X5565801Y-9333625D01*
X5651515Y-9447911D02*
X5632467Y-9457435D01*
X5632467Y-9457435D02*
X5584848Y-9457435D01*
X5584848Y-9457435D02*
X5565801Y-9447911D01*
X5565801Y-9447911D02*
X5556277Y-9428863D01*
X5556277Y-9428863D02*
X5556277Y-9409816D01*
X5556277Y-9409816D02*
X5565801Y-9390768D01*
X5565801Y-9390768D02*
X5584848Y-9381244D01*
X5584848Y-9381244D02*
X5632467Y-9381244D01*
X5632467Y-9381244D02*
X5651515Y-9371720D01*
X5746753Y-9324101D02*
X5746753Y-9524101D01*
X5746753Y-9333625D02*
X5765801Y-9324101D01*
X5765801Y-9324101D02*
X5803896Y-9324101D01*
X5803896Y-9324101D02*
X5822943Y-9333625D01*
X5822943Y-9333625D02*
X5832467Y-9343149D01*
X5832467Y-9343149D02*
X5841991Y-9362197D01*
X5841991Y-9362197D02*
X5841991Y-9419339D01*
X5841991Y-9419339D02*
X5832467Y-9438387D01*
X5832467Y-9438387D02*
X5822943Y-9447911D01*
X5822943Y-9447911D02*
X5803896Y-9457435D01*
X5803896Y-9457435D02*
X5765801Y-9457435D01*
X5765801Y-9457435D02*
X5746753Y-9447911D01*
X5927705Y-9438387D02*
X5937229Y-9447911D01*
X5937229Y-9447911D02*
X5927705Y-9457435D01*
X5927705Y-9457435D02*
X5918182Y-9447911D01*
X5918182Y-9447911D02*
X5927705Y-9438387D01*
X5927705Y-9438387D02*
X5927705Y-9457435D01*
X5927705Y-9333625D02*
X5937229Y-9343149D01*
X5937229Y-9343149D02*
X5927705Y-9352673D01*
X5927705Y-9352673D02*
X5918182Y-9343149D01*
X5918182Y-9343149D02*
X5927705Y-9333625D01*
X5927705Y-9333625D02*
X5927705Y-9352673D01*
D12*
X4275500Y-9775951D02*
X4295500Y-9795951D01*
X4295500Y-9775951D02*
X4275500Y-9795951D01*
D11*
X4594372Y-9677435D02*
X4613420Y-9677435D01*
X4613420Y-9677435D02*
X4632467Y-9686959D01*
X4632467Y-9686959D02*
X4641991Y-9696482D01*
X4641991Y-9696482D02*
X4651515Y-9715530D01*
X4651515Y-9715530D02*
X4661039Y-9753625D01*
X4661039Y-9753625D02*
X4661039Y-9801244D01*
X4661039Y-9801244D02*
X4651515Y-9839339D01*
X4651515Y-9839339D02*
X4641991Y-9858387D01*
X4641991Y-9858387D02*
X4632467Y-9867911D01*
X4632467Y-9867911D02*
X4613420Y-9877435D01*
X4613420Y-9877435D02*
X4594372Y-9877435D01*
X4594372Y-9877435D02*
X4575324Y-9867911D01*
X4575324Y-9867911D02*
X4565801Y-9858387D01*
X4565801Y-9858387D02*
X4556277Y-9839339D01*
X4556277Y-9839339D02*
X4546753Y-9801244D01*
X4546753Y-9801244D02*
X4546753Y-9753625D01*
X4546753Y-9753625D02*
X4556277Y-9715530D01*
X4556277Y-9715530D02*
X4565801Y-9696482D01*
X4565801Y-9696482D02*
X4575324Y-9686959D01*
X4575324Y-9686959D02*
X4594372Y-9677435D01*
X4746753Y-9858387D02*
X4756277Y-9867911D01*
X4756277Y-9867911D02*
X4746753Y-9877435D01*
X4746753Y-9877435D02*
X4737229Y-9867911D01*
X4737229Y-9867911D02*
X4746753Y-9858387D01*
X4746753Y-9858387D02*
X4746753Y-9877435D01*
X4832467Y-9696482D02*
X4841991Y-9686959D01*
X4841991Y-9686959D02*
X4861039Y-9677435D01*
X4861039Y-9677435D02*
X4908658Y-9677435D01*
X4908658Y-9677435D02*
X4927705Y-9686959D01*
X4927705Y-9686959D02*
X4937229Y-9696482D01*
X4937229Y-9696482D02*
X4946753Y-9715530D01*
X4946753Y-9715530D02*
X4946753Y-9734578D01*
X4946753Y-9734578D02*
X4937229Y-9763149D01*
X4937229Y-9763149D02*
X4822944Y-9877435D01*
X4822944Y-9877435D02*
X4946753Y-9877435D01*
X5070563Y-9677435D02*
X5089610Y-9677435D01*
X5089610Y-9677435D02*
X5108658Y-9686959D01*
X5108658Y-9686959D02*
X5118182Y-9696482D01*
X5118182Y-9696482D02*
X5127705Y-9715530D01*
X5127705Y-9715530D02*
X5137229Y-9753625D01*
X5137229Y-9753625D02*
X5137229Y-9801244D01*
X5137229Y-9801244D02*
X5127705Y-9839339D01*
X5127705Y-9839339D02*
X5118182Y-9858387D01*
X5118182Y-9858387D02*
X5108658Y-9867911D01*
X5108658Y-9867911D02*
X5089610Y-9877435D01*
X5089610Y-9877435D02*
X5070563Y-9877435D01*
X5070563Y-9877435D02*
X5051515Y-9867911D01*
X5051515Y-9867911D02*
X5041991Y-9858387D01*
X5041991Y-9858387D02*
X5032467Y-9839339D01*
X5032467Y-9839339D02*
X5022944Y-9801244D01*
X5022944Y-9801244D02*
X5022944Y-9753625D01*
X5022944Y-9753625D02*
X5032467Y-9715530D01*
X5032467Y-9715530D02*
X5041991Y-9696482D01*
X5041991Y-9696482D02*
X5051515Y-9686959D01*
X5051515Y-9686959D02*
X5070563Y-9677435D01*
X5261039Y-9677435D02*
X5280086Y-9677435D01*
X5280086Y-9677435D02*
X5299134Y-9686959D01*
X5299134Y-9686959D02*
X5308658Y-9696482D01*
X5308658Y-9696482D02*
X5318182Y-9715530D01*
X5318182Y-9715530D02*
X5327705Y-9753625D01*
X5327705Y-9753625D02*
X5327705Y-9801244D01*
X5327705Y-9801244D02*
X5318182Y-9839339D01*
X5318182Y-9839339D02*
X5308658Y-9858387D01*
X5308658Y-9858387D02*
X5299134Y-9867911D01*
X5299134Y-9867911D02*
X5280086Y-9877435D01*
X5280086Y-9877435D02*
X5261039Y-9877435D01*
X5261039Y-9877435D02*
X5241991Y-9867911D01*
X5241991Y-9867911D02*
X5232467Y-9858387D01*
X5232467Y-9858387D02*
X5222944Y-9839339D01*
X5222944Y-9839339D02*
X5213420Y-9801244D01*
X5213420Y-9801244D02*
X5213420Y-9753625D01*
X5213420Y-9753625D02*
X5222944Y-9715530D01*
X5222944Y-9715530D02*
X5232467Y-9696482D01*
X5232467Y-9696482D02*
X5241991Y-9686959D01*
X5241991Y-9686959D02*
X5261039Y-9677435D01*
X5413420Y-9877435D02*
X5413420Y-9744101D01*
X5413420Y-9763149D02*
X5422944Y-9753625D01*
X5422944Y-9753625D02*
X5441991Y-9744101D01*
X5441991Y-9744101D02*
X5470563Y-9744101D01*
X5470563Y-9744101D02*
X5489610Y-9753625D01*
X5489610Y-9753625D02*
X5499134Y-9772673D01*
X5499134Y-9772673D02*
X5499134Y-9877435D01*
X5499134Y-9772673D02*
X5508658Y-9753625D01*
X5508658Y-9753625D02*
X5527705Y-9744101D01*
X5527705Y-9744101D02*
X5556277Y-9744101D01*
X5556277Y-9744101D02*
X5575325Y-9753625D01*
X5575325Y-9753625D02*
X5584848Y-9772673D01*
X5584848Y-9772673D02*
X5584848Y-9877435D01*
X5680086Y-9877435D02*
X5680086Y-9744101D01*
X5680086Y-9763149D02*
X5689610Y-9753625D01*
X5689610Y-9753625D02*
X5708658Y-9744101D01*
X5708658Y-9744101D02*
X5737229Y-9744101D01*
X5737229Y-9744101D02*
X5756277Y-9753625D01*
X5756277Y-9753625D02*
X5765801Y-9772673D01*
X5765801Y-9772673D02*
X5765801Y-9877435D01*
X5765801Y-9772673D02*
X5775324Y-9753625D01*
X5775324Y-9753625D02*
X5794372Y-9744101D01*
X5794372Y-9744101D02*
X5822943Y-9744101D01*
X5822943Y-9744101D02*
X5841991Y-9753625D01*
X5841991Y-9753625D02*
X5851515Y-9772673D01*
X5851515Y-9772673D02*
X5851515Y-9877435D01*
X6241991Y-9667911D02*
X6070563Y-9925054D01*
X6499134Y-9677435D02*
X6518182Y-9677435D01*
X6518182Y-9677435D02*
X6537229Y-9686959D01*
X6537229Y-9686959D02*
X6546753Y-9696482D01*
X6546753Y-9696482D02*
X6556277Y-9715530D01*
X6556277Y-9715530D02*
X6565801Y-9753625D01*
X6565801Y-9753625D02*
X6565801Y-9801244D01*
X6565801Y-9801244D02*
X6556277Y-9839339D01*
X6556277Y-9839339D02*
X6546753Y-9858387D01*
X6546753Y-9858387D02*
X6537229Y-9867911D01*
X6537229Y-9867911D02*
X6518182Y-9877435D01*
X6518182Y-9877435D02*
X6499134Y-9877435D01*
X6499134Y-9877435D02*
X6480086Y-9867911D01*
X6480086Y-9867911D02*
X6470563Y-9858387D01*
X6470563Y-9858387D02*
X6461039Y-9839339D01*
X6461039Y-9839339D02*
X6451515Y-9801244D01*
X6451515Y-9801244D02*
X6451515Y-9753625D01*
X6451515Y-9753625D02*
X6461039Y-9715530D01*
X6461039Y-9715530D02*
X6470563Y-9696482D01*
X6470563Y-9696482D02*
X6480086Y-9686959D01*
X6480086Y-9686959D02*
X6499134Y-9677435D01*
X6651515Y-9858387D02*
X6661039Y-9867911D01*
X6661039Y-9867911D02*
X6651515Y-9877435D01*
X6651515Y-9877435D02*
X6641991Y-9867911D01*
X6641991Y-9867911D02*
X6651515Y-9858387D01*
X6651515Y-9858387D02*
X6651515Y-9877435D01*
X6784848Y-9677435D02*
X6803896Y-9677435D01*
X6803896Y-9677435D02*
X6822944Y-9686959D01*
X6822944Y-9686959D02*
X6832467Y-9696482D01*
X6832467Y-9696482D02*
X6841991Y-9715530D01*
X6841991Y-9715530D02*
X6851515Y-9753625D01*
X6851515Y-9753625D02*
X6851515Y-9801244D01*
X6851515Y-9801244D02*
X6841991Y-9839339D01*
X6841991Y-9839339D02*
X6832467Y-9858387D01*
X6832467Y-9858387D02*
X6822944Y-9867911D01*
X6822944Y-9867911D02*
X6803896Y-9877435D01*
X6803896Y-9877435D02*
X6784848Y-9877435D01*
X6784848Y-9877435D02*
X6765801Y-9867911D01*
X6765801Y-9867911D02*
X6756277Y-9858387D01*
X6756277Y-9858387D02*
X6746753Y-9839339D01*
X6746753Y-9839339D02*
X6737229Y-9801244D01*
X6737229Y-9801244D02*
X6737229Y-9753625D01*
X6737229Y-9753625D02*
X6746753Y-9715530D01*
X6746753Y-9715530D02*
X6756277Y-9696482D01*
X6756277Y-9696482D02*
X6765801Y-9686959D01*
X6765801Y-9686959D02*
X6784848Y-9677435D01*
X6975325Y-9677435D02*
X6994372Y-9677435D01*
X6994372Y-9677435D02*
X7013420Y-9686959D01*
X7013420Y-9686959D02*
X7022944Y-9696482D01*
X7022944Y-9696482D02*
X7032467Y-9715530D01*
X7032467Y-9715530D02*
X7041991Y-9753625D01*
X7041991Y-9753625D02*
X7041991Y-9801244D01*
X7041991Y-9801244D02*
X7032467Y-9839339D01*
X7032467Y-9839339D02*
X7022944Y-9858387D01*
X7022944Y-9858387D02*
X7013420Y-9867911D01*
X7013420Y-9867911D02*
X6994372Y-9877435D01*
X6994372Y-9877435D02*
X6975325Y-9877435D01*
X6975325Y-9877435D02*
X6956277Y-9867911D01*
X6956277Y-9867911D02*
X6946753Y-9858387D01*
X6946753Y-9858387D02*
X6937229Y-9839339D01*
X6937229Y-9839339D02*
X6927706Y-9801244D01*
X6927706Y-9801244D02*
X6927706Y-9753625D01*
X6927706Y-9753625D02*
X6937229Y-9715530D01*
X6937229Y-9715530D02*
X6946753Y-9696482D01*
X6946753Y-9696482D02*
X6956277Y-9686959D01*
X6956277Y-9686959D02*
X6975325Y-9677435D01*
X7108658Y-9677435D02*
X7241991Y-9677435D01*
X7241991Y-9677435D02*
X7156277Y-9877435D01*
X7327706Y-9877435D02*
X7365801Y-9877435D01*
X7365801Y-9877435D02*
X7384848Y-9867911D01*
X7384848Y-9867911D02*
X7394372Y-9858387D01*
X7394372Y-9858387D02*
X7413420Y-9829816D01*
X7413420Y-9829816D02*
X7422944Y-9791720D01*
X7422944Y-9791720D02*
X7422944Y-9715530D01*
X7422944Y-9715530D02*
X7413420Y-9696482D01*
X7413420Y-9696482D02*
X7403896Y-9686959D01*
X7403896Y-9686959D02*
X7384848Y-9677435D01*
X7384848Y-9677435D02*
X7346753Y-9677435D01*
X7346753Y-9677435D02*
X7327706Y-9686959D01*
X7327706Y-9686959D02*
X7318182Y-9696482D01*
X7318182Y-9696482D02*
X7308658Y-9715530D01*
X7308658Y-9715530D02*
X7308658Y-9763149D01*
X7308658Y-9763149D02*
X7318182Y-9782197D01*
X7318182Y-9782197D02*
X7327706Y-9791720D01*
X7327706Y-9791720D02*
X7346753Y-9801244D01*
X7346753Y-9801244D02*
X7384848Y-9801244D01*
X7384848Y-9801244D02*
X7403896Y-9791720D01*
X7403896Y-9791720D02*
X7413420Y-9782197D01*
X7413420Y-9782197D02*
X7422944Y-9763149D01*
X7499134Y-9677435D02*
X7499134Y-9715530D01*
X7575325Y-9677435D02*
X7575325Y-9715530D01*
X7870563Y-9953625D02*
X7861039Y-9944101D01*
X7861039Y-9944101D02*
X7841991Y-9915530D01*
X7841991Y-9915530D02*
X7832468Y-9896482D01*
X7832468Y-9896482D02*
X7822944Y-9867911D01*
X7822944Y-9867911D02*
X7813420Y-9820292D01*
X7813420Y-9820292D02*
X7813420Y-9782197D01*
X7813420Y-9782197D02*
X7822944Y-9734578D01*
X7822944Y-9734578D02*
X7832468Y-9706006D01*
X7832468Y-9706006D02*
X7841991Y-9686959D01*
X7841991Y-9686959D02*
X7861039Y-9658387D01*
X7861039Y-9658387D02*
X7870563Y-9648863D01*
X8051515Y-9877435D02*
X7937229Y-9877435D01*
X7994372Y-9877435D02*
X7994372Y-9677435D01*
X7994372Y-9677435D02*
X7975325Y-9706006D01*
X7975325Y-9706006D02*
X7956277Y-9725054D01*
X7956277Y-9725054D02*
X7937229Y-9734578D01*
X8165801Y-9763149D02*
X8146753Y-9753625D01*
X8146753Y-9753625D02*
X8137229Y-9744101D01*
X8137229Y-9744101D02*
X8127706Y-9725054D01*
X8127706Y-9725054D02*
X8127706Y-9715530D01*
X8127706Y-9715530D02*
X8137229Y-9696482D01*
X8137229Y-9696482D02*
X8146753Y-9686959D01*
X8146753Y-9686959D02*
X8165801Y-9677435D01*
X8165801Y-9677435D02*
X8203896Y-9677435D01*
X8203896Y-9677435D02*
X8222944Y-9686959D01*
X8222944Y-9686959D02*
X8232468Y-9696482D01*
X8232468Y-9696482D02*
X8241991Y-9715530D01*
X8241991Y-9715530D02*
X8241991Y-9725054D01*
X8241991Y-9725054D02*
X8232468Y-9744101D01*
X8232468Y-9744101D02*
X8222944Y-9753625D01*
X8222944Y-9753625D02*
X8203896Y-9763149D01*
X8203896Y-9763149D02*
X8165801Y-9763149D01*
X8165801Y-9763149D02*
X8146753Y-9772673D01*
X8146753Y-9772673D02*
X8137229Y-9782197D01*
X8137229Y-9782197D02*
X8127706Y-9801244D01*
X8127706Y-9801244D02*
X8127706Y-9839339D01*
X8127706Y-9839339D02*
X8137229Y-9858387D01*
X8137229Y-9858387D02*
X8146753Y-9867911D01*
X8146753Y-9867911D02*
X8165801Y-9877435D01*
X8165801Y-9877435D02*
X8203896Y-9877435D01*
X8203896Y-9877435D02*
X8222944Y-9867911D01*
X8222944Y-9867911D02*
X8232468Y-9858387D01*
X8232468Y-9858387D02*
X8241991Y-9839339D01*
X8241991Y-9839339D02*
X8241991Y-9801244D01*
X8241991Y-9801244D02*
X8232468Y-9782197D01*
X8232468Y-9782197D02*
X8222944Y-9772673D01*
X8222944Y-9772673D02*
X8203896Y-9763149D01*
X8480087Y-9877435D02*
X8480087Y-9677435D01*
X8565801Y-9877435D02*
X8565801Y-9772673D01*
X8565801Y-9772673D02*
X8556277Y-9753625D01*
X8556277Y-9753625D02*
X8537230Y-9744101D01*
X8537230Y-9744101D02*
X8508658Y-9744101D01*
X8508658Y-9744101D02*
X8489611Y-9753625D01*
X8489611Y-9753625D02*
X8480087Y-9763149D01*
X8689611Y-9877435D02*
X8670563Y-9867911D01*
X8670563Y-9867911D02*
X8661039Y-9858387D01*
X8661039Y-9858387D02*
X8651515Y-9839339D01*
X8651515Y-9839339D02*
X8651515Y-9782197D01*
X8651515Y-9782197D02*
X8661039Y-9763149D01*
X8661039Y-9763149D02*
X8670563Y-9753625D01*
X8670563Y-9753625D02*
X8689611Y-9744101D01*
X8689611Y-9744101D02*
X8718182Y-9744101D01*
X8718182Y-9744101D02*
X8737230Y-9753625D01*
X8737230Y-9753625D02*
X8746753Y-9763149D01*
X8746753Y-9763149D02*
X8756277Y-9782197D01*
X8756277Y-9782197D02*
X8756277Y-9839339D01*
X8756277Y-9839339D02*
X8746753Y-9858387D01*
X8746753Y-9858387D02*
X8737230Y-9867911D01*
X8737230Y-9867911D02*
X8718182Y-9877435D01*
X8718182Y-9877435D02*
X8689611Y-9877435D01*
X8870563Y-9877435D02*
X8851515Y-9867911D01*
X8851515Y-9867911D02*
X8841992Y-9848863D01*
X8841992Y-9848863D02*
X8841992Y-9677435D01*
X9022944Y-9867911D02*
X9003896Y-9877435D01*
X9003896Y-9877435D02*
X8965801Y-9877435D01*
X8965801Y-9877435D02*
X8946753Y-9867911D01*
X8946753Y-9867911D02*
X8937230Y-9848863D01*
X8937230Y-9848863D02*
X8937230Y-9772673D01*
X8937230Y-9772673D02*
X8946753Y-9753625D01*
X8946753Y-9753625D02*
X8965801Y-9744101D01*
X8965801Y-9744101D02*
X9003896Y-9744101D01*
X9003896Y-9744101D02*
X9022944Y-9753625D01*
X9022944Y-9753625D02*
X9032468Y-9772673D01*
X9032468Y-9772673D02*
X9032468Y-9791720D01*
X9032468Y-9791720D02*
X8937230Y-9810768D01*
X9108658Y-9867911D02*
X9127706Y-9877435D01*
X9127706Y-9877435D02*
X9165801Y-9877435D01*
X9165801Y-9877435D02*
X9184849Y-9867911D01*
X9184849Y-9867911D02*
X9194373Y-9848863D01*
X9194373Y-9848863D02*
X9194373Y-9839339D01*
X9194373Y-9839339D02*
X9184849Y-9820292D01*
X9184849Y-9820292D02*
X9165801Y-9810768D01*
X9165801Y-9810768D02*
X9137230Y-9810768D01*
X9137230Y-9810768D02*
X9118182Y-9801244D01*
X9118182Y-9801244D02*
X9108658Y-9782197D01*
X9108658Y-9782197D02*
X9108658Y-9772673D01*
X9108658Y-9772673D02*
X9118182Y-9753625D01*
X9118182Y-9753625D02*
X9137230Y-9744101D01*
X9137230Y-9744101D02*
X9165801Y-9744101D01*
X9165801Y-9744101D02*
X9184849Y-9753625D01*
X9261039Y-9953625D02*
X9270563Y-9944101D01*
X9270563Y-9944101D02*
X9289611Y-9915530D01*
X9289611Y-9915530D02*
X9299134Y-9896482D01*
X9299134Y-9896482D02*
X9308658Y-9867911D01*
X9308658Y-9867911D02*
X9318182Y-9820292D01*
X9318182Y-9820292D02*
X9318182Y-9782197D01*
X9318182Y-9782197D02*
X9308658Y-9734578D01*
X9308658Y-9734578D02*
X9299134Y-9706006D01*
X9299134Y-9706006D02*
X9289611Y-9686959D01*
X9289611Y-9686959D02*
X9270563Y-9658387D01*
X9270563Y-9658387D02*
X9261039Y-9648863D01*
D12*
X4295500Y-10049951D02*
G75*
G02*
X4255500Y-10049951I-20000J0D01*
G01*
X4255500Y-10049951D02*
G75*
G02*
X4295500Y-10049951I20000J0D01*
G01*
D11*
X4594372Y-9941435D02*
X4613420Y-9941435D01*
X4613420Y-9941435D02*
X4632467Y-9950959D01*
X4632467Y-9950959D02*
X4641991Y-9960482D01*
X4641991Y-9960482D02*
X4651515Y-9979530D01*
X4651515Y-9979530D02*
X4661039Y-10017625D01*
X4661039Y-10017625D02*
X4661039Y-10065244D01*
X4661039Y-10065244D02*
X4651515Y-10103339D01*
X4651515Y-10103339D02*
X4641991Y-10122387D01*
X4641991Y-10122387D02*
X4632467Y-10131911D01*
X4632467Y-10131911D02*
X4613420Y-10141435D01*
X4613420Y-10141435D02*
X4594372Y-10141435D01*
X4594372Y-10141435D02*
X4575324Y-10131911D01*
X4575324Y-10131911D02*
X4565801Y-10122387D01*
X4565801Y-10122387D02*
X4556277Y-10103339D01*
X4556277Y-10103339D02*
X4546753Y-10065244D01*
X4546753Y-10065244D02*
X4546753Y-10017625D01*
X4546753Y-10017625D02*
X4556277Y-9979530D01*
X4556277Y-9979530D02*
X4565801Y-9960482D01*
X4565801Y-9960482D02*
X4575324Y-9950959D01*
X4575324Y-9950959D02*
X4594372Y-9941435D01*
X4746753Y-10122387D02*
X4756277Y-10131911D01*
X4756277Y-10131911D02*
X4746753Y-10141435D01*
X4746753Y-10141435D02*
X4737229Y-10131911D01*
X4737229Y-10131911D02*
X4746753Y-10122387D01*
X4746753Y-10122387D02*
X4746753Y-10141435D01*
X4927705Y-10008101D02*
X4927705Y-10141435D01*
X4880086Y-9931911D02*
X4832467Y-10074768D01*
X4832467Y-10074768D02*
X4956277Y-10074768D01*
X5070563Y-9941435D02*
X5089610Y-9941435D01*
X5089610Y-9941435D02*
X5108658Y-9950959D01*
X5108658Y-9950959D02*
X5118182Y-9960482D01*
X5118182Y-9960482D02*
X5127705Y-9979530D01*
X5127705Y-9979530D02*
X5137229Y-10017625D01*
X5137229Y-10017625D02*
X5137229Y-10065244D01*
X5137229Y-10065244D02*
X5127705Y-10103339D01*
X5127705Y-10103339D02*
X5118182Y-10122387D01*
X5118182Y-10122387D02*
X5108658Y-10131911D01*
X5108658Y-10131911D02*
X5089610Y-10141435D01*
X5089610Y-10141435D02*
X5070563Y-10141435D01*
X5070563Y-10141435D02*
X5051515Y-10131911D01*
X5051515Y-10131911D02*
X5041991Y-10122387D01*
X5041991Y-10122387D02*
X5032467Y-10103339D01*
X5032467Y-10103339D02*
X5022944Y-10065244D01*
X5022944Y-10065244D02*
X5022944Y-10017625D01*
X5022944Y-10017625D02*
X5032467Y-9979530D01*
X5032467Y-9979530D02*
X5041991Y-9960482D01*
X5041991Y-9960482D02*
X5051515Y-9950959D01*
X5051515Y-9950959D02*
X5070563Y-9941435D01*
X5261039Y-9941435D02*
X5280086Y-9941435D01*
X5280086Y-9941435D02*
X5299134Y-9950959D01*
X5299134Y-9950959D02*
X5308658Y-9960482D01*
X5308658Y-9960482D02*
X5318182Y-9979530D01*
X5318182Y-9979530D02*
X5327705Y-10017625D01*
X5327705Y-10017625D02*
X5327705Y-10065244D01*
X5327705Y-10065244D02*
X5318182Y-10103339D01*
X5318182Y-10103339D02*
X5308658Y-10122387D01*
X5308658Y-10122387D02*
X5299134Y-10131911D01*
X5299134Y-10131911D02*
X5280086Y-10141435D01*
X5280086Y-10141435D02*
X5261039Y-10141435D01*
X5261039Y-10141435D02*
X5241991Y-10131911D01*
X5241991Y-10131911D02*
X5232467Y-10122387D01*
X5232467Y-10122387D02*
X5222944Y-10103339D01*
X5222944Y-10103339D02*
X5213420Y-10065244D01*
X5213420Y-10065244D02*
X5213420Y-10017625D01*
X5213420Y-10017625D02*
X5222944Y-9979530D01*
X5222944Y-9979530D02*
X5232467Y-9960482D01*
X5232467Y-9960482D02*
X5241991Y-9950959D01*
X5241991Y-9950959D02*
X5261039Y-9941435D01*
X5413420Y-10141435D02*
X5413420Y-10008101D01*
X5413420Y-10027149D02*
X5422944Y-10017625D01*
X5422944Y-10017625D02*
X5441991Y-10008101D01*
X5441991Y-10008101D02*
X5470563Y-10008101D01*
X5470563Y-10008101D02*
X5489610Y-10017625D01*
X5489610Y-10017625D02*
X5499134Y-10036673D01*
X5499134Y-10036673D02*
X5499134Y-10141435D01*
X5499134Y-10036673D02*
X5508658Y-10017625D01*
X5508658Y-10017625D02*
X5527705Y-10008101D01*
X5527705Y-10008101D02*
X5556277Y-10008101D01*
X5556277Y-10008101D02*
X5575325Y-10017625D01*
X5575325Y-10017625D02*
X5584848Y-10036673D01*
X5584848Y-10036673D02*
X5584848Y-10141435D01*
X5680086Y-10141435D02*
X5680086Y-10008101D01*
X5680086Y-10027149D02*
X5689610Y-10017625D01*
X5689610Y-10017625D02*
X5708658Y-10008101D01*
X5708658Y-10008101D02*
X5737229Y-10008101D01*
X5737229Y-10008101D02*
X5756277Y-10017625D01*
X5756277Y-10017625D02*
X5765801Y-10036673D01*
X5765801Y-10036673D02*
X5765801Y-10141435D01*
X5765801Y-10036673D02*
X5775324Y-10017625D01*
X5775324Y-10017625D02*
X5794372Y-10008101D01*
X5794372Y-10008101D02*
X5822943Y-10008101D01*
X5822943Y-10008101D02*
X5841991Y-10017625D01*
X5841991Y-10017625D02*
X5851515Y-10036673D01*
X5851515Y-10036673D02*
X5851515Y-10141435D01*
X6241991Y-9931911D02*
X6070563Y-10189054D01*
X6499134Y-9941435D02*
X6518182Y-9941435D01*
X6518182Y-9941435D02*
X6537229Y-9950959D01*
X6537229Y-9950959D02*
X6546753Y-9960482D01*
X6546753Y-9960482D02*
X6556277Y-9979530D01*
X6556277Y-9979530D02*
X6565801Y-10017625D01*
X6565801Y-10017625D02*
X6565801Y-10065244D01*
X6565801Y-10065244D02*
X6556277Y-10103339D01*
X6556277Y-10103339D02*
X6546753Y-10122387D01*
X6546753Y-10122387D02*
X6537229Y-10131911D01*
X6537229Y-10131911D02*
X6518182Y-10141435D01*
X6518182Y-10141435D02*
X6499134Y-10141435D01*
X6499134Y-10141435D02*
X6480086Y-10131911D01*
X6480086Y-10131911D02*
X6470563Y-10122387D01*
X6470563Y-10122387D02*
X6461039Y-10103339D01*
X6461039Y-10103339D02*
X6451515Y-10065244D01*
X6451515Y-10065244D02*
X6451515Y-10017625D01*
X6451515Y-10017625D02*
X6461039Y-9979530D01*
X6461039Y-9979530D02*
X6470563Y-9960482D01*
X6470563Y-9960482D02*
X6480086Y-9950959D01*
X6480086Y-9950959D02*
X6499134Y-9941435D01*
X6651515Y-10122387D02*
X6661039Y-10131911D01*
X6661039Y-10131911D02*
X6651515Y-10141435D01*
X6651515Y-10141435D02*
X6641991Y-10131911D01*
X6641991Y-10131911D02*
X6651515Y-10122387D01*
X6651515Y-10122387D02*
X6651515Y-10141435D01*
X6784848Y-9941435D02*
X6803896Y-9941435D01*
X6803896Y-9941435D02*
X6822944Y-9950959D01*
X6822944Y-9950959D02*
X6832467Y-9960482D01*
X6832467Y-9960482D02*
X6841991Y-9979530D01*
X6841991Y-9979530D02*
X6851515Y-10017625D01*
X6851515Y-10017625D02*
X6851515Y-10065244D01*
X6851515Y-10065244D02*
X6841991Y-10103339D01*
X6841991Y-10103339D02*
X6832467Y-10122387D01*
X6832467Y-10122387D02*
X6822944Y-10131911D01*
X6822944Y-10131911D02*
X6803896Y-10141435D01*
X6803896Y-10141435D02*
X6784848Y-10141435D01*
X6784848Y-10141435D02*
X6765801Y-10131911D01*
X6765801Y-10131911D02*
X6756277Y-10122387D01*
X6756277Y-10122387D02*
X6746753Y-10103339D01*
X6746753Y-10103339D02*
X6737229Y-10065244D01*
X6737229Y-10065244D02*
X6737229Y-10017625D01*
X6737229Y-10017625D02*
X6746753Y-9979530D01*
X6746753Y-9979530D02*
X6756277Y-9960482D01*
X6756277Y-9960482D02*
X6765801Y-9950959D01*
X6765801Y-9950959D02*
X6784848Y-9941435D01*
X7041991Y-10141435D02*
X6927706Y-10141435D01*
X6984848Y-10141435D02*
X6984848Y-9941435D01*
X6984848Y-9941435D02*
X6965801Y-9970006D01*
X6965801Y-9970006D02*
X6946753Y-9989054D01*
X6946753Y-9989054D02*
X6927706Y-9998578D01*
X7222944Y-9941435D02*
X7127706Y-9941435D01*
X7127706Y-9941435D02*
X7118182Y-10036673D01*
X7118182Y-10036673D02*
X7127706Y-10027149D01*
X7127706Y-10027149D02*
X7146753Y-10017625D01*
X7146753Y-10017625D02*
X7194372Y-10017625D01*
X7194372Y-10017625D02*
X7213420Y-10027149D01*
X7213420Y-10027149D02*
X7222944Y-10036673D01*
X7222944Y-10036673D02*
X7232467Y-10055720D01*
X7232467Y-10055720D02*
X7232467Y-10103339D01*
X7232467Y-10103339D02*
X7222944Y-10122387D01*
X7222944Y-10122387D02*
X7213420Y-10131911D01*
X7213420Y-10131911D02*
X7194372Y-10141435D01*
X7194372Y-10141435D02*
X7146753Y-10141435D01*
X7146753Y-10141435D02*
X7127706Y-10131911D01*
X7127706Y-10131911D02*
X7118182Y-10122387D01*
X7299134Y-9941435D02*
X7432467Y-9941435D01*
X7432467Y-9941435D02*
X7346753Y-10141435D01*
X7499134Y-9941435D02*
X7499134Y-9979530D01*
X7575325Y-9941435D02*
X7575325Y-9979530D01*
X7870563Y-10217625D02*
X7861039Y-10208101D01*
X7861039Y-10208101D02*
X7841991Y-10179530D01*
X7841991Y-10179530D02*
X7832468Y-10160482D01*
X7832468Y-10160482D02*
X7822944Y-10131911D01*
X7822944Y-10131911D02*
X7813420Y-10084292D01*
X7813420Y-10084292D02*
X7813420Y-10046197D01*
X7813420Y-10046197D02*
X7822944Y-9998578D01*
X7822944Y-9998578D02*
X7832468Y-9970006D01*
X7832468Y-9970006D02*
X7841991Y-9950959D01*
X7841991Y-9950959D02*
X7861039Y-9922387D01*
X7861039Y-9922387D02*
X7870563Y-9912863D01*
X7937229Y-9960482D02*
X7946753Y-9950959D01*
X7946753Y-9950959D02*
X7965801Y-9941435D01*
X7965801Y-9941435D02*
X8013420Y-9941435D01*
X8013420Y-9941435D02*
X8032468Y-9950959D01*
X8032468Y-9950959D02*
X8041991Y-9960482D01*
X8041991Y-9960482D02*
X8051515Y-9979530D01*
X8051515Y-9979530D02*
X8051515Y-9998578D01*
X8051515Y-9998578D02*
X8041991Y-10027149D01*
X8041991Y-10027149D02*
X7927706Y-10141435D01*
X7927706Y-10141435D02*
X8051515Y-10141435D01*
X8127706Y-9960482D02*
X8137229Y-9950959D01*
X8137229Y-9950959D02*
X8156277Y-9941435D01*
X8156277Y-9941435D02*
X8203896Y-9941435D01*
X8203896Y-9941435D02*
X8222944Y-9950959D01*
X8222944Y-9950959D02*
X8232468Y-9960482D01*
X8232468Y-9960482D02*
X8241991Y-9979530D01*
X8241991Y-9979530D02*
X8241991Y-9998578D01*
X8241991Y-9998578D02*
X8232468Y-10027149D01*
X8232468Y-10027149D02*
X8118182Y-10141435D01*
X8118182Y-10141435D02*
X8241991Y-10141435D01*
X8480087Y-10141435D02*
X8480087Y-9941435D01*
X8565801Y-10141435D02*
X8565801Y-10036673D01*
X8565801Y-10036673D02*
X8556277Y-10017625D01*
X8556277Y-10017625D02*
X8537230Y-10008101D01*
X8537230Y-10008101D02*
X8508658Y-10008101D01*
X8508658Y-10008101D02*
X8489611Y-10017625D01*
X8489611Y-10017625D02*
X8480087Y-10027149D01*
X8689611Y-10141435D02*
X8670563Y-10131911D01*
X8670563Y-10131911D02*
X8661039Y-10122387D01*
X8661039Y-10122387D02*
X8651515Y-10103339D01*
X8651515Y-10103339D02*
X8651515Y-10046197D01*
X8651515Y-10046197D02*
X8661039Y-10027149D01*
X8661039Y-10027149D02*
X8670563Y-10017625D01*
X8670563Y-10017625D02*
X8689611Y-10008101D01*
X8689611Y-10008101D02*
X8718182Y-10008101D01*
X8718182Y-10008101D02*
X8737230Y-10017625D01*
X8737230Y-10017625D02*
X8746753Y-10027149D01*
X8746753Y-10027149D02*
X8756277Y-10046197D01*
X8756277Y-10046197D02*
X8756277Y-10103339D01*
X8756277Y-10103339D02*
X8746753Y-10122387D01*
X8746753Y-10122387D02*
X8737230Y-10131911D01*
X8737230Y-10131911D02*
X8718182Y-10141435D01*
X8718182Y-10141435D02*
X8689611Y-10141435D01*
X8870563Y-10141435D02*
X8851515Y-10131911D01*
X8851515Y-10131911D02*
X8841992Y-10112863D01*
X8841992Y-10112863D02*
X8841992Y-9941435D01*
X9022944Y-10131911D02*
X9003896Y-10141435D01*
X9003896Y-10141435D02*
X8965801Y-10141435D01*
X8965801Y-10141435D02*
X8946753Y-10131911D01*
X8946753Y-10131911D02*
X8937230Y-10112863D01*
X8937230Y-10112863D02*
X8937230Y-10036673D01*
X8937230Y-10036673D02*
X8946753Y-10017625D01*
X8946753Y-10017625D02*
X8965801Y-10008101D01*
X8965801Y-10008101D02*
X9003896Y-10008101D01*
X9003896Y-10008101D02*
X9022944Y-10017625D01*
X9022944Y-10017625D02*
X9032468Y-10036673D01*
X9032468Y-10036673D02*
X9032468Y-10055720D01*
X9032468Y-10055720D02*
X8937230Y-10074768D01*
X9108658Y-10131911D02*
X9127706Y-10141435D01*
X9127706Y-10141435D02*
X9165801Y-10141435D01*
X9165801Y-10141435D02*
X9184849Y-10131911D01*
X9184849Y-10131911D02*
X9194373Y-10112863D01*
X9194373Y-10112863D02*
X9194373Y-10103339D01*
X9194373Y-10103339D02*
X9184849Y-10084292D01*
X9184849Y-10084292D02*
X9165801Y-10074768D01*
X9165801Y-10074768D02*
X9137230Y-10074768D01*
X9137230Y-10074768D02*
X9118182Y-10065244D01*
X9118182Y-10065244D02*
X9108658Y-10046197D01*
X9108658Y-10046197D02*
X9108658Y-10036673D01*
X9108658Y-10036673D02*
X9118182Y-10017625D01*
X9118182Y-10017625D02*
X9137230Y-10008101D01*
X9137230Y-10008101D02*
X9165801Y-10008101D01*
X9165801Y-10008101D02*
X9184849Y-10017625D01*
X9261039Y-10217625D02*
X9270563Y-10208101D01*
X9270563Y-10208101D02*
X9289611Y-10179530D01*
X9289611Y-10179530D02*
X9299134Y-10160482D01*
X9299134Y-10160482D02*
X9308658Y-10131911D01*
X9308658Y-10131911D02*
X9318182Y-10084292D01*
X9318182Y-10084292D02*
X9318182Y-10046197D01*
X9318182Y-10046197D02*
X9308658Y-9998578D01*
X9308658Y-9998578D02*
X9299134Y-9970006D01*
X9299134Y-9970006D02*
X9289611Y-9950959D01*
X9289611Y-9950959D02*
X9270563Y-9922387D01*
X9270563Y-9922387D02*
X9261039Y-9912863D01*
D12*
X4270500Y-10288951D02*
X4270500Y-10338951D01*
X4245500Y-10313951D02*
X4295500Y-10313951D01*
D11*
X4594372Y-10205435D02*
X4613420Y-10205435D01*
X4613420Y-10205435D02*
X4632467Y-10214959D01*
X4632467Y-10214959D02*
X4641991Y-10224482D01*
X4641991Y-10224482D02*
X4651515Y-10243530D01*
X4651515Y-10243530D02*
X4661039Y-10281625D01*
X4661039Y-10281625D02*
X4661039Y-10329244D01*
X4661039Y-10329244D02*
X4651515Y-10367339D01*
X4651515Y-10367339D02*
X4641991Y-10386387D01*
X4641991Y-10386387D02*
X4632467Y-10395911D01*
X4632467Y-10395911D02*
X4613420Y-10405435D01*
X4613420Y-10405435D02*
X4594372Y-10405435D01*
X4594372Y-10405435D02*
X4575324Y-10395911D01*
X4575324Y-10395911D02*
X4565801Y-10386387D01*
X4565801Y-10386387D02*
X4556277Y-10367339D01*
X4556277Y-10367339D02*
X4546753Y-10329244D01*
X4546753Y-10329244D02*
X4546753Y-10281625D01*
X4546753Y-10281625D02*
X4556277Y-10243530D01*
X4556277Y-10243530D02*
X4565801Y-10224482D01*
X4565801Y-10224482D02*
X4575324Y-10214959D01*
X4575324Y-10214959D02*
X4594372Y-10205435D01*
X4746753Y-10386387D02*
X4756277Y-10395911D01*
X4756277Y-10395911D02*
X4746753Y-10405435D01*
X4746753Y-10405435D02*
X4737229Y-10395911D01*
X4737229Y-10395911D02*
X4746753Y-10386387D01*
X4746753Y-10386387D02*
X4746753Y-10405435D01*
X4937229Y-10205435D02*
X4841991Y-10205435D01*
X4841991Y-10205435D02*
X4832467Y-10300673D01*
X4832467Y-10300673D02*
X4841991Y-10291149D01*
X4841991Y-10291149D02*
X4861039Y-10281625D01*
X4861039Y-10281625D02*
X4908658Y-10281625D01*
X4908658Y-10281625D02*
X4927705Y-10291149D01*
X4927705Y-10291149D02*
X4937229Y-10300673D01*
X4937229Y-10300673D02*
X4946753Y-10319720D01*
X4946753Y-10319720D02*
X4946753Y-10367339D01*
X4946753Y-10367339D02*
X4937229Y-10386387D01*
X4937229Y-10386387D02*
X4927705Y-10395911D01*
X4927705Y-10395911D02*
X4908658Y-10405435D01*
X4908658Y-10405435D02*
X4861039Y-10405435D01*
X4861039Y-10405435D02*
X4841991Y-10395911D01*
X4841991Y-10395911D02*
X4832467Y-10386387D01*
X5070563Y-10205435D02*
X5089610Y-10205435D01*
X5089610Y-10205435D02*
X5108658Y-10214959D01*
X5108658Y-10214959D02*
X5118182Y-10224482D01*
X5118182Y-10224482D02*
X5127705Y-10243530D01*
X5127705Y-10243530D02*
X5137229Y-10281625D01*
X5137229Y-10281625D02*
X5137229Y-10329244D01*
X5137229Y-10329244D02*
X5127705Y-10367339D01*
X5127705Y-10367339D02*
X5118182Y-10386387D01*
X5118182Y-10386387D02*
X5108658Y-10395911D01*
X5108658Y-10395911D02*
X5089610Y-10405435D01*
X5089610Y-10405435D02*
X5070563Y-10405435D01*
X5070563Y-10405435D02*
X5051515Y-10395911D01*
X5051515Y-10395911D02*
X5041991Y-10386387D01*
X5041991Y-10386387D02*
X5032467Y-10367339D01*
X5032467Y-10367339D02*
X5022944Y-10329244D01*
X5022944Y-10329244D02*
X5022944Y-10281625D01*
X5022944Y-10281625D02*
X5032467Y-10243530D01*
X5032467Y-10243530D02*
X5041991Y-10224482D01*
X5041991Y-10224482D02*
X5051515Y-10214959D01*
X5051515Y-10214959D02*
X5070563Y-10205435D01*
X5261039Y-10205435D02*
X5280086Y-10205435D01*
X5280086Y-10205435D02*
X5299134Y-10214959D01*
X5299134Y-10214959D02*
X5308658Y-10224482D01*
X5308658Y-10224482D02*
X5318182Y-10243530D01*
X5318182Y-10243530D02*
X5327705Y-10281625D01*
X5327705Y-10281625D02*
X5327705Y-10329244D01*
X5327705Y-10329244D02*
X5318182Y-10367339D01*
X5318182Y-10367339D02*
X5308658Y-10386387D01*
X5308658Y-10386387D02*
X5299134Y-10395911D01*
X5299134Y-10395911D02*
X5280086Y-10405435D01*
X5280086Y-10405435D02*
X5261039Y-10405435D01*
X5261039Y-10405435D02*
X5241991Y-10395911D01*
X5241991Y-10395911D02*
X5232467Y-10386387D01*
X5232467Y-10386387D02*
X5222944Y-10367339D01*
X5222944Y-10367339D02*
X5213420Y-10329244D01*
X5213420Y-10329244D02*
X5213420Y-10281625D01*
X5213420Y-10281625D02*
X5222944Y-10243530D01*
X5222944Y-10243530D02*
X5232467Y-10224482D01*
X5232467Y-10224482D02*
X5241991Y-10214959D01*
X5241991Y-10214959D02*
X5261039Y-10205435D01*
X5413420Y-10405435D02*
X5413420Y-10272101D01*
X5413420Y-10291149D02*
X5422944Y-10281625D01*
X5422944Y-10281625D02*
X5441991Y-10272101D01*
X5441991Y-10272101D02*
X5470563Y-10272101D01*
X5470563Y-10272101D02*
X5489610Y-10281625D01*
X5489610Y-10281625D02*
X5499134Y-10300673D01*
X5499134Y-10300673D02*
X5499134Y-10405435D01*
X5499134Y-10300673D02*
X5508658Y-10281625D01*
X5508658Y-10281625D02*
X5527705Y-10272101D01*
X5527705Y-10272101D02*
X5556277Y-10272101D01*
X5556277Y-10272101D02*
X5575325Y-10281625D01*
X5575325Y-10281625D02*
X5584848Y-10300673D01*
X5584848Y-10300673D02*
X5584848Y-10405435D01*
X5680086Y-10405435D02*
X5680086Y-10272101D01*
X5680086Y-10291149D02*
X5689610Y-10281625D01*
X5689610Y-10281625D02*
X5708658Y-10272101D01*
X5708658Y-10272101D02*
X5737229Y-10272101D01*
X5737229Y-10272101D02*
X5756277Y-10281625D01*
X5756277Y-10281625D02*
X5765801Y-10300673D01*
X5765801Y-10300673D02*
X5765801Y-10405435D01*
X5765801Y-10300673D02*
X5775324Y-10281625D01*
X5775324Y-10281625D02*
X5794372Y-10272101D01*
X5794372Y-10272101D02*
X5822943Y-10272101D01*
X5822943Y-10272101D02*
X5841991Y-10281625D01*
X5841991Y-10281625D02*
X5851515Y-10300673D01*
X5851515Y-10300673D02*
X5851515Y-10405435D01*
X6241991Y-10195911D02*
X6070563Y-10453054D01*
X6499134Y-10205435D02*
X6518182Y-10205435D01*
X6518182Y-10205435D02*
X6537229Y-10214959D01*
X6537229Y-10214959D02*
X6546753Y-10224482D01*
X6546753Y-10224482D02*
X6556277Y-10243530D01*
X6556277Y-10243530D02*
X6565801Y-10281625D01*
X6565801Y-10281625D02*
X6565801Y-10329244D01*
X6565801Y-10329244D02*
X6556277Y-10367339D01*
X6556277Y-10367339D02*
X6546753Y-10386387D01*
X6546753Y-10386387D02*
X6537229Y-10395911D01*
X6537229Y-10395911D02*
X6518182Y-10405435D01*
X6518182Y-10405435D02*
X6499134Y-10405435D01*
X6499134Y-10405435D02*
X6480086Y-10395911D01*
X6480086Y-10395911D02*
X6470563Y-10386387D01*
X6470563Y-10386387D02*
X6461039Y-10367339D01*
X6461039Y-10367339D02*
X6451515Y-10329244D01*
X6451515Y-10329244D02*
X6451515Y-10281625D01*
X6451515Y-10281625D02*
X6461039Y-10243530D01*
X6461039Y-10243530D02*
X6470563Y-10224482D01*
X6470563Y-10224482D02*
X6480086Y-10214959D01*
X6480086Y-10214959D02*
X6499134Y-10205435D01*
X6651515Y-10386387D02*
X6661039Y-10395911D01*
X6661039Y-10395911D02*
X6651515Y-10405435D01*
X6651515Y-10405435D02*
X6641991Y-10395911D01*
X6641991Y-10395911D02*
X6651515Y-10386387D01*
X6651515Y-10386387D02*
X6651515Y-10405435D01*
X6784848Y-10205435D02*
X6803896Y-10205435D01*
X6803896Y-10205435D02*
X6822944Y-10214959D01*
X6822944Y-10214959D02*
X6832467Y-10224482D01*
X6832467Y-10224482D02*
X6841991Y-10243530D01*
X6841991Y-10243530D02*
X6851515Y-10281625D01*
X6851515Y-10281625D02*
X6851515Y-10329244D01*
X6851515Y-10329244D02*
X6841991Y-10367339D01*
X6841991Y-10367339D02*
X6832467Y-10386387D01*
X6832467Y-10386387D02*
X6822944Y-10395911D01*
X6822944Y-10395911D02*
X6803896Y-10405435D01*
X6803896Y-10405435D02*
X6784848Y-10405435D01*
X6784848Y-10405435D02*
X6765801Y-10395911D01*
X6765801Y-10395911D02*
X6756277Y-10386387D01*
X6756277Y-10386387D02*
X6746753Y-10367339D01*
X6746753Y-10367339D02*
X6737229Y-10329244D01*
X6737229Y-10329244D02*
X6737229Y-10281625D01*
X6737229Y-10281625D02*
X6746753Y-10243530D01*
X6746753Y-10243530D02*
X6756277Y-10224482D01*
X6756277Y-10224482D02*
X6765801Y-10214959D01*
X6765801Y-10214959D02*
X6784848Y-10205435D01*
X7041991Y-10405435D02*
X6927706Y-10405435D01*
X6984848Y-10405435D02*
X6984848Y-10205435D01*
X6984848Y-10205435D02*
X6965801Y-10234006D01*
X6965801Y-10234006D02*
X6946753Y-10253054D01*
X6946753Y-10253054D02*
X6927706Y-10262578D01*
X7137229Y-10405435D02*
X7175325Y-10405435D01*
X7175325Y-10405435D02*
X7194372Y-10395911D01*
X7194372Y-10395911D02*
X7203896Y-10386387D01*
X7203896Y-10386387D02*
X7222944Y-10357816D01*
X7222944Y-10357816D02*
X7232467Y-10319720D01*
X7232467Y-10319720D02*
X7232467Y-10243530D01*
X7232467Y-10243530D02*
X7222944Y-10224482D01*
X7222944Y-10224482D02*
X7213420Y-10214959D01*
X7213420Y-10214959D02*
X7194372Y-10205435D01*
X7194372Y-10205435D02*
X7156277Y-10205435D01*
X7156277Y-10205435D02*
X7137229Y-10214959D01*
X7137229Y-10214959D02*
X7127706Y-10224482D01*
X7127706Y-10224482D02*
X7118182Y-10243530D01*
X7118182Y-10243530D02*
X7118182Y-10291149D01*
X7118182Y-10291149D02*
X7127706Y-10310197D01*
X7127706Y-10310197D02*
X7137229Y-10319720D01*
X7137229Y-10319720D02*
X7156277Y-10329244D01*
X7156277Y-10329244D02*
X7194372Y-10329244D01*
X7194372Y-10329244D02*
X7213420Y-10319720D01*
X7213420Y-10319720D02*
X7222944Y-10310197D01*
X7222944Y-10310197D02*
X7232467Y-10291149D01*
X7299134Y-10205435D02*
X7432467Y-10205435D01*
X7432467Y-10205435D02*
X7346753Y-10405435D01*
X7499134Y-10205435D02*
X7499134Y-10243530D01*
X7575325Y-10205435D02*
X7575325Y-10243530D01*
X7870563Y-10481625D02*
X7861039Y-10472101D01*
X7861039Y-10472101D02*
X7841991Y-10443530D01*
X7841991Y-10443530D02*
X7832468Y-10424482D01*
X7832468Y-10424482D02*
X7822944Y-10395911D01*
X7822944Y-10395911D02*
X7813420Y-10348292D01*
X7813420Y-10348292D02*
X7813420Y-10310197D01*
X7813420Y-10310197D02*
X7822944Y-10262578D01*
X7822944Y-10262578D02*
X7832468Y-10234006D01*
X7832468Y-10234006D02*
X7841991Y-10214959D01*
X7841991Y-10214959D02*
X7861039Y-10186387D01*
X7861039Y-10186387D02*
X7870563Y-10176863D01*
X7984848Y-10205435D02*
X8003896Y-10205435D01*
X8003896Y-10205435D02*
X8022944Y-10214959D01*
X8022944Y-10214959D02*
X8032468Y-10224482D01*
X8032468Y-10224482D02*
X8041991Y-10243530D01*
X8041991Y-10243530D02*
X8051515Y-10281625D01*
X8051515Y-10281625D02*
X8051515Y-10329244D01*
X8051515Y-10329244D02*
X8041991Y-10367339D01*
X8041991Y-10367339D02*
X8032468Y-10386387D01*
X8032468Y-10386387D02*
X8022944Y-10395911D01*
X8022944Y-10395911D02*
X8003896Y-10405435D01*
X8003896Y-10405435D02*
X7984848Y-10405435D01*
X7984848Y-10405435D02*
X7965801Y-10395911D01*
X7965801Y-10395911D02*
X7956277Y-10386387D01*
X7956277Y-10386387D02*
X7946753Y-10367339D01*
X7946753Y-10367339D02*
X7937229Y-10329244D01*
X7937229Y-10329244D02*
X7937229Y-10281625D01*
X7937229Y-10281625D02*
X7946753Y-10243530D01*
X7946753Y-10243530D02*
X7956277Y-10224482D01*
X7956277Y-10224482D02*
X7965801Y-10214959D01*
X7965801Y-10214959D02*
X7984848Y-10205435D01*
X8289610Y-10405435D02*
X8289610Y-10205435D01*
X8375325Y-10405435D02*
X8375325Y-10300673D01*
X8375325Y-10300673D02*
X8365801Y-10281625D01*
X8365801Y-10281625D02*
X8346753Y-10272101D01*
X8346753Y-10272101D02*
X8318182Y-10272101D01*
X8318182Y-10272101D02*
X8299134Y-10281625D01*
X8299134Y-10281625D02*
X8289610Y-10291149D01*
X8499134Y-10405435D02*
X8480087Y-10395911D01*
X8480087Y-10395911D02*
X8470563Y-10386387D01*
X8470563Y-10386387D02*
X8461039Y-10367339D01*
X8461039Y-10367339D02*
X8461039Y-10310197D01*
X8461039Y-10310197D02*
X8470563Y-10291149D01*
X8470563Y-10291149D02*
X8480087Y-10281625D01*
X8480087Y-10281625D02*
X8499134Y-10272101D01*
X8499134Y-10272101D02*
X8527706Y-10272101D01*
X8527706Y-10272101D02*
X8546753Y-10281625D01*
X8546753Y-10281625D02*
X8556277Y-10291149D01*
X8556277Y-10291149D02*
X8565801Y-10310197D01*
X8565801Y-10310197D02*
X8565801Y-10367339D01*
X8565801Y-10367339D02*
X8556277Y-10386387D01*
X8556277Y-10386387D02*
X8546753Y-10395911D01*
X8546753Y-10395911D02*
X8527706Y-10405435D01*
X8527706Y-10405435D02*
X8499134Y-10405435D01*
X8680087Y-10405435D02*
X8661039Y-10395911D01*
X8661039Y-10395911D02*
X8651515Y-10376863D01*
X8651515Y-10376863D02*
X8651515Y-10205435D01*
X8832468Y-10395911D02*
X8813420Y-10405435D01*
X8813420Y-10405435D02*
X8775325Y-10405435D01*
X8775325Y-10405435D02*
X8756277Y-10395911D01*
X8756277Y-10395911D02*
X8746753Y-10376863D01*
X8746753Y-10376863D02*
X8746753Y-10300673D01*
X8746753Y-10300673D02*
X8756277Y-10281625D01*
X8756277Y-10281625D02*
X8775325Y-10272101D01*
X8775325Y-10272101D02*
X8813420Y-10272101D01*
X8813420Y-10272101D02*
X8832468Y-10281625D01*
X8832468Y-10281625D02*
X8841992Y-10300673D01*
X8841992Y-10300673D02*
X8841992Y-10319720D01*
X8841992Y-10319720D02*
X8746753Y-10338768D01*
X8918182Y-10395911D02*
X8937230Y-10405435D01*
X8937230Y-10405435D02*
X8975325Y-10405435D01*
X8975325Y-10405435D02*
X8994373Y-10395911D01*
X8994373Y-10395911D02*
X9003896Y-10376863D01*
X9003896Y-10376863D02*
X9003896Y-10367339D01*
X9003896Y-10367339D02*
X8994373Y-10348292D01*
X8994373Y-10348292D02*
X8975325Y-10338768D01*
X8975325Y-10338768D02*
X8946753Y-10338768D01*
X8946753Y-10338768D02*
X8927706Y-10329244D01*
X8927706Y-10329244D02*
X8918182Y-10310197D01*
X8918182Y-10310197D02*
X8918182Y-10300673D01*
X8918182Y-10300673D02*
X8927706Y-10281625D01*
X8927706Y-10281625D02*
X8946753Y-10272101D01*
X8946753Y-10272101D02*
X8975325Y-10272101D01*
X8975325Y-10272101D02*
X8994373Y-10281625D01*
X9241992Y-10329244D02*
X9394373Y-10329244D01*
X9318182Y-10405435D02*
X9318182Y-10253054D01*
X9632468Y-10224482D02*
X9641992Y-10214959D01*
X9641992Y-10214959D02*
X9661039Y-10205435D01*
X9661039Y-10205435D02*
X9708658Y-10205435D01*
X9708658Y-10205435D02*
X9727706Y-10214959D01*
X9727706Y-10214959D02*
X9737230Y-10224482D01*
X9737230Y-10224482D02*
X9746754Y-10243530D01*
X9746754Y-10243530D02*
X9746754Y-10262578D01*
X9746754Y-10262578D02*
X9737230Y-10291149D01*
X9737230Y-10291149D02*
X9622944Y-10405435D01*
X9622944Y-10405435D02*
X9746754Y-10405435D01*
X9975325Y-10395911D02*
X9994373Y-10405435D01*
X9994373Y-10405435D02*
X10032468Y-10405435D01*
X10032468Y-10405435D02*
X10051516Y-10395911D01*
X10051516Y-10395911D02*
X10061039Y-10376863D01*
X10061039Y-10376863D02*
X10061039Y-10367339D01*
X10061039Y-10367339D02*
X10051516Y-10348292D01*
X10051516Y-10348292D02*
X10032468Y-10338768D01*
X10032468Y-10338768D02*
X10003896Y-10338768D01*
X10003896Y-10338768D02*
X9984849Y-10329244D01*
X9984849Y-10329244D02*
X9975325Y-10310197D01*
X9975325Y-10310197D02*
X9975325Y-10300673D01*
X9975325Y-10300673D02*
X9984849Y-10281625D01*
X9984849Y-10281625D02*
X10003896Y-10272101D01*
X10003896Y-10272101D02*
X10032468Y-10272101D01*
X10032468Y-10272101D02*
X10051516Y-10281625D01*
X10175325Y-10405435D02*
X10156277Y-10395911D01*
X10156277Y-10395911D02*
X10146754Y-10376863D01*
X10146754Y-10376863D02*
X10146754Y-10205435D01*
X10280087Y-10405435D02*
X10261039Y-10395911D01*
X10261039Y-10395911D02*
X10251516Y-10386387D01*
X10251516Y-10386387D02*
X10241992Y-10367339D01*
X10241992Y-10367339D02*
X10241992Y-10310197D01*
X10241992Y-10310197D02*
X10251516Y-10291149D01*
X10251516Y-10291149D02*
X10261039Y-10281625D01*
X10261039Y-10281625D02*
X10280087Y-10272101D01*
X10280087Y-10272101D02*
X10308658Y-10272101D01*
X10308658Y-10272101D02*
X10327706Y-10281625D01*
X10327706Y-10281625D02*
X10337230Y-10291149D01*
X10337230Y-10291149D02*
X10346754Y-10310197D01*
X10346754Y-10310197D02*
X10346754Y-10367339D01*
X10346754Y-10367339D02*
X10337230Y-10386387D01*
X10337230Y-10386387D02*
X10327706Y-10395911D01*
X10327706Y-10395911D02*
X10308658Y-10405435D01*
X10308658Y-10405435D02*
X10280087Y-10405435D01*
X10403897Y-10272101D02*
X10480087Y-10272101D01*
X10432468Y-10205435D02*
X10432468Y-10376863D01*
X10432468Y-10376863D02*
X10441992Y-10395911D01*
X10441992Y-10395911D02*
X10461039Y-10405435D01*
X10461039Y-10405435D02*
X10480087Y-10405435D01*
X10537230Y-10395911D02*
X10556277Y-10405435D01*
X10556277Y-10405435D02*
X10594373Y-10405435D01*
X10594373Y-10405435D02*
X10613420Y-10395911D01*
X10613420Y-10395911D02*
X10622944Y-10376863D01*
X10622944Y-10376863D02*
X10622944Y-10367339D01*
X10622944Y-10367339D02*
X10613420Y-10348292D01*
X10613420Y-10348292D02*
X10594373Y-10338768D01*
X10594373Y-10338768D02*
X10565801Y-10338768D01*
X10565801Y-10338768D02*
X10546754Y-10329244D01*
X10546754Y-10329244D02*
X10537230Y-10310197D01*
X10537230Y-10310197D02*
X10537230Y-10300673D01*
X10537230Y-10300673D02*
X10546754Y-10281625D01*
X10546754Y-10281625D02*
X10565801Y-10272101D01*
X10565801Y-10272101D02*
X10594373Y-10272101D01*
X10594373Y-10272101D02*
X10613420Y-10281625D01*
X10689611Y-10481625D02*
X10699135Y-10472101D01*
X10699135Y-10472101D02*
X10718182Y-10443530D01*
X10718182Y-10443530D02*
X10727706Y-10424482D01*
X10727706Y-10424482D02*
X10737230Y-10395911D01*
X10737230Y-10395911D02*
X10746754Y-10348292D01*
X10746754Y-10348292D02*
X10746754Y-10310197D01*
X10746754Y-10310197D02*
X10737230Y-10262578D01*
X10737230Y-10262578D02*
X10727706Y-10234006D01*
X10727706Y-10234006D02*
X10718182Y-10214959D01*
X10718182Y-10214959D02*
X10699135Y-10186387D01*
X10699135Y-10186387D02*
X10689611Y-10176863D01*
D12*
X4285395Y-10602346D02*
X4285395Y-10553556D01*
X4236605Y-10553556D01*
X4236605Y-10602346D01*
X4285395Y-10602346D01*
D11*
X4594372Y-10469435D02*
X4613420Y-10469435D01*
X4613420Y-10469435D02*
X4632467Y-10478959D01*
X4632467Y-10478959D02*
X4641991Y-10488482D01*
X4641991Y-10488482D02*
X4651515Y-10507530D01*
X4651515Y-10507530D02*
X4661039Y-10545625D01*
X4661039Y-10545625D02*
X4661039Y-10593244D01*
X4661039Y-10593244D02*
X4651515Y-10631339D01*
X4651515Y-10631339D02*
X4641991Y-10650387D01*
X4641991Y-10650387D02*
X4632467Y-10659911D01*
X4632467Y-10659911D02*
X4613420Y-10669435D01*
X4613420Y-10669435D02*
X4594372Y-10669435D01*
X4594372Y-10669435D02*
X4575324Y-10659911D01*
X4575324Y-10659911D02*
X4565801Y-10650387D01*
X4565801Y-10650387D02*
X4556277Y-10631339D01*
X4556277Y-10631339D02*
X4546753Y-10593244D01*
X4546753Y-10593244D02*
X4546753Y-10545625D01*
X4546753Y-10545625D02*
X4556277Y-10507530D01*
X4556277Y-10507530D02*
X4565801Y-10488482D01*
X4565801Y-10488482D02*
X4575324Y-10478959D01*
X4575324Y-10478959D02*
X4594372Y-10469435D01*
X4746753Y-10650387D02*
X4756277Y-10659911D01*
X4756277Y-10659911D02*
X4746753Y-10669435D01*
X4746753Y-10669435D02*
X4737229Y-10659911D01*
X4737229Y-10659911D02*
X4746753Y-10650387D01*
X4746753Y-10650387D02*
X4746753Y-10669435D01*
X4927705Y-10469435D02*
X4889610Y-10469435D01*
X4889610Y-10469435D02*
X4870563Y-10478959D01*
X4870563Y-10478959D02*
X4861039Y-10488482D01*
X4861039Y-10488482D02*
X4841991Y-10517054D01*
X4841991Y-10517054D02*
X4832467Y-10555149D01*
X4832467Y-10555149D02*
X4832467Y-10631339D01*
X4832467Y-10631339D02*
X4841991Y-10650387D01*
X4841991Y-10650387D02*
X4851515Y-10659911D01*
X4851515Y-10659911D02*
X4870563Y-10669435D01*
X4870563Y-10669435D02*
X4908658Y-10669435D01*
X4908658Y-10669435D02*
X4927705Y-10659911D01*
X4927705Y-10659911D02*
X4937229Y-10650387D01*
X4937229Y-10650387D02*
X4946753Y-10631339D01*
X4946753Y-10631339D02*
X4946753Y-10583720D01*
X4946753Y-10583720D02*
X4937229Y-10564673D01*
X4937229Y-10564673D02*
X4927705Y-10555149D01*
X4927705Y-10555149D02*
X4908658Y-10545625D01*
X4908658Y-10545625D02*
X4870563Y-10545625D01*
X4870563Y-10545625D02*
X4851515Y-10555149D01*
X4851515Y-10555149D02*
X4841991Y-10564673D01*
X4841991Y-10564673D02*
X4832467Y-10583720D01*
X5041991Y-10669435D02*
X5080086Y-10669435D01*
X5080086Y-10669435D02*
X5099134Y-10659911D01*
X5099134Y-10659911D02*
X5108658Y-10650387D01*
X5108658Y-10650387D02*
X5127705Y-10621816D01*
X5127705Y-10621816D02*
X5137229Y-10583720D01*
X5137229Y-10583720D02*
X5137229Y-10507530D01*
X5137229Y-10507530D02*
X5127705Y-10488482D01*
X5127705Y-10488482D02*
X5118182Y-10478959D01*
X5118182Y-10478959D02*
X5099134Y-10469435D01*
X5099134Y-10469435D02*
X5061039Y-10469435D01*
X5061039Y-10469435D02*
X5041991Y-10478959D01*
X5041991Y-10478959D02*
X5032467Y-10488482D01*
X5032467Y-10488482D02*
X5022944Y-10507530D01*
X5022944Y-10507530D02*
X5022944Y-10555149D01*
X5022944Y-10555149D02*
X5032467Y-10574197D01*
X5032467Y-10574197D02*
X5041991Y-10583720D01*
X5041991Y-10583720D02*
X5061039Y-10593244D01*
X5061039Y-10593244D02*
X5099134Y-10593244D01*
X5099134Y-10593244D02*
X5118182Y-10583720D01*
X5118182Y-10583720D02*
X5127705Y-10574197D01*
X5127705Y-10574197D02*
X5137229Y-10555149D01*
X5261039Y-10469435D02*
X5280086Y-10469435D01*
X5280086Y-10469435D02*
X5299134Y-10478959D01*
X5299134Y-10478959D02*
X5308658Y-10488482D01*
X5308658Y-10488482D02*
X5318182Y-10507530D01*
X5318182Y-10507530D02*
X5327705Y-10545625D01*
X5327705Y-10545625D02*
X5327705Y-10593244D01*
X5327705Y-10593244D02*
X5318182Y-10631339D01*
X5318182Y-10631339D02*
X5308658Y-10650387D01*
X5308658Y-10650387D02*
X5299134Y-10659911D01*
X5299134Y-10659911D02*
X5280086Y-10669435D01*
X5280086Y-10669435D02*
X5261039Y-10669435D01*
X5261039Y-10669435D02*
X5241991Y-10659911D01*
X5241991Y-10659911D02*
X5232467Y-10650387D01*
X5232467Y-10650387D02*
X5222944Y-10631339D01*
X5222944Y-10631339D02*
X5213420Y-10593244D01*
X5213420Y-10593244D02*
X5213420Y-10545625D01*
X5213420Y-10545625D02*
X5222944Y-10507530D01*
X5222944Y-10507530D02*
X5232467Y-10488482D01*
X5232467Y-10488482D02*
X5241991Y-10478959D01*
X5241991Y-10478959D02*
X5261039Y-10469435D01*
X5413420Y-10669435D02*
X5413420Y-10536101D01*
X5413420Y-10555149D02*
X5422944Y-10545625D01*
X5422944Y-10545625D02*
X5441991Y-10536101D01*
X5441991Y-10536101D02*
X5470563Y-10536101D01*
X5470563Y-10536101D02*
X5489610Y-10545625D01*
X5489610Y-10545625D02*
X5499134Y-10564673D01*
X5499134Y-10564673D02*
X5499134Y-10669435D01*
X5499134Y-10564673D02*
X5508658Y-10545625D01*
X5508658Y-10545625D02*
X5527705Y-10536101D01*
X5527705Y-10536101D02*
X5556277Y-10536101D01*
X5556277Y-10536101D02*
X5575325Y-10545625D01*
X5575325Y-10545625D02*
X5584848Y-10564673D01*
X5584848Y-10564673D02*
X5584848Y-10669435D01*
X5680086Y-10669435D02*
X5680086Y-10536101D01*
X5680086Y-10555149D02*
X5689610Y-10545625D01*
X5689610Y-10545625D02*
X5708658Y-10536101D01*
X5708658Y-10536101D02*
X5737229Y-10536101D01*
X5737229Y-10536101D02*
X5756277Y-10545625D01*
X5756277Y-10545625D02*
X5765801Y-10564673D01*
X5765801Y-10564673D02*
X5765801Y-10669435D01*
X5765801Y-10564673D02*
X5775324Y-10545625D01*
X5775324Y-10545625D02*
X5794372Y-10536101D01*
X5794372Y-10536101D02*
X5822943Y-10536101D01*
X5822943Y-10536101D02*
X5841991Y-10545625D01*
X5841991Y-10545625D02*
X5851515Y-10564673D01*
X5851515Y-10564673D02*
X5851515Y-10669435D01*
X6241991Y-10459911D02*
X6070563Y-10717054D01*
X6499134Y-10469435D02*
X6518182Y-10469435D01*
X6518182Y-10469435D02*
X6537229Y-10478959D01*
X6537229Y-10478959D02*
X6546753Y-10488482D01*
X6546753Y-10488482D02*
X6556277Y-10507530D01*
X6556277Y-10507530D02*
X6565801Y-10545625D01*
X6565801Y-10545625D02*
X6565801Y-10593244D01*
X6565801Y-10593244D02*
X6556277Y-10631339D01*
X6556277Y-10631339D02*
X6546753Y-10650387D01*
X6546753Y-10650387D02*
X6537229Y-10659911D01*
X6537229Y-10659911D02*
X6518182Y-10669435D01*
X6518182Y-10669435D02*
X6499134Y-10669435D01*
X6499134Y-10669435D02*
X6480086Y-10659911D01*
X6480086Y-10659911D02*
X6470563Y-10650387D01*
X6470563Y-10650387D02*
X6461039Y-10631339D01*
X6461039Y-10631339D02*
X6451515Y-10593244D01*
X6451515Y-10593244D02*
X6451515Y-10545625D01*
X6451515Y-10545625D02*
X6461039Y-10507530D01*
X6461039Y-10507530D02*
X6470563Y-10488482D01*
X6470563Y-10488482D02*
X6480086Y-10478959D01*
X6480086Y-10478959D02*
X6499134Y-10469435D01*
X6651515Y-10650387D02*
X6661039Y-10659911D01*
X6661039Y-10659911D02*
X6651515Y-10669435D01*
X6651515Y-10669435D02*
X6641991Y-10659911D01*
X6641991Y-10659911D02*
X6651515Y-10650387D01*
X6651515Y-10650387D02*
X6651515Y-10669435D01*
X6784848Y-10469435D02*
X6803896Y-10469435D01*
X6803896Y-10469435D02*
X6822944Y-10478959D01*
X6822944Y-10478959D02*
X6832467Y-10488482D01*
X6832467Y-10488482D02*
X6841991Y-10507530D01*
X6841991Y-10507530D02*
X6851515Y-10545625D01*
X6851515Y-10545625D02*
X6851515Y-10593244D01*
X6851515Y-10593244D02*
X6841991Y-10631339D01*
X6841991Y-10631339D02*
X6832467Y-10650387D01*
X6832467Y-10650387D02*
X6822944Y-10659911D01*
X6822944Y-10659911D02*
X6803896Y-10669435D01*
X6803896Y-10669435D02*
X6784848Y-10669435D01*
X6784848Y-10669435D02*
X6765801Y-10659911D01*
X6765801Y-10659911D02*
X6756277Y-10650387D01*
X6756277Y-10650387D02*
X6746753Y-10631339D01*
X6746753Y-10631339D02*
X6737229Y-10593244D01*
X6737229Y-10593244D02*
X6737229Y-10545625D01*
X6737229Y-10545625D02*
X6746753Y-10507530D01*
X6746753Y-10507530D02*
X6756277Y-10488482D01*
X6756277Y-10488482D02*
X6765801Y-10478959D01*
X6765801Y-10478959D02*
X6784848Y-10469435D01*
X6927706Y-10488482D02*
X6937229Y-10478959D01*
X6937229Y-10478959D02*
X6956277Y-10469435D01*
X6956277Y-10469435D02*
X7003896Y-10469435D01*
X7003896Y-10469435D02*
X7022944Y-10478959D01*
X7022944Y-10478959D02*
X7032467Y-10488482D01*
X7032467Y-10488482D02*
X7041991Y-10507530D01*
X7041991Y-10507530D02*
X7041991Y-10526578D01*
X7041991Y-10526578D02*
X7032467Y-10555149D01*
X7032467Y-10555149D02*
X6918182Y-10669435D01*
X6918182Y-10669435D02*
X7041991Y-10669435D01*
X7108658Y-10469435D02*
X7241991Y-10469435D01*
X7241991Y-10469435D02*
X7156277Y-10669435D01*
X7308658Y-10488482D02*
X7318182Y-10478959D01*
X7318182Y-10478959D02*
X7337229Y-10469435D01*
X7337229Y-10469435D02*
X7384848Y-10469435D01*
X7384848Y-10469435D02*
X7403896Y-10478959D01*
X7403896Y-10478959D02*
X7413420Y-10488482D01*
X7413420Y-10488482D02*
X7422944Y-10507530D01*
X7422944Y-10507530D02*
X7422944Y-10526578D01*
X7422944Y-10526578D02*
X7413420Y-10555149D01*
X7413420Y-10555149D02*
X7299134Y-10669435D01*
X7299134Y-10669435D02*
X7422944Y-10669435D01*
X7499134Y-10469435D02*
X7499134Y-10507530D01*
X7575325Y-10469435D02*
X7575325Y-10507530D01*
X7870563Y-10745625D02*
X7861039Y-10736101D01*
X7861039Y-10736101D02*
X7841991Y-10707530D01*
X7841991Y-10707530D02*
X7832468Y-10688482D01*
X7832468Y-10688482D02*
X7822944Y-10659911D01*
X7822944Y-10659911D02*
X7813420Y-10612292D01*
X7813420Y-10612292D02*
X7813420Y-10574197D01*
X7813420Y-10574197D02*
X7822944Y-10526578D01*
X7822944Y-10526578D02*
X7832468Y-10498006D01*
X7832468Y-10498006D02*
X7841991Y-10478959D01*
X7841991Y-10478959D02*
X7861039Y-10450387D01*
X7861039Y-10450387D02*
X7870563Y-10440863D01*
X8032468Y-10536101D02*
X8032468Y-10669435D01*
X7984848Y-10459911D02*
X7937229Y-10602768D01*
X7937229Y-10602768D02*
X8061039Y-10602768D01*
X8289610Y-10669435D02*
X8289610Y-10469435D01*
X8375325Y-10669435D02*
X8375325Y-10564673D01*
X8375325Y-10564673D02*
X8365801Y-10545625D01*
X8365801Y-10545625D02*
X8346753Y-10536101D01*
X8346753Y-10536101D02*
X8318182Y-10536101D01*
X8318182Y-10536101D02*
X8299134Y-10545625D01*
X8299134Y-10545625D02*
X8289610Y-10555149D01*
X8499134Y-10669435D02*
X8480087Y-10659911D01*
X8480087Y-10659911D02*
X8470563Y-10650387D01*
X8470563Y-10650387D02*
X8461039Y-10631339D01*
X8461039Y-10631339D02*
X8461039Y-10574197D01*
X8461039Y-10574197D02*
X8470563Y-10555149D01*
X8470563Y-10555149D02*
X8480087Y-10545625D01*
X8480087Y-10545625D02*
X8499134Y-10536101D01*
X8499134Y-10536101D02*
X8527706Y-10536101D01*
X8527706Y-10536101D02*
X8546753Y-10545625D01*
X8546753Y-10545625D02*
X8556277Y-10555149D01*
X8556277Y-10555149D02*
X8565801Y-10574197D01*
X8565801Y-10574197D02*
X8565801Y-10631339D01*
X8565801Y-10631339D02*
X8556277Y-10650387D01*
X8556277Y-10650387D02*
X8546753Y-10659911D01*
X8546753Y-10659911D02*
X8527706Y-10669435D01*
X8527706Y-10669435D02*
X8499134Y-10669435D01*
X8680087Y-10669435D02*
X8661039Y-10659911D01*
X8661039Y-10659911D02*
X8651515Y-10640863D01*
X8651515Y-10640863D02*
X8651515Y-10469435D01*
X8832468Y-10659911D02*
X8813420Y-10669435D01*
X8813420Y-10669435D02*
X8775325Y-10669435D01*
X8775325Y-10669435D02*
X8756277Y-10659911D01*
X8756277Y-10659911D02*
X8746753Y-10640863D01*
X8746753Y-10640863D02*
X8746753Y-10564673D01*
X8746753Y-10564673D02*
X8756277Y-10545625D01*
X8756277Y-10545625D02*
X8775325Y-10536101D01*
X8775325Y-10536101D02*
X8813420Y-10536101D01*
X8813420Y-10536101D02*
X8832468Y-10545625D01*
X8832468Y-10545625D02*
X8841992Y-10564673D01*
X8841992Y-10564673D02*
X8841992Y-10583720D01*
X8841992Y-10583720D02*
X8746753Y-10602768D01*
X8918182Y-10659911D02*
X8937230Y-10669435D01*
X8937230Y-10669435D02*
X8975325Y-10669435D01*
X8975325Y-10669435D02*
X8994373Y-10659911D01*
X8994373Y-10659911D02*
X9003896Y-10640863D01*
X9003896Y-10640863D02*
X9003896Y-10631339D01*
X9003896Y-10631339D02*
X8994373Y-10612292D01*
X8994373Y-10612292D02*
X8975325Y-10602768D01*
X8975325Y-10602768D02*
X8946753Y-10602768D01*
X8946753Y-10602768D02*
X8927706Y-10593244D01*
X8927706Y-10593244D02*
X8918182Y-10574197D01*
X8918182Y-10574197D02*
X8918182Y-10564673D01*
X8918182Y-10564673D02*
X8927706Y-10545625D01*
X8927706Y-10545625D02*
X8946753Y-10536101D01*
X8946753Y-10536101D02*
X8975325Y-10536101D01*
X8975325Y-10536101D02*
X8994373Y-10545625D01*
X9070563Y-10745625D02*
X9080087Y-10736101D01*
X9080087Y-10736101D02*
X9099134Y-10707530D01*
X9099134Y-10707530D02*
X9108658Y-10688482D01*
X9108658Y-10688482D02*
X9118182Y-10659911D01*
X9118182Y-10659911D02*
X9127706Y-10612292D01*
X9127706Y-10612292D02*
X9127706Y-10574197D01*
X9127706Y-10574197D02*
X9118182Y-10526578D01*
X9118182Y-10526578D02*
X9108658Y-10498006D01*
X9108658Y-10498006D02*
X9099134Y-10478959D01*
X9099134Y-10478959D02*
X9080087Y-10450387D01*
X9080087Y-10450387D02*
X9070563Y-10440863D01*
D12*
X4258000Y-10879451D02*
X4295500Y-10841951D01*
X4258000Y-10804451D01*
X4220500Y-10841951D01*
X4258000Y-10879451D01*
D11*
X4594372Y-10733435D02*
X4613420Y-10733435D01*
X4613420Y-10733435D02*
X4632467Y-10742959D01*
X4632467Y-10742959D02*
X4641991Y-10752482D01*
X4641991Y-10752482D02*
X4651515Y-10771530D01*
X4651515Y-10771530D02*
X4661039Y-10809625D01*
X4661039Y-10809625D02*
X4661039Y-10857244D01*
X4661039Y-10857244D02*
X4651515Y-10895339D01*
X4651515Y-10895339D02*
X4641991Y-10914387D01*
X4641991Y-10914387D02*
X4632467Y-10923911D01*
X4632467Y-10923911D02*
X4613420Y-10933435D01*
X4613420Y-10933435D02*
X4594372Y-10933435D01*
X4594372Y-10933435D02*
X4575324Y-10923911D01*
X4575324Y-10923911D02*
X4565801Y-10914387D01*
X4565801Y-10914387D02*
X4556277Y-10895339D01*
X4556277Y-10895339D02*
X4546753Y-10857244D01*
X4546753Y-10857244D02*
X4546753Y-10809625D01*
X4546753Y-10809625D02*
X4556277Y-10771530D01*
X4556277Y-10771530D02*
X4565801Y-10752482D01*
X4565801Y-10752482D02*
X4575324Y-10742959D01*
X4575324Y-10742959D02*
X4594372Y-10733435D01*
X4746753Y-10914387D02*
X4756277Y-10923911D01*
X4756277Y-10923911D02*
X4746753Y-10933435D01*
X4746753Y-10933435D02*
X4737229Y-10923911D01*
X4737229Y-10923911D02*
X4746753Y-10914387D01*
X4746753Y-10914387D02*
X4746753Y-10933435D01*
X4822944Y-10733435D02*
X4956277Y-10733435D01*
X4956277Y-10733435D02*
X4870563Y-10933435D01*
X5127705Y-10733435D02*
X5032467Y-10733435D01*
X5032467Y-10733435D02*
X5022944Y-10828673D01*
X5022944Y-10828673D02*
X5032467Y-10819149D01*
X5032467Y-10819149D02*
X5051515Y-10809625D01*
X5051515Y-10809625D02*
X5099134Y-10809625D01*
X5099134Y-10809625D02*
X5118182Y-10819149D01*
X5118182Y-10819149D02*
X5127705Y-10828673D01*
X5127705Y-10828673D02*
X5137229Y-10847720D01*
X5137229Y-10847720D02*
X5137229Y-10895339D01*
X5137229Y-10895339D02*
X5127705Y-10914387D01*
X5127705Y-10914387D02*
X5118182Y-10923911D01*
X5118182Y-10923911D02*
X5099134Y-10933435D01*
X5099134Y-10933435D02*
X5051515Y-10933435D01*
X5051515Y-10933435D02*
X5032467Y-10923911D01*
X5032467Y-10923911D02*
X5022944Y-10914387D01*
X5261039Y-10733435D02*
X5280086Y-10733435D01*
X5280086Y-10733435D02*
X5299134Y-10742959D01*
X5299134Y-10742959D02*
X5308658Y-10752482D01*
X5308658Y-10752482D02*
X5318182Y-10771530D01*
X5318182Y-10771530D02*
X5327705Y-10809625D01*
X5327705Y-10809625D02*
X5327705Y-10857244D01*
X5327705Y-10857244D02*
X5318182Y-10895339D01*
X5318182Y-10895339D02*
X5308658Y-10914387D01*
X5308658Y-10914387D02*
X5299134Y-10923911D01*
X5299134Y-10923911D02*
X5280086Y-10933435D01*
X5280086Y-10933435D02*
X5261039Y-10933435D01*
X5261039Y-10933435D02*
X5241991Y-10923911D01*
X5241991Y-10923911D02*
X5232467Y-10914387D01*
X5232467Y-10914387D02*
X5222944Y-10895339D01*
X5222944Y-10895339D02*
X5213420Y-10857244D01*
X5213420Y-10857244D02*
X5213420Y-10809625D01*
X5213420Y-10809625D02*
X5222944Y-10771530D01*
X5222944Y-10771530D02*
X5232467Y-10752482D01*
X5232467Y-10752482D02*
X5241991Y-10742959D01*
X5241991Y-10742959D02*
X5261039Y-10733435D01*
X5413420Y-10933435D02*
X5413420Y-10800101D01*
X5413420Y-10819149D02*
X5422944Y-10809625D01*
X5422944Y-10809625D02*
X5441991Y-10800101D01*
X5441991Y-10800101D02*
X5470563Y-10800101D01*
X5470563Y-10800101D02*
X5489610Y-10809625D01*
X5489610Y-10809625D02*
X5499134Y-10828673D01*
X5499134Y-10828673D02*
X5499134Y-10933435D01*
X5499134Y-10828673D02*
X5508658Y-10809625D01*
X5508658Y-10809625D02*
X5527705Y-10800101D01*
X5527705Y-10800101D02*
X5556277Y-10800101D01*
X5556277Y-10800101D02*
X5575325Y-10809625D01*
X5575325Y-10809625D02*
X5584848Y-10828673D01*
X5584848Y-10828673D02*
X5584848Y-10933435D01*
X5680086Y-10933435D02*
X5680086Y-10800101D01*
X5680086Y-10819149D02*
X5689610Y-10809625D01*
X5689610Y-10809625D02*
X5708658Y-10800101D01*
X5708658Y-10800101D02*
X5737229Y-10800101D01*
X5737229Y-10800101D02*
X5756277Y-10809625D01*
X5756277Y-10809625D02*
X5765801Y-10828673D01*
X5765801Y-10828673D02*
X5765801Y-10933435D01*
X5765801Y-10828673D02*
X5775324Y-10809625D01*
X5775324Y-10809625D02*
X5794372Y-10800101D01*
X5794372Y-10800101D02*
X5822943Y-10800101D01*
X5822943Y-10800101D02*
X5841991Y-10809625D01*
X5841991Y-10809625D02*
X5851515Y-10828673D01*
X5851515Y-10828673D02*
X5851515Y-10933435D01*
X6241991Y-10723911D02*
X6070563Y-10981054D01*
X6499134Y-10733435D02*
X6518182Y-10733435D01*
X6518182Y-10733435D02*
X6537229Y-10742959D01*
X6537229Y-10742959D02*
X6546753Y-10752482D01*
X6546753Y-10752482D02*
X6556277Y-10771530D01*
X6556277Y-10771530D02*
X6565801Y-10809625D01*
X6565801Y-10809625D02*
X6565801Y-10857244D01*
X6565801Y-10857244D02*
X6556277Y-10895339D01*
X6556277Y-10895339D02*
X6546753Y-10914387D01*
X6546753Y-10914387D02*
X6537229Y-10923911D01*
X6537229Y-10923911D02*
X6518182Y-10933435D01*
X6518182Y-10933435D02*
X6499134Y-10933435D01*
X6499134Y-10933435D02*
X6480086Y-10923911D01*
X6480086Y-10923911D02*
X6470563Y-10914387D01*
X6470563Y-10914387D02*
X6461039Y-10895339D01*
X6461039Y-10895339D02*
X6451515Y-10857244D01*
X6451515Y-10857244D02*
X6451515Y-10809625D01*
X6451515Y-10809625D02*
X6461039Y-10771530D01*
X6461039Y-10771530D02*
X6470563Y-10752482D01*
X6470563Y-10752482D02*
X6480086Y-10742959D01*
X6480086Y-10742959D02*
X6499134Y-10733435D01*
X6651515Y-10914387D02*
X6661039Y-10923911D01*
X6661039Y-10923911D02*
X6651515Y-10933435D01*
X6651515Y-10933435D02*
X6641991Y-10923911D01*
X6641991Y-10923911D02*
X6651515Y-10914387D01*
X6651515Y-10914387D02*
X6651515Y-10933435D01*
X6784848Y-10733435D02*
X6803896Y-10733435D01*
X6803896Y-10733435D02*
X6822944Y-10742959D01*
X6822944Y-10742959D02*
X6832467Y-10752482D01*
X6832467Y-10752482D02*
X6841991Y-10771530D01*
X6841991Y-10771530D02*
X6851515Y-10809625D01*
X6851515Y-10809625D02*
X6851515Y-10857244D01*
X6851515Y-10857244D02*
X6841991Y-10895339D01*
X6841991Y-10895339D02*
X6832467Y-10914387D01*
X6832467Y-10914387D02*
X6822944Y-10923911D01*
X6822944Y-10923911D02*
X6803896Y-10933435D01*
X6803896Y-10933435D02*
X6784848Y-10933435D01*
X6784848Y-10933435D02*
X6765801Y-10923911D01*
X6765801Y-10923911D02*
X6756277Y-10914387D01*
X6756277Y-10914387D02*
X6746753Y-10895339D01*
X6746753Y-10895339D02*
X6737229Y-10857244D01*
X6737229Y-10857244D02*
X6737229Y-10809625D01*
X6737229Y-10809625D02*
X6746753Y-10771530D01*
X6746753Y-10771530D02*
X6756277Y-10752482D01*
X6756277Y-10752482D02*
X6765801Y-10742959D01*
X6765801Y-10742959D02*
X6784848Y-10733435D01*
X6927706Y-10752482D02*
X6937229Y-10742959D01*
X6937229Y-10742959D02*
X6956277Y-10733435D01*
X6956277Y-10733435D02*
X7003896Y-10733435D01*
X7003896Y-10733435D02*
X7022944Y-10742959D01*
X7022944Y-10742959D02*
X7032467Y-10752482D01*
X7032467Y-10752482D02*
X7041991Y-10771530D01*
X7041991Y-10771530D02*
X7041991Y-10790578D01*
X7041991Y-10790578D02*
X7032467Y-10819149D01*
X7032467Y-10819149D02*
X6918182Y-10933435D01*
X6918182Y-10933435D02*
X7041991Y-10933435D01*
X7137229Y-10933435D02*
X7175325Y-10933435D01*
X7175325Y-10933435D02*
X7194372Y-10923911D01*
X7194372Y-10923911D02*
X7203896Y-10914387D01*
X7203896Y-10914387D02*
X7222944Y-10885816D01*
X7222944Y-10885816D02*
X7232467Y-10847720D01*
X7232467Y-10847720D02*
X7232467Y-10771530D01*
X7232467Y-10771530D02*
X7222944Y-10752482D01*
X7222944Y-10752482D02*
X7213420Y-10742959D01*
X7213420Y-10742959D02*
X7194372Y-10733435D01*
X7194372Y-10733435D02*
X7156277Y-10733435D01*
X7156277Y-10733435D02*
X7137229Y-10742959D01*
X7137229Y-10742959D02*
X7127706Y-10752482D01*
X7127706Y-10752482D02*
X7118182Y-10771530D01*
X7118182Y-10771530D02*
X7118182Y-10819149D01*
X7118182Y-10819149D02*
X7127706Y-10838197D01*
X7127706Y-10838197D02*
X7137229Y-10847720D01*
X7137229Y-10847720D02*
X7156277Y-10857244D01*
X7156277Y-10857244D02*
X7194372Y-10857244D01*
X7194372Y-10857244D02*
X7213420Y-10847720D01*
X7213420Y-10847720D02*
X7222944Y-10838197D01*
X7222944Y-10838197D02*
X7232467Y-10819149D01*
X7413420Y-10733435D02*
X7318182Y-10733435D01*
X7318182Y-10733435D02*
X7308658Y-10828673D01*
X7308658Y-10828673D02*
X7318182Y-10819149D01*
X7318182Y-10819149D02*
X7337229Y-10809625D01*
X7337229Y-10809625D02*
X7384848Y-10809625D01*
X7384848Y-10809625D02*
X7403896Y-10819149D01*
X7403896Y-10819149D02*
X7413420Y-10828673D01*
X7413420Y-10828673D02*
X7422944Y-10847720D01*
X7422944Y-10847720D02*
X7422944Y-10895339D01*
X7422944Y-10895339D02*
X7413420Y-10914387D01*
X7413420Y-10914387D02*
X7403896Y-10923911D01*
X7403896Y-10923911D02*
X7384848Y-10933435D01*
X7384848Y-10933435D02*
X7337229Y-10933435D01*
X7337229Y-10933435D02*
X7318182Y-10923911D01*
X7318182Y-10923911D02*
X7308658Y-10914387D01*
X7499134Y-10733435D02*
X7499134Y-10771530D01*
X7575325Y-10733435D02*
X7575325Y-10771530D01*
X7870563Y-11009625D02*
X7861039Y-11000101D01*
X7861039Y-11000101D02*
X7841991Y-10971530D01*
X7841991Y-10971530D02*
X7832468Y-10952482D01*
X7832468Y-10952482D02*
X7822944Y-10923911D01*
X7822944Y-10923911D02*
X7813420Y-10876292D01*
X7813420Y-10876292D02*
X7813420Y-10838197D01*
X7813420Y-10838197D02*
X7822944Y-10790578D01*
X7822944Y-10790578D02*
X7832468Y-10762006D01*
X7832468Y-10762006D02*
X7841991Y-10742959D01*
X7841991Y-10742959D02*
X7861039Y-10714387D01*
X7861039Y-10714387D02*
X7870563Y-10704863D01*
X7937229Y-10752482D02*
X7946753Y-10742959D01*
X7946753Y-10742959D02*
X7965801Y-10733435D01*
X7965801Y-10733435D02*
X8013420Y-10733435D01*
X8013420Y-10733435D02*
X8032468Y-10742959D01*
X8032468Y-10742959D02*
X8041991Y-10752482D01*
X8041991Y-10752482D02*
X8051515Y-10771530D01*
X8051515Y-10771530D02*
X8051515Y-10790578D01*
X8051515Y-10790578D02*
X8041991Y-10819149D01*
X8041991Y-10819149D02*
X7927706Y-10933435D01*
X7927706Y-10933435D02*
X8051515Y-10933435D01*
X8289610Y-10933435D02*
X8289610Y-10733435D01*
X8375325Y-10933435D02*
X8375325Y-10828673D01*
X8375325Y-10828673D02*
X8365801Y-10809625D01*
X8365801Y-10809625D02*
X8346753Y-10800101D01*
X8346753Y-10800101D02*
X8318182Y-10800101D01*
X8318182Y-10800101D02*
X8299134Y-10809625D01*
X8299134Y-10809625D02*
X8289610Y-10819149D01*
X8499134Y-10933435D02*
X8480087Y-10923911D01*
X8480087Y-10923911D02*
X8470563Y-10914387D01*
X8470563Y-10914387D02*
X8461039Y-10895339D01*
X8461039Y-10895339D02*
X8461039Y-10838197D01*
X8461039Y-10838197D02*
X8470563Y-10819149D01*
X8470563Y-10819149D02*
X8480087Y-10809625D01*
X8480087Y-10809625D02*
X8499134Y-10800101D01*
X8499134Y-10800101D02*
X8527706Y-10800101D01*
X8527706Y-10800101D02*
X8546753Y-10809625D01*
X8546753Y-10809625D02*
X8556277Y-10819149D01*
X8556277Y-10819149D02*
X8565801Y-10838197D01*
X8565801Y-10838197D02*
X8565801Y-10895339D01*
X8565801Y-10895339D02*
X8556277Y-10914387D01*
X8556277Y-10914387D02*
X8546753Y-10923911D01*
X8546753Y-10923911D02*
X8527706Y-10933435D01*
X8527706Y-10933435D02*
X8499134Y-10933435D01*
X8680087Y-10933435D02*
X8661039Y-10923911D01*
X8661039Y-10923911D02*
X8651515Y-10904863D01*
X8651515Y-10904863D02*
X8651515Y-10733435D01*
X8832468Y-10923911D02*
X8813420Y-10933435D01*
X8813420Y-10933435D02*
X8775325Y-10933435D01*
X8775325Y-10933435D02*
X8756277Y-10923911D01*
X8756277Y-10923911D02*
X8746753Y-10904863D01*
X8746753Y-10904863D02*
X8746753Y-10828673D01*
X8746753Y-10828673D02*
X8756277Y-10809625D01*
X8756277Y-10809625D02*
X8775325Y-10800101D01*
X8775325Y-10800101D02*
X8813420Y-10800101D01*
X8813420Y-10800101D02*
X8832468Y-10809625D01*
X8832468Y-10809625D02*
X8841992Y-10828673D01*
X8841992Y-10828673D02*
X8841992Y-10847720D01*
X8841992Y-10847720D02*
X8746753Y-10866768D01*
X8918182Y-10923911D02*
X8937230Y-10933435D01*
X8937230Y-10933435D02*
X8975325Y-10933435D01*
X8975325Y-10933435D02*
X8994373Y-10923911D01*
X8994373Y-10923911D02*
X9003896Y-10904863D01*
X9003896Y-10904863D02*
X9003896Y-10895339D01*
X9003896Y-10895339D02*
X8994373Y-10876292D01*
X8994373Y-10876292D02*
X8975325Y-10866768D01*
X8975325Y-10866768D02*
X8946753Y-10866768D01*
X8946753Y-10866768D02*
X8927706Y-10857244D01*
X8927706Y-10857244D02*
X8918182Y-10838197D01*
X8918182Y-10838197D02*
X8918182Y-10828673D01*
X8918182Y-10828673D02*
X8927706Y-10809625D01*
X8927706Y-10809625D02*
X8946753Y-10800101D01*
X8946753Y-10800101D02*
X8975325Y-10800101D01*
X8975325Y-10800101D02*
X8994373Y-10809625D01*
X9070563Y-11009625D02*
X9080087Y-11000101D01*
X9080087Y-11000101D02*
X9099134Y-10971530D01*
X9099134Y-10971530D02*
X9108658Y-10952482D01*
X9108658Y-10952482D02*
X9118182Y-10923911D01*
X9118182Y-10923911D02*
X9127706Y-10876292D01*
X9127706Y-10876292D02*
X9127706Y-10838197D01*
X9127706Y-10838197D02*
X9118182Y-10790578D01*
X9118182Y-10790578D02*
X9108658Y-10762006D01*
X9108658Y-10762006D02*
X9099134Y-10742959D01*
X9099134Y-10742959D02*
X9080087Y-10714387D01*
X9080087Y-10714387D02*
X9070563Y-10704863D01*
D12*
X4215500Y-11065951D02*
X4295500Y-11145951D01*
X4295500Y-11065951D02*
X4215500Y-11145951D01*
X4295500Y-11105951D02*
G75*
G02*
X4215500Y-11105951I-40000J0D01*
G01*
X4215500Y-11105951D02*
G75*
G02*
X4295500Y-11105951I40000J0D01*
G01*
D11*
X4594372Y-10997435D02*
X4613420Y-10997435D01*
X4613420Y-10997435D02*
X4632467Y-11006959D01*
X4632467Y-11006959D02*
X4641991Y-11016482D01*
X4641991Y-11016482D02*
X4651515Y-11035530D01*
X4651515Y-11035530D02*
X4661039Y-11073625D01*
X4661039Y-11073625D02*
X4661039Y-11121244D01*
X4661039Y-11121244D02*
X4651515Y-11159339D01*
X4651515Y-11159339D02*
X4641991Y-11178387D01*
X4641991Y-11178387D02*
X4632467Y-11187911D01*
X4632467Y-11187911D02*
X4613420Y-11197435D01*
X4613420Y-11197435D02*
X4594372Y-11197435D01*
X4594372Y-11197435D02*
X4575324Y-11187911D01*
X4575324Y-11187911D02*
X4565801Y-11178387D01*
X4565801Y-11178387D02*
X4556277Y-11159339D01*
X4556277Y-11159339D02*
X4546753Y-11121244D01*
X4546753Y-11121244D02*
X4546753Y-11073625D01*
X4546753Y-11073625D02*
X4556277Y-11035530D01*
X4556277Y-11035530D02*
X4565801Y-11016482D01*
X4565801Y-11016482D02*
X4575324Y-11006959D01*
X4575324Y-11006959D02*
X4594372Y-10997435D01*
X4746753Y-11178387D02*
X4756277Y-11187911D01*
X4756277Y-11187911D02*
X4746753Y-11197435D01*
X4746753Y-11197435D02*
X4737229Y-11187911D01*
X4737229Y-11187911D02*
X4746753Y-11178387D01*
X4746753Y-11178387D02*
X4746753Y-11197435D01*
X4870563Y-11083149D02*
X4851515Y-11073625D01*
X4851515Y-11073625D02*
X4841991Y-11064101D01*
X4841991Y-11064101D02*
X4832467Y-11045054D01*
X4832467Y-11045054D02*
X4832467Y-11035530D01*
X4832467Y-11035530D02*
X4841991Y-11016482D01*
X4841991Y-11016482D02*
X4851515Y-11006959D01*
X4851515Y-11006959D02*
X4870563Y-10997435D01*
X4870563Y-10997435D02*
X4908658Y-10997435D01*
X4908658Y-10997435D02*
X4927705Y-11006959D01*
X4927705Y-11006959D02*
X4937229Y-11016482D01*
X4937229Y-11016482D02*
X4946753Y-11035530D01*
X4946753Y-11035530D02*
X4946753Y-11045054D01*
X4946753Y-11045054D02*
X4937229Y-11064101D01*
X4937229Y-11064101D02*
X4927705Y-11073625D01*
X4927705Y-11073625D02*
X4908658Y-11083149D01*
X4908658Y-11083149D02*
X4870563Y-11083149D01*
X4870563Y-11083149D02*
X4851515Y-11092673D01*
X4851515Y-11092673D02*
X4841991Y-11102197D01*
X4841991Y-11102197D02*
X4832467Y-11121244D01*
X4832467Y-11121244D02*
X4832467Y-11159339D01*
X4832467Y-11159339D02*
X4841991Y-11178387D01*
X4841991Y-11178387D02*
X4851515Y-11187911D01*
X4851515Y-11187911D02*
X4870563Y-11197435D01*
X4870563Y-11197435D02*
X4908658Y-11197435D01*
X4908658Y-11197435D02*
X4927705Y-11187911D01*
X4927705Y-11187911D02*
X4937229Y-11178387D01*
X4937229Y-11178387D02*
X4946753Y-11159339D01*
X4946753Y-11159339D02*
X4946753Y-11121244D01*
X4946753Y-11121244D02*
X4937229Y-11102197D01*
X4937229Y-11102197D02*
X4927705Y-11092673D01*
X4927705Y-11092673D02*
X4908658Y-11083149D01*
X5070563Y-10997435D02*
X5089610Y-10997435D01*
X5089610Y-10997435D02*
X5108658Y-11006959D01*
X5108658Y-11006959D02*
X5118182Y-11016482D01*
X5118182Y-11016482D02*
X5127705Y-11035530D01*
X5127705Y-11035530D02*
X5137229Y-11073625D01*
X5137229Y-11073625D02*
X5137229Y-11121244D01*
X5137229Y-11121244D02*
X5127705Y-11159339D01*
X5127705Y-11159339D02*
X5118182Y-11178387D01*
X5118182Y-11178387D02*
X5108658Y-11187911D01*
X5108658Y-11187911D02*
X5089610Y-11197435D01*
X5089610Y-11197435D02*
X5070563Y-11197435D01*
X5070563Y-11197435D02*
X5051515Y-11187911D01*
X5051515Y-11187911D02*
X5041991Y-11178387D01*
X5041991Y-11178387D02*
X5032467Y-11159339D01*
X5032467Y-11159339D02*
X5022944Y-11121244D01*
X5022944Y-11121244D02*
X5022944Y-11073625D01*
X5022944Y-11073625D02*
X5032467Y-11035530D01*
X5032467Y-11035530D02*
X5041991Y-11016482D01*
X5041991Y-11016482D02*
X5051515Y-11006959D01*
X5051515Y-11006959D02*
X5070563Y-10997435D01*
X5261039Y-10997435D02*
X5280086Y-10997435D01*
X5280086Y-10997435D02*
X5299134Y-11006959D01*
X5299134Y-11006959D02*
X5308658Y-11016482D01*
X5308658Y-11016482D02*
X5318182Y-11035530D01*
X5318182Y-11035530D02*
X5327705Y-11073625D01*
X5327705Y-11073625D02*
X5327705Y-11121244D01*
X5327705Y-11121244D02*
X5318182Y-11159339D01*
X5318182Y-11159339D02*
X5308658Y-11178387D01*
X5308658Y-11178387D02*
X5299134Y-11187911D01*
X5299134Y-11187911D02*
X5280086Y-11197435D01*
X5280086Y-11197435D02*
X5261039Y-11197435D01*
X5261039Y-11197435D02*
X5241991Y-11187911D01*
X5241991Y-11187911D02*
X5232467Y-11178387D01*
X5232467Y-11178387D02*
X5222944Y-11159339D01*
X5222944Y-11159339D02*
X5213420Y-11121244D01*
X5213420Y-11121244D02*
X5213420Y-11073625D01*
X5213420Y-11073625D02*
X5222944Y-11035530D01*
X5222944Y-11035530D02*
X5232467Y-11016482D01*
X5232467Y-11016482D02*
X5241991Y-11006959D01*
X5241991Y-11006959D02*
X5261039Y-10997435D01*
X5413420Y-11197435D02*
X5413420Y-11064101D01*
X5413420Y-11083149D02*
X5422944Y-11073625D01*
X5422944Y-11073625D02*
X5441991Y-11064101D01*
X5441991Y-11064101D02*
X5470563Y-11064101D01*
X5470563Y-11064101D02*
X5489610Y-11073625D01*
X5489610Y-11073625D02*
X5499134Y-11092673D01*
X5499134Y-11092673D02*
X5499134Y-11197435D01*
X5499134Y-11092673D02*
X5508658Y-11073625D01*
X5508658Y-11073625D02*
X5527705Y-11064101D01*
X5527705Y-11064101D02*
X5556277Y-11064101D01*
X5556277Y-11064101D02*
X5575325Y-11073625D01*
X5575325Y-11073625D02*
X5584848Y-11092673D01*
X5584848Y-11092673D02*
X5584848Y-11197435D01*
X5680086Y-11197435D02*
X5680086Y-11064101D01*
X5680086Y-11083149D02*
X5689610Y-11073625D01*
X5689610Y-11073625D02*
X5708658Y-11064101D01*
X5708658Y-11064101D02*
X5737229Y-11064101D01*
X5737229Y-11064101D02*
X5756277Y-11073625D01*
X5756277Y-11073625D02*
X5765801Y-11092673D01*
X5765801Y-11092673D02*
X5765801Y-11197435D01*
X5765801Y-11092673D02*
X5775324Y-11073625D01*
X5775324Y-11073625D02*
X5794372Y-11064101D01*
X5794372Y-11064101D02*
X5822943Y-11064101D01*
X5822943Y-11064101D02*
X5841991Y-11073625D01*
X5841991Y-11073625D02*
X5851515Y-11092673D01*
X5851515Y-11092673D02*
X5851515Y-11197435D01*
X6241991Y-10987911D02*
X6070563Y-11245054D01*
X6499134Y-10997435D02*
X6518182Y-10997435D01*
X6518182Y-10997435D02*
X6537229Y-11006959D01*
X6537229Y-11006959D02*
X6546753Y-11016482D01*
X6546753Y-11016482D02*
X6556277Y-11035530D01*
X6556277Y-11035530D02*
X6565801Y-11073625D01*
X6565801Y-11073625D02*
X6565801Y-11121244D01*
X6565801Y-11121244D02*
X6556277Y-11159339D01*
X6556277Y-11159339D02*
X6546753Y-11178387D01*
X6546753Y-11178387D02*
X6537229Y-11187911D01*
X6537229Y-11187911D02*
X6518182Y-11197435D01*
X6518182Y-11197435D02*
X6499134Y-11197435D01*
X6499134Y-11197435D02*
X6480086Y-11187911D01*
X6480086Y-11187911D02*
X6470563Y-11178387D01*
X6470563Y-11178387D02*
X6461039Y-11159339D01*
X6461039Y-11159339D02*
X6451515Y-11121244D01*
X6451515Y-11121244D02*
X6451515Y-11073625D01*
X6451515Y-11073625D02*
X6461039Y-11035530D01*
X6461039Y-11035530D02*
X6470563Y-11016482D01*
X6470563Y-11016482D02*
X6480086Y-11006959D01*
X6480086Y-11006959D02*
X6499134Y-10997435D01*
X6651515Y-11178387D02*
X6661039Y-11187911D01*
X6661039Y-11187911D02*
X6651515Y-11197435D01*
X6651515Y-11197435D02*
X6641991Y-11187911D01*
X6641991Y-11187911D02*
X6651515Y-11178387D01*
X6651515Y-11178387D02*
X6651515Y-11197435D01*
X6784848Y-10997435D02*
X6803896Y-10997435D01*
X6803896Y-10997435D02*
X6822944Y-11006959D01*
X6822944Y-11006959D02*
X6832467Y-11016482D01*
X6832467Y-11016482D02*
X6841991Y-11035530D01*
X6841991Y-11035530D02*
X6851515Y-11073625D01*
X6851515Y-11073625D02*
X6851515Y-11121244D01*
X6851515Y-11121244D02*
X6841991Y-11159339D01*
X6841991Y-11159339D02*
X6832467Y-11178387D01*
X6832467Y-11178387D02*
X6822944Y-11187911D01*
X6822944Y-11187911D02*
X6803896Y-11197435D01*
X6803896Y-11197435D02*
X6784848Y-11197435D01*
X6784848Y-11197435D02*
X6765801Y-11187911D01*
X6765801Y-11187911D02*
X6756277Y-11178387D01*
X6756277Y-11178387D02*
X6746753Y-11159339D01*
X6746753Y-11159339D02*
X6737229Y-11121244D01*
X6737229Y-11121244D02*
X6737229Y-11073625D01*
X6737229Y-11073625D02*
X6746753Y-11035530D01*
X6746753Y-11035530D02*
X6756277Y-11016482D01*
X6756277Y-11016482D02*
X6765801Y-11006959D01*
X6765801Y-11006959D02*
X6784848Y-10997435D01*
X6918182Y-10997435D02*
X7041991Y-10997435D01*
X7041991Y-10997435D02*
X6975325Y-11073625D01*
X6975325Y-11073625D02*
X7003896Y-11073625D01*
X7003896Y-11073625D02*
X7022944Y-11083149D01*
X7022944Y-11083149D02*
X7032467Y-11092673D01*
X7032467Y-11092673D02*
X7041991Y-11111720D01*
X7041991Y-11111720D02*
X7041991Y-11159339D01*
X7041991Y-11159339D02*
X7032467Y-11178387D01*
X7032467Y-11178387D02*
X7022944Y-11187911D01*
X7022944Y-11187911D02*
X7003896Y-11197435D01*
X7003896Y-11197435D02*
X6946753Y-11197435D01*
X6946753Y-11197435D02*
X6927706Y-11187911D01*
X6927706Y-11187911D02*
X6918182Y-11178387D01*
X7232467Y-11197435D02*
X7118182Y-11197435D01*
X7175325Y-11197435D02*
X7175325Y-10997435D01*
X7175325Y-10997435D02*
X7156277Y-11026006D01*
X7156277Y-11026006D02*
X7137229Y-11045054D01*
X7137229Y-11045054D02*
X7118182Y-11054578D01*
X7413420Y-10997435D02*
X7318182Y-10997435D01*
X7318182Y-10997435D02*
X7308658Y-11092673D01*
X7308658Y-11092673D02*
X7318182Y-11083149D01*
X7318182Y-11083149D02*
X7337229Y-11073625D01*
X7337229Y-11073625D02*
X7384848Y-11073625D01*
X7384848Y-11073625D02*
X7403896Y-11083149D01*
X7403896Y-11083149D02*
X7413420Y-11092673D01*
X7413420Y-11092673D02*
X7422944Y-11111720D01*
X7422944Y-11111720D02*
X7422944Y-11159339D01*
X7422944Y-11159339D02*
X7413420Y-11178387D01*
X7413420Y-11178387D02*
X7403896Y-11187911D01*
X7403896Y-11187911D02*
X7384848Y-11197435D01*
X7384848Y-11197435D02*
X7337229Y-11197435D01*
X7337229Y-11197435D02*
X7318182Y-11187911D01*
X7318182Y-11187911D02*
X7308658Y-11178387D01*
X7499134Y-10997435D02*
X7499134Y-11035530D01*
X7575325Y-10997435D02*
X7575325Y-11035530D01*
X7870563Y-11273625D02*
X7861039Y-11264101D01*
X7861039Y-11264101D02*
X7841991Y-11235530D01*
X7841991Y-11235530D02*
X7832468Y-11216482D01*
X7832468Y-11216482D02*
X7822944Y-11187911D01*
X7822944Y-11187911D02*
X7813420Y-11140292D01*
X7813420Y-11140292D02*
X7813420Y-11102197D01*
X7813420Y-11102197D02*
X7822944Y-11054578D01*
X7822944Y-11054578D02*
X7832468Y-11026006D01*
X7832468Y-11026006D02*
X7841991Y-11006959D01*
X7841991Y-11006959D02*
X7861039Y-10978387D01*
X7861039Y-10978387D02*
X7870563Y-10968863D01*
X8041991Y-10997435D02*
X7946753Y-10997435D01*
X7946753Y-10997435D02*
X7937229Y-11092673D01*
X7937229Y-11092673D02*
X7946753Y-11083149D01*
X7946753Y-11083149D02*
X7965801Y-11073625D01*
X7965801Y-11073625D02*
X8013420Y-11073625D01*
X8013420Y-11073625D02*
X8032468Y-11083149D01*
X8032468Y-11083149D02*
X8041991Y-11092673D01*
X8041991Y-11092673D02*
X8051515Y-11111720D01*
X8051515Y-11111720D02*
X8051515Y-11159339D01*
X8051515Y-11159339D02*
X8041991Y-11178387D01*
X8041991Y-11178387D02*
X8032468Y-11187911D01*
X8032468Y-11187911D02*
X8013420Y-11197435D01*
X8013420Y-11197435D02*
X7965801Y-11197435D01*
X7965801Y-11197435D02*
X7946753Y-11187911D01*
X7946753Y-11187911D02*
X7937229Y-11178387D01*
X8289610Y-11197435D02*
X8289610Y-10997435D01*
X8375325Y-11197435D02*
X8375325Y-11092673D01*
X8375325Y-11092673D02*
X8365801Y-11073625D01*
X8365801Y-11073625D02*
X8346753Y-11064101D01*
X8346753Y-11064101D02*
X8318182Y-11064101D01*
X8318182Y-11064101D02*
X8299134Y-11073625D01*
X8299134Y-11073625D02*
X8289610Y-11083149D01*
X8499134Y-11197435D02*
X8480087Y-11187911D01*
X8480087Y-11187911D02*
X8470563Y-11178387D01*
X8470563Y-11178387D02*
X8461039Y-11159339D01*
X8461039Y-11159339D02*
X8461039Y-11102197D01*
X8461039Y-11102197D02*
X8470563Y-11083149D01*
X8470563Y-11083149D02*
X8480087Y-11073625D01*
X8480087Y-11073625D02*
X8499134Y-11064101D01*
X8499134Y-11064101D02*
X8527706Y-11064101D01*
X8527706Y-11064101D02*
X8546753Y-11073625D01*
X8546753Y-11073625D02*
X8556277Y-11083149D01*
X8556277Y-11083149D02*
X8565801Y-11102197D01*
X8565801Y-11102197D02*
X8565801Y-11159339D01*
X8565801Y-11159339D02*
X8556277Y-11178387D01*
X8556277Y-11178387D02*
X8546753Y-11187911D01*
X8546753Y-11187911D02*
X8527706Y-11197435D01*
X8527706Y-11197435D02*
X8499134Y-11197435D01*
X8680087Y-11197435D02*
X8661039Y-11187911D01*
X8661039Y-11187911D02*
X8651515Y-11168863D01*
X8651515Y-11168863D02*
X8651515Y-10997435D01*
X8832468Y-11187911D02*
X8813420Y-11197435D01*
X8813420Y-11197435D02*
X8775325Y-11197435D01*
X8775325Y-11197435D02*
X8756277Y-11187911D01*
X8756277Y-11187911D02*
X8746753Y-11168863D01*
X8746753Y-11168863D02*
X8746753Y-11092673D01*
X8746753Y-11092673D02*
X8756277Y-11073625D01*
X8756277Y-11073625D02*
X8775325Y-11064101D01*
X8775325Y-11064101D02*
X8813420Y-11064101D01*
X8813420Y-11064101D02*
X8832468Y-11073625D01*
X8832468Y-11073625D02*
X8841992Y-11092673D01*
X8841992Y-11092673D02*
X8841992Y-11111720D01*
X8841992Y-11111720D02*
X8746753Y-11130768D01*
X8918182Y-11187911D02*
X8937230Y-11197435D01*
X8937230Y-11197435D02*
X8975325Y-11197435D01*
X8975325Y-11197435D02*
X8994373Y-11187911D01*
X8994373Y-11187911D02*
X9003896Y-11168863D01*
X9003896Y-11168863D02*
X9003896Y-11159339D01*
X9003896Y-11159339D02*
X8994373Y-11140292D01*
X8994373Y-11140292D02*
X8975325Y-11130768D01*
X8975325Y-11130768D02*
X8946753Y-11130768D01*
X8946753Y-11130768D02*
X8927706Y-11121244D01*
X8927706Y-11121244D02*
X8918182Y-11102197D01*
X8918182Y-11102197D02*
X8918182Y-11092673D01*
X8918182Y-11092673D02*
X8927706Y-11073625D01*
X8927706Y-11073625D02*
X8946753Y-11064101D01*
X8946753Y-11064101D02*
X8975325Y-11064101D01*
X8975325Y-11064101D02*
X8994373Y-11073625D01*
X9070563Y-11273625D02*
X9080087Y-11264101D01*
X9080087Y-11264101D02*
X9099134Y-11235530D01*
X9099134Y-11235530D02*
X9108658Y-11216482D01*
X9108658Y-11216482D02*
X9118182Y-11187911D01*
X9118182Y-11187911D02*
X9127706Y-11140292D01*
X9127706Y-11140292D02*
X9127706Y-11102197D01*
X9127706Y-11102197D02*
X9118182Y-11054578D01*
X9118182Y-11054578D02*
X9108658Y-11026006D01*
X9108658Y-11026006D02*
X9099134Y-11006959D01*
X9099134Y-11006959D02*
X9080087Y-10978387D01*
X9080087Y-10978387D02*
X9070563Y-10968863D01*
D12*
X4205500Y-11324951D02*
X4295500Y-11414951D01*
X4295500Y-11324951D02*
X4205500Y-11414951D01*
X4250500Y-11324951D02*
X4250500Y-11414951D01*
X4205500Y-11369951D02*
X4295500Y-11369951D01*
D11*
X4594372Y-11261435D02*
X4613420Y-11261435D01*
X4613420Y-11261435D02*
X4632467Y-11270958D01*
X4632467Y-11270958D02*
X4641991Y-11280482D01*
X4641991Y-11280482D02*
X4651515Y-11299530D01*
X4651515Y-11299530D02*
X4661039Y-11337625D01*
X4661039Y-11337625D02*
X4661039Y-11385244D01*
X4661039Y-11385244D02*
X4651515Y-11423339D01*
X4651515Y-11423339D02*
X4641991Y-11442387D01*
X4641991Y-11442387D02*
X4632467Y-11451911D01*
X4632467Y-11451911D02*
X4613420Y-11461435D01*
X4613420Y-11461435D02*
X4594372Y-11461435D01*
X4594372Y-11461435D02*
X4575324Y-11451911D01*
X4575324Y-11451911D02*
X4565801Y-11442387D01*
X4565801Y-11442387D02*
X4556277Y-11423339D01*
X4556277Y-11423339D02*
X4546753Y-11385244D01*
X4546753Y-11385244D02*
X4546753Y-11337625D01*
X4546753Y-11337625D02*
X4556277Y-11299530D01*
X4556277Y-11299530D02*
X4565801Y-11280482D01*
X4565801Y-11280482D02*
X4575324Y-11270958D01*
X4575324Y-11270958D02*
X4594372Y-11261435D01*
X4746753Y-11442387D02*
X4756277Y-11451911D01*
X4756277Y-11451911D02*
X4746753Y-11461435D01*
X4746753Y-11461435D02*
X4737229Y-11451911D01*
X4737229Y-11451911D02*
X4746753Y-11442387D01*
X4746753Y-11442387D02*
X4746753Y-11461435D01*
X4851515Y-11461435D02*
X4889610Y-11461435D01*
X4889610Y-11461435D02*
X4908658Y-11451911D01*
X4908658Y-11451911D02*
X4918182Y-11442387D01*
X4918182Y-11442387D02*
X4937229Y-11413816D01*
X4937229Y-11413816D02*
X4946753Y-11375720D01*
X4946753Y-11375720D02*
X4946753Y-11299530D01*
X4946753Y-11299530D02*
X4937229Y-11280482D01*
X4937229Y-11280482D02*
X4927705Y-11270958D01*
X4927705Y-11270958D02*
X4908658Y-11261435D01*
X4908658Y-11261435D02*
X4870563Y-11261435D01*
X4870563Y-11261435D02*
X4851515Y-11270958D01*
X4851515Y-11270958D02*
X4841991Y-11280482D01*
X4841991Y-11280482D02*
X4832467Y-11299530D01*
X4832467Y-11299530D02*
X4832467Y-11347149D01*
X4832467Y-11347149D02*
X4841991Y-11366197D01*
X4841991Y-11366197D02*
X4851515Y-11375720D01*
X4851515Y-11375720D02*
X4870563Y-11385244D01*
X4870563Y-11385244D02*
X4908658Y-11385244D01*
X4908658Y-11385244D02*
X4927705Y-11375720D01*
X4927705Y-11375720D02*
X4937229Y-11366197D01*
X4937229Y-11366197D02*
X4946753Y-11347149D01*
X5070563Y-11261435D02*
X5089610Y-11261435D01*
X5089610Y-11261435D02*
X5108658Y-11270958D01*
X5108658Y-11270958D02*
X5118182Y-11280482D01*
X5118182Y-11280482D02*
X5127705Y-11299530D01*
X5127705Y-11299530D02*
X5137229Y-11337625D01*
X5137229Y-11337625D02*
X5137229Y-11385244D01*
X5137229Y-11385244D02*
X5127705Y-11423339D01*
X5127705Y-11423339D02*
X5118182Y-11442387D01*
X5118182Y-11442387D02*
X5108658Y-11451911D01*
X5108658Y-11451911D02*
X5089610Y-11461435D01*
X5089610Y-11461435D02*
X5070563Y-11461435D01*
X5070563Y-11461435D02*
X5051515Y-11451911D01*
X5051515Y-11451911D02*
X5041991Y-11442387D01*
X5041991Y-11442387D02*
X5032467Y-11423339D01*
X5032467Y-11423339D02*
X5022944Y-11385244D01*
X5022944Y-11385244D02*
X5022944Y-11337625D01*
X5022944Y-11337625D02*
X5032467Y-11299530D01*
X5032467Y-11299530D02*
X5041991Y-11280482D01*
X5041991Y-11280482D02*
X5051515Y-11270958D01*
X5051515Y-11270958D02*
X5070563Y-11261435D01*
X5261039Y-11261435D02*
X5280086Y-11261435D01*
X5280086Y-11261435D02*
X5299134Y-11270958D01*
X5299134Y-11270958D02*
X5308658Y-11280482D01*
X5308658Y-11280482D02*
X5318182Y-11299530D01*
X5318182Y-11299530D02*
X5327705Y-11337625D01*
X5327705Y-11337625D02*
X5327705Y-11385244D01*
X5327705Y-11385244D02*
X5318182Y-11423339D01*
X5318182Y-11423339D02*
X5308658Y-11442387D01*
X5308658Y-11442387D02*
X5299134Y-11451911D01*
X5299134Y-11451911D02*
X5280086Y-11461435D01*
X5280086Y-11461435D02*
X5261039Y-11461435D01*
X5261039Y-11461435D02*
X5241991Y-11451911D01*
X5241991Y-11451911D02*
X5232467Y-11442387D01*
X5232467Y-11442387D02*
X5222944Y-11423339D01*
X5222944Y-11423339D02*
X5213420Y-11385244D01*
X5213420Y-11385244D02*
X5213420Y-11337625D01*
X5213420Y-11337625D02*
X5222944Y-11299530D01*
X5222944Y-11299530D02*
X5232467Y-11280482D01*
X5232467Y-11280482D02*
X5241991Y-11270958D01*
X5241991Y-11270958D02*
X5261039Y-11261435D01*
X5413420Y-11461435D02*
X5413420Y-11328101D01*
X5413420Y-11347149D02*
X5422944Y-11337625D01*
X5422944Y-11337625D02*
X5441991Y-11328101D01*
X5441991Y-11328101D02*
X5470563Y-11328101D01*
X5470563Y-11328101D02*
X5489610Y-11337625D01*
X5489610Y-11337625D02*
X5499134Y-11356673D01*
X5499134Y-11356673D02*
X5499134Y-11461435D01*
X5499134Y-11356673D02*
X5508658Y-11337625D01*
X5508658Y-11337625D02*
X5527705Y-11328101D01*
X5527705Y-11328101D02*
X5556277Y-11328101D01*
X5556277Y-11328101D02*
X5575325Y-11337625D01*
X5575325Y-11337625D02*
X5584848Y-11356673D01*
X5584848Y-11356673D02*
X5584848Y-11461435D01*
X5680086Y-11461435D02*
X5680086Y-11328101D01*
X5680086Y-11347149D02*
X5689610Y-11337625D01*
X5689610Y-11337625D02*
X5708658Y-11328101D01*
X5708658Y-11328101D02*
X5737229Y-11328101D01*
X5737229Y-11328101D02*
X5756277Y-11337625D01*
X5756277Y-11337625D02*
X5765801Y-11356673D01*
X5765801Y-11356673D02*
X5765801Y-11461435D01*
X5765801Y-11356673D02*
X5775324Y-11337625D01*
X5775324Y-11337625D02*
X5794372Y-11328101D01*
X5794372Y-11328101D02*
X5822943Y-11328101D01*
X5822943Y-11328101D02*
X5841991Y-11337625D01*
X5841991Y-11337625D02*
X5851515Y-11356673D01*
X5851515Y-11356673D02*
X5851515Y-11461435D01*
X6241991Y-11251911D02*
X6070563Y-11509054D01*
X6499134Y-11261435D02*
X6518182Y-11261435D01*
X6518182Y-11261435D02*
X6537229Y-11270958D01*
X6537229Y-11270958D02*
X6546753Y-11280482D01*
X6546753Y-11280482D02*
X6556277Y-11299530D01*
X6556277Y-11299530D02*
X6565801Y-11337625D01*
X6565801Y-11337625D02*
X6565801Y-11385244D01*
X6565801Y-11385244D02*
X6556277Y-11423339D01*
X6556277Y-11423339D02*
X6546753Y-11442387D01*
X6546753Y-11442387D02*
X6537229Y-11451911D01*
X6537229Y-11451911D02*
X6518182Y-11461435D01*
X6518182Y-11461435D02*
X6499134Y-11461435D01*
X6499134Y-11461435D02*
X6480086Y-11451911D01*
X6480086Y-11451911D02*
X6470563Y-11442387D01*
X6470563Y-11442387D02*
X6461039Y-11423339D01*
X6461039Y-11423339D02*
X6451515Y-11385244D01*
X6451515Y-11385244D02*
X6451515Y-11337625D01*
X6451515Y-11337625D02*
X6461039Y-11299530D01*
X6461039Y-11299530D02*
X6470563Y-11280482D01*
X6470563Y-11280482D02*
X6480086Y-11270958D01*
X6480086Y-11270958D02*
X6499134Y-11261435D01*
X6651515Y-11442387D02*
X6661039Y-11451911D01*
X6661039Y-11451911D02*
X6651515Y-11461435D01*
X6651515Y-11461435D02*
X6641991Y-11451911D01*
X6641991Y-11451911D02*
X6651515Y-11442387D01*
X6651515Y-11442387D02*
X6651515Y-11461435D01*
X6784848Y-11261435D02*
X6803896Y-11261435D01*
X6803896Y-11261435D02*
X6822944Y-11270958D01*
X6822944Y-11270958D02*
X6832467Y-11280482D01*
X6832467Y-11280482D02*
X6841991Y-11299530D01*
X6841991Y-11299530D02*
X6851515Y-11337625D01*
X6851515Y-11337625D02*
X6851515Y-11385244D01*
X6851515Y-11385244D02*
X6841991Y-11423339D01*
X6841991Y-11423339D02*
X6832467Y-11442387D01*
X6832467Y-11442387D02*
X6822944Y-11451911D01*
X6822944Y-11451911D02*
X6803896Y-11461435D01*
X6803896Y-11461435D02*
X6784848Y-11461435D01*
X6784848Y-11461435D02*
X6765801Y-11451911D01*
X6765801Y-11451911D02*
X6756277Y-11442387D01*
X6756277Y-11442387D02*
X6746753Y-11423339D01*
X6746753Y-11423339D02*
X6737229Y-11385244D01*
X6737229Y-11385244D02*
X6737229Y-11337625D01*
X6737229Y-11337625D02*
X6746753Y-11299530D01*
X6746753Y-11299530D02*
X6756277Y-11280482D01*
X6756277Y-11280482D02*
X6765801Y-11270958D01*
X6765801Y-11270958D02*
X6784848Y-11261435D01*
X6918182Y-11261435D02*
X7041991Y-11261435D01*
X7041991Y-11261435D02*
X6975325Y-11337625D01*
X6975325Y-11337625D02*
X7003896Y-11337625D01*
X7003896Y-11337625D02*
X7022944Y-11347149D01*
X7022944Y-11347149D02*
X7032467Y-11356673D01*
X7032467Y-11356673D02*
X7041991Y-11375720D01*
X7041991Y-11375720D02*
X7041991Y-11423339D01*
X7041991Y-11423339D02*
X7032467Y-11442387D01*
X7032467Y-11442387D02*
X7022944Y-11451911D01*
X7022944Y-11451911D02*
X7003896Y-11461435D01*
X7003896Y-11461435D02*
X6946753Y-11461435D01*
X6946753Y-11461435D02*
X6927706Y-11451911D01*
X6927706Y-11451911D02*
X6918182Y-11442387D01*
X7222944Y-11261435D02*
X7127706Y-11261435D01*
X7127706Y-11261435D02*
X7118182Y-11356673D01*
X7118182Y-11356673D02*
X7127706Y-11347149D01*
X7127706Y-11347149D02*
X7146753Y-11337625D01*
X7146753Y-11337625D02*
X7194372Y-11337625D01*
X7194372Y-11337625D02*
X7213420Y-11347149D01*
X7213420Y-11347149D02*
X7222944Y-11356673D01*
X7222944Y-11356673D02*
X7232467Y-11375720D01*
X7232467Y-11375720D02*
X7232467Y-11423339D01*
X7232467Y-11423339D02*
X7222944Y-11442387D01*
X7222944Y-11442387D02*
X7213420Y-11451911D01*
X7213420Y-11451911D02*
X7194372Y-11461435D01*
X7194372Y-11461435D02*
X7146753Y-11461435D01*
X7146753Y-11461435D02*
X7127706Y-11451911D01*
X7127706Y-11451911D02*
X7118182Y-11442387D01*
X7403896Y-11328101D02*
X7403896Y-11461435D01*
X7356277Y-11251911D02*
X7308658Y-11394768D01*
X7308658Y-11394768D02*
X7432467Y-11394768D01*
X7499134Y-11261435D02*
X7499134Y-11299530D01*
X7575325Y-11261435D02*
X7575325Y-11299530D01*
X7870563Y-11537625D02*
X7861039Y-11528101D01*
X7861039Y-11528101D02*
X7841991Y-11499530D01*
X7841991Y-11499530D02*
X7832468Y-11480482D01*
X7832468Y-11480482D02*
X7822944Y-11451911D01*
X7822944Y-11451911D02*
X7813420Y-11404292D01*
X7813420Y-11404292D02*
X7813420Y-11366197D01*
X7813420Y-11366197D02*
X7822944Y-11318577D01*
X7822944Y-11318577D02*
X7832468Y-11290006D01*
X7832468Y-11290006D02*
X7841991Y-11270958D01*
X7841991Y-11270958D02*
X7861039Y-11242387D01*
X7861039Y-11242387D02*
X7870563Y-11232863D01*
X8032468Y-11261435D02*
X7994372Y-11261435D01*
X7994372Y-11261435D02*
X7975325Y-11270958D01*
X7975325Y-11270958D02*
X7965801Y-11280482D01*
X7965801Y-11280482D02*
X7946753Y-11309054D01*
X7946753Y-11309054D02*
X7937229Y-11347149D01*
X7937229Y-11347149D02*
X7937229Y-11423339D01*
X7937229Y-11423339D02*
X7946753Y-11442387D01*
X7946753Y-11442387D02*
X7956277Y-11451911D01*
X7956277Y-11451911D02*
X7975325Y-11461435D01*
X7975325Y-11461435D02*
X8013420Y-11461435D01*
X8013420Y-11461435D02*
X8032468Y-11451911D01*
X8032468Y-11451911D02*
X8041991Y-11442387D01*
X8041991Y-11442387D02*
X8051515Y-11423339D01*
X8051515Y-11423339D02*
X8051515Y-11375720D01*
X8051515Y-11375720D02*
X8041991Y-11356673D01*
X8041991Y-11356673D02*
X8032468Y-11347149D01*
X8032468Y-11347149D02*
X8013420Y-11337625D01*
X8013420Y-11337625D02*
X7975325Y-11337625D01*
X7975325Y-11337625D02*
X7956277Y-11347149D01*
X7956277Y-11347149D02*
X7946753Y-11356673D01*
X7946753Y-11356673D02*
X7937229Y-11375720D01*
X8289610Y-11461435D02*
X8289610Y-11261435D01*
X8375325Y-11461435D02*
X8375325Y-11356673D01*
X8375325Y-11356673D02*
X8365801Y-11337625D01*
X8365801Y-11337625D02*
X8346753Y-11328101D01*
X8346753Y-11328101D02*
X8318182Y-11328101D01*
X8318182Y-11328101D02*
X8299134Y-11337625D01*
X8299134Y-11337625D02*
X8289610Y-11347149D01*
X8499134Y-11461435D02*
X8480087Y-11451911D01*
X8480087Y-11451911D02*
X8470563Y-11442387D01*
X8470563Y-11442387D02*
X8461039Y-11423339D01*
X8461039Y-11423339D02*
X8461039Y-11366197D01*
X8461039Y-11366197D02*
X8470563Y-11347149D01*
X8470563Y-11347149D02*
X8480087Y-11337625D01*
X8480087Y-11337625D02*
X8499134Y-11328101D01*
X8499134Y-11328101D02*
X8527706Y-11328101D01*
X8527706Y-11328101D02*
X8546753Y-11337625D01*
X8546753Y-11337625D02*
X8556277Y-11347149D01*
X8556277Y-11347149D02*
X8565801Y-11366197D01*
X8565801Y-11366197D02*
X8565801Y-11423339D01*
X8565801Y-11423339D02*
X8556277Y-11442387D01*
X8556277Y-11442387D02*
X8546753Y-11451911D01*
X8546753Y-11451911D02*
X8527706Y-11461435D01*
X8527706Y-11461435D02*
X8499134Y-11461435D01*
X8680087Y-11461435D02*
X8661039Y-11451911D01*
X8661039Y-11451911D02*
X8651515Y-11432863D01*
X8651515Y-11432863D02*
X8651515Y-11261435D01*
X8832468Y-11451911D02*
X8813420Y-11461435D01*
X8813420Y-11461435D02*
X8775325Y-11461435D01*
X8775325Y-11461435D02*
X8756277Y-11451911D01*
X8756277Y-11451911D02*
X8746753Y-11432863D01*
X8746753Y-11432863D02*
X8746753Y-11356673D01*
X8746753Y-11356673D02*
X8756277Y-11337625D01*
X8756277Y-11337625D02*
X8775325Y-11328101D01*
X8775325Y-11328101D02*
X8813420Y-11328101D01*
X8813420Y-11328101D02*
X8832468Y-11337625D01*
X8832468Y-11337625D02*
X8841992Y-11356673D01*
X8841992Y-11356673D02*
X8841992Y-11375720D01*
X8841992Y-11375720D02*
X8746753Y-11394768D01*
X8918182Y-11451911D02*
X8937230Y-11461435D01*
X8937230Y-11461435D02*
X8975325Y-11461435D01*
X8975325Y-11461435D02*
X8994373Y-11451911D01*
X8994373Y-11451911D02*
X9003896Y-11432863D01*
X9003896Y-11432863D02*
X9003896Y-11423339D01*
X9003896Y-11423339D02*
X8994373Y-11404292D01*
X8994373Y-11404292D02*
X8975325Y-11394768D01*
X8975325Y-11394768D02*
X8946753Y-11394768D01*
X8946753Y-11394768D02*
X8927706Y-11385244D01*
X8927706Y-11385244D02*
X8918182Y-11366197D01*
X8918182Y-11366197D02*
X8918182Y-11356673D01*
X8918182Y-11356673D02*
X8927706Y-11337625D01*
X8927706Y-11337625D02*
X8946753Y-11328101D01*
X8946753Y-11328101D02*
X8975325Y-11328101D01*
X8975325Y-11328101D02*
X8994373Y-11337625D01*
X9070563Y-11537625D02*
X9080087Y-11528101D01*
X9080087Y-11528101D02*
X9099134Y-11499530D01*
X9099134Y-11499530D02*
X9108658Y-11480482D01*
X9108658Y-11480482D02*
X9118182Y-11451911D01*
X9118182Y-11451911D02*
X9127706Y-11404292D01*
X9127706Y-11404292D02*
X9127706Y-11366197D01*
X9127706Y-11366197D02*
X9118182Y-11318577D01*
X9118182Y-11318577D02*
X9108658Y-11290006D01*
X9108658Y-11290006D02*
X9099134Y-11270958D01*
X9099134Y-11270958D02*
X9080087Y-11242387D01*
X9080087Y-11242387D02*
X9070563Y-11232863D01*
D12*
X4195500Y-11583951D02*
X4295500Y-11683951D01*
X4295500Y-11583951D02*
X4195500Y-11683951D01*
X4280856Y-11669307D02*
X4280856Y-11598595D01*
X4210144Y-11598595D01*
X4210144Y-11669307D01*
X4280856Y-11669307D01*
D11*
X4661039Y-11725435D02*
X4546753Y-11725435D01*
X4603896Y-11725435D02*
X4603896Y-11525435D01*
X4603896Y-11525435D02*
X4584848Y-11554006D01*
X4584848Y-11554006D02*
X4565801Y-11573054D01*
X4565801Y-11573054D02*
X4546753Y-11582577D01*
X4746753Y-11706387D02*
X4756277Y-11715911D01*
X4756277Y-11715911D02*
X4746753Y-11725435D01*
X4746753Y-11725435D02*
X4737229Y-11715911D01*
X4737229Y-11715911D02*
X4746753Y-11706387D01*
X4746753Y-11706387D02*
X4746753Y-11725435D01*
X4880086Y-11525435D02*
X4899134Y-11525435D01*
X4899134Y-11525435D02*
X4918182Y-11534958D01*
X4918182Y-11534958D02*
X4927705Y-11544482D01*
X4927705Y-11544482D02*
X4937229Y-11563530D01*
X4937229Y-11563530D02*
X4946753Y-11601625D01*
X4946753Y-11601625D02*
X4946753Y-11649244D01*
X4946753Y-11649244D02*
X4937229Y-11687339D01*
X4937229Y-11687339D02*
X4927705Y-11706387D01*
X4927705Y-11706387D02*
X4918182Y-11715911D01*
X4918182Y-11715911D02*
X4899134Y-11725435D01*
X4899134Y-11725435D02*
X4880086Y-11725435D01*
X4880086Y-11725435D02*
X4861039Y-11715911D01*
X4861039Y-11715911D02*
X4851515Y-11706387D01*
X4851515Y-11706387D02*
X4841991Y-11687339D01*
X4841991Y-11687339D02*
X4832467Y-11649244D01*
X4832467Y-11649244D02*
X4832467Y-11601625D01*
X4832467Y-11601625D02*
X4841991Y-11563530D01*
X4841991Y-11563530D02*
X4851515Y-11544482D01*
X4851515Y-11544482D02*
X4861039Y-11534958D01*
X4861039Y-11534958D02*
X4880086Y-11525435D01*
X5070563Y-11525435D02*
X5089610Y-11525435D01*
X5089610Y-11525435D02*
X5108658Y-11534958D01*
X5108658Y-11534958D02*
X5118182Y-11544482D01*
X5118182Y-11544482D02*
X5127705Y-11563530D01*
X5127705Y-11563530D02*
X5137229Y-11601625D01*
X5137229Y-11601625D02*
X5137229Y-11649244D01*
X5137229Y-11649244D02*
X5127705Y-11687339D01*
X5127705Y-11687339D02*
X5118182Y-11706387D01*
X5118182Y-11706387D02*
X5108658Y-11715911D01*
X5108658Y-11715911D02*
X5089610Y-11725435D01*
X5089610Y-11725435D02*
X5070563Y-11725435D01*
X5070563Y-11725435D02*
X5051515Y-11715911D01*
X5051515Y-11715911D02*
X5041991Y-11706387D01*
X5041991Y-11706387D02*
X5032467Y-11687339D01*
X5032467Y-11687339D02*
X5022944Y-11649244D01*
X5022944Y-11649244D02*
X5022944Y-11601625D01*
X5022944Y-11601625D02*
X5032467Y-11563530D01*
X5032467Y-11563530D02*
X5041991Y-11544482D01*
X5041991Y-11544482D02*
X5051515Y-11534958D01*
X5051515Y-11534958D02*
X5070563Y-11525435D01*
X5261039Y-11525435D02*
X5280086Y-11525435D01*
X5280086Y-11525435D02*
X5299134Y-11534958D01*
X5299134Y-11534958D02*
X5308658Y-11544482D01*
X5308658Y-11544482D02*
X5318182Y-11563530D01*
X5318182Y-11563530D02*
X5327705Y-11601625D01*
X5327705Y-11601625D02*
X5327705Y-11649244D01*
X5327705Y-11649244D02*
X5318182Y-11687339D01*
X5318182Y-11687339D02*
X5308658Y-11706387D01*
X5308658Y-11706387D02*
X5299134Y-11715911D01*
X5299134Y-11715911D02*
X5280086Y-11725435D01*
X5280086Y-11725435D02*
X5261039Y-11725435D01*
X5261039Y-11725435D02*
X5241991Y-11715911D01*
X5241991Y-11715911D02*
X5232467Y-11706387D01*
X5232467Y-11706387D02*
X5222944Y-11687339D01*
X5222944Y-11687339D02*
X5213420Y-11649244D01*
X5213420Y-11649244D02*
X5213420Y-11601625D01*
X5213420Y-11601625D02*
X5222944Y-11563530D01*
X5222944Y-11563530D02*
X5232467Y-11544482D01*
X5232467Y-11544482D02*
X5241991Y-11534958D01*
X5241991Y-11534958D02*
X5261039Y-11525435D01*
X5413420Y-11725435D02*
X5413420Y-11592101D01*
X5413420Y-11611149D02*
X5422944Y-11601625D01*
X5422944Y-11601625D02*
X5441991Y-11592101D01*
X5441991Y-11592101D02*
X5470563Y-11592101D01*
X5470563Y-11592101D02*
X5489610Y-11601625D01*
X5489610Y-11601625D02*
X5499134Y-11620673D01*
X5499134Y-11620673D02*
X5499134Y-11725435D01*
X5499134Y-11620673D02*
X5508658Y-11601625D01*
X5508658Y-11601625D02*
X5527705Y-11592101D01*
X5527705Y-11592101D02*
X5556277Y-11592101D01*
X5556277Y-11592101D02*
X5575325Y-11601625D01*
X5575325Y-11601625D02*
X5584848Y-11620673D01*
X5584848Y-11620673D02*
X5584848Y-11725435D01*
X5680086Y-11725435D02*
X5680086Y-11592101D01*
X5680086Y-11611149D02*
X5689610Y-11601625D01*
X5689610Y-11601625D02*
X5708658Y-11592101D01*
X5708658Y-11592101D02*
X5737229Y-11592101D01*
X5737229Y-11592101D02*
X5756277Y-11601625D01*
X5756277Y-11601625D02*
X5765801Y-11620673D01*
X5765801Y-11620673D02*
X5765801Y-11725435D01*
X5765801Y-11620673D02*
X5775324Y-11601625D01*
X5775324Y-11601625D02*
X5794372Y-11592101D01*
X5794372Y-11592101D02*
X5822943Y-11592101D01*
X5822943Y-11592101D02*
X5841991Y-11601625D01*
X5841991Y-11601625D02*
X5851515Y-11620673D01*
X5851515Y-11620673D02*
X5851515Y-11725435D01*
X6241991Y-11515911D02*
X6070563Y-11773054D01*
X6499134Y-11525435D02*
X6518182Y-11525435D01*
X6518182Y-11525435D02*
X6537229Y-11534958D01*
X6537229Y-11534958D02*
X6546753Y-11544482D01*
X6546753Y-11544482D02*
X6556277Y-11563530D01*
X6556277Y-11563530D02*
X6565801Y-11601625D01*
X6565801Y-11601625D02*
X6565801Y-11649244D01*
X6565801Y-11649244D02*
X6556277Y-11687339D01*
X6556277Y-11687339D02*
X6546753Y-11706387D01*
X6546753Y-11706387D02*
X6537229Y-11715911D01*
X6537229Y-11715911D02*
X6518182Y-11725435D01*
X6518182Y-11725435D02*
X6499134Y-11725435D01*
X6499134Y-11725435D02*
X6480086Y-11715911D01*
X6480086Y-11715911D02*
X6470563Y-11706387D01*
X6470563Y-11706387D02*
X6461039Y-11687339D01*
X6461039Y-11687339D02*
X6451515Y-11649244D01*
X6451515Y-11649244D02*
X6451515Y-11601625D01*
X6451515Y-11601625D02*
X6461039Y-11563530D01*
X6461039Y-11563530D02*
X6470563Y-11544482D01*
X6470563Y-11544482D02*
X6480086Y-11534958D01*
X6480086Y-11534958D02*
X6499134Y-11525435D01*
X6651515Y-11706387D02*
X6661039Y-11715911D01*
X6661039Y-11715911D02*
X6651515Y-11725435D01*
X6651515Y-11725435D02*
X6641991Y-11715911D01*
X6641991Y-11715911D02*
X6651515Y-11706387D01*
X6651515Y-11706387D02*
X6651515Y-11725435D01*
X6784848Y-11525435D02*
X6803896Y-11525435D01*
X6803896Y-11525435D02*
X6822944Y-11534958D01*
X6822944Y-11534958D02*
X6832467Y-11544482D01*
X6832467Y-11544482D02*
X6841991Y-11563530D01*
X6841991Y-11563530D02*
X6851515Y-11601625D01*
X6851515Y-11601625D02*
X6851515Y-11649244D01*
X6851515Y-11649244D02*
X6841991Y-11687339D01*
X6841991Y-11687339D02*
X6832467Y-11706387D01*
X6832467Y-11706387D02*
X6822944Y-11715911D01*
X6822944Y-11715911D02*
X6803896Y-11725435D01*
X6803896Y-11725435D02*
X6784848Y-11725435D01*
X6784848Y-11725435D02*
X6765801Y-11715911D01*
X6765801Y-11715911D02*
X6756277Y-11706387D01*
X6756277Y-11706387D02*
X6746753Y-11687339D01*
X6746753Y-11687339D02*
X6737229Y-11649244D01*
X6737229Y-11649244D02*
X6737229Y-11601625D01*
X6737229Y-11601625D02*
X6746753Y-11563530D01*
X6746753Y-11563530D02*
X6756277Y-11544482D01*
X6756277Y-11544482D02*
X6765801Y-11534958D01*
X6765801Y-11534958D02*
X6784848Y-11525435D01*
X6918182Y-11525435D02*
X7041991Y-11525435D01*
X7041991Y-11525435D02*
X6975325Y-11601625D01*
X6975325Y-11601625D02*
X7003896Y-11601625D01*
X7003896Y-11601625D02*
X7022944Y-11611149D01*
X7022944Y-11611149D02*
X7032467Y-11620673D01*
X7032467Y-11620673D02*
X7041991Y-11639720D01*
X7041991Y-11639720D02*
X7041991Y-11687339D01*
X7041991Y-11687339D02*
X7032467Y-11706387D01*
X7032467Y-11706387D02*
X7022944Y-11715911D01*
X7022944Y-11715911D02*
X7003896Y-11725435D01*
X7003896Y-11725435D02*
X6946753Y-11725435D01*
X6946753Y-11725435D02*
X6927706Y-11715911D01*
X6927706Y-11715911D02*
X6918182Y-11706387D01*
X7137229Y-11725435D02*
X7175325Y-11725435D01*
X7175325Y-11725435D02*
X7194372Y-11715911D01*
X7194372Y-11715911D02*
X7203896Y-11706387D01*
X7203896Y-11706387D02*
X7222944Y-11677816D01*
X7222944Y-11677816D02*
X7232467Y-11639720D01*
X7232467Y-11639720D02*
X7232467Y-11563530D01*
X7232467Y-11563530D02*
X7222944Y-11544482D01*
X7222944Y-11544482D02*
X7213420Y-11534958D01*
X7213420Y-11534958D02*
X7194372Y-11525435D01*
X7194372Y-11525435D02*
X7156277Y-11525435D01*
X7156277Y-11525435D02*
X7137229Y-11534958D01*
X7137229Y-11534958D02*
X7127706Y-11544482D01*
X7127706Y-11544482D02*
X7118182Y-11563530D01*
X7118182Y-11563530D02*
X7118182Y-11611149D01*
X7118182Y-11611149D02*
X7127706Y-11630197D01*
X7127706Y-11630197D02*
X7137229Y-11639720D01*
X7137229Y-11639720D02*
X7156277Y-11649244D01*
X7156277Y-11649244D02*
X7194372Y-11649244D01*
X7194372Y-11649244D02*
X7213420Y-11639720D01*
X7213420Y-11639720D02*
X7222944Y-11630197D01*
X7222944Y-11630197D02*
X7232467Y-11611149D01*
X7403896Y-11592101D02*
X7403896Y-11725435D01*
X7356277Y-11515911D02*
X7308658Y-11658768D01*
X7308658Y-11658768D02*
X7432467Y-11658768D01*
X7499134Y-11525435D02*
X7499134Y-11563530D01*
X7575325Y-11525435D02*
X7575325Y-11563530D01*
X7870563Y-11801625D02*
X7861039Y-11792101D01*
X7861039Y-11792101D02*
X7841991Y-11763530D01*
X7841991Y-11763530D02*
X7832468Y-11744482D01*
X7832468Y-11744482D02*
X7822944Y-11715911D01*
X7822944Y-11715911D02*
X7813420Y-11668292D01*
X7813420Y-11668292D02*
X7813420Y-11630197D01*
X7813420Y-11630197D02*
X7822944Y-11582577D01*
X7822944Y-11582577D02*
X7832468Y-11554006D01*
X7832468Y-11554006D02*
X7841991Y-11534958D01*
X7841991Y-11534958D02*
X7861039Y-11506387D01*
X7861039Y-11506387D02*
X7870563Y-11496863D01*
X7937229Y-11544482D02*
X7946753Y-11534958D01*
X7946753Y-11534958D02*
X7965801Y-11525435D01*
X7965801Y-11525435D02*
X8013420Y-11525435D01*
X8013420Y-11525435D02*
X8032468Y-11534958D01*
X8032468Y-11534958D02*
X8041991Y-11544482D01*
X8041991Y-11544482D02*
X8051515Y-11563530D01*
X8051515Y-11563530D02*
X8051515Y-11582577D01*
X8051515Y-11582577D02*
X8041991Y-11611149D01*
X8041991Y-11611149D02*
X7927706Y-11725435D01*
X7927706Y-11725435D02*
X8051515Y-11725435D01*
X8165801Y-11611149D02*
X8146753Y-11601625D01*
X8146753Y-11601625D02*
X8137229Y-11592101D01*
X8137229Y-11592101D02*
X8127706Y-11573054D01*
X8127706Y-11573054D02*
X8127706Y-11563530D01*
X8127706Y-11563530D02*
X8137229Y-11544482D01*
X8137229Y-11544482D02*
X8146753Y-11534958D01*
X8146753Y-11534958D02*
X8165801Y-11525435D01*
X8165801Y-11525435D02*
X8203896Y-11525435D01*
X8203896Y-11525435D02*
X8222944Y-11534958D01*
X8222944Y-11534958D02*
X8232468Y-11544482D01*
X8232468Y-11544482D02*
X8241991Y-11563530D01*
X8241991Y-11563530D02*
X8241991Y-11573054D01*
X8241991Y-11573054D02*
X8232468Y-11592101D01*
X8232468Y-11592101D02*
X8222944Y-11601625D01*
X8222944Y-11601625D02*
X8203896Y-11611149D01*
X8203896Y-11611149D02*
X8165801Y-11611149D01*
X8165801Y-11611149D02*
X8146753Y-11620673D01*
X8146753Y-11620673D02*
X8137229Y-11630197D01*
X8137229Y-11630197D02*
X8127706Y-11649244D01*
X8127706Y-11649244D02*
X8127706Y-11687339D01*
X8127706Y-11687339D02*
X8137229Y-11706387D01*
X8137229Y-11706387D02*
X8146753Y-11715911D01*
X8146753Y-11715911D02*
X8165801Y-11725435D01*
X8165801Y-11725435D02*
X8203896Y-11725435D01*
X8203896Y-11725435D02*
X8222944Y-11715911D01*
X8222944Y-11715911D02*
X8232468Y-11706387D01*
X8232468Y-11706387D02*
X8241991Y-11687339D01*
X8241991Y-11687339D02*
X8241991Y-11649244D01*
X8241991Y-11649244D02*
X8232468Y-11630197D01*
X8232468Y-11630197D02*
X8222944Y-11620673D01*
X8222944Y-11620673D02*
X8203896Y-11611149D01*
X8480087Y-11725435D02*
X8480087Y-11525435D01*
X8565801Y-11725435D02*
X8565801Y-11620673D01*
X8565801Y-11620673D02*
X8556277Y-11601625D01*
X8556277Y-11601625D02*
X8537230Y-11592101D01*
X8537230Y-11592101D02*
X8508658Y-11592101D01*
X8508658Y-11592101D02*
X8489611Y-11601625D01*
X8489611Y-11601625D02*
X8480087Y-11611149D01*
X8689611Y-11725435D02*
X8670563Y-11715911D01*
X8670563Y-11715911D02*
X8661039Y-11706387D01*
X8661039Y-11706387D02*
X8651515Y-11687339D01*
X8651515Y-11687339D02*
X8651515Y-11630197D01*
X8651515Y-11630197D02*
X8661039Y-11611149D01*
X8661039Y-11611149D02*
X8670563Y-11601625D01*
X8670563Y-11601625D02*
X8689611Y-11592101D01*
X8689611Y-11592101D02*
X8718182Y-11592101D01*
X8718182Y-11592101D02*
X8737230Y-11601625D01*
X8737230Y-11601625D02*
X8746753Y-11611149D01*
X8746753Y-11611149D02*
X8756277Y-11630197D01*
X8756277Y-11630197D02*
X8756277Y-11687339D01*
X8756277Y-11687339D02*
X8746753Y-11706387D01*
X8746753Y-11706387D02*
X8737230Y-11715911D01*
X8737230Y-11715911D02*
X8718182Y-11725435D01*
X8718182Y-11725435D02*
X8689611Y-11725435D01*
X8870563Y-11725435D02*
X8851515Y-11715911D01*
X8851515Y-11715911D02*
X8841992Y-11696863D01*
X8841992Y-11696863D02*
X8841992Y-11525435D01*
X9022944Y-11715911D02*
X9003896Y-11725435D01*
X9003896Y-11725435D02*
X8965801Y-11725435D01*
X8965801Y-11725435D02*
X8946753Y-11715911D01*
X8946753Y-11715911D02*
X8937230Y-11696863D01*
X8937230Y-11696863D02*
X8937230Y-11620673D01*
X8937230Y-11620673D02*
X8946753Y-11601625D01*
X8946753Y-11601625D02*
X8965801Y-11592101D01*
X8965801Y-11592101D02*
X9003896Y-11592101D01*
X9003896Y-11592101D02*
X9022944Y-11601625D01*
X9022944Y-11601625D02*
X9032468Y-11620673D01*
X9032468Y-11620673D02*
X9032468Y-11639720D01*
X9032468Y-11639720D02*
X8937230Y-11658768D01*
X9108658Y-11715911D02*
X9127706Y-11725435D01*
X9127706Y-11725435D02*
X9165801Y-11725435D01*
X9165801Y-11725435D02*
X9184849Y-11715911D01*
X9184849Y-11715911D02*
X9194373Y-11696863D01*
X9194373Y-11696863D02*
X9194373Y-11687339D01*
X9194373Y-11687339D02*
X9184849Y-11668292D01*
X9184849Y-11668292D02*
X9165801Y-11658768D01*
X9165801Y-11658768D02*
X9137230Y-11658768D01*
X9137230Y-11658768D02*
X9118182Y-11649244D01*
X9118182Y-11649244D02*
X9108658Y-11630197D01*
X9108658Y-11630197D02*
X9108658Y-11620673D01*
X9108658Y-11620673D02*
X9118182Y-11601625D01*
X9118182Y-11601625D02*
X9137230Y-11592101D01*
X9137230Y-11592101D02*
X9165801Y-11592101D01*
X9165801Y-11592101D02*
X9184849Y-11601625D01*
X9261039Y-11801625D02*
X9270563Y-11792101D01*
X9270563Y-11792101D02*
X9289611Y-11763530D01*
X9289611Y-11763530D02*
X9299134Y-11744482D01*
X9299134Y-11744482D02*
X9308658Y-11715911D01*
X9308658Y-11715911D02*
X9318182Y-11668292D01*
X9318182Y-11668292D02*
X9318182Y-11630197D01*
X9318182Y-11630197D02*
X9308658Y-11582577D01*
X9308658Y-11582577D02*
X9299134Y-11554006D01*
X9299134Y-11554006D02*
X9289611Y-11534958D01*
X9289611Y-11534958D02*
X9270563Y-11506387D01*
X9270563Y-11506387D02*
X9261039Y-11496863D01*
X4095500Y-11797951D02*
X4295500Y-11997951D01*
X4295500Y-11797951D02*
X4095500Y-11997951D01*
X4195500Y-11997951D02*
X4295500Y-11897951D01*
X4195500Y-11797951D01*
X4095500Y-11897951D01*
X4195500Y-11997951D01*
X4537229Y-11789435D02*
X4661039Y-11789435D01*
X4661039Y-11789435D02*
X4594372Y-11865625D01*
X4594372Y-11865625D02*
X4622944Y-11865625D01*
X4622944Y-11865625D02*
X4641991Y-11875149D01*
X4641991Y-11875149D02*
X4651515Y-11884673D01*
X4651515Y-11884673D02*
X4661039Y-11903720D01*
X4661039Y-11903720D02*
X4661039Y-11951339D01*
X4661039Y-11951339D02*
X4651515Y-11970387D01*
X4651515Y-11970387D02*
X4641991Y-11979911D01*
X4641991Y-11979911D02*
X4622944Y-11989435D01*
X4622944Y-11989435D02*
X4565801Y-11989435D01*
X4565801Y-11989435D02*
X4546753Y-11979911D01*
X4546753Y-11979911D02*
X4537229Y-11970387D01*
X4746753Y-11970387D02*
X4756277Y-11979911D01*
X4756277Y-11979911D02*
X4746753Y-11989435D01*
X4746753Y-11989435D02*
X4737229Y-11979911D01*
X4737229Y-11979911D02*
X4746753Y-11970387D01*
X4746753Y-11970387D02*
X4746753Y-11989435D01*
X4832467Y-11808482D02*
X4841991Y-11798958D01*
X4841991Y-11798958D02*
X4861039Y-11789435D01*
X4861039Y-11789435D02*
X4908658Y-11789435D01*
X4908658Y-11789435D02*
X4927705Y-11798958D01*
X4927705Y-11798958D02*
X4937229Y-11808482D01*
X4937229Y-11808482D02*
X4946753Y-11827530D01*
X4946753Y-11827530D02*
X4946753Y-11846577D01*
X4946753Y-11846577D02*
X4937229Y-11875149D01*
X4937229Y-11875149D02*
X4822944Y-11989435D01*
X4822944Y-11989435D02*
X4946753Y-11989435D01*
X5070563Y-11789435D02*
X5089610Y-11789435D01*
X5089610Y-11789435D02*
X5108658Y-11798958D01*
X5108658Y-11798958D02*
X5118182Y-11808482D01*
X5118182Y-11808482D02*
X5127705Y-11827530D01*
X5127705Y-11827530D02*
X5137229Y-11865625D01*
X5137229Y-11865625D02*
X5137229Y-11913244D01*
X5137229Y-11913244D02*
X5127705Y-11951339D01*
X5127705Y-11951339D02*
X5118182Y-11970387D01*
X5118182Y-11970387D02*
X5108658Y-11979911D01*
X5108658Y-11979911D02*
X5089610Y-11989435D01*
X5089610Y-11989435D02*
X5070563Y-11989435D01*
X5070563Y-11989435D02*
X5051515Y-11979911D01*
X5051515Y-11979911D02*
X5041991Y-11970387D01*
X5041991Y-11970387D02*
X5032467Y-11951339D01*
X5032467Y-11951339D02*
X5022944Y-11913244D01*
X5022944Y-11913244D02*
X5022944Y-11865625D01*
X5022944Y-11865625D02*
X5032467Y-11827530D01*
X5032467Y-11827530D02*
X5041991Y-11808482D01*
X5041991Y-11808482D02*
X5051515Y-11798958D01*
X5051515Y-11798958D02*
X5070563Y-11789435D01*
X5261039Y-11789435D02*
X5280086Y-11789435D01*
X5280086Y-11789435D02*
X5299134Y-11798958D01*
X5299134Y-11798958D02*
X5308658Y-11808482D01*
X5308658Y-11808482D02*
X5318182Y-11827530D01*
X5318182Y-11827530D02*
X5327705Y-11865625D01*
X5327705Y-11865625D02*
X5327705Y-11913244D01*
X5327705Y-11913244D02*
X5318182Y-11951339D01*
X5318182Y-11951339D02*
X5308658Y-11970387D01*
X5308658Y-11970387D02*
X5299134Y-11979911D01*
X5299134Y-11979911D02*
X5280086Y-11989435D01*
X5280086Y-11989435D02*
X5261039Y-11989435D01*
X5261039Y-11989435D02*
X5241991Y-11979911D01*
X5241991Y-11979911D02*
X5232467Y-11970387D01*
X5232467Y-11970387D02*
X5222944Y-11951339D01*
X5222944Y-11951339D02*
X5213420Y-11913244D01*
X5213420Y-11913244D02*
X5213420Y-11865625D01*
X5213420Y-11865625D02*
X5222944Y-11827530D01*
X5222944Y-11827530D02*
X5232467Y-11808482D01*
X5232467Y-11808482D02*
X5241991Y-11798958D01*
X5241991Y-11798958D02*
X5261039Y-11789435D01*
X5413420Y-11989435D02*
X5413420Y-11856101D01*
X5413420Y-11875149D02*
X5422944Y-11865625D01*
X5422944Y-11865625D02*
X5441991Y-11856101D01*
X5441991Y-11856101D02*
X5470563Y-11856101D01*
X5470563Y-11856101D02*
X5489610Y-11865625D01*
X5489610Y-11865625D02*
X5499134Y-11884673D01*
X5499134Y-11884673D02*
X5499134Y-11989435D01*
X5499134Y-11884673D02*
X5508658Y-11865625D01*
X5508658Y-11865625D02*
X5527705Y-11856101D01*
X5527705Y-11856101D02*
X5556277Y-11856101D01*
X5556277Y-11856101D02*
X5575325Y-11865625D01*
X5575325Y-11865625D02*
X5584848Y-11884673D01*
X5584848Y-11884673D02*
X5584848Y-11989435D01*
X5680086Y-11989435D02*
X5680086Y-11856101D01*
X5680086Y-11875149D02*
X5689610Y-11865625D01*
X5689610Y-11865625D02*
X5708658Y-11856101D01*
X5708658Y-11856101D02*
X5737229Y-11856101D01*
X5737229Y-11856101D02*
X5756277Y-11865625D01*
X5756277Y-11865625D02*
X5765801Y-11884673D01*
X5765801Y-11884673D02*
X5765801Y-11989435D01*
X5765801Y-11884673D02*
X5775324Y-11865625D01*
X5775324Y-11865625D02*
X5794372Y-11856101D01*
X5794372Y-11856101D02*
X5822943Y-11856101D01*
X5822943Y-11856101D02*
X5841991Y-11865625D01*
X5841991Y-11865625D02*
X5851515Y-11884673D01*
X5851515Y-11884673D02*
X5851515Y-11989435D01*
X6241991Y-11779911D02*
X6070563Y-12037054D01*
X6499134Y-11789435D02*
X6518182Y-11789435D01*
X6518182Y-11789435D02*
X6537229Y-11798958D01*
X6537229Y-11798958D02*
X6546753Y-11808482D01*
X6546753Y-11808482D02*
X6556277Y-11827530D01*
X6556277Y-11827530D02*
X6565801Y-11865625D01*
X6565801Y-11865625D02*
X6565801Y-11913244D01*
X6565801Y-11913244D02*
X6556277Y-11951339D01*
X6556277Y-11951339D02*
X6546753Y-11970387D01*
X6546753Y-11970387D02*
X6537229Y-11979911D01*
X6537229Y-11979911D02*
X6518182Y-11989435D01*
X6518182Y-11989435D02*
X6499134Y-11989435D01*
X6499134Y-11989435D02*
X6480086Y-11979911D01*
X6480086Y-11979911D02*
X6470563Y-11970387D01*
X6470563Y-11970387D02*
X6461039Y-11951339D01*
X6461039Y-11951339D02*
X6451515Y-11913244D01*
X6451515Y-11913244D02*
X6451515Y-11865625D01*
X6451515Y-11865625D02*
X6461039Y-11827530D01*
X6461039Y-11827530D02*
X6470563Y-11808482D01*
X6470563Y-11808482D02*
X6480086Y-11798958D01*
X6480086Y-11798958D02*
X6499134Y-11789435D01*
X6651515Y-11970387D02*
X6661039Y-11979911D01*
X6661039Y-11979911D02*
X6651515Y-11989435D01*
X6651515Y-11989435D02*
X6641991Y-11979911D01*
X6641991Y-11979911D02*
X6651515Y-11970387D01*
X6651515Y-11970387D02*
X6651515Y-11989435D01*
X6851515Y-11989435D02*
X6737229Y-11989435D01*
X6794372Y-11989435D02*
X6794372Y-11789435D01*
X6794372Y-11789435D02*
X6775325Y-11818006D01*
X6775325Y-11818006D02*
X6756277Y-11837054D01*
X6756277Y-11837054D02*
X6737229Y-11846577D01*
X6927706Y-11808482D02*
X6937229Y-11798958D01*
X6937229Y-11798958D02*
X6956277Y-11789435D01*
X6956277Y-11789435D02*
X7003896Y-11789435D01*
X7003896Y-11789435D02*
X7022944Y-11798958D01*
X7022944Y-11798958D02*
X7032467Y-11808482D01*
X7032467Y-11808482D02*
X7041991Y-11827530D01*
X7041991Y-11827530D02*
X7041991Y-11846577D01*
X7041991Y-11846577D02*
X7032467Y-11875149D01*
X7032467Y-11875149D02*
X6918182Y-11989435D01*
X6918182Y-11989435D02*
X7041991Y-11989435D01*
X7213420Y-11789435D02*
X7175325Y-11789435D01*
X7175325Y-11789435D02*
X7156277Y-11798958D01*
X7156277Y-11798958D02*
X7146753Y-11808482D01*
X7146753Y-11808482D02*
X7127706Y-11837054D01*
X7127706Y-11837054D02*
X7118182Y-11875149D01*
X7118182Y-11875149D02*
X7118182Y-11951339D01*
X7118182Y-11951339D02*
X7127706Y-11970387D01*
X7127706Y-11970387D02*
X7137229Y-11979911D01*
X7137229Y-11979911D02*
X7156277Y-11989435D01*
X7156277Y-11989435D02*
X7194372Y-11989435D01*
X7194372Y-11989435D02*
X7213420Y-11979911D01*
X7213420Y-11979911D02*
X7222944Y-11970387D01*
X7222944Y-11970387D02*
X7232467Y-11951339D01*
X7232467Y-11951339D02*
X7232467Y-11903720D01*
X7232467Y-11903720D02*
X7222944Y-11884673D01*
X7222944Y-11884673D02*
X7213420Y-11875149D01*
X7213420Y-11875149D02*
X7194372Y-11865625D01*
X7194372Y-11865625D02*
X7156277Y-11865625D01*
X7156277Y-11865625D02*
X7137229Y-11875149D01*
X7137229Y-11875149D02*
X7127706Y-11884673D01*
X7127706Y-11884673D02*
X7118182Y-11903720D01*
X7356277Y-11789435D02*
X7375325Y-11789435D01*
X7375325Y-11789435D02*
X7394372Y-11798958D01*
X7394372Y-11798958D02*
X7403896Y-11808482D01*
X7403896Y-11808482D02*
X7413420Y-11827530D01*
X7413420Y-11827530D02*
X7422944Y-11865625D01*
X7422944Y-11865625D02*
X7422944Y-11913244D01*
X7422944Y-11913244D02*
X7413420Y-11951339D01*
X7413420Y-11951339D02*
X7403896Y-11970387D01*
X7403896Y-11970387D02*
X7394372Y-11979911D01*
X7394372Y-11979911D02*
X7375325Y-11989435D01*
X7375325Y-11989435D02*
X7356277Y-11989435D01*
X7356277Y-11989435D02*
X7337229Y-11979911D01*
X7337229Y-11979911D02*
X7327706Y-11970387D01*
X7327706Y-11970387D02*
X7318182Y-11951339D01*
X7318182Y-11951339D02*
X7308658Y-11913244D01*
X7308658Y-11913244D02*
X7308658Y-11865625D01*
X7308658Y-11865625D02*
X7318182Y-11827530D01*
X7318182Y-11827530D02*
X7327706Y-11808482D01*
X7327706Y-11808482D02*
X7337229Y-11798958D01*
X7337229Y-11798958D02*
X7356277Y-11789435D01*
X7499134Y-11789435D02*
X7499134Y-11827530D01*
X7575325Y-11789435D02*
X7575325Y-11827530D01*
X7870563Y-12065625D02*
X7861039Y-12056101D01*
X7861039Y-12056101D02*
X7841991Y-12027530D01*
X7841991Y-12027530D02*
X7832468Y-12008482D01*
X7832468Y-12008482D02*
X7822944Y-11979911D01*
X7822944Y-11979911D02*
X7813420Y-11932292D01*
X7813420Y-11932292D02*
X7813420Y-11894197D01*
X7813420Y-11894197D02*
X7822944Y-11846577D01*
X7822944Y-11846577D02*
X7832468Y-11818006D01*
X7832468Y-11818006D02*
X7841991Y-11798958D01*
X7841991Y-11798958D02*
X7861039Y-11770387D01*
X7861039Y-11770387D02*
X7870563Y-11760863D01*
X7937229Y-11808482D02*
X7946753Y-11798958D01*
X7946753Y-11798958D02*
X7965801Y-11789435D01*
X7965801Y-11789435D02*
X8013420Y-11789435D01*
X8013420Y-11789435D02*
X8032468Y-11798958D01*
X8032468Y-11798958D02*
X8041991Y-11808482D01*
X8041991Y-11808482D02*
X8051515Y-11827530D01*
X8051515Y-11827530D02*
X8051515Y-11846577D01*
X8051515Y-11846577D02*
X8041991Y-11875149D01*
X8041991Y-11875149D02*
X7927706Y-11989435D01*
X7927706Y-11989435D02*
X8051515Y-11989435D01*
X8289610Y-11989435D02*
X8289610Y-11789435D01*
X8375325Y-11989435D02*
X8375325Y-11884673D01*
X8375325Y-11884673D02*
X8365801Y-11865625D01*
X8365801Y-11865625D02*
X8346753Y-11856101D01*
X8346753Y-11856101D02*
X8318182Y-11856101D01*
X8318182Y-11856101D02*
X8299134Y-11865625D01*
X8299134Y-11865625D02*
X8289610Y-11875149D01*
X8499134Y-11989435D02*
X8480087Y-11979911D01*
X8480087Y-11979911D02*
X8470563Y-11970387D01*
X8470563Y-11970387D02*
X8461039Y-11951339D01*
X8461039Y-11951339D02*
X8461039Y-11894197D01*
X8461039Y-11894197D02*
X8470563Y-11875149D01*
X8470563Y-11875149D02*
X8480087Y-11865625D01*
X8480087Y-11865625D02*
X8499134Y-11856101D01*
X8499134Y-11856101D02*
X8527706Y-11856101D01*
X8527706Y-11856101D02*
X8546753Y-11865625D01*
X8546753Y-11865625D02*
X8556277Y-11875149D01*
X8556277Y-11875149D02*
X8565801Y-11894197D01*
X8565801Y-11894197D02*
X8565801Y-11951339D01*
X8565801Y-11951339D02*
X8556277Y-11970387D01*
X8556277Y-11970387D02*
X8546753Y-11979911D01*
X8546753Y-11979911D02*
X8527706Y-11989435D01*
X8527706Y-11989435D02*
X8499134Y-11989435D01*
X8680087Y-11989435D02*
X8661039Y-11979911D01*
X8661039Y-11979911D02*
X8651515Y-11960863D01*
X8651515Y-11960863D02*
X8651515Y-11789435D01*
X8832468Y-11979911D02*
X8813420Y-11989435D01*
X8813420Y-11989435D02*
X8775325Y-11989435D01*
X8775325Y-11989435D02*
X8756277Y-11979911D01*
X8756277Y-11979911D02*
X8746753Y-11960863D01*
X8746753Y-11960863D02*
X8746753Y-11884673D01*
X8746753Y-11884673D02*
X8756277Y-11865625D01*
X8756277Y-11865625D02*
X8775325Y-11856101D01*
X8775325Y-11856101D02*
X8813420Y-11856101D01*
X8813420Y-11856101D02*
X8832468Y-11865625D01*
X8832468Y-11865625D02*
X8841992Y-11884673D01*
X8841992Y-11884673D02*
X8841992Y-11903720D01*
X8841992Y-11903720D02*
X8746753Y-11922768D01*
X8918182Y-11979911D02*
X8937230Y-11989435D01*
X8937230Y-11989435D02*
X8975325Y-11989435D01*
X8975325Y-11989435D02*
X8994373Y-11979911D01*
X8994373Y-11979911D02*
X9003896Y-11960863D01*
X9003896Y-11960863D02*
X9003896Y-11951339D01*
X9003896Y-11951339D02*
X8994373Y-11932292D01*
X8994373Y-11932292D02*
X8975325Y-11922768D01*
X8975325Y-11922768D02*
X8946753Y-11922768D01*
X8946753Y-11922768D02*
X8927706Y-11913244D01*
X8927706Y-11913244D02*
X8918182Y-11894197D01*
X8918182Y-11894197D02*
X8918182Y-11884673D01*
X8918182Y-11884673D02*
X8927706Y-11865625D01*
X8927706Y-11865625D02*
X8946753Y-11856101D01*
X8946753Y-11856101D02*
X8975325Y-11856101D01*
X8975325Y-11856101D02*
X8994373Y-11865625D01*
X9070563Y-12065625D02*
X9080087Y-12056101D01*
X9080087Y-12056101D02*
X9099134Y-12027530D01*
X9099134Y-12027530D02*
X9108658Y-12008482D01*
X9108658Y-12008482D02*
X9118182Y-11979911D01*
X9118182Y-11979911D02*
X9127706Y-11932292D01*
X9127706Y-11932292D02*
X9127706Y-11894197D01*
X9127706Y-11894197D02*
X9118182Y-11846577D01*
X9118182Y-11846577D02*
X9108658Y-11818006D01*
X9108658Y-11818006D02*
X9099134Y-11798958D01*
X9099134Y-11798958D02*
X9080087Y-11770387D01*
X9080087Y-11770387D02*
X9070563Y-11760863D01*
M02*
