%TF.GenerationSoftware,KiCad,Pcbnew,9.0.1*%
%TF.CreationDate,2025-11-13T22:26:36+01:00*%
%TF.ProjectId,dise_o_v2,64697365-f16f-45f7-9632-2e6b69636164,rev?*%
%TF.SameCoordinates,Original*%
%TF.FileFunction,Legend,Top*%
%TF.FilePolarity,Positive*%
%FSLAX46Y46*%
G04 Gerber Fmt 4.6, Leading zero omitted, Abs format (unit mm)*
G04 Created by KiCad (PCBNEW 9.0.1) date 2025-11-13 22:26:36*
%MOMM*%
%LPD*%
G01*
G04 APERTURE LIST*
%ADD10C,0.150000*%
%ADD11C,0.120000*%
G04 APERTURE END LIST*
D10*
X64170112Y-81915496D02*
X64312969Y-81963115D01*
X64312969Y-81963115D02*
X64360588Y-82010734D01*
X64360588Y-82010734D02*
X64408207Y-82105972D01*
X64408207Y-82105972D02*
X64408207Y-82248829D01*
X64408207Y-82248829D02*
X64360588Y-82344067D01*
X64360588Y-82344067D02*
X64312969Y-82391687D01*
X64312969Y-82391687D02*
X64217731Y-82439306D01*
X64217731Y-82439306D02*
X63836779Y-82439306D01*
X63836779Y-82439306D02*
X63836779Y-81439306D01*
X63836779Y-81439306D02*
X64170112Y-81439306D01*
X64170112Y-81439306D02*
X64265350Y-81486925D01*
X64265350Y-81486925D02*
X64312969Y-81534544D01*
X64312969Y-81534544D02*
X64360588Y-81629782D01*
X64360588Y-81629782D02*
X64360588Y-81725020D01*
X64360588Y-81725020D02*
X64312969Y-81820258D01*
X64312969Y-81820258D02*
X64265350Y-81867877D01*
X64265350Y-81867877D02*
X64170112Y-81915496D01*
X64170112Y-81915496D02*
X63836779Y-81915496D01*
X64789160Y-82153591D02*
X65265350Y-82153591D01*
X64693922Y-82439306D02*
X65027255Y-81439306D01*
X65027255Y-81439306D02*
X65360588Y-82439306D01*
X65551065Y-81439306D02*
X66122493Y-81439306D01*
X65836779Y-82439306D02*
X65836779Y-81439306D01*
X66312970Y-81439306D02*
X66884398Y-81439306D01*
X66598684Y-82439306D02*
X66598684Y-81439306D01*
X67217732Y-81915496D02*
X67551065Y-81915496D01*
X67693922Y-82439306D02*
X67217732Y-82439306D01*
X67217732Y-82439306D02*
X67217732Y-81439306D01*
X67217732Y-81439306D02*
X67693922Y-81439306D01*
X68693922Y-82439306D02*
X68360589Y-81963115D01*
X68122494Y-82439306D02*
X68122494Y-81439306D01*
X68122494Y-81439306D02*
X68503446Y-81439306D01*
X68503446Y-81439306D02*
X68598684Y-81486925D01*
X68598684Y-81486925D02*
X68646303Y-81534544D01*
X68646303Y-81534544D02*
X68693922Y-81629782D01*
X68693922Y-81629782D02*
X68693922Y-81772639D01*
X68693922Y-81772639D02*
X68646303Y-81867877D01*
X68646303Y-81867877D02*
X68598684Y-81915496D01*
X68598684Y-81915496D02*
X68503446Y-81963115D01*
X68503446Y-81963115D02*
X68122494Y-81963115D01*
X69312970Y-81963115D02*
X69312970Y-82439306D01*
X68979637Y-81439306D02*
X69312970Y-81963115D01*
X69312970Y-81963115D02*
X69646303Y-81439306D01*
X49454819Y-46666666D02*
X48978628Y-46999999D01*
X49454819Y-47238094D02*
X48454819Y-47238094D01*
X48454819Y-47238094D02*
X48454819Y-46857142D01*
X48454819Y-46857142D02*
X48502438Y-46761904D01*
X48502438Y-46761904D02*
X48550057Y-46714285D01*
X48550057Y-46714285D02*
X48645295Y-46666666D01*
X48645295Y-46666666D02*
X48788152Y-46666666D01*
X48788152Y-46666666D02*
X48883390Y-46714285D01*
X48883390Y-46714285D02*
X48931009Y-46761904D01*
X48931009Y-46761904D02*
X48978628Y-46857142D01*
X48978628Y-46857142D02*
X48978628Y-47238094D01*
X48550057Y-46285713D02*
X48502438Y-46238094D01*
X48502438Y-46238094D02*
X48454819Y-46142856D01*
X48454819Y-46142856D02*
X48454819Y-45904761D01*
X48454819Y-45904761D02*
X48502438Y-45809523D01*
X48502438Y-45809523D02*
X48550057Y-45761904D01*
X48550057Y-45761904D02*
X48645295Y-45714285D01*
X48645295Y-45714285D02*
X48740533Y-45714285D01*
X48740533Y-45714285D02*
X48883390Y-45761904D01*
X48883390Y-45761904D02*
X49454819Y-46333332D01*
X49454819Y-46333332D02*
X49454819Y-45714285D01*
X58876747Y-82534939D02*
X58829128Y-82582559D01*
X58829128Y-82582559D02*
X58686271Y-82630178D01*
X58686271Y-82630178D02*
X58591033Y-82630178D01*
X58591033Y-82630178D02*
X58448176Y-82582559D01*
X58448176Y-82582559D02*
X58352938Y-82487320D01*
X58352938Y-82487320D02*
X58305319Y-82392082D01*
X58305319Y-82392082D02*
X58257700Y-82201606D01*
X58257700Y-82201606D02*
X58257700Y-82058749D01*
X58257700Y-82058749D02*
X58305319Y-81868273D01*
X58305319Y-81868273D02*
X58352938Y-81773035D01*
X58352938Y-81773035D02*
X58448176Y-81677797D01*
X58448176Y-81677797D02*
X58591033Y-81630178D01*
X58591033Y-81630178D02*
X58686271Y-81630178D01*
X58686271Y-81630178D02*
X58829128Y-81677797D01*
X58829128Y-81677797D02*
X58876747Y-81725416D01*
X59733890Y-81630178D02*
X59543414Y-81630178D01*
X59543414Y-81630178D02*
X59448176Y-81677797D01*
X59448176Y-81677797D02*
X59400557Y-81725416D01*
X59400557Y-81725416D02*
X59305319Y-81868273D01*
X59305319Y-81868273D02*
X59257700Y-82058749D01*
X59257700Y-82058749D02*
X59257700Y-82439701D01*
X59257700Y-82439701D02*
X59305319Y-82534939D01*
X59305319Y-82534939D02*
X59352938Y-82582559D01*
X59352938Y-82582559D02*
X59448176Y-82630178D01*
X59448176Y-82630178D02*
X59638652Y-82630178D01*
X59638652Y-82630178D02*
X59733890Y-82582559D01*
X59733890Y-82582559D02*
X59781509Y-82534939D01*
X59781509Y-82534939D02*
X59829128Y-82439701D01*
X59829128Y-82439701D02*
X59829128Y-82201606D01*
X59829128Y-82201606D02*
X59781509Y-82106368D01*
X59781509Y-82106368D02*
X59733890Y-82058749D01*
X59733890Y-82058749D02*
X59638652Y-82011130D01*
X59638652Y-82011130D02*
X59448176Y-82011130D01*
X59448176Y-82011130D02*
X59352938Y-82058749D01*
X59352938Y-82058749D02*
X59305319Y-82106368D01*
X59305319Y-82106368D02*
X59257700Y-82201606D01*
X73996779Y-73114819D02*
X73996779Y-73924342D01*
X73996779Y-73924342D02*
X74044398Y-74019580D01*
X74044398Y-74019580D02*
X74092017Y-74067200D01*
X74092017Y-74067200D02*
X74187255Y-74114819D01*
X74187255Y-74114819D02*
X74377731Y-74114819D01*
X74377731Y-74114819D02*
X74472969Y-74067200D01*
X74472969Y-74067200D02*
X74520588Y-74019580D01*
X74520588Y-74019580D02*
X74568207Y-73924342D01*
X74568207Y-73924342D02*
X74568207Y-73114819D01*
X75568207Y-74114819D02*
X74996779Y-74114819D01*
X75282493Y-74114819D02*
X75282493Y-73114819D01*
X75282493Y-73114819D02*
X75187255Y-73257676D01*
X75187255Y-73257676D02*
X75092017Y-73352914D01*
X75092017Y-73352914D02*
X74996779Y-73400533D01*
X49129819Y-55166666D02*
X48653628Y-55499999D01*
X49129819Y-55738094D02*
X48129819Y-55738094D01*
X48129819Y-55738094D02*
X48129819Y-55357142D01*
X48129819Y-55357142D02*
X48177438Y-55261904D01*
X48177438Y-55261904D02*
X48225057Y-55214285D01*
X48225057Y-55214285D02*
X48320295Y-55166666D01*
X48320295Y-55166666D02*
X48463152Y-55166666D01*
X48463152Y-55166666D02*
X48558390Y-55214285D01*
X48558390Y-55214285D02*
X48606009Y-55261904D01*
X48606009Y-55261904D02*
X48653628Y-55357142D01*
X48653628Y-55357142D02*
X48653628Y-55738094D01*
X49129819Y-54690475D02*
X49129819Y-54499999D01*
X49129819Y-54499999D02*
X49082200Y-54404761D01*
X49082200Y-54404761D02*
X49034580Y-54357142D01*
X49034580Y-54357142D02*
X48891723Y-54261904D01*
X48891723Y-54261904D02*
X48701247Y-54214285D01*
X48701247Y-54214285D02*
X48320295Y-54214285D01*
X48320295Y-54214285D02*
X48225057Y-54261904D01*
X48225057Y-54261904D02*
X48177438Y-54309523D01*
X48177438Y-54309523D02*
X48129819Y-54404761D01*
X48129819Y-54404761D02*
X48129819Y-54595237D01*
X48129819Y-54595237D02*
X48177438Y-54690475D01*
X48177438Y-54690475D02*
X48225057Y-54738094D01*
X48225057Y-54738094D02*
X48320295Y-54785713D01*
X48320295Y-54785713D02*
X48558390Y-54785713D01*
X48558390Y-54785713D02*
X48653628Y-54738094D01*
X48653628Y-54738094D02*
X48701247Y-54690475D01*
X48701247Y-54690475D02*
X48748866Y-54595237D01*
X48748866Y-54595237D02*
X48748866Y-54404761D01*
X48748866Y-54404761D02*
X48701247Y-54309523D01*
X48701247Y-54309523D02*
X48653628Y-54261904D01*
X48653628Y-54261904D02*
X48558390Y-54214285D01*
X76359580Y-34542857D02*
X76407200Y-34590476D01*
X76407200Y-34590476D02*
X76454819Y-34733333D01*
X76454819Y-34733333D02*
X76454819Y-34828571D01*
X76454819Y-34828571D02*
X76407200Y-34971428D01*
X76407200Y-34971428D02*
X76311961Y-35066666D01*
X76311961Y-35066666D02*
X76216723Y-35114285D01*
X76216723Y-35114285D02*
X76026247Y-35161904D01*
X76026247Y-35161904D02*
X75883390Y-35161904D01*
X75883390Y-35161904D02*
X75692914Y-35114285D01*
X75692914Y-35114285D02*
X75597676Y-35066666D01*
X75597676Y-35066666D02*
X75502438Y-34971428D01*
X75502438Y-34971428D02*
X75454819Y-34828571D01*
X75454819Y-34828571D02*
X75454819Y-34733333D01*
X75454819Y-34733333D02*
X75502438Y-34590476D01*
X75502438Y-34590476D02*
X75550057Y-34542857D01*
X76454819Y-33590476D02*
X76454819Y-34161904D01*
X76454819Y-33876190D02*
X75454819Y-33876190D01*
X75454819Y-33876190D02*
X75597676Y-33971428D01*
X75597676Y-33971428D02*
X75692914Y-34066666D01*
X75692914Y-34066666D02*
X75740533Y-34161904D01*
X76454819Y-32638095D02*
X76454819Y-33209523D01*
X76454819Y-32923809D02*
X75454819Y-32923809D01*
X75454819Y-32923809D02*
X75597676Y-33019047D01*
X75597676Y-33019047D02*
X75692914Y-33114285D01*
X75692914Y-33114285D02*
X75740533Y-33209523D01*
X48833333Y-82359580D02*
X48785714Y-82407200D01*
X48785714Y-82407200D02*
X48642857Y-82454819D01*
X48642857Y-82454819D02*
X48547619Y-82454819D01*
X48547619Y-82454819D02*
X48404762Y-82407200D01*
X48404762Y-82407200D02*
X48309524Y-82311961D01*
X48309524Y-82311961D02*
X48261905Y-82216723D01*
X48261905Y-82216723D02*
X48214286Y-82026247D01*
X48214286Y-82026247D02*
X48214286Y-81883390D01*
X48214286Y-81883390D02*
X48261905Y-81692914D01*
X48261905Y-81692914D02*
X48309524Y-81597676D01*
X48309524Y-81597676D02*
X48404762Y-81502438D01*
X48404762Y-81502438D02*
X48547619Y-81454819D01*
X48547619Y-81454819D02*
X48642857Y-81454819D01*
X48642857Y-81454819D02*
X48785714Y-81502438D01*
X48785714Y-81502438D02*
X48833333Y-81550057D01*
X49785714Y-82454819D02*
X49214286Y-82454819D01*
X49500000Y-82454819D02*
X49500000Y-81454819D01*
X49500000Y-81454819D02*
X49404762Y-81597676D01*
X49404762Y-81597676D02*
X49309524Y-81692914D01*
X49309524Y-81692914D02*
X49214286Y-81740533D01*
X55833333Y-82459580D02*
X55785714Y-82507200D01*
X55785714Y-82507200D02*
X55642857Y-82554819D01*
X55642857Y-82554819D02*
X55547619Y-82554819D01*
X55547619Y-82554819D02*
X55404762Y-82507200D01*
X55404762Y-82507200D02*
X55309524Y-82411961D01*
X55309524Y-82411961D02*
X55261905Y-82316723D01*
X55261905Y-82316723D02*
X55214286Y-82126247D01*
X55214286Y-82126247D02*
X55214286Y-81983390D01*
X55214286Y-81983390D02*
X55261905Y-81792914D01*
X55261905Y-81792914D02*
X55309524Y-81697676D01*
X55309524Y-81697676D02*
X55404762Y-81602438D01*
X55404762Y-81602438D02*
X55547619Y-81554819D01*
X55547619Y-81554819D02*
X55642857Y-81554819D01*
X55642857Y-81554819D02*
X55785714Y-81602438D01*
X55785714Y-81602438D02*
X55833333Y-81650057D01*
X56214286Y-81650057D02*
X56261905Y-81602438D01*
X56261905Y-81602438D02*
X56357143Y-81554819D01*
X56357143Y-81554819D02*
X56595238Y-81554819D01*
X56595238Y-81554819D02*
X56690476Y-81602438D01*
X56690476Y-81602438D02*
X56738095Y-81650057D01*
X56738095Y-81650057D02*
X56785714Y-81745295D01*
X56785714Y-81745295D02*
X56785714Y-81840533D01*
X56785714Y-81840533D02*
X56738095Y-81983390D01*
X56738095Y-81983390D02*
X56166667Y-82554819D01*
X56166667Y-82554819D02*
X56785714Y-82554819D01*
X71225460Y-89526230D02*
X71225460Y-90240515D01*
X71225460Y-90240515D02*
X71177841Y-90383372D01*
X71177841Y-90383372D02*
X71082603Y-90478611D01*
X71082603Y-90478611D02*
X70939746Y-90526230D01*
X70939746Y-90526230D02*
X70844508Y-90526230D01*
X71654032Y-89621468D02*
X71701651Y-89573849D01*
X71701651Y-89573849D02*
X71796889Y-89526230D01*
X71796889Y-89526230D02*
X72034984Y-89526230D01*
X72034984Y-89526230D02*
X72130222Y-89573849D01*
X72130222Y-89573849D02*
X72177841Y-89621468D01*
X72177841Y-89621468D02*
X72225460Y-89716706D01*
X72225460Y-89716706D02*
X72225460Y-89811944D01*
X72225460Y-89811944D02*
X72177841Y-89954801D01*
X72177841Y-89954801D02*
X71606413Y-90526230D01*
X71606413Y-90526230D02*
X72225460Y-90526230D01*
X61598095Y-73114819D02*
X61598095Y-73924342D01*
X61598095Y-73924342D02*
X61645714Y-74019580D01*
X61645714Y-74019580D02*
X61693333Y-74067200D01*
X61693333Y-74067200D02*
X61788571Y-74114819D01*
X61788571Y-74114819D02*
X61979047Y-74114819D01*
X61979047Y-74114819D02*
X62074285Y-74067200D01*
X62074285Y-74067200D02*
X62121904Y-74019580D01*
X62121904Y-74019580D02*
X62169523Y-73924342D01*
X62169523Y-73924342D02*
X62169523Y-73114819D01*
X62550476Y-73114819D02*
X63169523Y-73114819D01*
X63169523Y-73114819D02*
X62836190Y-73495771D01*
X62836190Y-73495771D02*
X62979047Y-73495771D01*
X62979047Y-73495771D02*
X63074285Y-73543390D01*
X63074285Y-73543390D02*
X63121904Y-73591009D01*
X63121904Y-73591009D02*
X63169523Y-73686247D01*
X63169523Y-73686247D02*
X63169523Y-73924342D01*
X63169523Y-73924342D02*
X63121904Y-74019580D01*
X63121904Y-74019580D02*
X63074285Y-74067200D01*
X63074285Y-74067200D02*
X62979047Y-74114819D01*
X62979047Y-74114819D02*
X62693333Y-74114819D01*
X62693333Y-74114819D02*
X62598095Y-74067200D01*
X62598095Y-74067200D02*
X62550476Y-74019580D01*
X90878766Y-31365919D02*
X90878766Y-32080204D01*
X90878766Y-32080204D02*
X90831147Y-32223061D01*
X90831147Y-32223061D02*
X90735909Y-32318300D01*
X90735909Y-32318300D02*
X90593052Y-32365919D01*
X90593052Y-32365919D02*
X90497814Y-32365919D01*
X91783528Y-31365919D02*
X91593052Y-31365919D01*
X91593052Y-31365919D02*
X91497814Y-31413538D01*
X91497814Y-31413538D02*
X91450195Y-31461157D01*
X91450195Y-31461157D02*
X91354957Y-31604014D01*
X91354957Y-31604014D02*
X91307338Y-31794490D01*
X91307338Y-31794490D02*
X91307338Y-32175442D01*
X91307338Y-32175442D02*
X91354957Y-32270680D01*
X91354957Y-32270680D02*
X91402576Y-32318300D01*
X91402576Y-32318300D02*
X91497814Y-32365919D01*
X91497814Y-32365919D02*
X91688290Y-32365919D01*
X91688290Y-32365919D02*
X91783528Y-32318300D01*
X91783528Y-32318300D02*
X91831147Y-32270680D01*
X91831147Y-32270680D02*
X91878766Y-32175442D01*
X91878766Y-32175442D02*
X91878766Y-31937347D01*
X91878766Y-31937347D02*
X91831147Y-31842109D01*
X91831147Y-31842109D02*
X91783528Y-31794490D01*
X91783528Y-31794490D02*
X91688290Y-31746871D01*
X91688290Y-31746871D02*
X91497814Y-31746871D01*
X91497814Y-31746871D02*
X91402576Y-31794490D01*
X91402576Y-31794490D02*
X91354957Y-31842109D01*
X91354957Y-31842109D02*
X91307338Y-31937347D01*
X51798095Y-76454819D02*
X51798095Y-77264342D01*
X51798095Y-77264342D02*
X51845714Y-77359580D01*
X51845714Y-77359580D02*
X51893333Y-77407200D01*
X51893333Y-77407200D02*
X51988571Y-77454819D01*
X51988571Y-77454819D02*
X52179047Y-77454819D01*
X52179047Y-77454819D02*
X52274285Y-77407200D01*
X52274285Y-77407200D02*
X52321904Y-77359580D01*
X52321904Y-77359580D02*
X52369523Y-77264342D01*
X52369523Y-77264342D02*
X52369523Y-76454819D01*
X52798095Y-76550057D02*
X52845714Y-76502438D01*
X52845714Y-76502438D02*
X52940952Y-76454819D01*
X52940952Y-76454819D02*
X53179047Y-76454819D01*
X53179047Y-76454819D02*
X53274285Y-76502438D01*
X53274285Y-76502438D02*
X53321904Y-76550057D01*
X53321904Y-76550057D02*
X53369523Y-76645295D01*
X53369523Y-76645295D02*
X53369523Y-76740533D01*
X53369523Y-76740533D02*
X53321904Y-76883390D01*
X53321904Y-76883390D02*
X52750476Y-77454819D01*
X52750476Y-77454819D02*
X53369523Y-77454819D01*
X49042319Y-38166666D02*
X48566128Y-38499999D01*
X49042319Y-38738094D02*
X48042319Y-38738094D01*
X48042319Y-38738094D02*
X48042319Y-38357142D01*
X48042319Y-38357142D02*
X48089938Y-38261904D01*
X48089938Y-38261904D02*
X48137557Y-38214285D01*
X48137557Y-38214285D02*
X48232795Y-38166666D01*
X48232795Y-38166666D02*
X48375652Y-38166666D01*
X48375652Y-38166666D02*
X48470890Y-38214285D01*
X48470890Y-38214285D02*
X48518509Y-38261904D01*
X48518509Y-38261904D02*
X48566128Y-38357142D01*
X48566128Y-38357142D02*
X48566128Y-38738094D01*
X49042319Y-37214285D02*
X49042319Y-37785713D01*
X49042319Y-37499999D02*
X48042319Y-37499999D01*
X48042319Y-37499999D02*
X48185176Y-37595237D01*
X48185176Y-37595237D02*
X48280414Y-37690475D01*
X48280414Y-37690475D02*
X48328033Y-37785713D01*
X63359580Y-34642857D02*
X63407200Y-34690476D01*
X63407200Y-34690476D02*
X63454819Y-34833333D01*
X63454819Y-34833333D02*
X63454819Y-34928571D01*
X63454819Y-34928571D02*
X63407200Y-35071428D01*
X63407200Y-35071428D02*
X63311961Y-35166666D01*
X63311961Y-35166666D02*
X63216723Y-35214285D01*
X63216723Y-35214285D02*
X63026247Y-35261904D01*
X63026247Y-35261904D02*
X62883390Y-35261904D01*
X62883390Y-35261904D02*
X62692914Y-35214285D01*
X62692914Y-35214285D02*
X62597676Y-35166666D01*
X62597676Y-35166666D02*
X62502438Y-35071428D01*
X62502438Y-35071428D02*
X62454819Y-34928571D01*
X62454819Y-34928571D02*
X62454819Y-34833333D01*
X62454819Y-34833333D02*
X62502438Y-34690476D01*
X62502438Y-34690476D02*
X62550057Y-34642857D01*
X63454819Y-33690476D02*
X63454819Y-34261904D01*
X63454819Y-33976190D02*
X62454819Y-33976190D01*
X62454819Y-33976190D02*
X62597676Y-34071428D01*
X62597676Y-34071428D02*
X62692914Y-34166666D01*
X62692914Y-34166666D02*
X62740533Y-34261904D01*
X62550057Y-33309523D02*
X62502438Y-33261904D01*
X62502438Y-33261904D02*
X62454819Y-33166666D01*
X62454819Y-33166666D02*
X62454819Y-32928571D01*
X62454819Y-32928571D02*
X62502438Y-32833333D01*
X62502438Y-32833333D02*
X62550057Y-32785714D01*
X62550057Y-32785714D02*
X62645295Y-32738095D01*
X62645295Y-32738095D02*
X62740533Y-32738095D01*
X62740533Y-32738095D02*
X62883390Y-32785714D01*
X62883390Y-32785714D02*
X63454819Y-33357142D01*
X63454819Y-33357142D02*
X63454819Y-32738095D01*
X69910133Y-75482889D02*
X69576800Y-75006698D01*
X69338705Y-75482889D02*
X69338705Y-74482889D01*
X69338705Y-74482889D02*
X69719657Y-74482889D01*
X69719657Y-74482889D02*
X69814895Y-74530508D01*
X69814895Y-74530508D02*
X69862514Y-74578127D01*
X69862514Y-74578127D02*
X69910133Y-74673365D01*
X69910133Y-74673365D02*
X69910133Y-74816222D01*
X69910133Y-74816222D02*
X69862514Y-74911460D01*
X69862514Y-74911460D02*
X69814895Y-74959079D01*
X69814895Y-74959079D02*
X69719657Y-75006698D01*
X69719657Y-75006698D02*
X69338705Y-75006698D01*
X70243467Y-74482889D02*
X70862514Y-74482889D01*
X70862514Y-74482889D02*
X70529181Y-74863841D01*
X70529181Y-74863841D02*
X70672038Y-74863841D01*
X70672038Y-74863841D02*
X70767276Y-74911460D01*
X70767276Y-74911460D02*
X70814895Y-74959079D01*
X70814895Y-74959079D02*
X70862514Y-75054317D01*
X70862514Y-75054317D02*
X70862514Y-75292412D01*
X70862514Y-75292412D02*
X70814895Y-75387650D01*
X70814895Y-75387650D02*
X70767276Y-75435270D01*
X70767276Y-75435270D02*
X70672038Y-75482889D01*
X70672038Y-75482889D02*
X70386324Y-75482889D01*
X70386324Y-75482889D02*
X70291086Y-75435270D01*
X70291086Y-75435270D02*
X70243467Y-75387650D01*
X57357142Y-73859580D02*
X57309523Y-73907200D01*
X57309523Y-73907200D02*
X57166666Y-73954819D01*
X57166666Y-73954819D02*
X57071428Y-73954819D01*
X57071428Y-73954819D02*
X56928571Y-73907200D01*
X56928571Y-73907200D02*
X56833333Y-73811961D01*
X56833333Y-73811961D02*
X56785714Y-73716723D01*
X56785714Y-73716723D02*
X56738095Y-73526247D01*
X56738095Y-73526247D02*
X56738095Y-73383390D01*
X56738095Y-73383390D02*
X56785714Y-73192914D01*
X56785714Y-73192914D02*
X56833333Y-73097676D01*
X56833333Y-73097676D02*
X56928571Y-73002438D01*
X56928571Y-73002438D02*
X57071428Y-72954819D01*
X57071428Y-72954819D02*
X57166666Y-72954819D01*
X57166666Y-72954819D02*
X57309523Y-73002438D01*
X57309523Y-73002438D02*
X57357142Y-73050057D01*
X58309523Y-73954819D02*
X57738095Y-73954819D01*
X58023809Y-73954819D02*
X58023809Y-72954819D01*
X58023809Y-72954819D02*
X57928571Y-73097676D01*
X57928571Y-73097676D02*
X57833333Y-73192914D01*
X57833333Y-73192914D02*
X57738095Y-73240533D01*
X58642857Y-72954819D02*
X59261904Y-72954819D01*
X59261904Y-72954819D02*
X58928571Y-73335771D01*
X58928571Y-73335771D02*
X59071428Y-73335771D01*
X59071428Y-73335771D02*
X59166666Y-73383390D01*
X59166666Y-73383390D02*
X59214285Y-73431009D01*
X59214285Y-73431009D02*
X59261904Y-73526247D01*
X59261904Y-73526247D02*
X59261904Y-73764342D01*
X59261904Y-73764342D02*
X59214285Y-73859580D01*
X59214285Y-73859580D02*
X59166666Y-73907200D01*
X59166666Y-73907200D02*
X59071428Y-73954819D01*
X59071428Y-73954819D02*
X58785714Y-73954819D01*
X58785714Y-73954819D02*
X58690476Y-73907200D01*
X58690476Y-73907200D02*
X58642857Y-73859580D01*
X78097142Y-89259580D02*
X78049523Y-89307200D01*
X78049523Y-89307200D02*
X77906666Y-89354819D01*
X77906666Y-89354819D02*
X77811428Y-89354819D01*
X77811428Y-89354819D02*
X77668571Y-89307200D01*
X77668571Y-89307200D02*
X77573333Y-89211961D01*
X77573333Y-89211961D02*
X77525714Y-89116723D01*
X77525714Y-89116723D02*
X77478095Y-88926247D01*
X77478095Y-88926247D02*
X77478095Y-88783390D01*
X77478095Y-88783390D02*
X77525714Y-88592914D01*
X77525714Y-88592914D02*
X77573333Y-88497676D01*
X77573333Y-88497676D02*
X77668571Y-88402438D01*
X77668571Y-88402438D02*
X77811428Y-88354819D01*
X77811428Y-88354819D02*
X77906666Y-88354819D01*
X77906666Y-88354819D02*
X78049523Y-88402438D01*
X78049523Y-88402438D02*
X78097142Y-88450057D01*
X79049523Y-89354819D02*
X78478095Y-89354819D01*
X78763809Y-89354819D02*
X78763809Y-88354819D01*
X78763809Y-88354819D02*
X78668571Y-88497676D01*
X78668571Y-88497676D02*
X78573333Y-88592914D01*
X78573333Y-88592914D02*
X78478095Y-88640533D01*
X79906666Y-88688152D02*
X79906666Y-89354819D01*
X79668571Y-88307200D02*
X79430476Y-89021485D01*
X79430476Y-89021485D02*
X80049523Y-89021485D01*
D11*
%TO.C,R2*%
X45860436Y-45765000D02*
X46314564Y-45765000D01*
X45860436Y-47235000D02*
X46314564Y-47235000D01*
%TO.C,C6*%
X58265000Y-79238748D02*
X58265000Y-79761252D01*
X59735000Y-79238748D02*
X59735000Y-79761252D01*
%TO.C,U1*%
X55710000Y-71570000D02*
X55710000Y-70620000D01*
X57110000Y-71570000D02*
X55710000Y-71570000D01*
X72710000Y-71570000D02*
X74110000Y-71570000D01*
X74110000Y-71570000D02*
X74110000Y-70620000D01*
X55710000Y-52620000D02*
X55210000Y-52620000D01*
X55710000Y-52120000D01*
X55710000Y-52620000D01*
G36*
X55710000Y-52620000D02*
G01*
X55210000Y-52620000D01*
X55710000Y-52120000D01*
X55710000Y-52620000D01*
G37*
%TO.C,R9*%
X46314564Y-54265000D02*
X45860436Y-54265000D01*
X46314564Y-55735000D02*
X45860436Y-55735000D01*
%TO.C,C11*%
X75265000Y-37188748D02*
X75265000Y-37711252D01*
X76735000Y-37188748D02*
X76735000Y-37711252D01*
%TO.C,C1*%
X48265000Y-79811252D02*
X48265000Y-79288748D01*
X49735000Y-79811252D02*
X49735000Y-79288748D01*
%TO.C,C2*%
X55265000Y-79288748D02*
X55265000Y-79811252D01*
X56735000Y-79288748D02*
X56735000Y-79811252D01*
%TO.C,J2*%
X63980000Y-83108000D02*
X63980000Y-90928000D01*
X63980000Y-84708000D02*
X64900000Y-84708000D01*
X63980000Y-90928000D02*
X70100000Y-90928000D01*
X64740000Y-87068000D02*
X64740000Y-88668000D01*
X64740000Y-88668000D02*
X65740000Y-88668000D01*
X64900000Y-83108000D02*
X63980000Y-83108000D01*
X64900000Y-84708000D02*
X64900000Y-83108000D01*
X65180000Y-84708000D02*
X64900000Y-84708000D01*
X65180000Y-84708000D02*
X65180000Y-83493000D01*
X65240000Y-88668000D02*
X65240000Y-90928000D01*
X65740000Y-87068000D02*
X64740000Y-87068000D01*
X65740000Y-88668000D02*
X65740000Y-87068000D01*
X65740000Y-88668000D02*
X65740000Y-90928000D01*
X66540000Y-86568000D02*
X67540000Y-86568000D01*
X66540000Y-90928000D02*
X66540000Y-86568000D01*
X67540000Y-86568000D02*
X67540000Y-90928000D01*
X68340000Y-87068000D02*
X69340000Y-87068000D01*
X68340000Y-88668000D02*
X68340000Y-87068000D01*
X69180000Y-83108000D02*
X69180000Y-84708000D01*
X69180000Y-84708000D02*
X68900000Y-84708000D01*
X69340000Y-87068000D02*
X69340000Y-88668000D01*
X69340000Y-88668000D02*
X68340000Y-88668000D01*
X70100000Y-83108000D02*
X69180000Y-83108000D01*
X70100000Y-84708000D02*
X69180000Y-84708000D01*
X70100000Y-90928000D02*
X70100000Y-83108000D01*
%TO.C,U3*%
X64200000Y-74840000D02*
X62250000Y-74840000D01*
X64200000Y-74840000D02*
X66150000Y-74840000D01*
X64200000Y-79960000D02*
X62250000Y-79960000D01*
X64200000Y-79960000D02*
X66150000Y-79960000D01*
X67140000Y-80195000D02*
X66660000Y-80195000D01*
X66900000Y-79865000D01*
X67140000Y-80195000D01*
G36*
X67140000Y-80195000D02*
G01*
X66660000Y-80195000D01*
X66900000Y-79865000D01*
X67140000Y-80195000D01*
G37*
%TO.C,J6*%
X89882100Y-35951100D02*
X89882100Y-53791100D01*
X89882100Y-35951100D02*
X92542100Y-35951100D01*
X89882100Y-53791100D02*
X92542100Y-53791100D01*
X91212100Y-33351100D02*
X92542100Y-33351100D01*
X92542100Y-33351100D02*
X92542100Y-34681100D01*
X92542100Y-35951100D02*
X92542100Y-53791100D01*
%TO.C,U2*%
X50990000Y-79862500D02*
X50990000Y-79062500D01*
X50990000Y-79862500D02*
X50990000Y-80662500D01*
X54110000Y-79862500D02*
X54110000Y-79062500D01*
X54110000Y-79862500D02*
X54110000Y-80662500D01*
X51040000Y-81162500D02*
X50710000Y-81402500D01*
X50710000Y-80922500D01*
X51040000Y-81162500D01*
G36*
X51040000Y-81162500D02*
G01*
X50710000Y-81402500D01*
X50710000Y-80922500D01*
X51040000Y-81162500D01*
G37*
%TO.C,R1*%
X46314564Y-37265000D02*
X45860436Y-37265000D01*
X46314564Y-38735000D02*
X45860436Y-38735000D01*
%TO.C,C12*%
X62265000Y-37188748D02*
X62265000Y-37711252D01*
X63735000Y-37188748D02*
X63735000Y-37711252D01*
%TO.C,R3*%
X69341800Y-77600436D02*
X69341800Y-78054564D01*
X70811800Y-77600436D02*
X70811800Y-78054564D01*
%TO.C,C13*%
X58261252Y-74765000D02*
X57738748Y-74765000D01*
X58261252Y-76235000D02*
X57738748Y-76235000D01*
%TO.C,C14*%
X82491252Y-88165000D02*
X81968748Y-88165000D01*
X82491252Y-89635000D02*
X81968748Y-89635000D01*
%TD*%
M02*
