%TF.GenerationSoftware,KiCad,Pcbnew,9.0.1*%
%TF.CreationDate,2025-11-13T22:26:36+01:00*%
%TF.ProjectId,dise_o_v2,64697365-f16f-45f7-9632-2e6b69636164,rev?*%
%TF.SameCoordinates,Original*%
%TF.FileFunction,Soldermask,Bot*%
%TF.FilePolarity,Negative*%
%FSLAX46Y46*%
G04 Gerber Fmt 4.6, Leading zero omitted, Abs format (unit mm)*
G04 Created by KiCad (PCBNEW 9.0.1) date 2025-11-13 22:26:36*
%MOMM*%
%LPD*%
G01*
G04 APERTURE LIST*
G04 Aperture macros list*
%AMRoundRect*
0 Rectangle with rounded corners*
0 $1 Rounding radius*
0 $2 $3 $4 $5 $6 $7 $8 $9 X,Y pos of 4 corners*
0 Add a 4 corners polygon primitive as box body*
4,1,4,$2,$3,$4,$5,$6,$7,$8,$9,$2,$3,0*
0 Add four circle primitives for the rounded corners*
1,1,$1+$1,$2,$3*
1,1,$1+$1,$4,$5*
1,1,$1+$1,$6,$7*
1,1,$1+$1,$8,$9*
0 Add four rect primitives between the rounded corners*
20,1,$1+$1,$2,$3,$4,$5,0*
20,1,$1+$1,$4,$5,$6,$7,0*
20,1,$1+$1,$6,$7,$8,$9,0*
20,1,$1+$1,$8,$9,$2,$3,0*%
%AMFreePoly0*
4,1,9,0.800000,0.650000,0.550000,0.400000,0.550000,0.000000,1.050000,-0.350000,1.050000,-0.800000,-1.050000,-0.800000,-1.050000,0.800000,0.800000,0.800000,0.800000,0.650000,0.800000,0.650000,$1*%
%AMFreePoly1*
4,1,9,1.050000,-0.800000,-1.050000,-0.800000,-1.050000,-0.350000,-0.550000,0.000000,-0.550000,0.400000,-0.800000,0.650000,-0.800000,0.800000,1.050000,0.800000,1.050000,-0.800000,1.050000,-0.800000,$1*%
G04 Aperture macros list end*
%ADD10C,5.600000*%
%ADD11C,0.600000*%
%ADD12RoundRect,0.250000X-0.350000X-0.625000X0.350000X-0.625000X0.350000X0.625000X-0.350000X0.625000X0*%
%ADD13O,1.200000X1.750000*%
%ADD14R,1.700000X1.700000*%
%ADD15C,1.700000*%
%ADD16R,0.400000X1.350000*%
%ADD17FreePoly0,180.000000*%
%ADD18O,1.000000X1.700000*%
%ADD19R,1.900000X1.900000*%
%ADD20O,0.850000X1.700000*%
%ADD21FreePoly1,180.000000*%
%ADD22R,1.800000X1.800000*%
%ADD23C,1.800000*%
%ADD24RoundRect,0.250000X0.475000X-0.250000X0.475000X0.250000X-0.475000X0.250000X-0.475000X-0.250000X0*%
%ADD25RoundRect,0.102000X0.754000X0.754000X-0.754000X0.754000X-0.754000X-0.754000X0.754000X-0.754000X0*%
%ADD26C,1.712000*%
%ADD27RoundRect,0.250000X-0.475000X0.250000X-0.475000X-0.250000X0.475000X-0.250000X0.475000X0.250000X0*%
%ADD28RoundRect,0.250000X0.262500X0.450000X-0.262500X0.450000X-0.262500X-0.450000X0.262500X-0.450000X0*%
%ADD29RoundRect,0.250000X0.450000X-0.262500X0.450000X0.262500X-0.450000X0.262500X-0.450000X-0.262500X0*%
%ADD30RoundRect,0.250000X0.250000X0.475000X-0.250000X0.475000X-0.250000X-0.475000X0.250000X-0.475000X0*%
%ADD31C,2.704000*%
%ADD32RoundRect,0.102000X1.250000X-1.250000X1.250000X1.250000X-1.250000X1.250000X-1.250000X-1.250000X0*%
%ADD33RoundRect,0.075000X0.350000X0.075000X-0.350000X0.075000X-0.350000X-0.075000X0.350000X-0.075000X0*%
%ADD34RoundRect,0.075000X0.075000X-0.350000X0.075000X0.350000X-0.075000X0.350000X-0.075000X-0.350000X0*%
%ADD35RoundRect,0.102000X-0.654000X-0.654000X0.654000X-0.654000X0.654000X0.654000X-0.654000X0.654000X0*%
%ADD36C,1.512000*%
%ADD37RoundRect,0.250000X-0.450000X0.262500X-0.450000X-0.262500X0.450000X-0.262500X0.450000X0.262500X0*%
%ADD38RoundRect,0.102000X-0.599000X-0.599000X0.599000X-0.599000X0.599000X0.599000X-0.599000X0.599000X0*%
%ADD39C,1.402000*%
G04 APERTURE END LIST*
D10*
%TO.C,REF\u002A\u002A*%
X47331758Y-87678711D03*
%TD*%
D11*
%TO.C,U1*%
X62010000Y-60380000D03*
X62010000Y-61780000D03*
X62710000Y-59680000D03*
X62710000Y-61080000D03*
X62710000Y-62480000D03*
X63410000Y-60380000D03*
X63410000Y-61780000D03*
X64110000Y-59680000D03*
X64110000Y-61080000D03*
X64110000Y-62480000D03*
X64810000Y-60380000D03*
X64810000Y-61780000D03*
%TD*%
D12*
%TO.C,J2*%
X66040000Y-84568000D03*
D13*
X68040000Y-84568000D03*
%TD*%
D10*
%TO.C,REF\u002A\u002A*%
X83917682Y-34436394D03*
%TD*%
D14*
%TO.C,J6*%
X91212100Y-34681100D03*
D15*
X91212100Y-37221100D03*
X91212100Y-39761100D03*
X91212100Y-42301100D03*
X91212100Y-44841100D03*
X91212100Y-47381100D03*
X91212100Y-49921100D03*
X91212100Y-52461100D03*
%TD*%
D11*
%TO.C,J1*%
X57797299Y-87667066D03*
X53797299Y-87667066D03*
D16*
X57097299Y-87342066D03*
X56447299Y-87342066D03*
X55797299Y-87342066D03*
X55147299Y-87342066D03*
X54497299Y-87342066D03*
D17*
X58897299Y-87467066D03*
D18*
X58622299Y-90017066D03*
D19*
X56997299Y-90017066D03*
X54597299Y-90017066D03*
D20*
X52972299Y-90017066D03*
D21*
X52697299Y-87467066D03*
%TD*%
D22*
%TO.C,D1*%
X48000000Y-51500000D03*
D23*
X45460000Y-51500000D03*
%TD*%
D24*
%TO.C,C3*%
X58500000Y-55000000D03*
X58500000Y-53100000D03*
%TD*%
D14*
%TO.C,J4*%
X90000000Y-78740000D03*
D15*
X90000000Y-81280000D03*
X90000000Y-83820000D03*
X90000000Y-86360000D03*
%TD*%
D24*
%TO.C,C4*%
X61000000Y-55000000D03*
X61000000Y-53100000D03*
%TD*%
D25*
%TO.C,S2*%
X73500000Y-33500000D03*
D26*
X67000000Y-33500000D03*
X73500000Y-38000000D03*
X67000000Y-38000000D03*
%TD*%
D27*
%TO.C,C7*%
X66500000Y-63000000D03*
X66500000Y-64900000D03*
%TD*%
D28*
%TO.C,R4*%
X59996400Y-58236400D03*
X58171400Y-58236400D03*
%TD*%
D29*
%TO.C,R6*%
X60305900Y-62318500D03*
X60305900Y-60493500D03*
%TD*%
D14*
%TO.C,J5*%
X73660000Y-78740000D03*
D15*
X73660000Y-81280000D03*
X73660000Y-83820000D03*
X73660000Y-86360000D03*
%TD*%
D24*
%TO.C,C5*%
X63500000Y-55000000D03*
X63500000Y-53100000D03*
%TD*%
D30*
%TO.C,C10*%
X68000000Y-53500000D03*
X66100000Y-53500000D03*
%TD*%
D22*
%TO.C,D3*%
X45460000Y-43000000D03*
D23*
X48000000Y-43000000D03*
%TD*%
D27*
%TO.C,C8*%
X69000000Y-63050000D03*
X69000000Y-64950000D03*
%TD*%
D31*
%TO.C,LS1*%
X83820000Y-61120000D03*
D32*
X83820000Y-71120000D03*
%TD*%
D29*
%TO.C,R5*%
X58140900Y-62304800D03*
X58140900Y-60479800D03*
%TD*%
D22*
%TO.C,D2*%
X48000000Y-34500000D03*
D23*
X45460000Y-34500000D03*
%TD*%
D33*
%TO.C,U4*%
X71000000Y-57300000D03*
X71000000Y-57800000D03*
X71000000Y-58300000D03*
X71000000Y-58800000D03*
X71000000Y-59300000D03*
X71000000Y-59800000D03*
D34*
X70300000Y-60500000D03*
X69800000Y-60500000D03*
X69300000Y-60500000D03*
X68800000Y-60500000D03*
X68300000Y-60500000D03*
X67800000Y-60500000D03*
D33*
X67100000Y-59800000D03*
X67100000Y-59300000D03*
X67100000Y-58800000D03*
X67100000Y-58300000D03*
X67100000Y-57800000D03*
X67100000Y-57300000D03*
D34*
X67800000Y-56600000D03*
X68300000Y-56600000D03*
X68800000Y-56600000D03*
X69300000Y-56600000D03*
X69800000Y-56600000D03*
X70300000Y-56600000D03*
%TD*%
D14*
%TO.C,J3*%
X46500000Y-73500000D03*
D15*
X46500000Y-70960000D03*
X46500000Y-68420000D03*
X46500000Y-65880000D03*
%TD*%
D27*
%TO.C,C9*%
X71500000Y-63000000D03*
X71500000Y-64900000D03*
%TD*%
D35*
%TO.C,S1*%
X63960000Y-43000000D03*
D36*
X61420000Y-43000000D03*
X66500000Y-43000000D03*
%TD*%
D37*
%TO.C,R7*%
X58203300Y-65703300D03*
X58203300Y-67528300D03*
%TD*%
D25*
%TO.C,S3*%
X60500000Y-33500000D03*
D26*
X54000000Y-33500000D03*
X60500000Y-38000000D03*
X54000000Y-38000000D03*
%TD*%
D38*
%TO.C,U5*%
X79420000Y-81613700D03*
D39*
X81960000Y-79073700D03*
X84500000Y-81613700D03*
X81960000Y-84153700D03*
%TD*%
M02*
