M48
; DRILL file {KiCad 9.0.1} date 2025-11-13T22:26:39+0100
; FORMAT={-:-/ absolute / inch / decimal}
; #@! TF.CreationDate,2025-11-13T22:26:39+01:00
; #@! TF.GenerationSoftware,Kicad,Pcbnew,9.0.1
; #@! TF.FileFunction,Plated,1,2,PTH
FMAT,2
INCH
; #@! TA.AperFunction,Plated,PTH,ComponentDrill
T1C0.0079
; #@! TA.AperFunction,Plated,PTH,ViaDrill
T2C0.0157
; #@! TA.AperFunction,Plated,PTH,ComponentDrill
T3C0.0197
; #@! TA.AperFunction,Plated,PTH,ComponentDrill
T4C0.0272
; #@! TA.AperFunction,Plated,PTH,ComponentDrill
T5C0.0295
; #@! TA.AperFunction,Plated,PTH,ComponentDrill
T6C0.0315
; #@! TA.AperFunction,Plated,PTH,ComponentDrill
T7C0.0354
; #@! TA.AperFunction,Plated,PTH,ComponentDrill
T8C0.0394
; #@! TA.AperFunction,Plated,PTH,ComponentDrill
T9C0.1260
%
G90
G05
T1
X2.4413Y-2.3772
X2.4413Y-2.4323
X2.4689Y-2.3496
X2.4689Y-2.4047
X2.4689Y-2.4598
X2.4965Y-2.3772
X2.4965Y-2.4323
X2.5Y-3.0
X2.5Y-3.0472
X2.5Y-3.0945
X2.524Y-2.3496
X2.524Y-2.4047
X2.524Y-2.4598
X2.5516Y-2.3772
X2.5516Y-2.4323
X2.5551Y-3.0
X2.5551Y-3.0472
X2.5551Y-3.0945
T2
X1.7174Y-1.8732
X1.7704Y-2.6373
X1.912Y-2.725
X2.0351Y-2.4575
X2.1449Y-2.4109
X2.1907Y-3.3046
X2.2566Y-2.0276
X2.2667Y-2.7347
X2.275Y-2.5118
X2.2767Y-2.2151
X2.3661Y-2.99
X2.397Y-2.6344
X2.4213Y-3.2677
X2.5693Y-2.2638
X2.5709Y-2.1759
X2.58Y-2.2235
X2.5852Y-1.6122
X2.6483Y-1.8732
X2.6806Y-2.0554
X2.689Y-2.4399
X3.1432Y-2.4448
X3.6298Y-2.3246
T4
X3.1268Y-3.2131
X3.2268Y-3.1131
X3.2268Y-3.3131
X3.3268Y-3.2131
T5
X2.6Y-3.3294
X2.6787Y-3.3294
T6
X2.4181Y-1.6929
X2.5181Y-1.6929
X2.6181Y-1.6929
X3.3Y-2.4063
X3.3Y-2.8
T7
X1.7898Y-1.3583
X1.7898Y-1.6929
X1.7898Y-2.0276
X1.8898Y-1.3583
X1.8898Y-1.6929
X1.8898Y-2.0276
T8
X1.8307Y-2.5937
X1.8307Y-2.6937
X1.8307Y-2.7937
X1.8307Y-2.8937
X2.126Y-1.3189
X2.126Y-1.4961
X2.3819Y-1.3189
X2.3819Y-1.4961
X2.6378Y-1.3189
X2.6378Y-1.4961
X2.8937Y-1.3189
X2.8937Y-1.4961
X2.9Y-3.1
X2.9Y-3.2
X2.9Y-3.3
X2.9Y-3.4
X3.5433Y-3.1
X3.5433Y-3.2
X3.5433Y-3.3
X3.5433Y-3.4
X3.591Y-1.3654
X3.591Y-1.4654
X3.591Y-1.5654
X3.591Y-1.6654
X3.591Y-1.7654
X3.591Y-1.8654
X3.591Y-1.9654
X3.591Y-2.0654
T9
X1.8635Y-3.4519
X3.3038Y-1.3558
T3
G00X2.0855Y-3.5578
M15
G01X2.0855Y-3.5302
M16
G05
G00X2.308Y-3.5578
M15
G01X2.308Y-3.5302
M16
G05
M30
