%TF.GenerationSoftware,KiCad,Pcbnew,9.0.1*%
%TF.CreationDate,2025-11-13T22:26:39+01:00*%
%TF.ProjectId,dise_o_v2,64697365-f16f-45f7-9632-2e6b69636164,rev?*%
%TF.SameCoordinates,Original*%
%TF.FileFunction,Drillmap*%
%TF.FilePolarity,Positive*%
%FSLAX45Y45*%
G04 Gerber Fmt 4.5, Leading zero omitted, Abs format (unit mm)*
G04 Created by KiCad (PCBNEW 9.0.1) date 2025-11-13 22:26:39*
%MOMM*%
%LPD*%
G01*
G04 APERTURE LIST*
%ADD10C,0.050000*%
%ADD11C,0.200000*%
%ADD12C,0.100000*%
G04 APERTURE END LIST*
D10*
X4298000Y-3048000D02*
X9304043Y-3048000D01*
X9304043Y-9143451D01*
X4298000Y-9143451D01*
X4298000Y-3048000D01*
D11*
D12*
X5349730Y-8736707D02*
X5409730Y-8796707D01*
X5409730Y-8736707D02*
X5349730Y-8796707D01*
X5749730Y-8736707D02*
X5809730Y-8796707D01*
X5809730Y-8736707D02*
X5749730Y-8796707D01*
D11*
X4556277Y-9457435D02*
X4556277Y-9257435D01*
X4556277Y-9257435D02*
X4603896Y-9257435D01*
X4603896Y-9257435D02*
X4632467Y-9266959D01*
X4632467Y-9266959D02*
X4651515Y-9286006D01*
X4651515Y-9286006D02*
X4661039Y-9305054D01*
X4661039Y-9305054D02*
X4670563Y-9343149D01*
X4670563Y-9343149D02*
X4670563Y-9371720D01*
X4670563Y-9371720D02*
X4661039Y-9409816D01*
X4661039Y-9409816D02*
X4651515Y-9428863D01*
X4651515Y-9428863D02*
X4632467Y-9447911D01*
X4632467Y-9447911D02*
X4603896Y-9457435D01*
X4603896Y-9457435D02*
X4556277Y-9457435D01*
X4756277Y-9457435D02*
X4756277Y-9324101D01*
X4756277Y-9362197D02*
X4765801Y-9343149D01*
X4765801Y-9343149D02*
X4775324Y-9333625D01*
X4775324Y-9333625D02*
X4794372Y-9324101D01*
X4794372Y-9324101D02*
X4813420Y-9324101D01*
X4880086Y-9457435D02*
X4880086Y-9324101D01*
X4880086Y-9257435D02*
X4870563Y-9266959D01*
X4870563Y-9266959D02*
X4880086Y-9276482D01*
X4880086Y-9276482D02*
X4889610Y-9266959D01*
X4889610Y-9266959D02*
X4880086Y-9257435D01*
X4880086Y-9257435D02*
X4880086Y-9276482D01*
X5003896Y-9457435D02*
X4984848Y-9447911D01*
X4984848Y-9447911D02*
X4975324Y-9428863D01*
X4975324Y-9428863D02*
X4975324Y-9257435D01*
X5108658Y-9457435D02*
X5089610Y-9447911D01*
X5089610Y-9447911D02*
X5080086Y-9428863D01*
X5080086Y-9428863D02*
X5080086Y-9257435D01*
X5337229Y-9457435D02*
X5337229Y-9257435D01*
X5337229Y-9257435D02*
X5403896Y-9400292D01*
X5403896Y-9400292D02*
X5470563Y-9257435D01*
X5470563Y-9257435D02*
X5470563Y-9457435D01*
X5651515Y-9457435D02*
X5651515Y-9352673D01*
X5651515Y-9352673D02*
X5641991Y-9333625D01*
X5641991Y-9333625D02*
X5622943Y-9324101D01*
X5622943Y-9324101D02*
X5584848Y-9324101D01*
X5584848Y-9324101D02*
X5565801Y-9333625D01*
X5651515Y-9447911D02*
X5632467Y-9457435D01*
X5632467Y-9457435D02*
X5584848Y-9457435D01*
X5584848Y-9457435D02*
X5565801Y-9447911D01*
X5565801Y-9447911D02*
X5556277Y-9428863D01*
X5556277Y-9428863D02*
X5556277Y-9409816D01*
X5556277Y-9409816D02*
X5565801Y-9390768D01*
X5565801Y-9390768D02*
X5584848Y-9381244D01*
X5584848Y-9381244D02*
X5632467Y-9381244D01*
X5632467Y-9381244D02*
X5651515Y-9371720D01*
X5746753Y-9324101D02*
X5746753Y-9524101D01*
X5746753Y-9333625D02*
X5765801Y-9324101D01*
X5765801Y-9324101D02*
X5803896Y-9324101D01*
X5803896Y-9324101D02*
X5822943Y-9333625D01*
X5822943Y-9333625D02*
X5832467Y-9343149D01*
X5832467Y-9343149D02*
X5841991Y-9362197D01*
X5841991Y-9362197D02*
X5841991Y-9419339D01*
X5841991Y-9419339D02*
X5832467Y-9438387D01*
X5832467Y-9438387D02*
X5822943Y-9447911D01*
X5822943Y-9447911D02*
X5803896Y-9457435D01*
X5803896Y-9457435D02*
X5765801Y-9457435D01*
X5765801Y-9457435D02*
X5746753Y-9447911D01*
X5927705Y-9438387D02*
X5937229Y-9447911D01*
X5937229Y-9447911D02*
X5927705Y-9457435D01*
X5927705Y-9457435D02*
X5918182Y-9447911D01*
X5918182Y-9447911D02*
X5927705Y-9438387D01*
X5927705Y-9438387D02*
X5927705Y-9457435D01*
X5927705Y-9333625D02*
X5937229Y-9343149D01*
X5937229Y-9343149D02*
X5927705Y-9352673D01*
X5927705Y-9352673D02*
X5918182Y-9343149D01*
X5918182Y-9343149D02*
X5927705Y-9333625D01*
X5927705Y-9333625D02*
X5927705Y-9352673D01*
D12*
X4235500Y-9755951D02*
X4295500Y-9815951D01*
X4295500Y-9755951D02*
X4235500Y-9815951D01*
D11*
X4594372Y-9677435D02*
X4613420Y-9677435D01*
X4613420Y-9677435D02*
X4632467Y-9686959D01*
X4632467Y-9686959D02*
X4641991Y-9696482D01*
X4641991Y-9696482D02*
X4651515Y-9715530D01*
X4651515Y-9715530D02*
X4661039Y-9753625D01*
X4661039Y-9753625D02*
X4661039Y-9801244D01*
X4661039Y-9801244D02*
X4651515Y-9839339D01*
X4651515Y-9839339D02*
X4641991Y-9858387D01*
X4641991Y-9858387D02*
X4632467Y-9867911D01*
X4632467Y-9867911D02*
X4613420Y-9877435D01*
X4613420Y-9877435D02*
X4594372Y-9877435D01*
X4594372Y-9877435D02*
X4575324Y-9867911D01*
X4575324Y-9867911D02*
X4565801Y-9858387D01*
X4565801Y-9858387D02*
X4556277Y-9839339D01*
X4556277Y-9839339D02*
X4546753Y-9801244D01*
X4546753Y-9801244D02*
X4546753Y-9753625D01*
X4546753Y-9753625D02*
X4556277Y-9715530D01*
X4556277Y-9715530D02*
X4565801Y-9696482D01*
X4565801Y-9696482D02*
X4575324Y-9686959D01*
X4575324Y-9686959D02*
X4594372Y-9677435D01*
X4746753Y-9858387D02*
X4756277Y-9867911D01*
X4756277Y-9867911D02*
X4746753Y-9877435D01*
X4746753Y-9877435D02*
X4737229Y-9867911D01*
X4737229Y-9867911D02*
X4746753Y-9858387D01*
X4746753Y-9858387D02*
X4746753Y-9877435D01*
X4927705Y-9677435D02*
X4889610Y-9677435D01*
X4889610Y-9677435D02*
X4870563Y-9686959D01*
X4870563Y-9686959D02*
X4861039Y-9696482D01*
X4861039Y-9696482D02*
X4841991Y-9725054D01*
X4841991Y-9725054D02*
X4832467Y-9763149D01*
X4832467Y-9763149D02*
X4832467Y-9839339D01*
X4832467Y-9839339D02*
X4841991Y-9858387D01*
X4841991Y-9858387D02*
X4851515Y-9867911D01*
X4851515Y-9867911D02*
X4870563Y-9877435D01*
X4870563Y-9877435D02*
X4908658Y-9877435D01*
X4908658Y-9877435D02*
X4927705Y-9867911D01*
X4927705Y-9867911D02*
X4937229Y-9858387D01*
X4937229Y-9858387D02*
X4946753Y-9839339D01*
X4946753Y-9839339D02*
X4946753Y-9791720D01*
X4946753Y-9791720D02*
X4937229Y-9772673D01*
X4937229Y-9772673D02*
X4927705Y-9763149D01*
X4927705Y-9763149D02*
X4908658Y-9753625D01*
X4908658Y-9753625D02*
X4870563Y-9753625D01*
X4870563Y-9753625D02*
X4851515Y-9763149D01*
X4851515Y-9763149D02*
X4841991Y-9772673D01*
X4841991Y-9772673D02*
X4832467Y-9791720D01*
X5070563Y-9677435D02*
X5089610Y-9677435D01*
X5089610Y-9677435D02*
X5108658Y-9686959D01*
X5108658Y-9686959D02*
X5118182Y-9696482D01*
X5118182Y-9696482D02*
X5127705Y-9715530D01*
X5127705Y-9715530D02*
X5137229Y-9753625D01*
X5137229Y-9753625D02*
X5137229Y-9801244D01*
X5137229Y-9801244D02*
X5127705Y-9839339D01*
X5127705Y-9839339D02*
X5118182Y-9858387D01*
X5118182Y-9858387D02*
X5108658Y-9867911D01*
X5108658Y-9867911D02*
X5089610Y-9877435D01*
X5089610Y-9877435D02*
X5070563Y-9877435D01*
X5070563Y-9877435D02*
X5051515Y-9867911D01*
X5051515Y-9867911D02*
X5041991Y-9858387D01*
X5041991Y-9858387D02*
X5032467Y-9839339D01*
X5032467Y-9839339D02*
X5022944Y-9801244D01*
X5022944Y-9801244D02*
X5022944Y-9753625D01*
X5022944Y-9753625D02*
X5032467Y-9715530D01*
X5032467Y-9715530D02*
X5041991Y-9696482D01*
X5041991Y-9696482D02*
X5051515Y-9686959D01*
X5051515Y-9686959D02*
X5070563Y-9677435D01*
X5261039Y-9677435D02*
X5280086Y-9677435D01*
X5280086Y-9677435D02*
X5299134Y-9686959D01*
X5299134Y-9686959D02*
X5308658Y-9696482D01*
X5308658Y-9696482D02*
X5318182Y-9715530D01*
X5318182Y-9715530D02*
X5327705Y-9753625D01*
X5327705Y-9753625D02*
X5327705Y-9801244D01*
X5327705Y-9801244D02*
X5318182Y-9839339D01*
X5318182Y-9839339D02*
X5308658Y-9858387D01*
X5308658Y-9858387D02*
X5299134Y-9867911D01*
X5299134Y-9867911D02*
X5280086Y-9877435D01*
X5280086Y-9877435D02*
X5261039Y-9877435D01*
X5261039Y-9877435D02*
X5241991Y-9867911D01*
X5241991Y-9867911D02*
X5232467Y-9858387D01*
X5232467Y-9858387D02*
X5222944Y-9839339D01*
X5222944Y-9839339D02*
X5213420Y-9801244D01*
X5213420Y-9801244D02*
X5213420Y-9753625D01*
X5213420Y-9753625D02*
X5222944Y-9715530D01*
X5222944Y-9715530D02*
X5232467Y-9696482D01*
X5232467Y-9696482D02*
X5241991Y-9686959D01*
X5241991Y-9686959D02*
X5261039Y-9677435D01*
X5413420Y-9877435D02*
X5413420Y-9744101D01*
X5413420Y-9763149D02*
X5422944Y-9753625D01*
X5422944Y-9753625D02*
X5441991Y-9744101D01*
X5441991Y-9744101D02*
X5470563Y-9744101D01*
X5470563Y-9744101D02*
X5489610Y-9753625D01*
X5489610Y-9753625D02*
X5499134Y-9772673D01*
X5499134Y-9772673D02*
X5499134Y-9877435D01*
X5499134Y-9772673D02*
X5508658Y-9753625D01*
X5508658Y-9753625D02*
X5527705Y-9744101D01*
X5527705Y-9744101D02*
X5556277Y-9744101D01*
X5556277Y-9744101D02*
X5575325Y-9753625D01*
X5575325Y-9753625D02*
X5584848Y-9772673D01*
X5584848Y-9772673D02*
X5584848Y-9877435D01*
X5680086Y-9877435D02*
X5680086Y-9744101D01*
X5680086Y-9763149D02*
X5689610Y-9753625D01*
X5689610Y-9753625D02*
X5708658Y-9744101D01*
X5708658Y-9744101D02*
X5737229Y-9744101D01*
X5737229Y-9744101D02*
X5756277Y-9753625D01*
X5756277Y-9753625D02*
X5765801Y-9772673D01*
X5765801Y-9772673D02*
X5765801Y-9877435D01*
X5765801Y-9772673D02*
X5775324Y-9753625D01*
X5775324Y-9753625D02*
X5794372Y-9744101D01*
X5794372Y-9744101D02*
X5822943Y-9744101D01*
X5822943Y-9744101D02*
X5841991Y-9753625D01*
X5841991Y-9753625D02*
X5851515Y-9772673D01*
X5851515Y-9772673D02*
X5851515Y-9877435D01*
X6241991Y-9667911D02*
X6070563Y-9925054D01*
X6499134Y-9677435D02*
X6518182Y-9677435D01*
X6518182Y-9677435D02*
X6537229Y-9686959D01*
X6537229Y-9686959D02*
X6546753Y-9696482D01*
X6546753Y-9696482D02*
X6556277Y-9715530D01*
X6556277Y-9715530D02*
X6565801Y-9753625D01*
X6565801Y-9753625D02*
X6565801Y-9801244D01*
X6565801Y-9801244D02*
X6556277Y-9839339D01*
X6556277Y-9839339D02*
X6546753Y-9858387D01*
X6546753Y-9858387D02*
X6537229Y-9867911D01*
X6537229Y-9867911D02*
X6518182Y-9877435D01*
X6518182Y-9877435D02*
X6499134Y-9877435D01*
X6499134Y-9877435D02*
X6480086Y-9867911D01*
X6480086Y-9867911D02*
X6470563Y-9858387D01*
X6470563Y-9858387D02*
X6461039Y-9839339D01*
X6461039Y-9839339D02*
X6451515Y-9801244D01*
X6451515Y-9801244D02*
X6451515Y-9753625D01*
X6451515Y-9753625D02*
X6461039Y-9715530D01*
X6461039Y-9715530D02*
X6470563Y-9696482D01*
X6470563Y-9696482D02*
X6480086Y-9686959D01*
X6480086Y-9686959D02*
X6499134Y-9677435D01*
X6651515Y-9858387D02*
X6661039Y-9867911D01*
X6661039Y-9867911D02*
X6651515Y-9877435D01*
X6651515Y-9877435D02*
X6641991Y-9867911D01*
X6641991Y-9867911D02*
X6651515Y-9858387D01*
X6651515Y-9858387D02*
X6651515Y-9877435D01*
X6784848Y-9677435D02*
X6803896Y-9677435D01*
X6803896Y-9677435D02*
X6822944Y-9686959D01*
X6822944Y-9686959D02*
X6832467Y-9696482D01*
X6832467Y-9696482D02*
X6841991Y-9715530D01*
X6841991Y-9715530D02*
X6851515Y-9753625D01*
X6851515Y-9753625D02*
X6851515Y-9801244D01*
X6851515Y-9801244D02*
X6841991Y-9839339D01*
X6841991Y-9839339D02*
X6832467Y-9858387D01*
X6832467Y-9858387D02*
X6822944Y-9867911D01*
X6822944Y-9867911D02*
X6803896Y-9877435D01*
X6803896Y-9877435D02*
X6784848Y-9877435D01*
X6784848Y-9877435D02*
X6765801Y-9867911D01*
X6765801Y-9867911D02*
X6756277Y-9858387D01*
X6756277Y-9858387D02*
X6746753Y-9839339D01*
X6746753Y-9839339D02*
X6737229Y-9801244D01*
X6737229Y-9801244D02*
X6737229Y-9753625D01*
X6737229Y-9753625D02*
X6746753Y-9715530D01*
X6746753Y-9715530D02*
X6756277Y-9696482D01*
X6756277Y-9696482D02*
X6765801Y-9686959D01*
X6765801Y-9686959D02*
X6784848Y-9677435D01*
X6927706Y-9696482D02*
X6937229Y-9686959D01*
X6937229Y-9686959D02*
X6956277Y-9677435D01*
X6956277Y-9677435D02*
X7003896Y-9677435D01*
X7003896Y-9677435D02*
X7022944Y-9686959D01*
X7022944Y-9686959D02*
X7032467Y-9696482D01*
X7032467Y-9696482D02*
X7041991Y-9715530D01*
X7041991Y-9715530D02*
X7041991Y-9734578D01*
X7041991Y-9734578D02*
X7032467Y-9763149D01*
X7032467Y-9763149D02*
X6918182Y-9877435D01*
X6918182Y-9877435D02*
X7041991Y-9877435D01*
X7108658Y-9677435D02*
X7232467Y-9677435D01*
X7232467Y-9677435D02*
X7165801Y-9753625D01*
X7165801Y-9753625D02*
X7194372Y-9753625D01*
X7194372Y-9753625D02*
X7213420Y-9763149D01*
X7213420Y-9763149D02*
X7222944Y-9772673D01*
X7222944Y-9772673D02*
X7232467Y-9791720D01*
X7232467Y-9791720D02*
X7232467Y-9839339D01*
X7232467Y-9839339D02*
X7222944Y-9858387D01*
X7222944Y-9858387D02*
X7213420Y-9867911D01*
X7213420Y-9867911D02*
X7194372Y-9877435D01*
X7194372Y-9877435D02*
X7137229Y-9877435D01*
X7137229Y-9877435D02*
X7118182Y-9867911D01*
X7118182Y-9867911D02*
X7108658Y-9858387D01*
X7403896Y-9677435D02*
X7365801Y-9677435D01*
X7365801Y-9677435D02*
X7346753Y-9686959D01*
X7346753Y-9686959D02*
X7337229Y-9696482D01*
X7337229Y-9696482D02*
X7318182Y-9725054D01*
X7318182Y-9725054D02*
X7308658Y-9763149D01*
X7308658Y-9763149D02*
X7308658Y-9839339D01*
X7308658Y-9839339D02*
X7318182Y-9858387D01*
X7318182Y-9858387D02*
X7327706Y-9867911D01*
X7327706Y-9867911D02*
X7346753Y-9877435D01*
X7346753Y-9877435D02*
X7384848Y-9877435D01*
X7384848Y-9877435D02*
X7403896Y-9867911D01*
X7403896Y-9867911D02*
X7413420Y-9858387D01*
X7413420Y-9858387D02*
X7422944Y-9839339D01*
X7422944Y-9839339D02*
X7422944Y-9791720D01*
X7422944Y-9791720D02*
X7413420Y-9772673D01*
X7413420Y-9772673D02*
X7403896Y-9763149D01*
X7403896Y-9763149D02*
X7384848Y-9753625D01*
X7384848Y-9753625D02*
X7346753Y-9753625D01*
X7346753Y-9753625D02*
X7327706Y-9763149D01*
X7327706Y-9763149D02*
X7318182Y-9772673D01*
X7318182Y-9772673D02*
X7308658Y-9791720D01*
X7499134Y-9677435D02*
X7499134Y-9715530D01*
X7575325Y-9677435D02*
X7575325Y-9715530D01*
X7870563Y-9953625D02*
X7861039Y-9944101D01*
X7861039Y-9944101D02*
X7841991Y-9915530D01*
X7841991Y-9915530D02*
X7832468Y-9896482D01*
X7832468Y-9896482D02*
X7822944Y-9867911D01*
X7822944Y-9867911D02*
X7813420Y-9820292D01*
X7813420Y-9820292D02*
X7813420Y-9782197D01*
X7813420Y-9782197D02*
X7822944Y-9734578D01*
X7822944Y-9734578D02*
X7832468Y-9706006D01*
X7832468Y-9706006D02*
X7841991Y-9686959D01*
X7841991Y-9686959D02*
X7861039Y-9658387D01*
X7861039Y-9658387D02*
X7870563Y-9648863D01*
X7937229Y-9696482D02*
X7946753Y-9686959D01*
X7946753Y-9686959D02*
X7965801Y-9677435D01*
X7965801Y-9677435D02*
X8013420Y-9677435D01*
X8013420Y-9677435D02*
X8032468Y-9686959D01*
X8032468Y-9686959D02*
X8041991Y-9696482D01*
X8041991Y-9696482D02*
X8051515Y-9715530D01*
X8051515Y-9715530D02*
X8051515Y-9734578D01*
X8051515Y-9734578D02*
X8041991Y-9763149D01*
X8041991Y-9763149D02*
X7927706Y-9877435D01*
X7927706Y-9877435D02*
X8051515Y-9877435D01*
X8289610Y-9877435D02*
X8289610Y-9677435D01*
X8375325Y-9877435D02*
X8375325Y-9772673D01*
X8375325Y-9772673D02*
X8365801Y-9753625D01*
X8365801Y-9753625D02*
X8346753Y-9744101D01*
X8346753Y-9744101D02*
X8318182Y-9744101D01*
X8318182Y-9744101D02*
X8299134Y-9753625D01*
X8299134Y-9753625D02*
X8289610Y-9763149D01*
X8499134Y-9877435D02*
X8480087Y-9867911D01*
X8480087Y-9867911D02*
X8470563Y-9858387D01*
X8470563Y-9858387D02*
X8461039Y-9839339D01*
X8461039Y-9839339D02*
X8461039Y-9782197D01*
X8461039Y-9782197D02*
X8470563Y-9763149D01*
X8470563Y-9763149D02*
X8480087Y-9753625D01*
X8480087Y-9753625D02*
X8499134Y-9744101D01*
X8499134Y-9744101D02*
X8527706Y-9744101D01*
X8527706Y-9744101D02*
X8546753Y-9753625D01*
X8546753Y-9753625D02*
X8556277Y-9763149D01*
X8556277Y-9763149D02*
X8565801Y-9782197D01*
X8565801Y-9782197D02*
X8565801Y-9839339D01*
X8565801Y-9839339D02*
X8556277Y-9858387D01*
X8556277Y-9858387D02*
X8546753Y-9867911D01*
X8546753Y-9867911D02*
X8527706Y-9877435D01*
X8527706Y-9877435D02*
X8499134Y-9877435D01*
X8680087Y-9877435D02*
X8661039Y-9867911D01*
X8661039Y-9867911D02*
X8651515Y-9848863D01*
X8651515Y-9848863D02*
X8651515Y-9677435D01*
X8832468Y-9867911D02*
X8813420Y-9877435D01*
X8813420Y-9877435D02*
X8775325Y-9877435D01*
X8775325Y-9877435D02*
X8756277Y-9867911D01*
X8756277Y-9867911D02*
X8746753Y-9848863D01*
X8746753Y-9848863D02*
X8746753Y-9772673D01*
X8746753Y-9772673D02*
X8756277Y-9753625D01*
X8756277Y-9753625D02*
X8775325Y-9744101D01*
X8775325Y-9744101D02*
X8813420Y-9744101D01*
X8813420Y-9744101D02*
X8832468Y-9753625D01*
X8832468Y-9753625D02*
X8841992Y-9772673D01*
X8841992Y-9772673D02*
X8841992Y-9791720D01*
X8841992Y-9791720D02*
X8746753Y-9810768D01*
X8918182Y-9867911D02*
X8937230Y-9877435D01*
X8937230Y-9877435D02*
X8975325Y-9877435D01*
X8975325Y-9877435D02*
X8994373Y-9867911D01*
X8994373Y-9867911D02*
X9003896Y-9848863D01*
X9003896Y-9848863D02*
X9003896Y-9839339D01*
X9003896Y-9839339D02*
X8994373Y-9820292D01*
X8994373Y-9820292D02*
X8975325Y-9810768D01*
X8975325Y-9810768D02*
X8946753Y-9810768D01*
X8946753Y-9810768D02*
X8927706Y-9801244D01*
X8927706Y-9801244D02*
X8918182Y-9782197D01*
X8918182Y-9782197D02*
X8918182Y-9772673D01*
X8918182Y-9772673D02*
X8927706Y-9753625D01*
X8927706Y-9753625D02*
X8946753Y-9744101D01*
X8946753Y-9744101D02*
X8975325Y-9744101D01*
X8975325Y-9744101D02*
X8994373Y-9753625D01*
X9070563Y-9953625D02*
X9080087Y-9944101D01*
X9080087Y-9944101D02*
X9099134Y-9915530D01*
X9099134Y-9915530D02*
X9108658Y-9896482D01*
X9108658Y-9896482D02*
X9118182Y-9867911D01*
X9118182Y-9867911D02*
X9127706Y-9820292D01*
X9127706Y-9820292D02*
X9127706Y-9782197D01*
X9127706Y-9782197D02*
X9118182Y-9734578D01*
X9118182Y-9734578D02*
X9108658Y-9706006D01*
X9108658Y-9706006D02*
X9099134Y-9686959D01*
X9099134Y-9686959D02*
X9080087Y-9658387D01*
X9080087Y-9658387D02*
X9070563Y-9648863D01*
X9432468Y-9953625D02*
X9422944Y-9944101D01*
X9422944Y-9944101D02*
X9403896Y-9915530D01*
X9403896Y-9915530D02*
X9394373Y-9896482D01*
X9394373Y-9896482D02*
X9384849Y-9867911D01*
X9384849Y-9867911D02*
X9375325Y-9820292D01*
X9375325Y-9820292D02*
X9375325Y-9782197D01*
X9375325Y-9782197D02*
X9384849Y-9734578D01*
X9384849Y-9734578D02*
X9394373Y-9706006D01*
X9394373Y-9706006D02*
X9403896Y-9686959D01*
X9403896Y-9686959D02*
X9422944Y-9658387D01*
X9422944Y-9658387D02*
X9432468Y-9648863D01*
X9508658Y-9744101D02*
X9508658Y-9877435D01*
X9508658Y-9763149D02*
X9518182Y-9753625D01*
X9518182Y-9753625D02*
X9537230Y-9744101D01*
X9537230Y-9744101D02*
X9565801Y-9744101D01*
X9565801Y-9744101D02*
X9584849Y-9753625D01*
X9584849Y-9753625D02*
X9594373Y-9772673D01*
X9594373Y-9772673D02*
X9594373Y-9877435D01*
X9718182Y-9877435D02*
X9699134Y-9867911D01*
X9699134Y-9867911D02*
X9689611Y-9858387D01*
X9689611Y-9858387D02*
X9680087Y-9839339D01*
X9680087Y-9839339D02*
X9680087Y-9782197D01*
X9680087Y-9782197D02*
X9689611Y-9763149D01*
X9689611Y-9763149D02*
X9699134Y-9753625D01*
X9699134Y-9753625D02*
X9718182Y-9744101D01*
X9718182Y-9744101D02*
X9746754Y-9744101D01*
X9746754Y-9744101D02*
X9765801Y-9753625D01*
X9765801Y-9753625D02*
X9775325Y-9763149D01*
X9775325Y-9763149D02*
X9784849Y-9782197D01*
X9784849Y-9782197D02*
X9784849Y-9839339D01*
X9784849Y-9839339D02*
X9775325Y-9858387D01*
X9775325Y-9858387D02*
X9765801Y-9867911D01*
X9765801Y-9867911D02*
X9746754Y-9877435D01*
X9746754Y-9877435D02*
X9718182Y-9877435D01*
X9841992Y-9744101D02*
X9918182Y-9744101D01*
X9870563Y-9677435D02*
X9870563Y-9848863D01*
X9870563Y-9848863D02*
X9880087Y-9867911D01*
X9880087Y-9867911D02*
X9899134Y-9877435D01*
X9899134Y-9877435D02*
X9918182Y-9877435D01*
X10137230Y-9744101D02*
X10137230Y-9944101D01*
X10137230Y-9753625D02*
X10156277Y-9744101D01*
X10156277Y-9744101D02*
X10194373Y-9744101D01*
X10194373Y-9744101D02*
X10213420Y-9753625D01*
X10213420Y-9753625D02*
X10222944Y-9763149D01*
X10222944Y-9763149D02*
X10232468Y-9782197D01*
X10232468Y-9782197D02*
X10232468Y-9839339D01*
X10232468Y-9839339D02*
X10222944Y-9858387D01*
X10222944Y-9858387D02*
X10213420Y-9867911D01*
X10213420Y-9867911D02*
X10194373Y-9877435D01*
X10194373Y-9877435D02*
X10156277Y-9877435D01*
X10156277Y-9877435D02*
X10137230Y-9867911D01*
X10346754Y-9877435D02*
X10327706Y-9867911D01*
X10327706Y-9867911D02*
X10318182Y-9848863D01*
X10318182Y-9848863D02*
X10318182Y-9677435D01*
X10508658Y-9877435D02*
X10508658Y-9772673D01*
X10508658Y-9772673D02*
X10499135Y-9753625D01*
X10499135Y-9753625D02*
X10480087Y-9744101D01*
X10480087Y-9744101D02*
X10441992Y-9744101D01*
X10441992Y-9744101D02*
X10422944Y-9753625D01*
X10508658Y-9867911D02*
X10489611Y-9877435D01*
X10489611Y-9877435D02*
X10441992Y-9877435D01*
X10441992Y-9877435D02*
X10422944Y-9867911D01*
X10422944Y-9867911D02*
X10413420Y-9848863D01*
X10413420Y-9848863D02*
X10413420Y-9829816D01*
X10413420Y-9829816D02*
X10422944Y-9810768D01*
X10422944Y-9810768D02*
X10441992Y-9801244D01*
X10441992Y-9801244D02*
X10489611Y-9801244D01*
X10489611Y-9801244D02*
X10508658Y-9791720D01*
X10575325Y-9744101D02*
X10651515Y-9744101D01*
X10603896Y-9677435D02*
X10603896Y-9848863D01*
X10603896Y-9848863D02*
X10613420Y-9867911D01*
X10613420Y-9867911D02*
X10632468Y-9877435D01*
X10632468Y-9877435D02*
X10651515Y-9877435D01*
X10794373Y-9867911D02*
X10775325Y-9877435D01*
X10775325Y-9877435D02*
X10737230Y-9877435D01*
X10737230Y-9877435D02*
X10718182Y-9867911D01*
X10718182Y-9867911D02*
X10708658Y-9848863D01*
X10708658Y-9848863D02*
X10708658Y-9772673D01*
X10708658Y-9772673D02*
X10718182Y-9753625D01*
X10718182Y-9753625D02*
X10737230Y-9744101D01*
X10737230Y-9744101D02*
X10775325Y-9744101D01*
X10775325Y-9744101D02*
X10794373Y-9753625D01*
X10794373Y-9753625D02*
X10803896Y-9772673D01*
X10803896Y-9772673D02*
X10803896Y-9791720D01*
X10803896Y-9791720D02*
X10708658Y-9810768D01*
X10975325Y-9877435D02*
X10975325Y-9677435D01*
X10975325Y-9867911D02*
X10956277Y-9877435D01*
X10956277Y-9877435D02*
X10918182Y-9877435D01*
X10918182Y-9877435D02*
X10899135Y-9867911D01*
X10899135Y-9867911D02*
X10889611Y-9858387D01*
X10889611Y-9858387D02*
X10880087Y-9839339D01*
X10880087Y-9839339D02*
X10880087Y-9782197D01*
X10880087Y-9782197D02*
X10889611Y-9763149D01*
X10889611Y-9763149D02*
X10899135Y-9753625D01*
X10899135Y-9753625D02*
X10918182Y-9744101D01*
X10918182Y-9744101D02*
X10956277Y-9744101D01*
X10956277Y-9744101D02*
X10975325Y-9753625D01*
X11051516Y-9953625D02*
X11061039Y-9944101D01*
X11061039Y-9944101D02*
X11080087Y-9915530D01*
X11080087Y-9915530D02*
X11089611Y-9896482D01*
X11089611Y-9896482D02*
X11099135Y-9867911D01*
X11099135Y-9867911D02*
X11108658Y-9820292D01*
X11108658Y-9820292D02*
X11108658Y-9782197D01*
X11108658Y-9782197D02*
X11099135Y-9734578D01*
X11099135Y-9734578D02*
X11089611Y-9706006D01*
X11089611Y-9706006D02*
X11080087Y-9686959D01*
X11080087Y-9686959D02*
X11061039Y-9658387D01*
X11061039Y-9658387D02*
X11051516Y-9648863D01*
M02*
